<svg width="36" height="36" viewBox="0 0 36 36" fill="none" xmlns="http://www.w3.org/2000/svg">
<path d="M26.2869 1.7946C22.5647 1.7946 20.9094 4.07107 18.6775 6.64432C18.6168 6.71454 18.5452 6.8075 18.4766 6.86823C18.1803 7.13013 17.7572 7.11516 17.4752 6.82333C17.4468 6.79369 17.4192 6.76088 17.3921 6.72951L15.4726 4.52929C14.1339 2.99504 12.3935 2.05507 10.5302 1.84126C10.0498 1.78629 9.56193 1.77622 9.0805 1.8191C7.1364 1.99149 5.32935 2.9496 3.95076 4.5296C2.41769 6.28665 1.56469 8.64778 1.56469 11.1323C1.56469 13.522 2.35996 15.9115 3.95076 17.7347L17.9996 33.8361L30.0749 19.9966L32.0481 17.7354C33.5811 15.9783 34.4341 13.6172 34.4341 11.133C34.4341 5.97559 30.7867 1.79589 26.2873 1.79589L26.2869 1.7946ZM35.9997 11.1317C35.9997 13.9803 35.0513 16.829 33.1549 19.0026L18.559 35.731C18.2556 36.0881 17.7532 36.089 17.4465 35.7376L2.84486 19.0026C1.01724 16.908 0 14.0936 0 11.1317C0 8.28332 0.948202 5.43438 2.84486 3.26076C4.51248 1.34951 6.70774 0.208322 9.06089 0.0284763C9.4451 -0.000879607 9.82903 -0.00778683 10.213 0.0146618C12.5287 0.150795 14.8104 1.23262 16.5797 3.25991L18.0015 4.88972C20.4047 2.13457 22.2898 0 26.2872 0C31.651 0 36 4.9841 36 11.1319L35.9997 11.1317Z" fill="black"/>
<path d="M7.35305 16.5641C6.92088 16.5641 6.57031 16.9659 6.57031 17.4612C6.57031 17.9565 6.92086 18.3583 7.35305 18.3583H12.8316C13.2017 18.3583 13.5121 18.0636 13.5935 17.6678L14.2399 15.0756L15.9758 25.6991C16.0554 26.186 16.4645 26.5067 16.8894 26.4154C17.2354 26.3409 17.4855 26.016 17.523 25.6349L19.1173 15.8918L19.8909 20.328C19.9758 20.8138 20.3882 21.129 20.812 21.0317C21.0837 20.9692 21.2942 20.7528 21.3881 20.4774L22.7042 17.4612H29.2677C29.6998 17.4612 30.0504 17.0594 30.0504 16.5641C30.0504 16.0688 29.6998 15.667 29.2677 15.667H22.2362C21.9451 15.6621 21.6631 15.8443 21.524 16.1629L20.9796 17.4192L19.8654 11.0328C19.8124 10.6728 19.5691 10.3717 19.2379 10.3007C18.813 10.2094 18.4039 10.53 18.3244 11.017L16.7454 20.679L15.1752 11.0811C15.1403 10.7311 14.9263 10.4229 14.6124 10.3202C14.1968 10.184 13.7637 10.4597 13.6449 10.9361L12.2424 16.5643L7.35305 16.5641Z" fill="black"/>
</svg>
