<svg width="24" height="23" viewBox="0 0 24 23" fill="none" xmlns="http://www.w3.org/2000/svg">
<path d="M4.0938 22.5617C4.25046 22.7517 4.52399 22.8571 4.80518 22.8571C4.95121 22.8571 5.10021 22.8285 5.23439 22.7685C5.62677 22.5927 5.7523 22.216 5.51434 21.926C3.46693 19.4309 3.17164 16.4527 4.76191 14.34C6.07227 12.5986 8.53161 11.6246 11.6885 11.5974C15.1036 11.5399 17.7542 12.4782 19.1527 14.1595C20.7623 16.0957 20.6089 18.8312 18.7398 21.4778C18.5281 21.7781 18.6857 22.1485 19.0922 22.3051C19.4997 22.4624 20.0002 22.3451 20.2123 22.0449C21.9395 19.5991 22.3366 17.0598 21.4278 14.956C25.3529 11.7222 24.0865 6.16642 22.2261 3.15201C22.2254 3.15055 22.2244 3.14927 22.2236 3.14781C22.2204 3.1427 22.2175 3.13668 22.2143 3.13157C22.1972 3.10401 22.1666 3.08576 22.1448 3.06094C22.1164 3.02809 22.0942 2.99342 22.0573 2.96495C22.0492 2.95874 22.0413 2.95308 22.0329 2.94706C21.9919 2.91786 21.9424 2.89979 21.895 2.87771C21.8634 2.86293 21.8404 2.84157 21.8055 2.82971C21.8021 2.82862 21.7986 2.82898 21.7952 2.82789C21.786 2.82497 21.7769 2.82278 21.7675 2.82004C21.7144 2.80435 21.6578 2.80124 21.6012 2.79394C21.557 2.7881 21.514 2.77551 21.4697 2.77515C21.4668 2.77515 21.4646 2.77387 21.4616 2.77387H21.4366H21.4352L15.6047 2.7642H15.6025C15.5718 2.7642 15.5459 2.7746 15.5162 2.77715C15.4591 2.78172 15.4058 2.78865 15.3517 2.80161C15.3008 2.81365 15.2548 2.8288 15.2088 2.8476C15.1626 2.8664 15.1211 2.88666 15.0804 2.91148C15.0383 2.93721 15.0028 2.96458 14.9682 2.99561C14.9348 3.02554 14.9064 3.05602 14.8809 3.0907C14.8545 3.12665 14.836 3.16351 14.8197 3.2033C14.8105 3.22575 14.7908 3.24363 14.7848 3.26718C14.3524 5.01079 14.2575 7.46455 14.4937 10.5504C13.6096 10.4203 12.665 10.3588 11.6682 10.3709C10.9072 10.3774 10.1891 10.4439 9.49846 10.5431C9.98622 4.16065 9.04751 0.63418 6.6969 0.0749347C5.92397 -0.108663 4.37051 -0.109574 2.63659 1.9425C-0.0720439 5.14669 -1.5907 11.5777 2.6062 14.9916C1.60226 17.3153 2.1133 20.1467 4.0938 22.5617ZM20.092 3.99772C19.2472 5.06099 18.4045 5.58314 17.9012 5.53932C17.5447 5.5061 17.0423 5.06351 16.6534 3.99207L20.092 3.99772ZM16.0705 5.99629C16.5239 6.4363 17.0631 6.69766 17.6956 6.75625C17.7831 6.76428 17.8708 6.76829 17.9593 6.76829C19.1073 6.76829 20.2896 6.08192 21.3435 4.8385C22.6978 7.7775 22.8436 11.4228 20.6837 13.6855C20.6415 13.6309 20.6123 13.5709 20.5678 13.5174C19.5654 12.3125 18.0551 11.4371 16.1846 10.9171C16.024 9.02697 15.9865 7.38319 16.0705 5.99629ZM4.04547 2.59228C4.94814 1.52317 5.76547 1.14702 6.18803 1.24214C7.08051 1.45476 8.41161 3.73459 7.81042 10.8825C5.87914 11.4252 4.34246 12.389 3.33111 13.7197C0.438147 10.738 1.68449 5.38523 4.04547 2.59228Z" fill="black"/>
</svg>
