<svg width="24" height="24" viewBox="0 0 24 24" fill="none" xmlns="http://www.w3.org/2000/svg">
<path d="M14.4461 1.35474L14.4464 1.35493L21.3514 6.19141C21.3514 6.19143 21.3515 6.19145 21.3515 6.19147C21.9301 6.59694 22.4723 7.25705 22.8703 8.02036C23.2684 8.78368 23.5 9.60752 23.5 10.3185V18.4554C23.5 21.2401 21.2418 23.5 18.4615 23.5H5.53846C2.75959 23.5 0.5 21.2295 0.5 18.4434V10.1624C0.5 9.5018 0.709711 8.71956 1.07205 7.98283C1.43426 7.24636 1.92771 6.59866 2.45358 6.18803L2.45369 6.18794L8.45831 1.49649C8.45855 1.49629 8.4588 1.4961 8.45905 1.49591C10.096 0.226726 12.7439 0.160743 14.4461 1.35474ZM12 20.5996C12.7682 20.5996 13.3991 19.9671 13.3991 19.1995V15.5991C13.3991 14.8314 12.7682 14.1989 12 14.1989C11.2318 14.1989 10.6009 14.8314 10.6009 15.5991V19.1995C10.6009 19.9671 11.2318 20.5996 12 20.5996Z" stroke="black"/>
</svg>
