<svg width="23" height="23" viewBox="0 0 23 23" fill="none" xmlns="http://www.w3.org/2000/svg">
<g clip-path="url(#clip0_204_8442)">
<path d="M22.103 0.291016H0.359375V22.0136H22.103V0.291016Z" fill="white"/>
<path fill-rule="evenodd" clip-rule="evenodd" d="M21.2364 11.3887C21.2364 10.6507 21.1701 9.94105 21.047 9.25977H11.2344V13.286H16.8416C16.6 14.5871 15.866 15.6895 14.7625 16.4276V19.0392H18.1297C20.0999 17.2271 21.2364 14.5587 21.2364 11.3887Z" fill="#4285F4"/>
<path fill-rule="evenodd" clip-rule="evenodd" d="M11.2325 21.562C14.0456 21.562 16.404 20.63 18.1278 19.0403L14.7607 16.4286C13.8278 17.0531 12.6343 17.4222 11.2325 17.4222C8.51888 17.4222 6.22203 15.5912 5.40275 13.1309H1.92188V15.8278C3.63627 19.2296 7.15972 21.562 11.2325 21.562Z" fill="#34A853"/>
<path fill-rule="evenodd" clip-rule="evenodd" d="M5.40148 13.1306C5.19311 12.5061 5.07469 11.839 5.07469 11.1529C5.07469 10.4669 5.19311 9.79982 5.40148 9.1753V6.47852H1.9207C1.21503 7.8837 0.8125 9.47335 0.8125 11.1529C0.8125 12.8325 1.21503 14.4223 1.9207 15.8274L5.40148 13.1306Z" fill="#FBBC05"/>
<path fill-rule="evenodd" clip-rule="evenodd" d="M11.2325 4.88402C12.7621 4.88402 14.1356 5.40916 15.2154 6.44053L18.2037 3.45512C16.3993 1.77551 14.0408 0.744141 11.2325 0.744141C7.15972 0.744141 3.63627 3.0766 1.92188 6.47846L5.40275 9.17523C6.22203 6.71496 8.51888 4.88402 11.2325 4.88402Z" fill="#EA4335"/>
</g>
<defs>
<clipPath id="clip0_204_8442">
<rect width="23" height="23" fill="white"/>
</clipPath>
</defs>
</svg>
