<svg width="24" height="24" viewBox="0 0 24 24" fill="none" xmlns="http://www.w3.org/2000/svg">
<path d="M9.15323 17.4002L10.0231 18.2402L16.2031 11.9102L9.87312 5.73024L9.03312 6.60013L14.4931 11.9401L9.15323 17.4002Z" fill="black"/>
<path d="M3.99 24L20.01 24C22.1999 24 24 22.1999 24 20.01L24 3.99C24 1.80005 22.1999 0 20.01 0L3.99 0C1.80005 0 0 1.80011 0 3.99L0 20.01C0 22.1999 1.80011 24 3.99 24ZM1.19989 3.99C1.19989 2.46005 2.45989 1.20011 3.98979 1.20011L20.0098 1.1999C21.5397 1.1999 22.7997 2.4599 22.7997 3.98979L22.7999 20.0098C22.7999 21.5397 21.5399 22.7997 20.01 22.7997L3.99 22.7997C2.46005 22.7997 1.2001 21.5397 1.2001 20.0098L1.19989 3.99Z" fill="black"/>
</svg>
