<svg width="24" height="30" viewBox="0 0 24 30" fill="none" xmlns="http://www.w3.org/2000/svg">
<path d="M1.68437 7.03718L7.03718 1.68354C8.12407 0.597535 9.56758 0 11.104 0H18.2486C21.4196 0 24 2.57937 24 5.75142V23.2981C24 26.4691 21.4206 29.0496 18.2486 29.0496H5.75142C2.58043 29.0496 0 26.4702 0 23.2981V11.104C0 9.56758 0.598593 8.12296 1.6846 7.03695L1.68437 7.03718ZM2.99537 8.20807H7.13549C7.72623 8.20807 8.20779 7.72654 8.20779 7.13577V2.99475L2.99537 8.20807ZM1.75445 23.2982C1.75445 25.5022 3.54722 27.295 5.7512 27.295H18.2484C20.4523 27.295 22.2451 25.5022 22.2451 23.2982V5.75153C22.2451 3.54755 20.4523 1.75478 18.2484 1.75478H11.1038C10.7091 1.75478 10.3298 1.82985 9.9623 1.93995V7.13584C9.9623 8.69466 8.69414 9.96281 7.13533 9.96281H1.93855C1.82845 10.3303 1.75425 10.7105 1.75425 11.1043L1.75445 23.2982Z" fill="black"/>
<path d="M18.4586 8.57889H13.3476C12.863 8.57889 12.4702 8.18613 12.4702 7.70155C12.4702 7.21698 12.863 6.82422 13.3476 6.82422H18.4586C18.9432 6.82422 19.3359 7.21698 19.3359 7.70155C19.3359 8.18613 18.943 8.57889 18.4586 8.57889Z" fill="black"/>
<path d="M5.54031 13.6484H18.4508C18.9354 13.6484 19.3281 14.0412 19.3281 14.5258C19.3281 15.0104 18.9354 15.4031 18.4508 15.4031H5.54143C5.05685 15.4031 4.66409 15.0104 4.66409 14.5258C4.66409 14.0412 5.05598 13.6484 5.54031 13.6484Z" fill="black"/>
<path d="M5.54031 20.4727H18.4508C18.9354 20.4727 19.3281 20.8654 19.3281 21.35C19.3281 21.8346 18.9354 22.2273 18.4508 22.2273H5.54143C5.05685 22.2273 4.66409 21.8346 4.66409 21.35C4.66409 20.8654 5.05598 20.4727 5.54031 20.4727Z" fill="black"/>
</svg>
