<svg width="310" height="24" viewBox="0 0 310 24" fill="none" xmlns="http://www.w3.org/2000/svg">
<path d="M5.936 16.4798C5.09333 16.4798 4.30933 16.3251 3.584 16.0158C2.86933 15.7064 2.24 15.2798 1.696 14.7358C1.16267 14.1811 0.746667 13.5304 0.448 12.7838C0.149333 12.0371 0 11.2158 0 10.3198C0 9.43445 0.144 8.61845 0.432 7.87178C0.730667 7.11445 1.14667 6.46378 1.68 5.91978C2.21333 5.36511 2.83733 4.93845 3.552 4.63978C4.26667 4.33045 5.05067 4.17578 5.904 4.17578C6.74667 4.17578 7.49867 4.31978 8.16 4.60778C8.832 4.89578 9.39733 5.27445 9.856 5.74378C10.3147 6.20245 10.6453 6.70378 10.848 7.24778L9.168 8.06378C8.92267 7.41311 8.51733 6.89045 7.952 6.49578C7.38667 6.09045 6.704 5.88778 5.904 5.88778C5.11467 5.88778 4.416 6.07445 3.808 6.44778C3.2 6.82111 2.72533 7.33845 2.384 7.99978C2.05333 8.66111 1.888 9.43445 1.888 10.3198C1.888 11.2051 2.05867 11.9838 2.4 12.6558C2.752 13.3171 3.232 13.8344 3.84 14.2078C4.448 14.5704 5.14667 14.7518 5.936 14.7518C6.59733 14.7518 7.2 14.6184 7.744 14.3518C8.29867 14.0744 8.74133 13.6904 9.072 13.1998C9.40267 12.6984 9.568 12.1171 9.568 11.4558V10.6398L10.416 11.4078H5.904V9.80778H11.44V10.9278C11.44 11.8024 11.2907 12.5864 10.992 13.2798C10.6933 13.9624 10.288 14.5438 9.776 15.0238C9.264 15.5038 8.67733 15.8664 8.016 16.1118C7.35467 16.3571 6.66133 16.4798 5.936 16.4798Z" fill="black"/>
<path d="M15.9436 16.4798C15.357 16.4798 14.8396 16.3784 14.3916 16.1758C13.9543 15.9624 13.613 15.6744 13.3676 15.3118C13.1223 14.9384 12.9996 14.5011 12.9996 13.9998C12.9996 13.5304 13.101 13.1091 13.3036 12.7358C13.517 12.3624 13.8423 12.0478 14.2796 11.7918C14.717 11.5358 15.2663 11.3544 15.9276 11.2478L18.9356 10.7518V12.1758L16.2796 12.6398C15.7996 12.7251 15.4476 12.8798 15.2236 13.1038C14.9996 13.3171 14.8876 13.5944 14.8876 13.9358C14.8876 14.2664 15.0103 14.5384 15.2556 14.7518C15.5116 14.9544 15.837 15.0558 16.2316 15.0558C16.7223 15.0558 17.149 14.9491 17.5116 14.7358C17.885 14.5224 18.173 14.2398 18.3756 13.8878C18.5783 13.5251 18.6796 13.1251 18.6796 12.6878V10.4638C18.6796 10.0371 18.5196 9.69045 18.1996 9.42378C17.8903 9.14645 17.4743 9.00778 16.9516 9.00778C16.4716 9.00778 16.0503 9.13578 15.6876 9.39178C15.3356 9.63712 15.0743 9.95711 14.9036 10.3518L13.3996 9.59978C13.5596 9.17312 13.821 8.79978 14.1836 8.47978C14.5463 8.14911 14.9676 7.89311 15.4476 7.71178C15.9383 7.53045 16.4556 7.43978 16.9996 7.43978C17.6823 7.43978 18.285 7.56778 18.8076 7.82378C19.341 8.07978 19.7516 8.43712 20.0396 8.89578C20.3383 9.34378 20.4876 9.86645 20.4876 10.4638V16.2878H18.7596V14.7198L19.1276 14.7678C18.925 15.1198 18.6636 15.4238 18.3436 15.6798C18.0343 15.9358 17.677 16.1331 17.2716 16.2718C16.877 16.4104 16.4343 16.4798 15.9436 16.4798Z" fill="black"/>
<path d="M22.7616 16.2878V4.17578H24.5696V16.2878H22.7616Z" fill="black"/>
<path d="M26.8435 16.2878V4.17578H28.6515V16.2878H26.8435Z" fill="black"/>
<path d="M34.9894 16.4798C34.1254 16.4798 33.3574 16.2824 32.6854 15.8878C32.024 15.4824 31.5067 14.9384 31.1334 14.2558C30.76 13.5624 30.5734 12.7891 30.5734 11.9358C30.5734 11.0611 30.76 10.2878 31.1334 9.61578C31.5174 8.94378 32.0294 8.41578 32.6694 8.03178C33.3094 7.63711 34.0347 7.43978 34.8454 7.43978C35.496 7.43978 36.0774 7.55178 36.5894 7.77578C37.1014 7.99978 37.5334 8.30911 37.8854 8.70378C38.2374 9.08778 38.504 9.53045 38.6854 10.0318C38.8774 10.5331 38.9734 11.0664 38.9734 11.6318C38.9734 11.7704 38.968 11.9144 38.9574 12.0638C38.9467 12.2131 38.9254 12.3518 38.8934 12.4798H31.9974V11.0398H37.8694L37.0054 11.6958C37.112 11.1731 37.0747 10.7091 36.8934 10.3038C36.7227 9.88778 36.456 9.56245 36.0934 9.32778C35.7414 9.08245 35.3254 8.95978 34.8454 8.95978C34.3654 8.95978 33.9387 9.08245 33.5654 9.32778C33.192 9.56245 32.904 9.90378 32.7014 10.3518C32.4987 10.7891 32.4187 11.3224 32.4614 11.9518C32.408 12.5384 32.488 13.0504 32.7014 13.4878C32.9254 13.9251 33.2347 14.2664 33.6294 14.5118C34.0347 14.7571 34.4934 14.8798 35.0054 14.8798C35.528 14.8798 35.9707 14.7624 36.3334 14.5278C36.7067 14.2931 37 13.9891 37.2134 13.6158L38.6854 14.3358C38.5147 14.7411 38.248 15.1091 37.8854 15.4398C37.5334 15.7598 37.1067 16.0158 36.6054 16.2078C36.1147 16.3891 35.576 16.4798 34.9894 16.4798Z" fill="black"/>
<path d="M40.8979 16.2878V7.63178H42.6259V9.37578L42.4659 9.11978C42.6579 8.55445 42.9672 8.14911 43.3939 7.90378C43.8205 7.64778 44.3325 7.51978 44.9299 7.51978H45.4579V9.16778H44.7059C44.1085 9.16778 43.6232 9.35445 43.2499 9.72778C42.8872 10.0904 42.7059 10.6131 42.7059 11.2958V16.2878H40.8979Z" fill="black"/>
<path d="M47.6227 19.8238C47.4094 19.8238 47.1961 19.8024 46.9827 19.7598C46.7801 19.7278 46.5934 19.6744 46.4227 19.5998V18.0478C46.5507 18.0798 46.7054 18.1064 46.8867 18.1278C47.0681 18.1598 47.2441 18.1758 47.4147 18.1758C47.9161 18.1758 48.2841 18.0638 48.5187 17.8398C48.7641 17.6264 48.9827 17.2904 49.1747 16.8318L49.7507 15.5198L49.7187 17.0398L45.9747 7.63178H47.9107L50.6787 14.8478H50.0227L52.7747 7.63178H54.7267L50.9027 17.2318C50.7001 17.7438 50.4441 18.1918 50.1347 18.5758C49.8361 18.9704 49.4787 19.2744 49.0627 19.4878C48.6574 19.7118 48.1774 19.8238 47.6227 19.8238Z" fill="black"/>
<path d="M296.856 0.000219469C291.48 0.000219469 286.906 3.45191 285.31 8.25022L284.185 6.25015C284.043 5.98762 283.754 5.83899 283.458 5.875C283.213 5.90265 282.999 6.05231 282.889 6.27248C282.779 6.49265 282.788 6.75366 282.913 6.96599L284.913 10.5341C285.102 10.8765 285.53 11.0072 285.879 10.8296L289.435 9.01143C289.615 8.92899 289.754 8.77654 289.819 8.5896C289.884 8.40241 289.87 8.19695 289.78 8.02041C289.691 7.84386 289.533 7.71171 289.343 7.65414C289.154 7.59681 288.949 7.61913 288.776 7.71603L286.663 8.79557C288.038 4.5459 292.072 1.45466 296.856 1.45466C302.778 1.45466 307.55 6.17259 307.55 12.0001C307.55 17.8277 302.778 22.5456 296.856 22.5456C291.79 22.5456 287.562 19.0733 286.447 14.4319V14.4322C286.421 14.228 286.309 14.0446 286.14 13.9272C285.971 13.8097 285.76 13.7696 285.56 13.8166C285.359 13.8632 285.188 13.9929 285.089 14.173C284.989 14.3533 284.971 14.5671 285.038 14.7617C286.309 20.0547 291.125 24 296.856 24C303.553 24 309.003 18.6241 309.003 12C309.003 5.37591 303.553 0 296.856 0L296.856 0.000219469ZM296.924 5.44334C296.549 5.48443 296.268 5.80504 296.276 6.18197V12.0003V12C296.276 12.2212 296.376 12.4302 296.549 12.5682L300.185 15.4774C300.499 15.7285 300.957 15.6775 301.208 15.3637C301.459 15.05 301.408 14.5921 301.094 14.341L297.731 11.6477V6.18172V6.18197C297.735 5.97245 297.649 5.77131 297.494 5.62977C297.34 5.48823 297.132 5.42025 296.924 5.44334H296.924Z" fill="black"/>
</svg>
