<svg width="15" height="15" viewBox="0 0 15 15" fill="none" xmlns="http://www.w3.org/2000/svg">
<path d="M9.02176 7.5L14.674 1.8478C15.1087 1.41309 15.1087 0.724656 14.674 0.326034C14.2393 -0.108678 13.5508 -0.108678 13.1522 0.326034L7.5 5.97824L1.8478 0.326034C1.41309 -0.108678 0.724656 -0.108678 0.326034 0.326034C-0.108678 0.760746 -0.108678 1.44918 0.326034 1.8478L5.97824 7.5L0.326034 13.1522C-0.108678 13.5869 -0.108678 14.2753 0.326034 14.674C0.54339 14.8913 0.833275 15 1.08705 15C1.3408 15 1.63043 14.8913 1.84806 14.674L7.50026 9.02176L13.1525 14.674C13.3698 14.8913 13.6597 15 13.9135 15C14.1672 15 14.4569 14.8913 14.6745 14.674C15.1092 14.2393 15.1092 13.5508 14.6745 13.1522L9.02176 7.5Z" fill="black"/>
</svg>
