<svg width="24" height="24" viewBox="0 0 24 24" fill="none" xmlns="http://www.w3.org/2000/svg">
<path d="M21.679 20.5816C21.679 21.7024 20.768 22.6475 19.6471 22.6475H3.38707C2.26597 22.6475 1.35515 21.7024 1.35515 20.5816L1.35493 4.3264C1.35493 3.20563 2.26598 2.3281 3.38686 2.3281H12.8714L12.8716 0.974609H3.38707C1.51917 0.974609 0 2.46036 0 4.32771V20.5813C0 22.4487 1.51917 24.0004 3.38707 24.0004H19.6455C21.5134 24.0004 23.0325 22.4474 23.0325 20.5813V11.1328H21.6773V20.5813L21.679 20.5816Z" fill="black"/>
<path d="M23.2087 0.768047C22.1856 -0.256016 20.4006 -0.256016 19.3762 0.768047L10.2876 9.85404C10.2011 9.9405 10.1387 10.05 10.1095 10.1681L9.15285 13.9982C9.09555 14.2284 9.16307 14.4727 9.33092 14.642C9.45937 14.7704 9.63254 14.8405 9.80934 14.8405C9.86409 14.8405 9.91883 14.8341 9.97358 14.82L13.8061 13.8622C13.9256 13.833 14.0338 13.7706 14.1202 13.6842L23.2089 4.59819C23.7203 4.0869 24.0028 3.40633 24.0028 2.68248C24.0028 1.95891 23.7214 1.2796 23.2087 0.768085L23.2087 0.768047ZM13.2955 12.594L10.7407 13.2326L11.3795 10.6785L18.8982 3.16196L20.8145 5.07767L13.2955 12.594ZM22.2506 3.63989L21.7722 4.11817L19.8559 2.20246L20.3343 1.72418C20.8458 1.21289 21.7391 1.21289 22.2506 1.72418C22.5064 1.97993 22.6476 2.31959 22.6476 2.68201C22.6476 3.04466 22.5064 3.38433 22.2506 3.63984V3.63989Z" fill="black"/>
</svg>
