<svg width="21" height="20" viewBox="0 0 21 20" fill="none" xmlns="http://www.w3.org/2000/svg">
<path d="M9.99996 19.9999C4.4705 19.9999 0 15.5294 0 9.99996C0 4.47057 4.47057 0 9.99996 0C12.5098 0 14.9019 0.941243 16.7842 2.62744C17.0194 2.86269 17.0194 3.21556 16.8233 3.45111C16.5883 3.72548 16.1961 3.72548 15.9608 3.49022C14.3138 1.99996 12.196 1.17658 10 1.17658C5.13721 1.17658 1.17651 5.13728 1.17651 10.0001C1.17651 14.8629 5.13721 18.8236 10 18.8236C14.8628 18.8236 18.8235 14.8629 18.8235 10.0001C18.8235 8.74504 18.5489 7.52942 18.0393 6.39224C17.9216 6.07848 18.0393 5.76473 18.353 5.608C18.6668 5.49038 18.9805 5.608 19.1373 5.92176C19.7254 7.21588 20 8.58828 20 10C20 15.5295 15.4904 20 10 20L9.99996 19.9999Z" fill="black"/>
<path d="M8.66701 14.1172C8.51027 14.1172 8.35325 14.0781 8.23563 13.9605L5.09831 10.8232C4.86306 10.5879 4.86306 10.2351 5.09831 9.99952C5.33356 9.76427 5.68643 9.76427 5.92198 9.99952L8.62792 12.7055L19.5691 1.76433C19.8043 1.52908 20.1572 1.52908 20.3927 1.76433C20.628 1.99958 20.628 2.35245 20.3927 2.58799L9.02022 13.9605C8.98083 14.0779 8.82381 14.1172 8.66707 14.1172H8.66701Z" fill="black"/>
</svg>
