<svg width="30" height="32" viewBox="0 0 30 32" fill="none" xmlns="http://www.w3.org/2000/svg">
<path d="M9.26879 14.723L8.44016 20.5258C8.39676 20.8336 8.48952 21.1449 8.69462 21.3785C8.89949 21.6121 9.19611 21.7448 9.50687 21.7419H9.63832L15.5406 21.0095V21.0092C15.7764 20.9795 15.9954 20.8718 16.1628 20.7037L27.8319 9.01679C28.757 8.15616 29.2925 6.95655 29.3153 5.69313C29.3381 4.42978 28.8463 3.2115 27.9527 2.31817C27.0594 1.42485 25.8411 0.933043 24.5777 0.955837C23.3146 0.978654 22.1147 1.51412 21.2541 2.43894L9.57037 14.1188C9.40693 14.2823 9.30078 14.4943 9.26829 14.7232L9.26879 14.723ZM11.331 15.3773L22.755 3.94627C23.4036 3.38626 24.2922 3.19402 25.1141 3.43585C25.9363 3.67767 26.5791 4.32055 26.821 5.1427C27.0628 5.9646 26.8706 6.85322 26.3106 7.50179L14.9011 18.9328L10.7484 19.445L11.331 15.3773Z" fill="black"/>
<path d="M15.822 0H3.91095C2.87375 0 1.87897 0.411952 1.14558 1.14558C0.411933 1.87897 0 2.87375 0 3.91121V28.0888C0 29.1262 0.411952 30.121 1.14558 30.8544C1.87897 31.5881 2.87375 32 3.91095 32H25.9552C26.9924 32 27.9872 31.588 28.7206 30.8544C29.4542 30.121 29.8662 29.1262 29.8662 28.0888V13.6C29.8662 13.2191 29.6628 12.8669 29.333 12.6764C29.0028 12.4857 28.5963 12.4857 28.2662 12.6764C27.9361 12.8669 27.733 13.2191 27.733 13.6V28.0888C27.733 28.5603 27.5455 29.0127 27.2122 29.346C26.8788 29.6793 26.4267 29.8666 25.9552 29.8666H3.91096C3.43948 29.8666 2.98735 29.6793 2.65402 29.346C2.32069 29.0127 2.13319 28.5603 2.13319 28.0888V3.91121C2.13319 3.43973 2.32069 2.98734 2.65402 2.65401C2.98735 2.32068 3.43947 2.13343 3.91096 2.13343H15.822C16.2032 2.13343 16.5551 1.93006 16.7458 1.59996C16.9363 1.2701 16.9363 0.863326 16.7458 0.533234C16.5551 0.203376 16.2032 6.29723e-06 15.822 6.29723e-06L15.822 0Z" fill="black"/>
</svg>
