<svg width="62" height="63" viewBox="0 0 62 63" fill="none" xmlns="http://www.w3.org/2000/svg">
<g clip-path="url(#clip0_204_7937)">
<mask id="mask0_204_7937" style="mask-type:alpha" maskUnits="userSpaceOnUse" x="0" y="0" width="62" height="63">
<path d="M31 63C48.1208 63 62 48.897 62 31.5C62 14.103 48.1208 0 31 0C13.8792 0 0 14.103 0 31.5C0 48.897 13.8792 63 31 63Z" fill="#D9D9D9"/>
</mask>
<g mask="url(#mask0_204_7937)">
<path d="M31 63C48.1208 63 62 48.897 62 31.5C62 14.103 48.1208 0 31 0C13.8792 0 0 14.103 0 31.5C0 48.897 13.8792 63 31 63Z" fill="#D3D3D3"/>
<path d="M78.0267 34.4114C9.15705 80.2899 85.516 65.1054 36.9804 64.0023C48.0836 62.8768 30.4503 51.5725 22.8415 49.4545C18.211 45.406 49.5057 30.3916 52.5836 34.4628C51.108 44.709 89.764 26.5923 78.0267 34.4114Z" fill="black"/>
<path d="M51.8305 27.3991C55.2214 35.0176 50.3273 44.8905 40.0515 49.7159C29.7753 54.541 18.0555 52.4869 14.6647 44.8682C11.2739 37.2494 16.6244 27.2018 26.9003 22.3765C37.1761 17.5512 48.4398 19.7802 51.8305 27.3991Z" fill="black"/>
<path d="M38.8839 9.58203L49.6828 24.5702L32.3047 21.8223L38.8839 9.58203Z" fill="black"/>
<path d="M10.1016 22.3809L23.201 25.7356L14.0401 42.2241L10.1016 22.3809Z" fill="black"/>
<path d="M41.699 34.8399C44.2943 33.9729 45.7407 31.2807 44.9296 28.8268C44.1184 26.3729 41.357 25.0865 38.7617 25.9536C36.1664 26.8206 34.72 29.5127 35.5312 31.9666C36.3423 34.4205 39.1038 35.7069 41.699 34.8399Z" fill="white"/>
<path d="M41.8584 29.65C42.6919 31.2855 42.2485 33.1843 40.8676 33.8913C39.4868 34.5981 37.6917 33.8454 36.8582 32.2099C36.0247 30.5744 36.4681 28.6756 37.849 27.9688C39.2298 27.2618 41.0249 28.0145 41.8584 29.65Z" fill="black"/>
<path d="M23.1 32.8904C20.5047 33.7574 19.0683 36.4798 19.8918 38.9709C20.7152 41.4621 23.4867 42.7787 26.082 41.9117C28.6773 41.0447 30.1137 38.3223 29.2903 35.8311C28.4668 33.34 25.6953 32.0233 23.1 32.8904Z" fill="white"/>
<path d="M27.6449 36.3019C28.3835 37.9838 27.8319 39.8537 26.4134 40.4785C24.9946 41.1034 23.2459 40.2463 22.5074 38.5646C21.769 36.8827 22.3204 35.0128 23.7391 34.3878C25.1578 33.7631 26.9066 34.62 27.6449 36.3019Z" fill="black"/>
</g>
</g>
<defs>
<clipPath id="clip0_204_7937">
<rect width="62" height="63" fill="white"/>
</clipPath>
</defs>
</svg>
