<svg width="96" height="96" viewBox="0 0 96 96" fill="none" xmlns="http://www.w3.org/2000/svg">
<g clip-path="url(#clip0_204_8364)">
<mask id="mask0_204_8364" style="mask-type:alpha" maskUnits="userSpaceOnUse" x="0" y="0" width="96" height="96">
<path d="M61.5763 93.3792C86.7008 85.8875 100.972 59.524 93.4519 34.4947C85.9318 9.46533 59.468 -4.75178 34.3435 2.73986C9.21901 10.2315 -5.05217 36.595 2.46796 61.6243C9.98809 86.6537 36.4518 100.871 61.5763 93.3792Z" fill="#D9D9D9"/>
</mask>
<g mask="url(#mask0_204_8364)">
<path d="M95.7612 47.3071C95.7612 21.1806 74.5009 0.000923157 48.2751 0.000923157C22.0493 0.000923157 0.789063 21.1806 0.789063 47.3071C0.789063 73.4336 22.0493 94.6133 48.2751 94.6133C74.5009 94.6133 95.7612 73.4336 95.7612 47.3071Z" fill="#D9D9D9"/>
</g>
</g>
<defs>
<clipPath id="clip0_204_8364">
<path d="M0 10C0 4.47715 4.47715 0 10 0H86C91.5228 0 96 4.47715 96 10V86C96 91.5228 91.5229 96 86 96H10C4.47715 96 0 91.5229 0 86V10Z" fill="white"/>
</clipPath>
</defs>
</svg>
