<svg width="21" height="24" viewBox="0 0 21 24" fill="none" xmlns="http://www.w3.org/2000/svg">
<path d="M18.5575 6.46128H17.2171C16.9581 2.85607 13.9495 0 10.2796 0C6.60951 0 3.60082 2.85601 3.34207 6.46128H1.99983C1.44756 6.46128 0.914359 6.69293 0.537911 7.0968C0.161023 7.50068 -0.0333772 8.04791 0.00470686 8.59868L0.938246 22.1373C1.01044 23.1817 1.88684 24 2.93379 24H17.6231C18.6701 24 19.5465 23.1818 19.6187 22.1373L20.5522 8.59868C20.5903 8.0477 20.3959 7.50025 20.019 7.09659C19.6428 6.6927 19.1097 6.46128 18.5575 6.46128ZM9.77924 22.9999H2.93331C2.40995 22.9999 1.97133 22.5908 1.93576 22.0685L1.00222 8.52931C0.982755 8.24994 1.07734 7.98336 1.2684 7.77887C1.45988 7.5738 1.71916 7.461 1.99939 7.461H3.34163C3.58709 10.9019 6.33848 13.6539 9.77933 13.9003L9.77924 22.9999ZM4.31654 6.96271C4.31654 3.67496 6.99137 1.00018 10.2796 1.00018C13.5665 1.00018 16.2405 3.6733 16.2421 6.96003C16.2421 6.96066 16.2417 6.96108 16.2417 6.96171C16.2417 6.96254 16.2421 6.96317 16.2421 6.96401C16.2419 10.2515 13.5671 12.9265 10.2791 12.9265C6.9911 12.9263 4.31654 10.2505 4.31654 6.96271ZM18.6207 22.0683C18.5851 22.5906 18.1465 22.9998 17.6231 22.9998H10.7794V13.9001C14.2201 13.6538 16.9717 10.9017 17.2171 7.46077H18.5572C18.8374 7.46077 19.0967 7.57356 19.2882 7.77864C19.4791 7.9833 19.5739 8.2499 19.5544 8.52929L18.6207 22.0683Z" fill="black"/>
<path d="M10.7812 5.55625V2.51751C10.7812 2.24128 10.5575 2.01758 10.2813 2.01758C10.0048 2.01758 9.78133 2.24149 9.78133 2.51751V5.55625C9.20061 5.76322 8.78125 6.31317 8.78125 6.96417C8.78125 7.79137 9.45406 8.46418 10.2813 8.46418C11.1085 8.46418 11.7813 7.79137 11.7813 6.96417C11.7813 6.31317 11.3619 5.7632 10.7812 5.55625ZM10.2813 7.4641C10.0054 7.4641 9.78133 7.23977 9.78133 6.96417C9.78133 6.68857 10.0054 6.46424 10.2813 6.46424C10.5571 6.46424 10.7812 6.68857 10.7812 6.96417C10.7812 7.23977 10.5571 7.4641 10.2813 7.4641Z" fill="black"/>
</svg>
