<svg width="20" height="20" viewBox="0 0 20 20" fill="none" xmlns="http://www.w3.org/2000/svg">
<path d="M9.99996 19.9999C4.4705 19.9999 0 15.5294 0 9.99996C0 4.47057 4.47057 0 9.99996 0C12.5098 0 14.9019 0.941243 16.7842 2.62744C17.0194 2.86269 17.0194 3.21556 16.8233 3.45111C16.5883 3.72548 16.1961 3.72548 15.9608 3.49022C14.3138 1.99996 12.196 1.17658 10 1.17658C5.13721 1.17658 1.17651 5.13728 1.17651 10.0001C1.17651 14.8629 5.13721 18.8236 10 18.8236C14.8628 18.8236 18.8235 14.8629 18.8235 10.0001C18.8235 8.74504 18.5489 7.52942 18.0393 6.39224C17.9216 6.07848 18.0393 5.76473 18.353 5.608C18.6668 5.49038 18.9805 5.608 19.1373 5.92176C19.7254 7.21588 20 8.58828 20 10C20 15.5295 15.4904 20 10 20L9.99996 19.9999Z" fill="black"/>
</svg>
