<svg width="36" height="33" viewBox="0 0 36 33" fill="none" xmlns="http://www.w3.org/2000/svg">
<path d="M19.3026 0.000301667C11.9132 0.000301667 5.62687 4.74476 3.43298 11.3402L1.88672 8.59103C1.69113 8.23017 1.29471 8.02587 0.88715 8.07538C0.551051 8.11338 0.256785 8.31909 0.105471 8.62172C-0.0458437 8.92435 -0.033643 9.28312 0.137547 9.57496L2.8867 14.4795C3.14749 14.9501 3.73462 15.1297 4.21437 14.8856L9.10315 12.3865C9.35069 12.2732 9.54106 12.0636 9.63067 11.8067C9.72027 11.5494 9.7011 11.267 9.57767 11.0243C9.45425 10.7816 9.23704 10.6 8.97659 10.5208C8.71614 10.4421 8.43478 10.4727 8.19735 10.6059L5.292 12.0898C7.18278 6.24847 12.728 1.99948 19.3033 1.99948C27.4426 1.99948 34.0019 8.48441 34.0019 16.4945C34.0019 24.5047 27.443 30.9896 19.3033 30.9896C12.34 30.9896 6.52818 26.2168 4.99567 19.8371V19.8375C4.95941 19.5568 4.80635 19.3047 4.5738 19.1433C4.34159 18.9819 4.05186 18.9268 3.77608 18.9913C3.50065 19.0555 3.26565 19.2336 3.12863 19.4812C2.99196 19.7291 2.96651 20.023 3.05855 20.2904C4.80635 27.5658 11.4252 32.9888 19.303 32.9888C28.5088 32.9888 36 25.5994 36 16.4944C36 7.38936 28.5078 0 19.303 0L19.3026 0.000301667ZM19.3964 7.48203C18.8814 7.53852 18.4951 7.97921 18.5062 8.49731V16.4948V16.4944C18.5059 16.7984 18.644 17.0857 18.881 17.2754L23.8793 21.2741C24.3106 21.6193 24.94 21.5492 25.2851 21.1179C25.6303 20.6866 25.5602 20.0573 25.1289 19.7122L20.5054 16.0101V8.49696V8.49731C20.5117 8.20932 20.3935 7.93285 20.1808 7.7383C19.9685 7.54375 19.6826 7.4503 19.3963 7.48203H19.3964Z" fill="black"/>
</svg>
