<svg width="24" height="32" viewBox="0 0 24 32" fill="none" xmlns="http://www.w3.org/2000/svg">
<path d="M21.2953 11.622H19.1255L19.1252 7.12533C19.1252 3.19666 15.9285 0 11.9999 0C8.07118 0 4.87453 3.19666 4.87453 7.12533V11.6223L2.70441 11.6225C1.21319 11.6225 0 12.8357 0 14.327V28.5579C0 30.0491 1.21319 31.2623 2.70441 31.2623H21.2953C22.7865 31.2623 23.9997 30.0491 23.9997 28.5579L24 14.3262C24 12.835 22.7868 11.6215 21.2956 11.6215L21.2953 11.622ZM6.12226 7.12533C6.12226 3.88484 8.75906 1.24796 11.9996 1.24796C15.2402 1.24796 17.877 3.88476 17.877 7.12533V11.6223H6.12255L6.12226 7.12533ZM22.7509 28.5575C22.7509 29.3606 22.0975 30.0139 21.2944 30.0139L2.70351 30.0137C1.90039 30.0137 1.24706 29.3603 1.24706 28.5572L1.24735 14.3263C1.24735 13.5232 1.90068 12.8699 2.7038 12.8699H21.2947C22.0978 12.8699 22.7511 13.5232 22.7511 14.3263L22.7509 28.5575ZM11.9995 17.8232C10.8423 17.8232 9.90077 18.7647 9.90077 19.9219C9.90077 20.8606 10.5242 21.6474 11.3755 21.915V24.8545C11.3755 25.199 11.655 25.4785 11.9995 25.4785C12.344 25.4785 12.6235 25.199 12.6235 24.8545V21.915C13.4748 21.6474 14.0982 20.8606 14.0982 19.9219C14.0982 18.7642 13.1567 17.8232 11.9995 17.8232H11.9995ZM11.9995 20.7721C11.5305 20.7721 11.1491 20.3904 11.1491 19.9217C11.1491 19.4527 11.5308 19.0713 11.9995 19.0713C12.4685 19.0713 12.8499 19.453 12.8499 19.9217C12.8499 20.3904 12.4685 20.7721 11.9995 20.7721Z" fill="black"/>
</svg>
