<svg width="23" height="23" viewBox="0 0 23 23" fill="none" xmlns="http://www.w3.org/2000/svg">
<path d="M11.6711 0.559849C11.5712 0.48005 11.4288 0.48005 11.3289 0.559849L0.603864 9.08683C0.484931 9.1814 0.465367 9.35424 0.559553 9.47336C0.654123 9.59172 0.826764 9.61186 0.94608 9.51748L2.53652 8.25297V22.225C2.53652 22.3769 2.65948 22.5 2.8116 22.5H20.1892C20.3411 22.5 20.4643 22.3769 20.4643 22.225L20.4641 8.25297L22.0541 9.51729C22.1046 9.55757 22.165 9.57714 22.2248 9.57714C22.306 9.57714 22.386 9.54165 22.4404 9.47336C22.5346 9.35443 22.5151 9.1814 22.3961 9.08683L11.6711 0.559849ZM19.9138 21.95H3.08667V7.81545L11.5002 1.12606L19.9142 7.81545L19.9138 21.95Z" fill="black" stroke="black"/>
<path d="M8.26567 10.1156C8.26567 11.7929 9.66159 13.8075 11.0847 15.4251C9.77223 16.8569 8.5225 17.9106 8.49623 17.9326C8.3796 18.0302 8.36425 18.2036 8.4617 18.3201C8.51599 18.3851 8.59406 18.4187 8.67271 18.4187C8.73467 18.4187 8.79739 18.3978 8.8488 18.3546C8.9568 18.2645 10.1689 17.2424 11.4576 15.8398C12.7461 17.2424 13.9585 18.2643 14.0664 18.3546C14.1835 18.4524 14.3567 18.4363 14.4537 18.3201C14.5512 18.2035 14.5358 18.0302 14.4194 17.9328C14.3931 17.9105 13.143 16.8569 11.8305 15.4253C13.2536 13.8074 14.6496 11.7931 14.6496 10.1158C14.6496 8.3558 13.2176 6.92383 11.4578 6.92383C9.69759 6.92383 8.26562 8.3556 8.26562 10.1156L8.26567 10.1156ZM14.0996 10.1156C14.0996 11.6107 12.8033 13.476 11.4578 15.0096C10.1121 13.476 8.81577 11.6109 8.81577 10.1156C8.81577 8.65889 10.0009 7.47359 11.4578 7.47359C12.9143 7.47378 14.0996 8.65889 14.0996 10.1156Z" fill="black" stroke="black"/>
</svg>
