<svg width="224" height="223" viewBox="0 0 224 223" fill="none" xmlns="http://www.w3.org/2000/svg">
<mask id="mask0_1164_3005" style="mask-type:alpha" maskUnits="userSpaceOnUse" x="0" y="0" width="223" height="223">
<ellipse cx="111.618" cy="111.641" rx="110.685" ry="110.685" transform="rotate(-16.6632 111.618 111.641)" fill="#D9D9D9"/>
</mask>
<g mask="url(#mask0_1164_3005)">
<ellipse cx="111.616" cy="111.64" rx="110.685" ry="110.685" transform="rotate(-90 111.616 111.64)" fill="#F6C600"/>
<path d="M109.953 262.596C105.303 270.614 104.527 256.929 80.6057 252.118C17.3529 187.91 -26.1052 238.297 22.7777 147.644C143.193 -75.6651 67.72 138.405 90.4418 136.403C113.164 134.402 87.3688 185.798 109.953 262.596Z" fill="black"/>
<path d="M193.043 119.989C182.427 194.45 97.306 116.941 99.9153 186.518C51.9776 216.847 42.5215 145.602 49.6757 109.837C59.956 72.4902 80.2243 46.1655 115.493 63.2503C146.76 60.4964 142.342 115.212 193.043 119.989Z" fill="black"/>
<path d="M91.8866 17.1778L108.477 80.0859L65.1311 76.6284L91.8866 17.1778Z" fill="black"/>
<path d="M157.907 46.7206L128.205 106.303L99.7048 79.4889L157.907 46.7206Z" fill="black"/>
<path d="M162.544 77.6448L135.335 62.5591L157.987 46.7234L162.544 77.6448Z" fill="black"/>
<ellipse cx="10.7426" cy="9.86586" rx="10.7426" ry="9.86586" transform="matrix(0.981127 0.201195 -0.192759 0.982819 128.033 82.776)" fill="white"/>
<ellipse cx="10.7426" cy="9.86586" rx="10.7426" ry="9.86586" transform="matrix(0.981127 0.201195 -0.192759 0.982819 89.5912 74.2512)" fill="white"/>
<path d="M103.687 83.487C103.091 86.7915 100.061 88.9037 96.9191 88.2049C93.7768 87.506 91.7123 84.2607 92.3078 80.9562C92.9034 77.6518 95.9334 75.5395 99.0757 76.2384C102.218 76.9372 104.282 80.1825 103.687 83.487Z" fill="black"/>
<ellipse cx="5.81958" cy="6.07028" rx="5.81958" ry="6.07028" transform="matrix(0.977656 0.217435 -0.177638 0.985665 130.482 83.6152)" fill="black"/>
</g>
</svg>
