<svg width="17" height="20" viewBox="0 0 17 20" fill="none" xmlns="http://www.w3.org/2000/svg">
<path d="M16.4934 15.5861C16.1908 16.2848 15.8328 16.928 15.4181 17.5193C14.8527 18.3255 14.3897 18.8835 14.0329 19.1934C13.4799 19.702 12.8873 19.9625 12.2528 19.9773C11.7972 19.9773 11.2478 19.8477 10.6083 19.5847C9.96675 19.323 9.3771 19.1934 8.83806 19.1934C8.27258 19.1934 7.66623 19.323 7.01762 19.5847C6.36797 19.8477 5.84465 19.9847 5.44454 19.9983C4.83603 20.0242 4.22951 19.7563 3.62409 19.1934C3.23769 18.8564 2.75437 18.2786 2.17538 17.4601C1.55416 16.586 1.04343 15.5725 0.643323 14.417C0.214809 13.1689 0 11.9603 0 10.7902C0 9.44984 0.289627 8.29384 0.869732 7.3251C1.32565 6.54697 1.93217 5.93316 2.69128 5.48256C3.4504 5.03195 4.27062 4.80233 5.15393 4.78764C5.63725 4.78764 6.27106 4.93714 7.05866 5.23096C7.84406 5.52576 8.3484 5.67527 8.56953 5.67527C8.73484 5.67527 9.29501 5.50046 10.2448 5.15195C11.1429 4.82875 11.9009 4.69493 12.5219 4.74764C14.2045 4.88344 15.4687 5.54676 16.3094 6.74177C14.8045 7.6536 14.0601 8.93071 14.0749 10.5691C14.0885 11.8452 14.5515 12.9071 15.4613 13.7504C15.8736 14.1417 16.3341 14.4441 16.8464 14.659C16.7353 14.9811 16.6181 15.2898 16.4934 15.5861ZM12.6342 0.400114C12.6342 1.40034 12.2688 2.33426 11.5404 3.19867C10.6614 4.22629 9.59823 4.8201 8.44527 4.72641C8.43066 4.60641 8.42214 4.48012 8.42214 4.34741C8.42214 3.38719 8.84014 2.35956 9.58241 1.51934C9.95301 1.09392 10.4244 0.740192 10.996 0.458009C11.5663 0.180046 12.1058 0.0263244 12.6132 0C12.6281 0.133715 12.6342 0.267452 12.6342 0.400114Z" fill="black"/>
</svg>
