<svg width="24" height="24" viewBox="0 0 24 24" fill="none" xmlns="http://www.w3.org/2000/svg">
<path d="M3.03993 0.501321C2.35349 0.523138 1.73071 0.813889 1.272 1.27551L3.03993 0.501321ZM3.03993 0.501321H3.12269H20.8768C21.5961 0.501321 22.2509 0.796784 22.7281 1.27695M3.03993 0.501321L22.7281 1.27695M22.7281 1.27695C23.2053 1.75719 23.5 2.41758 23.5 3.14521V16.488C23.5 17.2148 23.2052 17.8753 22.7281 18.3556C22.2509 18.8359 21.5961 19.1312 20.8768 19.1312H3.8796H3.61757L3.46846 19.3467L0.612836 23.4729C0.592441 23.5024 0.555088 23.5077 0.52843 23.4891C0.511495 23.4771 0.500684 23.4573 0.500684 23.4342L0.5 3.14389C0.5 3.14389 0.5 3.14388 0.5 3.14388C0.500005 2.41696 0.794922 1.75583 1.27194 1.27557L22.7281 1.27695ZM21.2821 0.667595L21.2742 0.633138H20.8764H3.12225C2.43272 0.633138 1.80803 0.917871 1.35708 1.37173C0.906028 1.8257 0.62453 2.45383 0.62453 3.14455V21.6326V23.2335L1.53566 21.9171L3.52178 19.0476L3.52854 19.0378L3.53483 19.0278C3.54644 19.0092 3.56494 18.999 3.58628 18.999H20.8767C21.5662 18.999 22.1909 18.7143 22.6418 18.2604C23.0927 17.8066 23.3744 17.1793 23.3744 16.4885V3.14569C23.3744 2.45465 23.0927 1.82769 22.6422 1.37328L22.6418 1.37287C22.2812 1.00988 21.8093 0.755079 21.2821 0.667595ZM11.9369 13.6475C11.9369 13.6084 11.9681 13.5816 11.9992 13.5816C12.0303 13.5816 12.0615 13.6084 12.0615 13.6475V14.7927C12.0615 14.8318 12.0302 14.8586 11.9992 14.8586C11.9679 14.8586 11.9369 14.8322 11.9369 14.7927V13.6475ZM11.9369 4.2223C11.9369 4.18293 11.9678 4.15639 11.9992 4.15639C12.0303 4.15639 12.0615 4.18323 12.0615 4.2223V10.6872C12.0615 10.7263 12.0302 10.7531 11.9992 10.7531C11.9681 10.7531 11.9369 10.7263 11.9369 10.6872V4.2223Z" fill="black" stroke="black"/>
</svg>
