<svg width="310" height="23" viewBox="0 0 310 23" fill="none" xmlns="http://www.w3.org/2000/svg">
<path d="M0 15.4298H1.888V10.9498H4.208L6.736 15.4298H8.88L6.128 10.6298C6.82133 10.3631 7.37067 9.94177 7.776 9.36577C8.192 8.7791 8.4 8.06977 8.4 7.23777C8.4 6.4591 8.22933 5.79243 7.888 5.23777C7.54667 4.6831 7.06667 4.25643 6.448 3.95777C5.84 3.6591 5.136 3.50977 4.336 3.50977H0V15.4298ZM1.888 9.26977V5.18977H4.368C5.01867 5.18977 5.536 5.3711 5.92 5.73377C6.31467 6.09643 6.512 6.59243 6.512 7.22177C6.512 7.84043 6.31467 8.33643 5.92 8.70977C5.536 9.0831 5.01867 9.26977 4.368 9.26977H1.888Z" fill="black"/>
<path d="M14.0324 15.6218C14.9177 15.6218 15.6857 15.4191 16.3364 15.0138C16.9977 14.6084 17.4617 14.0964 17.7284 13.4778L16.2564 12.7578C16.043 13.1204 15.7497 13.4244 15.3764 13.6698C15.0137 13.9044 14.571 14.0218 14.0484 14.0218C13.3657 14.0218 12.7844 13.8084 12.3044 13.3818C11.8244 12.9444 11.5577 12.3578 11.5044 11.6218H17.9364C17.9684 11.4938 17.9897 11.3551 18.0004 11.2058C18.011 11.0564 18.0164 10.9124 18.0164 10.7738C18.0164 10.0271 17.851 9.3391 17.5204 8.70977C17.2004 8.06977 16.731 7.55777 16.1124 7.17377C15.5044 6.7791 14.763 6.58177 13.8884 6.58177C13.0777 6.58177 12.347 6.7791 11.6964 7.17377C11.0564 7.55777 10.5497 8.0911 10.1764 8.77377C9.80304 9.44577 9.61637 10.2138 9.61637 11.0778C9.61637 11.9311 9.80304 12.7044 10.1764 13.3978C10.5604 14.0804 11.083 14.6244 11.7444 15.0298C12.4057 15.4244 13.1684 15.6218 14.0324 15.6218ZM13.8884 8.10177C14.4964 8.10177 15.0084 8.29377 15.4244 8.67777C15.8404 9.06177 16.0644 9.5631 16.0964 10.1818H11.5364C11.643 9.52043 11.915 9.00843 12.3524 8.64577C12.7897 8.2831 13.3017 8.10177 13.8884 8.10177Z" fill="black"/>
<path d="M19.9409 18.6298H21.7489V14.4218C22.0689 14.8058 22.4742 15.1044 22.9649 15.3178C23.4555 15.5204 23.9889 15.6218 24.5649 15.6218C25.3969 15.6218 26.1382 15.4244 26.7889 15.0298C27.4395 14.6244 27.9515 14.0804 28.3249 13.3978C28.7089 12.7151 28.9009 11.9471 28.9009 11.0938C28.9009 10.2404 28.7089 9.47243 28.3249 8.78977C27.9515 8.1071 27.4342 7.56843 26.7729 7.17377C26.1222 6.7791 25.3862 6.58177 24.5649 6.58177C23.9462 6.58177 23.3862 6.69377 22.8849 6.91777C22.3942 7.14177 21.9889 7.45643 21.6689 7.86177V6.77377H19.9409V18.6298ZM24.3889 13.9418C23.8875 13.9418 23.4342 13.8191 23.0289 13.5738C22.6342 13.3284 22.3195 12.9924 22.0849 12.5658C21.8609 12.1284 21.7489 11.6378 21.7489 11.0938C21.7489 10.5498 21.8609 10.0644 22.0849 9.63777C22.3195 9.2111 22.6342 8.8751 23.0289 8.62977C23.4342 8.38443 23.8875 8.26177 24.3889 8.26177C24.9009 8.26177 25.3542 8.38443 25.7489 8.62977C26.1435 8.8751 26.4529 9.2111 26.6769 9.63777C26.9115 10.0644 27.0289 10.5498 27.0289 11.0938C27.0289 11.6378 26.9115 12.1284 26.6769 12.5658C26.4529 12.9924 26.1435 13.3284 25.7489 13.5738C25.3542 13.8191 24.9009 13.9418 24.3889 13.9418Z" fill="black"/>
<path d="M34.9956 15.6218C35.8276 15.6218 36.585 15.4298 37.2676 15.0458C37.9503 14.6511 38.4943 14.1124 38.8996 13.4298C39.305 12.7471 39.5076 11.9684 39.5076 11.0938C39.5076 10.2191 39.305 9.44577 38.8996 8.77377C38.505 8.0911 37.9663 7.55777 37.2836 7.17377C36.601 6.7791 35.8383 6.58177 34.9956 6.58177C34.153 6.58177 33.385 6.7791 32.6916 7.17377C32.009 7.55777 31.465 8.0911 31.0596 8.77377C30.665 9.44577 30.4676 10.2191 30.4676 11.0938C30.4676 11.9578 30.6703 12.7311 31.0756 13.4138C31.481 14.0964 32.025 14.6351 32.7076 15.0298C33.401 15.4244 34.1636 15.6218 34.9956 15.6218ZM34.9956 13.9418C34.4943 13.9418 34.041 13.8191 33.6356 13.5738C33.241 13.3284 32.9263 12.9924 32.6916 12.5658C32.4676 12.1284 32.3556 11.6378 32.3556 11.0938C32.3556 10.5498 32.4676 10.0644 32.6916 9.63777C32.9263 9.2111 33.241 8.8751 33.6356 8.62977C34.041 8.38443 34.4943 8.26177 34.9956 8.26177C35.497 8.26177 35.945 8.38443 36.3396 8.62977C36.745 8.8751 37.0596 9.2111 37.2836 9.63777C37.5183 10.0644 37.6356 10.5498 37.6356 11.0938C37.6356 11.6378 37.5183 12.1284 37.2836 12.5658C37.0596 12.9924 36.745 13.3284 36.3396 13.5738C35.945 13.8191 35.497 13.9418 34.9956 13.9418Z" fill="black"/>
<path d="M41.4328 15.4298H43.2407V10.4378C43.2407 9.7551 43.4221 9.23243 43.7848 8.86977C44.1581 8.49643 44.6434 8.30977 45.2407 8.30977H45.9928V6.66177H45.4648C44.9421 6.66177 44.4834 6.75777 44.0888 6.94977C43.6941 7.14177 43.3848 7.4511 43.1608 7.87777V6.77377H41.4328V15.4298Z" fill="black"/>
<path d="M51.2899 15.5258C51.4392 15.5258 51.6045 15.5151 51.7859 15.4938C51.9672 15.4724 52.1272 15.4511 52.2659 15.4298V13.8778C52.0632 13.9098 51.8659 13.9258 51.6739 13.9258C51.1512 13.9258 50.7779 13.8031 50.5539 13.5578C50.3405 13.3018 50.2339 12.9551 50.2339 12.5178V8.40577H52.2019V6.77377H50.2339V4.78977H48.4259V5.46177C48.4259 5.8671 48.3139 6.1871 48.0899 6.42177C47.8659 6.65643 47.5512 6.77377 47.1459 6.77377H46.9059V8.40577H48.4259V12.5978C48.4259 13.5258 48.6765 14.2458 49.1779 14.7578C49.6792 15.2698 50.3832 15.5258 51.2899 15.5258Z" fill="black"/>
<path d="M57.3231 15.4298H64.3631V13.7498H59.2111V3.50977H57.3231V15.4298Z" fill="black"/>
<path d="M70.1081 15.6218C70.9401 15.6218 71.6975 15.4298 72.3801 15.0458C73.0628 14.6511 73.6068 14.1124 74.0121 13.4298C74.4175 12.7471 74.6201 11.9684 74.6201 11.0938C74.6201 10.2191 74.4175 9.44577 74.0121 8.77377C73.6175 8.0911 73.0788 7.55777 72.3961 7.17377C71.7135 6.7791 70.9508 6.58177 70.1081 6.58177C69.2655 6.58177 68.4975 6.7791 67.8041 7.17377C67.1215 7.55777 66.5775 8.0911 66.1721 8.77377C65.7775 9.44577 65.5801 10.2191 65.5801 11.0938C65.5801 11.9578 65.7828 12.7311 66.1881 13.4138C66.5935 14.0964 67.1375 14.6351 67.8201 15.0298C68.5135 15.4244 69.2761 15.6218 70.1081 15.6218ZM70.1081 13.9418C69.6068 13.9418 69.1535 13.8191 68.7481 13.5738C68.3535 13.3284 68.0388 12.9924 67.8041 12.5658C67.5801 12.1284 67.4681 11.6378 67.4681 11.0938C67.4681 10.5498 67.5801 10.0644 67.8041 9.63777C68.0388 9.2111 68.3535 8.8751 68.7481 8.62977C69.1535 8.38443 69.6068 8.26177 70.1081 8.26177C70.6095 8.26177 71.0575 8.38443 71.4521 8.62977C71.8575 8.8751 72.1721 9.2111 72.3961 9.63777C72.6308 10.0644 72.7481 10.5498 72.7481 11.0938C72.7481 11.6378 72.6308 12.1284 72.3961 12.5658C72.1721 12.9924 71.8575 13.3284 71.4521 13.5738C71.0575 13.8191 70.6095 13.9418 70.1081 13.9418Z" fill="black"/>
<path d="M79.7452 15.6218C80.3852 15.6218 80.9452 15.5151 81.4252 15.3018C81.9159 15.0778 82.2946 14.7738 82.5612 14.3898C82.8279 13.9951 82.9613 13.5418 82.9613 13.0298C82.9613 12.4324 82.7693 11.9204 82.3853 11.4938C82.0013 11.0564 81.4519 10.7364 80.7373 10.5338L79.3292 10.1178C79.0626 10.0324 78.8119 9.9151 78.5772 9.76577C78.3426 9.61643 78.2253 9.39243 78.2253 9.09377C78.2253 8.78443 78.3426 8.5391 78.5772 8.35777C78.8119 8.17643 79.1266 8.08577 79.5212 8.08577C79.9799 8.08577 80.3906 8.20843 80.7533 8.45377C81.1266 8.6991 81.3986 9.02977 81.5693 9.44577L82.9613 8.78977C82.7053 8.09643 82.2679 7.55777 81.6493 7.17377C81.0306 6.7791 80.3266 6.58177 79.5373 6.58177C78.9506 6.58177 78.4226 6.69377 77.9532 6.91777C77.4839 7.1311 77.1159 7.42977 76.8493 7.81377C76.5826 8.19777 76.4492 8.6511 76.4492 9.17377C76.4492 9.76043 76.6306 10.2671 76.9932 10.6938C77.3666 11.1204 77.9266 11.4404 78.6732 11.6538L80.0332 12.0378C80.3106 12.1124 80.5719 12.2298 80.8173 12.3898C81.0626 12.5391 81.1852 12.7684 81.1852 13.0778C81.1852 13.4084 81.0519 13.6698 80.7852 13.8618C80.5186 14.0538 80.1719 14.1498 79.7452 14.1498C79.2439 14.1498 78.7852 14.0058 78.3692 13.7178C77.9639 13.4298 77.6439 13.0404 77.4092 12.5498L76.0173 13.2058C76.2839 13.9418 76.7479 14.5284 77.4092 14.9658C78.0812 15.4031 78.8599 15.6218 79.7452 15.6218Z" fill="black"/>
<path d="M88.6367 15.5258C88.7861 15.5258 88.9514 15.5151 89.1327 15.4938C89.3141 15.4724 89.4741 15.4511 89.6127 15.4298V13.8778C89.4101 13.9098 89.2127 13.9258 89.0207 13.9258C88.4981 13.9258 88.1247 13.8031 87.9007 13.5578C87.6874 13.3018 87.5807 12.9551 87.5807 12.5178V8.40577H89.5487V6.77377H87.5807V4.78977H85.7727V5.46177C85.7727 5.8671 85.6607 6.1871 85.4367 6.42177C85.2127 6.65643 84.8981 6.77377 84.4927 6.77377H84.2527V8.40577H85.7727V12.5978C85.7727 13.5258 86.0234 14.2458 86.5247 14.7578C87.0261 15.2698 87.7301 15.5258 88.6367 15.5258Z" fill="black"/>
<path d="M303.226 10.5915C302.694 10.5915 302.179 10.6651 301.689 10.8005C298.796 8.09719 294.244 8.15382 291.423 10.9744C291.165 11.2314 291.165 11.6484 291.423 11.9055C291.551 12.0341 291.72 12.0982 291.889 12.0982C292.057 12.0982 292.226 12.0339 292.354 11.9055C294.527 9.73328 297.947 9.56076 300.326 11.3758C299.425 11.9011 298.679 12.6623 298.173 13.5748C297.01 12.8994 295.493 13.0552 294.499 14.0503C293.315 15.2348 293.315 17.1622 294.499 18.3469C295.091 18.9392 295.869 19.2354 296.647 19.2354C297.125 19.2354 297.603 19.1224 298.038 18.899C298.978 20.8166 300.95 22.1405 303.226 22.1405C306.41 22.1405 309 19.5501 309 16.3661C309 13.1822 306.41 10.5918 303.226 10.5918L303.226 10.5915ZM297.594 17.6366C296.925 18.0765 296.017 18.0028 295.43 17.4162C294.759 16.7445 294.759 15.6526 295.43 14.9811C296.038 14.3726 296.992 14.3178 297.665 14.8128C297.527 15.3074 297.451 15.8279 297.451 16.3659C297.451 16.8026 297.501 17.2273 297.593 17.6367L297.594 17.6366ZM303.226 20.8234C300.768 20.8234 298.768 18.8237 298.768 16.3658C298.768 13.908 300.768 11.9083 303.226 11.9083C305.684 11.9083 307.683 13.908 307.683 16.3658C307.683 18.8237 305.684 20.8234 303.226 20.8234ZM303.977 8.86882C304.106 8.99742 304.274 9.06155 304.443 9.06155C304.612 9.06155 304.78 8.99724 304.909 8.86882C305.166 8.61141 305.166 8.19454 304.909 7.93769C300.353 3.38295 292.941 3.38313 288.387 7.93769C288.13 8.19509 288.13 8.61196 288.387 8.86882C288.645 9.12622 289.061 9.12622 289.318 8.86882C293.359 4.8274 299.935 4.82702 303.977 8.86882H303.977ZM307.171 5.67494C307.299 5.80355 307.468 5.86767 307.636 5.86767C307.805 5.86767 307.973 5.80337 308.102 5.67494C308.36 5.41791 308.36 5.00086 308.102 4.74382C305.043 1.68461 300.975 0 296.648 0C292.32 0 288.252 1.68456 285.193 4.74382C284.936 5.00085 284.936 5.41791 285.193 5.67494C285.45 5.93197 285.867 5.93235 286.124 5.67494C288.935 2.86449 292.672 1.31699 296.648 1.31699C300.624 1.31681 304.361 2.86449 307.171 5.67476L307.171 5.67494ZM303.091 13.2224C302.727 13.2224 302.432 13.5171 302.432 13.8809V16.6024C302.432 16.9662 302.727 17.2609 303.091 17.2609C303.455 17.2609 303.749 16.9662 303.749 16.6024V13.8809C303.749 13.5173 303.455 13.2224 303.091 13.2224ZM303.091 17.9196C302.727 17.9196 302.432 18.2143 302.432 18.578V18.6219C302.432 18.9857 302.727 19.2804 303.091 19.2804C303.455 19.2804 303.749 18.9857 303.749 18.6219V18.578C303.749 18.2143 303.455 17.9196 303.091 17.9196Z" fill="black"/>
</svg>
