<svg width="16" height="24" viewBox="0 0 16 24" fill="none" xmlns="http://www.w3.org/2000/svg">
<path d="M15.4166 1.16042C14.6416 1.1834 13.8743 1.0027 13.191 0.636533C12.3515 0.19937 11.4155 -0.0189991 10.4693 0.00129588C9.52485 -0.018368 8.59028 0.200006 7.75241 0.636533C7.06874 1.00166 6.30161 1.18238 5.52685 1.16042C4.75045 1.18257 3.98189 1.00208 3.29653 0.636533C2.45866 0.19999 1.52429 -0.0183632 0.579599 0.00129588C0.25959 0.00129588 0 0.260653 0 0.580895V14.8382C0 15.2994 0.183184 15.7415 0.509196 16.0675C0.83541 16.3938 1.27754 16.5769 1.73871 16.5769H4.44181C4.90257 16.5782 5.34406 16.7618 5.66989 17.0876C5.99572 17.4134 6.1793 17.8549 6.18054 18.3157V22.2011C6.1855 22.6798 6.37904 23.1375 6.71954 23.4742C7.05984 23.8112 7.51937 24 7.99813 24H8.06312C8.53982 23.982 8.99044 23.7775 9.31813 23.4308C9.646 23.0839 9.82463 22.6225 9.81573 22.1454V18.3157C9.81697 17.8549 10.0006 17.4134 10.3264 17.0876C10.6522 16.7617 11.0937 16.5782 11.5545 16.5769H14.2576C14.7187 16.5769 15.1609 16.3938 15.4871 16.0675C15.8131 15.7415 15.9963 15.2994 15.9963 14.8382V1.73977C15.9963 1.58598 15.9352 1.4386 15.8265 1.32993C15.7179 1.22126 15.5705 1.1602 15.4167 1.1602L15.4166 1.16042ZM1.15925 1.18816C1.7353 1.2457 2.2946 1.41585 2.80521 1.68887C3.6452 2.12396 4.5812 2.3409 5.52691 2.31955C6.47097 2.34025 7.40533 2.12332 8.24383 1.68887C8.92671 1.32125 9.69421 1.1391 10.4694 1.16042C11.2462 1.13931 12.015 1.32146 12.6997 1.68887C13.3639 2.03413 14.0909 2.24213 14.8371 2.30095V7.99944H1.15946L1.15925 1.18816ZM14.8369 14.8382C14.8369 14.9918 14.7758 15.1394 14.6672 15.2481C14.5585 15.3568 14.4111 15.4178 14.2573 15.4178H11.5542C10.7861 15.4191 10.0496 15.7248 9.50644 16.2679C8.9633 16.8111 8.65755 17.5475 8.65633 18.3157V22.1502C8.66192 22.5118 8.38207 22.814 8.02109 22.8363C7.84184 22.85 7.66528 22.7877 7.53425 22.6647C7.40675 22.5439 7.33326 22.3768 7.33016 22.2011V18.3157C7.32892 17.5476 7.0234 16.8111 6.48005 16.2679C5.93691 15.7248 5.20062 15.419 4.43227 15.4178H1.7385C1.41849 15.4178 1.1589 15.1582 1.1589 14.8382V9.15826H14.8365L14.8369 14.8382Z" fill="black"/>
</svg>
