<svg width="22" height="18" viewBox="0 0 22 18" fill="none" xmlns="http://www.w3.org/2000/svg">
<path d="M12.5911 14.0024C9.98219 14.796 7.22032 13.3224 6.42675 10.7135C5.63318 8.10454 7.10674 5.34268 9.71568 4.54911C12.3246 3.75554 15.0865 5.2291 15.8801 7.83803C16.6736 10.447 15.2001 13.2088 12.5911 14.0024ZM10.2137 6.18651C8.51083 6.70449 7.54618 8.51252 8.06416 10.2154C8.58214 11.9183 10.3902 12.883 12.0931 12.365C13.796 11.847 14.7606 10.039 14.2426 8.33609C13.7247 6.63319 11.9166 5.66853 10.2137 6.18651Z" fill="#0C0507"/>
<path d="M10.9811 18.0004C7.06557 18.0004 3.36877 15.8052 0.827875 11.9936C-0.275958 10.3472 -0.275958 7.66314 0.827875 6.00678C3.37919 2.19517 7.07599 0 10.9811 0C14.8861 0 18.5829 2.19517 21.1238 6.00678C22.2277 7.65316 22.2277 10.3373 21.1238 11.9936C18.5829 15.8052 14.8861 18.0004 10.9811 18.0004ZM10.9811 1.49671C7.61749 1.49671 4.39971 3.43245 2.15039 6.81501C1.36938 7.98244 1.36938 10.018 2.15039 11.1854C4.39971 14.5679 7.61749 16.5037 10.9811 16.5037C14.3446 16.5037 17.5624 14.5679 19.8117 11.1854C20.5927 10.018 20.5927 7.98244 19.8117 6.81501C17.5624 3.43245 14.3446 1.49671 10.9811 1.49671Z" fill="#0C0507"/>
</svg>
