<svg width="14" height="18" viewBox="0 0 14 18" fill="none" xmlns="http://www.w3.org/2000/svg">
<path d="M10.2774 6.92646C10.2774 7.85327 9.90907 8.74229 9.25373 9.39772C8.59827 10.0532 7.70928 10.4215 6.78234 10.4215C5.85541 10.4215 4.96642 10.0533 4.31096 9.39798C3.65549 8.74252 3.28717 7.85353 3.28717 6.92672C3.28704 5.99978 3.65523 5.1108 4.31056 4.4552C4.96602 3.79974 5.85488 3.43141 6.78182 3.43128C7.70853 3.43218 8.59712 3.80063 9.25245 4.45596C9.90778 5.11116 10.2764 5.99965 10.2774 6.92646ZM12.4909 10.6064C10.6296 14.0215 7.28495 17.686 7.1441 17.8403C7.051 17.942 6.91942 18 6.78142 18C6.64343 18 6.51186 17.942 6.41861 17.8403C6.2769 17.6855 2.92971 14.0175 1.06887 10.6012C0.159232 8.93159 -0.178956 7.15102 0.0894666 5.45204C0.20399 4.63666 0.480348 3.85243 0.902155 3.1453C1.32396 2.43816 1.88284 1.82245 2.54585 1.33436C3.7984 0.441139 5.30464 -0.0263033 6.84272 0.0011431C8.38011 0.000886632 9.87673 0.495145 11.1117 1.41082C11.7656 1.91149 12.313 2.5377 12.7218 3.25278C13.1305 3.96774 13.3924 4.75721 13.492 5.57479C13.7095 7.31609 13.3581 9.0811 12.4906 10.6064L12.4909 10.6064ZM12.5176 5.71009C12.0651 2.47821 9.33763 1.00743 6.83394 0.985437H6.77584C4.28571 0.985437 1.56793 2.40792 1.06266 5.6047C0.82849 7.08746 1.12987 8.65217 1.93448 10.1294C3.38595 12.7952 5.85806 15.7136 6.78225 16.7674C7.70613 15.7143 10.1753 12.8002 11.6274 10.135L11.6275 10.1347C12.3931 8.7942 12.7053 7.2422 12.5173 5.70983L12.5176 5.71009Z" fill="black"/>
</svg>
