<svg width="311" height="29" viewBox="0 0 311 29" fill="none" xmlns="http://www.w3.org/2000/svg">
<path d="M0 20.4531H1.89118V15.9655H4.34331C5.14466 15.9655 5.84985 15.8159 6.45887 15.5168C7.07859 15.2176 7.5594 14.7902 7.9013 14.2346C8.24321 13.679 8.41417 13.0166 8.41417 12.2473C8.41417 11.4673 8.24321 10.7995 7.9013 10.2439C7.5594 9.68829 7.07859 9.2609 6.45887 8.96173C5.84985 8.66256 5.14466 8.51297 4.34331 8.51297H0V20.4531ZM1.89118 14.2827V10.1958H4.39139C5.03247 10.1958 5.55068 10.3774 5.94601 10.7407C6.34134 11.104 6.53901 11.6008 6.53901 12.2312C6.53901 12.8509 6.34134 13.3478 5.94601 13.7217C5.55068 14.0957 5.03247 14.2827 4.39139 14.2827H1.89118Z" fill="black"/>
<path d="M14.103 20.6454C14.9898 20.6454 15.7591 20.4424 16.4109 20.0364C17.0733 19.6304 17.5381 19.1175 17.8052 18.4978L16.3307 17.7766C16.1171 18.1398 15.8232 18.4444 15.4493 18.6901C15.086 18.9252 14.6426 19.0427 14.119 19.0427C13.4352 19.0427 12.8529 18.829 12.3721 18.4016C11.8913 17.9636 11.6242 17.3759 11.5707 16.6387H18.0136C18.0456 16.5104 18.067 16.3715 18.0777 16.222C18.0884 16.0724 18.0937 15.9281 18.0937 15.7892C18.0937 15.0413 17.9281 14.3521 17.5969 13.7217C17.2763 13.0807 16.8062 12.5678 16.1865 12.1832C15.5775 11.7878 14.8349 11.5902 13.9588 11.5902C13.1467 11.5902 12.4148 11.7878 11.7631 12.1832C11.122 12.5678 10.6145 13.102 10.2405 13.7859C9.86653 14.459 9.67955 15.2283 9.67955 16.0937C9.67955 16.9485 9.86653 17.7231 10.2405 18.4177C10.6251 19.1015 11.1487 19.6464 11.8111 20.0524C12.4736 20.4477 13.2375 20.6454 14.103 20.6454ZM13.9588 13.1127C14.5678 13.1127 15.0806 13.305 15.4973 13.6897C15.914 14.0743 16.1384 14.5765 16.1705 15.1962H11.6028C11.7096 14.5338 11.9821 14.0209 12.4202 13.6576C12.8582 13.2944 13.3711 13.1127 13.9588 13.1127Z" fill="black"/>
<path d="M23.7718 20.5492C23.9214 20.5492 24.087 20.5386 24.2686 20.5172C24.4503 20.4958 24.6105 20.4744 24.7494 20.4531V18.8985C24.5464 18.9305 24.3487 18.9465 24.1564 18.9465C23.6329 18.9465 23.2589 18.8237 23.0345 18.5779C22.8208 18.3215 22.714 17.9742 22.714 17.5362V13.4172H24.6853V11.7825H22.714V9.79513H20.9029V10.4683C20.9029 10.8743 20.7908 11.1948 20.5664 11.4299C20.342 11.6649 20.0268 11.7825 19.6208 11.7825H19.3804V13.4172H20.9029V17.6163C20.9029 18.5459 21.154 19.2671 21.6562 19.7799C22.1584 20.2928 22.8636 20.5492 23.7718 20.5492Z" fill="black"/>
<path d="M29.8152 20.4531H31.7064V15.9655H34.1585C34.9599 15.9655 35.665 15.8159 36.2741 15.5168C36.8938 15.2176 37.3746 14.7902 37.7165 14.2346C38.0584 13.679 38.2294 13.0166 38.2294 12.2473C38.2294 11.4673 38.0584 10.7995 37.7165 10.2439C37.3746 9.68829 36.8938 9.2609 36.2741 8.96173C35.665 8.66256 34.9599 8.51297 34.1585 8.51297H29.8152V20.4531ZM31.7064 14.2827V10.1958H34.2066C34.8477 10.1958 35.3659 10.3774 35.7612 10.7407C36.1565 11.104 36.3542 11.6008 36.3542 12.2312C36.3542 12.8509 36.1565 13.3478 35.7612 13.7217C35.3659 14.0957 34.8477 14.2827 34.2066 14.2827H31.7064Z" fill="black"/>
<path d="M40.1604 20.4531H41.9714V15.4527C41.9714 14.7688 42.1531 14.2453 42.5163 13.882C42.8903 13.5081 43.3765 13.3211 43.9748 13.3211H44.7281V11.6703H44.1992C43.6756 11.6703 43.2162 11.7665 42.8209 11.9588C42.4255 12.1511 42.1157 12.461 41.8913 12.8883V11.7825H40.1604V20.4531Z" fill="black"/>
<path d="M50.3103 20.6454C51.1437 20.6454 51.9023 20.4531 52.5862 20.0684C53.27 19.6731 53.8149 19.1335 54.2209 18.4497C54.6269 17.7659 54.8299 16.9859 54.8299 16.1098C54.8299 15.2336 54.6269 14.459 54.2209 13.7859C53.8256 13.102 53.286 12.5678 52.6022 12.1832C51.9184 11.7878 51.1544 11.5902 50.3103 11.5902C49.4662 11.5902 48.697 11.7878 48.0025 12.1832C47.3186 12.5678 46.7737 13.102 46.3677 13.7859C45.9724 14.459 45.7747 15.2336 45.7747 16.1098C45.7747 16.9752 45.9777 17.7499 46.3837 18.4337C46.7897 19.1175 47.3347 19.6571 48.0185 20.0524C48.713 20.4477 49.4769 20.6454 50.3103 20.6454ZM50.3103 18.9626C49.8082 18.9626 49.3541 18.8397 48.948 18.5939C48.5527 18.3482 48.2375 18.0116 48.0025 17.5842C47.7781 17.1462 47.6659 16.6547 47.6659 16.1098C47.6659 15.5648 47.7781 15.0787 48.0025 14.6513C48.2375 14.2239 48.5527 13.8874 48.948 13.6416C49.3541 13.3959 49.8082 13.273 50.3103 13.273C50.8125 13.273 51.2613 13.3959 51.6566 13.6416C52.0626 13.8874 52.3778 14.2239 52.6022 14.6513C52.8373 15.0787 52.9548 15.5648 52.9548 16.1098C52.9548 16.6547 52.8373 17.1462 52.6022 17.5842C52.3778 18.0116 52.0626 18.3482 51.6566 18.5939C51.2613 18.8397 50.8125 18.9626 50.3103 18.9626Z" fill="black"/>
<path d="M57.5012 20.4531H59.2962V13.4172H62.5978V20.4531H64.4088V11.7825H59.2962V11.3337C59.2962 10.8315 59.4405 10.4736 59.7289 10.2599C60.0174 10.0355 60.4021 9.92335 60.8829 9.92335C60.947 9.92335 61.0325 9.92869 61.1393 9.93938C61.2462 9.93938 61.3423 9.95006 61.4278 9.97143V8.40079C61.3316 8.37942 61.2088 8.36339 61.0592 8.3527C60.9096 8.33133 60.776 8.32065 60.6585 8.32065C59.7396 8.32065 58.981 8.58242 58.3827 9.10597C57.795 9.61884 57.5012 10.3614 57.5012 11.3337V11.7825H55.8985V13.4172H57.5012V20.4531Z" fill="black"/>
<path d="M66.4659 20.4531H68.277V8.32065H66.4659V20.4531Z" fill="black"/>
<path d="M74.6255 20.6454C75.5124 20.6454 76.2817 20.4424 76.9334 20.0364C77.5959 19.6304 78.0606 19.1175 78.3278 18.4978L76.8533 17.7766C76.6396 18.1398 76.3458 18.4444 75.9718 18.6901C75.6085 18.9252 75.1651 19.0427 74.6416 19.0427C73.9577 19.0427 73.3754 18.829 72.8946 18.4016C72.4138 17.9636 72.1467 17.3759 72.0933 16.6387H78.5361C78.5682 16.5104 78.5895 16.3715 78.6002 16.222C78.6109 16.0724 78.6162 15.9281 78.6162 15.7892C78.6162 15.0413 78.4506 14.3521 78.1194 13.7217C77.7989 13.0807 77.3287 12.5678 76.709 12.1832C76.1 11.7878 75.3574 11.5902 74.4813 11.5902C73.6692 11.5902 72.9373 11.7878 72.2856 12.1832C71.6445 12.5678 71.137 13.102 70.763 13.7859C70.3891 14.459 70.2021 15.2283 70.2021 16.0937C70.2021 16.9485 70.3891 17.7231 70.763 18.4177C71.1477 19.1015 71.6712 19.6464 72.3337 20.0524C72.9961 20.4477 73.7601 20.6454 74.6255 20.6454ZM74.4813 13.1127C75.0903 13.1127 75.6032 13.305 76.0199 13.6897C76.4366 14.0743 76.661 14.5765 76.693 15.1962H72.1253C72.2322 14.5338 72.5046 14.0209 72.9427 13.6576C73.3808 13.2944 73.8936 13.1127 74.4813 13.1127Z" fill="black"/>
<mask id="mask0_204_10887" style="mask-type:alpha" maskUnits="userSpaceOnUse" x="281" y="0" width="30" height="29">
<ellipse cx="296.375" cy="14.5007" rx="13.9952" ry="13.9952" transform="rotate(-16.6632 296.375 14.5007)" fill="#D9D9D9" stroke="black"/>
</mask>
<g mask="url(#mask0_204_10887)">
<path d="M310.873 14.502C310.873 6.49607 304.383 0.00596583 296.377 0.00596537C288.371 0.00596492 281.881 6.49606 281.881 14.502C281.881 22.5079 288.371 28.998 296.377 28.998C304.383 28.998 310.873 22.5079 310.873 14.502Z" stroke="black"/>
<path d="M296.171 33.5887C295.583 34.6024 295.485 32.872 292.461 32.2638C284.463 24.1452 278.968 30.5163 285.149 19.0539C300.374 -9.1818 290.831 17.8856 293.704 17.6326C296.577 17.3795 293.316 23.8781 296.171 33.5887Z" fill="black"/>
<path d="M306.677 15.5575C305.335 24.9726 294.572 15.1722 294.902 23.9696C288.841 27.8045 287.645 18.7961 288.55 14.2739C289.85 9.55171 292.412 6.22316 296.872 8.3834C300.825 8.03518 300.267 14.9535 306.677 15.5575Z" fill="black"/>
<path d="M293.888 2.55706L295.986 10.5113L290.505 10.0741L293.888 2.55706Z" fill="black"/>
<path d="M302.234 6.29288L298.479 13.8266L294.875 10.4362L302.234 6.29288Z" fill="black"/>
<path d="M302.82 10.2025L299.38 8.29504L302.244 6.29274L302.82 10.2025Z" fill="black"/>
<ellipse cx="1.35812" cy="1.24728" rx="1.35812" ry="1.24728" transform="matrix(0.981267 0.201223 -0.192786 0.982959 298.456 10.8523)" fill="white"/>
<ellipse cx="1.35812" cy="1.24728" rx="1.35812" ry="1.24728" transform="matrix(0.981267 0.201223 -0.192786 0.982959 293.596 9.77427)" fill="white"/>
<path d="M295.376 10.9408C295.3 11.3586 294.917 11.6257 294.52 11.5373C294.123 11.449 293.862 11.0386 293.937 10.6208C294.012 10.203 294.395 9.9359 294.793 10.0243C295.19 10.1126 295.451 10.523 295.376 10.9408Z" fill="black"/>
<ellipse cx="0.735734" cy="0.767429" rx="0.735734" ry="0.767429" transform="matrix(0.977796 0.217466 -0.177663 0.985805 298.761 10.9579)" fill="black"/>
</g>
</svg>
