<svg width="78" height="78" viewBox="0 0 78 78" fill="none" xmlns="http://www.w3.org/2000/svg">
<g clip-path="url(#clip0_204_8029)">
<mask id="mask0_204_8029" style="mask-type:alpha" maskUnits="userSpaceOnUse" x="0" y="0" width="78" height="78">
<path d="M50.0264 75.8711C70.44 69.7841 82.0354 48.3638 75.9253 28.0274C69.8152 7.69107 48.3134 -3.86034 27.8997 2.22663C7.48605 8.31359 -4.10928 29.7339 2.00083 50.0703C8.11093 70.4066 29.6127 81.958 50.0264 75.8711Z" fill="#D9D9D9"/>
</mask>
<g mask="url(#mask0_204_8029)">
<path d="M77.8055 38.4368C77.8055 17.209 60.5315 0.00050354 39.223 0.00050354C17.9146 0.00050354 0.640625 17.209 0.640625 38.4368C0.640625 59.6645 17.9146 76.873 39.223 76.873C60.5315 76.873 77.8055 59.6645 77.8055 38.4368Z" fill="#F6C600"/>
<path d="M38.3871 87.3395C36.7663 90.1236 36.4955 85.3712 28.1571 83.7007C6.1085 61.4039 -9.04011 78.9013 7.99945 47.4213C49.9738 -30.125 23.6655 44.2126 31.5859 43.5177C39.5061 42.8228 30.5147 60.6703 38.3871 87.3395Z" fill="black"/>
<path d="M67.3498 37.8186C63.6494 63.6762 33.978 36.7603 34.8876 60.9214C18.1774 71.4538 14.8812 46.7133 17.375 34.2933C20.9585 21.3243 28.0236 12.1828 40.3176 18.1157C51.2166 17.1593 49.6768 36.1599 67.3498 37.8186Z" fill="black"/>
<path d="M32.0921 2.11523L37.8751 23.9607L22.7656 22.76L32.0921 2.11523Z" fill="black"/>
<path d="M55.1005 12.375L44.747 33.0655L34.8125 23.7541L55.1005 12.375Z" fill="black"/>
<path d="M56.7192 23.1128L47.2344 17.8741L55.1305 12.375L56.7192 23.1128Z" fill="black"/>
<path d="M47.0357 32.3813C49.0648 32.7958 51.0065 31.6243 51.3726 29.7647C51.7387 27.9051 50.3906 26.0615 48.3615 25.647C46.3324 25.2325 44.3907 26.404 44.0246 28.2636C43.6585 30.1232 45.0066 31.9668 47.0357 32.3813Z" fill="white"/>
<path d="M33.6372 29.4204C35.6663 29.8349 37.608 28.6634 37.9741 26.8038C38.3402 24.9442 36.9921 23.1006 34.963 22.6861C32.934 22.2716 30.9923 23.4431 30.6262 25.3027C30.26 27.1623 31.6082 29.0059 33.6372 29.4204Z" fill="white"/>
<path d="M36.2052 25.1417C35.9976 26.2892 34.9415 27.0228 33.846 26.7799C32.7507 26.5373 32.0312 25.4104 32.2388 24.2628C32.4464 23.1153 33.5025 22.3818 34.5978 22.6245C35.6931 22.8672 36.4128 23.9942 36.2052 25.1417Z" fill="black"/>
<path d="M46.7706 29.7824C47.8659 30.0251 48.9221 29.2916 49.1297 28.1441C49.3373 26.9966 48.6176 25.8696 47.5223 25.6269C46.427 25.3842 45.3708 26.1177 45.1632 27.2652C44.9556 28.4127 45.6752 29.5397 46.7706 29.7824Z" fill="black"/>
</g>
</g>
<defs>
<clipPath id="clip0_204_8029">
<rect width="78" height="78" fill="white"/>
</clipPath>
</defs>
</svg>
