<svg width="26" height="20" viewBox="0 0 26 20" fill="none" xmlns="http://www.w3.org/2000/svg">
<path d="M15.8487 0.0012141C15.5382 0.0205031 15.2965 0.278438 15.2971 0.589512V4.75383C6.18661 5.34134 0 12.7113 0 19.4164C0.00184684 19.653 0.145076 19.8653 0.363822 19.9554C0.582362 20.0457 0.83373 19.9963 1.00197 19.8301C4.38903 16.443 8.19981 13.7112 15.2968 13.5605V17.6513C15.2982 17.8834 15.4361 18.0929 15.6485 18.1861C15.8609 18.2795 16.1086 18.2392 16.2803 18.0833L25.6939 9.55221C25.8144 9.44078 25.8829 9.28421 25.8829 9.12006C25.8829 8.9561 25.8144 8.79932 25.6939 8.68811L16.2803 0.157022C16.1635 0.0484714 16.0076 -0.00775292 15.8483 0.000862215L15.8487 0.0012141ZM16.4737 1.91325L24.4259 9.12054L16.4737 16.3278V12.9449C16.4737 12.6201 16.2102 12.3566 15.8854 12.3566C8.88719 12.3566 4.72619 14.8639 1.35105 17.9549C2.19339 12.2306 7.78666 6.14638 15.9038 5.88477C16.2215 5.87472 16.4739 5.61432 16.4737 5.29626L16.4737 1.91325Z" fill="black"/>
</svg>
