<svg width="24" height="24" viewBox="0 0 24 24" fill="none" xmlns="http://www.w3.org/2000/svg">
<path d="M0 12C0 18.6 5.4 24 12 24C18.6 24 24 18.6 24 12C24 5.4 18.6 0 12 0C5.4 0 0 5.4 0 12ZM23 12C23 18.05 18.05 23 12 23C5.95 23 1 18.05 1 12C1 5.95 5.95 0.999998 12 0.999998C18.05 0.999998 23 5.95 23 12Z" fill="black"/>
<path d="M6.25 6.0997C6.25 8.0497 7.79996 9.59961 9.74991 9.59961C11.6999 9.59961 13.2498 8.04965 13.2498 6.0997C13.2498 4.1497 11.6999 2.59979 9.74991 2.59979C7.84996 2.59979 6.25 4.14974 6.25 6.0997ZM12.3 6.0997C12.3 7.49965 11.1499 8.5997 9.8 8.5997C8.45009 8.5997 7.3 7.44961 7.3 6.0997C7.3 4.74979 8.45009 3.5997 9.8 3.5997C11.1501 3.5997 12.3 4.69974 12.3 6.0997Z" fill="black"/>
<path d="M15.6016 11C15.6016 12.4 16.7016 13.5 18.1016 13.5C19.5015 13.5 20.6016 12.4 20.6016 11C20.6016 9.60004 19.5015 8.5 18.1016 8.5C16.7016 8.5 15.6016 9.59987 15.6016 11ZM19.6015 11C19.6015 11.85 18.9515 12.5001 18.1014 12.5001C17.2514 12.5001 16.6013 11.8501 16.6013 11C16.6013 10.15 17.2512 9.49991 18.1014 9.49991C18.9515 9.49991 19.6015 10.1499 19.6015 11Z" fill="black"/>
<path d="M12.7968 16.5997C11.8468 16.5997 11.0469 17.3998 11.0469 18.3497C11.0469 19.2997 11.847 20.0996 12.7968 20.0996C13.7469 20.0996 14.5468 19.2995 14.5468 18.3497C14.5468 17.3998 13.7467 16.5997 12.7968 16.5997ZM12.7968 19.0997C12.3968 19.0997 12.0468 18.7497 12.0468 18.3497C12.0468 17.9496 12.3968 17.5996 12.7968 17.5996C13.1969 17.5996 13.5469 17.9496 13.5469 18.3497C13.5467 18.7497 13.1967 19.0997 12.7968 19.0997Z" fill="black"/>
<path d="M12.7968 11.2501C11.8468 11.2501 11.0469 12.0502 11.0469 13C11.0469 13.9501 11.847 14.75 12.7968 14.75C13.7469 14.75 14.5468 13.9499 14.5468 13C14.5468 12.0502 13.7467 11.2501 12.7968 11.2501ZM12.7968 13.7501C12.3968 13.7501 12.0468 13.4001 12.0468 13C12.0468 12.6 12.3968 12.25 12.7968 12.25C13.1969 12.25 13.5469 12.6 13.5469 13C13.5467 13.4001 13.1967 13.7501 12.7968 13.7501Z" fill="black"/>
<path d="M14.3516 5.45122C14.3516 6.40126 15.1517 7.20117 16.1015 7.20117C17.0516 7.20117 17.8515 6.40108 17.8515 5.45122C17.8515 4.50117 17.0514 3.70126 16.1015 3.70126C15.1515 3.70109 14.3516 4.45113 14.3516 5.45122ZM16.8516 5.45122C16.8516 5.85126 16.5016 6.20126 16.1015 6.20126C15.7015 6.20126 15.3515 5.85127 15.3515 5.45122C15.3515 5.05116 15.7015 4.70117 16.1015 4.70117C16.5016 4.70117 16.8516 5.00112 16.8516 5.45122Z" fill="black"/>
<path d="M10.203 12.5C10.203 11.55 9.40295 10.7501 8.45308 10.7501C7.50304 10.7501 6.70312 11.5502 6.70312 12.5C6.70312 13.4501 7.50321 14.25 8.45308 14.25C9.40313 14.25 10.203 13.4501 10.203 12.5ZM7.70304 12.5C7.70304 12.1 8.05303 11.75 8.45308 11.75C8.85312 11.75 9.20312 12.1 9.20312 12.5C9.20312 12.9001 8.85313 13.2501 8.45308 13.2501C8.05304 13.2501 7.70304 12.9001 7.70304 12.5Z" fill="black"/>
<path d="M5.70304 10C5.70304 9.05 4.90295 8.25009 3.95308 8.25009C3.00304 8.25009 2.20312 9.05018 2.20312 10C2.20312 10.9501 3.00304 11.75 3.95308 11.75C4.90313 11.75 5.70304 10.9501 5.70304 10ZM3.20304 10C3.20304 9.60001 3.55303 9.25 3.95308 9.25C4.35312 9.25 4.70313 9.59999 4.70313 10C4.70313 10.4001 4.35313 10.7501 3.95308 10.7501C3.55304 10.7501 3.20304 10.4001 3.20304 10Z" fill="black"/>
<path d="M9.70312 17.5996C9.70312 16.1997 8.60308 15.0996 7.20312 15.0996C5.80317 15.0996 4.70312 16.1997 4.70312 17.5996C4.70312 18.9996 5.80317 20.0996 7.20312 20.0996C8.60308 20.0996 9.70312 18.9996 9.70312 17.5996ZM5.70304 17.5996C5.70304 16.7497 6.35299 16.0995 7.20312 16.0995C8.05308 16.0995 8.70321 16.7495 8.70321 17.5996C8.70321 18.4496 8.05326 19.0997 7.20312 19.0997C6.35317 19.0995 5.70304 18.3995 5.70304 17.5996Z" fill="black"/>
<path d="M15.6016 17C15.6016 18.4 16.7016 19.5 18.1016 19.5C19.5015 19.5 20.6016 18.4 20.6016 17C20.6016 15.6 19.5015 14.5 18.1016 14.5C16.7016 14.5 15.6016 15.6 15.6016 17ZM19.6015 17C19.6015 17.85 18.9515 18.5001 18.1014 18.5001C17.2514 18.5001 16.6013 17.8501 16.6013 17C16.6013 16.15 17.2512 15.4999 18.1014 15.4999C18.9515 15.4999 19.6015 16.15 19.6015 17Z" fill="black"/>
</svg>
