<svg width="24" height="24" viewBox="0 0 24 24" fill="none" xmlns="http://www.w3.org/2000/svg">
<path d="M0 0H8.00009V8.00008H0V0ZM10.2856 0H11.4285V1.14291H12.5715L12.5713 0H14.8569V1.14291H13.714V2.28581H14.8569V3.42872H13.714V4.57162H12.5711L12.5713 2.28564H11.4284V4.57128L10.2856 4.57145V3.42854H9.14273V2.28564H10.2856V0ZM15.9997 0H23.9998V8.00008H15.9997V0ZM1.14299 1.14291V6.85701H6.85709V1.14291H1.14299ZM17.1427 1.14291V6.85701H22.8568V1.14291H17.1427ZM2.28556 2.28564H5.7141V5.71419H2.28556V2.28564ZM18.2857 2.28564H21.7143V5.71419H18.2857V2.28564ZM11.4286 4.57145H12.5715V5.71436H11.4286V4.57145ZM13.7143 4.57145H14.8572V9.14299H13.7143V10.2859H12.5714V12.5715H11.4285L11.4286 10.2857H10.2857V11.4286H9.14282V12.5715L6.85718 12.5714V13.7143H9.14282V14.8572H5.71427V12.5715L4.57153 12.5714V11.4285H5.71444L5.71427 10.2857H4.57154V9.14283H9.14308L9.14291 6.85719H10.2858V8.00009H11.4287V9.143H12.5716L12.5715 8.00009H13.7144L13.7143 4.57145ZM11.4286 6.85709H12.5715V8H11.4286V6.85709ZM0 9.14273H3.42855V10.2856H1.14291V11.4285H2.28581V12.5715H4.57145V14.8571H3.42855V13.7142H1.14291V12.5713H0V9.14273ZM14.8572 9.14273H17.1428V10.2856H14.8572V9.14273ZM20.5713 9.14273H21.7142V10.2856H20.5713V9.14273ZM6.85709 10.2856V11.4285H8V10.2856H6.85709ZM17.1427 10.2856H20.5713V11.4285H21.7142V10.2856H23.9998V17.1427H17.1427V15.9998H14.8571V14.8569H13.7142V13.714H15.9998V14.8569H17.1427V12.5713H13.7142V11.4284H17.1427V10.2856ZM10.2856 12.5713H11.4285V14.8569H13.7142V17.1426H15.9998V18.2855H13.7142V19.4284H12.5713V15.9998H11.4284V19.4284H9.14273V14.8568H10.2856V12.5713ZM19.4283 12.5713V13.7142H18.2854V14.8571H19.4283V16H20.5712V14.8571H22.8568V12.5715L19.4283 12.5713ZM0 15.9998H8.00009V23.9999H0V15.9998ZM1.14291 17.1427V22.8568H6.85701V17.1427H1.14291ZM2.28564 18.2856H5.71419V21.7142H2.28564V18.2856ZM15.9998 18.2856H19.4284V20.5713H20.5713V21.7142H19.4284V22.8571H18.2855V24H15.9998V21.7144H17.1427V20.5715H18.2856V19.4285H17.1427V20.5715H15.9998V18.2856ZM11.4287 19.4284H12.5716V23.9999H11.4287V19.4284ZM20.5714 19.4284H22.857V20.5713H20.5714V19.4284ZM9.14273 20.5713H10.2856V23.9998H9.14273V20.5713ZM13.7143 20.5713H14.8572V21.7142H13.7143V20.5713ZM22.8569 20.5713H23.9998V21.7142H22.8569V20.5713ZM21.7142 21.7142H22.8571V22.8571H24V24H21.7144L21.7142 21.7142ZM13.7141 22.8569H14.857V23.9998H13.7141V22.8569Z" fill="black"/>
</svg>
