<svg width="24" height="23" viewBox="0 0 24 23" fill="none" xmlns="http://www.w3.org/2000/svg">
<path fill-rule="evenodd" clip-rule="evenodd" d="M12.0003 0C11.5807 0 11.1609 0.218844 10.9452 0.65553L7.87473 6.87723L1.00875 7.87481C0.0436827 8.01507 -0.341614 9.20081 0.356359 9.88206L5.32515 14.7252L4.15169 21.5632C4.0217 22.3237 4.62586 22.9411 5.3114 22.9411C5.49211 22.9411 5.67912 22.898 5.85933 22.8035L12 19.5749L18.141 22.8035C18.3211 22.8985 18.5076 22.9411 18.689 22.9411C19.3745 22.9411 19.9787 22.3237 19.8479 21.5632L18.6752 14.7252L23.6431 9.88206C24.3418 9.20081 23.9565 8.01508 22.9914 7.87481L16.1255 6.87723L13.055 0.65553C12.8391 0.218835 12.4195 0 11.9997 0H12.0003ZM11.9997 1.34476L15.0032 7.43064C15.1859 7.80036 15.5381 8.05617 15.9452 8.11555L22.6618 9.09122L17.8017 13.8287C17.5071 14.1165 17.3726 14.5305 17.4421 14.9359L18.5892 21.6257L12.5823 18.467C12.3995 18.3714 12.1994 18.3231 11.9998 18.3231C11.7997 18.3231 11.5996 18.3714 11.4175 18.467L5.40975 21.6257L6.55753 14.9359C6.62683 14.5305 6.49237 14.1165 6.19776 13.8287L1.3372 9.09122L8.05379 8.11555C8.46164 8.05619 8.8136 7.80037 8.99564 7.43064L11.9998 1.34476H11.9997ZM12.0668 1.20914H12.0699H12.0668Z" fill="black"/>
</svg>
