<svg width="314" height="108" viewBox="0 0 314 108" fill="none" xmlns="http://www.w3.org/2000/svg">
<path d="M230.499 10.8312V95.5843H220.918L221.286 10.8312H230.499ZM264.873 10.3399C286 10.3399 296.563 24.4654 296.563 52.7164C296.563 65.2451 293.78 75.6447 288.211 83.9154C285.509 88.0098 281.865 91.2442 277.279 93.619C272.776 95.9118 267.617 97.0582 261.802 97.0582C252.549 97.0582 245.793 96.1166 241.535 94.2331L241.904 11.8138C248.618 10.8312 256.275 10.3399 264.873 10.3399ZM260.574 89.0743C269.664 89.0743 276.296 85.676 280.473 78.8793C284.649 72.0008 286.737 63.157 286.737 52.3479C286.737 29.6652 278.466 18.3239 261.925 18.3239L251.116 18.8152V88.4601C253.409 88.8696 256.562 89.0743 260.574 89.0743Z" fill="black"/>
<path d="M104.493 49.9474C104.493 47.5726 103.756 45.7711 102.282 44.5428C100.808 43.3145 98.8424 42.7004 96.3858 42.7004C91.4726 42.7004 87.6239 44.7475 84.8398 48.8419C82.0555 52.8543 80.4587 57.7267 80.0494 63.4587C96.3448 63.4587 104.493 58.955 104.493 49.9474ZM93.9292 96.5001C78.5344 96.5001 70.8371 86.6737 70.8371 67.0208C70.8371 58.0132 73.0889 50.5615 77.5928 44.6657C82.1784 38.7698 88.6065 35.8219 96.8772 35.8219C101.954 35.8219 105.967 37.0502 108.915 39.5068C111.944 41.8815 113.459 45.198 113.459 49.4561C113.459 53.6323 112.435 57.0715 110.389 59.7738C108.423 62.3942 105.721 64.4004 102.282 65.7925C95.8126 68.4129 88.3199 69.7231 79.8037 69.7231C79.8037 82.7431 85.0035 89.2531 95.4032 89.2531C100.644 89.2531 105.598 87.8202 110.266 84.9541L111.617 89.7445C109.57 91.7916 106.867 93.4294 103.51 94.6577C100.234 95.886 97.0409 96.5001 93.9292 96.5001ZM150.139 88.8846L151.367 94.2892C148.337 95.7632 144.693 96.5001 140.435 96.5001C134.375 96.5001 130.363 94.8624 128.398 91.5869C126.433 88.3115 125.45 83.1116 125.45 75.9874V43.8058H115.623V38.5241L125.45 37.2958V24.5215L134.294 23.0475V37.2958H150.139V43.8058H134.294V73.2852C134.294 80.9007 134.948 85.5272 136.259 87.165C137.896 89.0485 140.107 89.9901 142.892 89.9901C145.676 89.9901 148.091 89.6216 150.139 88.8846ZM170.455 89.7445C174.057 89.7445 177.088 88.9256 179.544 87.2879C182.001 85.5682 183.229 83.1526 183.229 80.0409C183.229 76.7654 181.673 74.186 178.562 72.3025C177.005 71.4017 175.123 70.501 172.912 69.6003C170.701 68.6176 169.35 68.0035 168.858 67.7578C164.763 65.9563 161.57 63.8272 159.277 61.3706C157.066 58.914 155.961 55.4338 155.961 50.93C155.961 46.3443 157.803 42.7004 161.488 39.9981C165.173 37.214 169.513 35.8219 174.508 35.8219C179.503 35.8219 184.007 36.8045 188.02 38.7698L186.669 44.2972C182.574 43.1507 178.93 42.5775 175.737 42.5775C172.625 42.5775 169.922 43.3145 167.63 44.7885C165.336 46.1806 164.191 48.1459 164.191 50.6844C164.191 53.2228 164.968 55.2291 166.524 56.7031C168.08 58.0952 169.677 59.1597 171.315 59.8967C173.034 60.6336 174.836 61.4116 176.719 62.2304C178.685 62.9674 179.953 63.4997 180.527 63.8272C181.1 64.1547 182.164 64.7689 183.721 65.6697C185.276 66.4885 186.34 67.2665 186.914 68.0035C187.569 68.7404 188.306 69.7231 189.125 70.9514C190.681 72.9985 191.459 75.9056 191.459 79.6724C191.459 85.0769 189.452 89.2531 185.44 92.2011C181.427 95.0672 176.31 96.5001 170.087 96.5001C163.945 96.5001 158.499 94.453 153.75 90.3586L155.101 85.4454C159.769 88.3115 164.886 89.7445 170.455 89.7445Z" fill="black"/>
<path d="M45.5125 9.78217C52.9643 9.78217 58.983 11.7065 63.5686 15.5552C68.1543 19.322 70.4471 24.7265 70.4471 31.7688C70.4471 47.8187 60.0065 55.9665 39.1254 56.2121L31.7555 56.3349V95.0266H22.1747L22.5432 11.2561C27.6203 10.2735 35.2767 9.78217 45.5125 9.78217ZM43.7929 17.7662C37.5695 17.7662 33.5571 17.93 31.7555 18.2575V48.7194L39.371 48.5966C53.5375 48.351 60.6207 42.9464 60.6207 32.383C60.6207 22.6384 55.0115 17.7662 43.7929 17.7662Z" fill="black"/>
<path d="M205.349 95.0265C209.974 95.0265 213.724 91.277 213.724 86.6517C213.724 82.0265 209.974 78.2769 205.349 78.2769C200.724 78.2769 196.974 82.0265 196.974 86.6517C196.974 91.277 200.724 95.0265 205.349 95.0265Z" fill="black"/>
</svg>
