<svg width="29" height="29" viewBox="0 0 29 29" fill="none" xmlns="http://www.w3.org/2000/svg">
<mask id="mask0_204_10975" style="mask-type:alpha" maskUnits="userSpaceOnUse" x="0" y="0" width="29" height="29">
<ellipse cx="14.5006" cy="14.4997" rx="13.9943" ry="13.9943" transform="rotate(-16.6632 14.5006 14.4997)" fill="#D9D9D9" stroke="black"/>
</mask>
<g mask="url(#mask0_204_10975)">
<path d="M28.998 14.501C28.998 6.49563 22.5083 0.00596543 14.5029 0.00596497C6.49749 0.00596451 0.00782517 6.49563 0.00782518 14.501C0.00782518 22.5064 6.49749 28.9961 14.5029 28.9961C22.5083 28.9961 28.998 22.5064 28.998 14.501Z" stroke="black"/>
<path d="M14.2974 33.5864C13.7095 34.6001 13.6114 32.8698 10.5869 32.2616C2.58964 24.1436 -2.90492 30.5142 3.27551 19.0526C18.5 -9.18118 8.95773 17.8844 11.8305 17.6314C14.7033 17.3783 11.442 23.8765 14.2974 33.5864Z" fill="black"/>
<path d="M24.8026 15.5565C23.4605 24.9709 12.6983 15.1712 13.0282 23.968C6.96726 27.8026 5.77169 18.7949 6.67622 14.2729C7.976 9.55106 10.5386 6.22274 14.9978 8.38284C18.951 8.03464 18.3924 14.9525 24.8026 15.5565Z" fill="black"/>
<path d="M12.0143 2.55689L14.1119 10.5106L8.63155 10.0734L12.0143 2.55689Z" fill="black"/>
<path d="M20.3599 6.29246L16.6046 13.8256L13.0013 10.4355L20.3599 6.29246Z" fill="black"/>
<path d="M20.9455 10.2018L17.5053 8.29448L20.3693 6.29231L20.9455 10.2018Z" fill="black"/>
<ellipse cx="1.35812" cy="1.24728" rx="1.35812" ry="1.24728" transform="matrix(0.981201 0.20121 -0.192773 0.982893 16.5815 10.8515)" fill="white"/>
<ellipse cx="1.35812" cy="1.24728" rx="1.35812" ry="1.24728" transform="matrix(0.981201 0.20121 -0.192773 0.982893 11.7221 9.77361)" fill="white"/>
<path d="M13.5018 10.9401C13.4265 11.3579 13.0434 11.6249 12.6461 11.5366C12.2488 11.4482 11.9878 11.0379 12.0631 10.6201C12.1384 10.2023 12.5215 9.93523 12.9188 10.0236C13.316 10.1119 13.5771 10.5223 13.5018 10.9401Z" fill="black"/>
<ellipse cx="0.735734" cy="0.767429" rx="0.735734" ry="0.767429" transform="matrix(0.97773 0.217452 -0.177651 0.985739 16.8867 10.9572)" fill="black"/>
</g>
</svg>
