<svg width="24" height="24" viewBox="0 0 24 24" fill="none" xmlns="http://www.w3.org/2000/svg">
<path d="M14.8468 6.59977L13.9769 5.75977L7.79688 12.0898L14.1269 18.2698L14.9669 17.3999L9.50688 12.0599L14.8468 6.59977Z" fill="black"/>
<path d="M20.01 0H3.99C1.80005 0 0 1.80011 0 3.99V20.01C0 22.1999 1.80011 24 3.99 24H20.01C22.1999 24 24 22.1999 24 20.01V3.99C24 1.80005 22.1999 0 20.01 0ZM22.8001 20.01C22.8001 21.5399 21.5401 22.7999 20.0102 22.7999L3.99021 22.8001C2.46027 22.8001 1.20032 21.5401 1.20032 20.0102L1.20011 3.99021C1.20011 2.46026 2.46011 1.20032 3.99 1.20032H20.01C21.54 1.20032 22.7999 2.46032 22.7999 3.99021L22.8001 20.01Z" fill="black"/>
</svg>
