<svg width="36" height="36" viewBox="0 0 36 36" fill="none" xmlns="http://www.w3.org/2000/svg">
<mask id="mask0_204_9855" style="mask-type:alpha" maskUnits="userSpaceOnUse" x="0" y="0" width="36" height="36">
<rect width="36" height="36" fill="#D9D9D9"/>
</mask>
<g mask="url(#mask0_204_9855)">
<path d="M14.1429 36L13.4229 30.2C12.7714 30.0333 12.0603 29.742 11.2896 29.326C10.5175 28.9087 9.87429 28.4667 9.36 28L3.85714 30.25L0 23.75L4.78286 20.25C4.71429 19.9167 4.65463 19.558 4.60389 19.174C4.55177 18.7913 4.52571 18.4167 4.52571 18.05C4.52571 17.7167 4.55177 17.358 4.60389 16.974C4.65463 16.5913 4.71429 16.1833 4.78286 15.75L0 12.25L3.85714 5.85L9.30857 8.05C9.92572 7.55 10.5861 7.1 11.2896 6.7C11.9918 6.3 12.6857 6 13.3714 5.8L14.1429 0H21.8571L22.5771 5.8C23.3657 6.1 24.0603 6.41667 24.661 6.75C25.2603 7.08333 25.8857 7.51667 26.5371 8.05L32.1429 5.85L36 12.25L31.0629 15.85C31.2 16.25 31.2686 16.6253 31.2686 16.976V18C31.2686 18.3 31.2603 18.6253 31.2439 18.976C31.2261 19.3253 31.1657 19.75 31.0629 20.25L35.8971 23.75L32.04 30.25L26.5371 27.95C25.8857 28.4833 25.2432 28.9333 24.6096 29.3C23.9746 29.6667 23.2971 29.9667 22.5771 30.2L21.8571 36H14.1429ZM17.9486 23C19.3886 23 20.6057 22.5167 21.6 21.55C22.5943 20.5833 23.0914 19.4 23.0914 18C23.0914 16.6 22.5943 15.4167 21.6 14.45C20.6057 13.4833 19.3886 13 17.9486 13C16.5086 13 15.2914 13.4833 14.2971 14.45C13.3029 15.4167 12.8057 16.6 12.8057 18C12.8057 19.4 13.3029 20.5833 14.2971 21.55C15.2914 22.5167 16.5086 23 17.9486 23ZM17.9486 21C17.0914 21 16.3632 20.708 15.7639 20.124C15.1632 19.5413 14.8629 18.8333 14.8629 18C14.8629 17.1667 15.1632 16.4587 15.7639 15.876C16.3632 15.292 17.0914 15 17.9486 15C18.8057 15 19.5346 15.292 20.1353 15.876C20.7346 16.4587 21.0343 17.1667 21.0343 18C21.0343 18.8333 20.7346 19.5413 20.1353 20.124C19.5346 20.708 18.8057 21 17.9486 21ZM15.9429 34H19.9543L20.7257 28.6C21.7543 28.3333 22.6889 27.9667 23.5296 27.5C24.3689 27.0333 25.2171 26.3833 26.0743 25.55L31.1657 27.7L33.2229 24.3L28.7486 21C28.92 20.4333 29.0318 19.908 29.0839 19.424C29.1346 18.9413 29.16 18.4667 29.16 18C29.16 17.5 29.1346 17.0247 29.0839 16.574C29.0318 16.1247 28.92 15.6167 28.7486 15.05L33.3257 11.7L31.2686 8.3L26.0229 10.45C25.4057 9.78333 24.5918 9.158 23.581 8.574C22.5689 7.99133 21.6 7.6 20.6743 7.4L20.0571 2H15.9429L15.3257 7.4C14.2971 7.6 13.3454 7.94133 12.4704 8.424C11.5968 8.908 10.7314 9.56667 9.87429 10.4L4.73143 8.3L2.67429 11.7L7.14857 14.95C6.97714 15.3833 6.85714 15.8667 6.78857 16.4C6.72 16.9333 6.68571 17.4833 6.68571 18.05C6.68571 18.55 6.72 19.05 6.78857 19.55C6.85714 20.05 6.96 20.5333 7.09714 21L2.67429 24.3L4.73143 27.7L9.82286 25.6C10.6457 26.4 11.4857 27.0333 12.3429 27.5C13.2 27.9667 14.1771 28.3333 15.2743 28.6L15.9429 34Z" fill="#1C1B1F"/>
</g>
</svg>
