<svg width="202" height="253" viewBox="0 0 202 253" fill="none" xmlns="http://www.w3.org/2000/svg">
<path d="M147.015 187.671V241.88H140.852L141.089 187.671H147.015ZM169.129 187.357C182.719 187.357 189.515 196.392 189.515 214.461C189.515 222.475 187.724 229.127 184.142 234.416C182.403 237.035 180.059 239.104 177.109 240.623C174.212 242.089 170.893 242.823 167.152 242.823C161.201 242.823 156.854 242.221 154.115 241.016L154.353 188.3C158.671 187.671 163.597 187.357 169.129 187.357ZM166.364 237.716C172.211 237.716 176.477 235.542 179.164 231.195C181.85 226.796 183.194 221.139 183.194 214.225C183.194 199.718 177.873 192.464 167.233 192.464L160.279 192.778V237.324C161.754 237.585 163.782 237.716 166.364 237.716Z" fill="white"/>
<path d="M65.9558 212.69C65.9558 211.17 65.4817 210.018 64.5333 209.233C63.5852 208.447 62.3209 208.054 60.7405 208.054C57.5798 208.054 55.1038 209.364 53.3128 211.982C51.5216 214.549 50.4943 217.665 50.2311 221.332C60.7141 221.332 65.9558 218.451 65.9558 212.69ZM59.1602 242.465C49.2564 242.465 44.3047 236.18 44.3047 223.61C44.3047 217.848 45.7533 213.082 48.6507 209.311C51.6007 205.54 55.736 203.655 61.0566 203.655C64.3227 203.655 66.904 204.441 68.8005 206.012C70.7492 207.53 71.7241 209.652 71.7241 212.375C71.7241 215.047 71.0651 217.247 69.7487 218.975C68.4844 220.651 66.746 221.934 64.5333 222.824C60.3718 224.5 55.5515 225.338 50.073 225.338C50.073 233.666 53.4181 237.83 60.1084 237.83C63.4798 237.83 66.6669 236.913 69.6696 235.08L70.5386 238.144C69.2219 239.453 67.4833 240.501 65.3236 241.287C63.2163 242.072 61.1619 242.465 59.1602 242.465ZM95.3209 237.594L96.111 241.051C94.1612 241.993 91.8174 242.465 89.0782 242.465C85.1793 242.465 82.5984 241.417 81.3342 239.323C80.0699 237.227 79.4381 233.902 79.4381 229.345V208.761H73.1166V205.384L79.4381 204.597V196.427L85.127 195.484V204.597H95.3209V208.761H85.127V227.617C85.127 232.487 85.5482 235.447 86.3913 236.494C87.4443 237.699 88.8669 238.301 90.6584 238.301C92.4492 238.301 94.0028 238.066 95.3209 237.594ZM108.39 238.144C110.708 238.144 112.657 237.62 114.237 236.573C115.818 235.473 116.608 233.928 116.608 231.938C116.608 229.842 115.607 228.193 113.605 226.988C112.604 226.412 111.393 225.836 109.971 225.26C108.548 224.632 107.679 224.238 107.363 224.081C104.729 222.929 102.675 221.568 101.2 219.996C99.777 218.424 99.0657 216.199 99.0657 213.318C99.0657 210.385 100.251 208.054 102.622 206.326C104.993 204.545 107.784 203.655 110.998 203.655C114.211 203.655 117.108 204.284 119.69 205.54L118.821 209.076C116.186 208.342 113.843 207.976 111.788 207.976C109.786 207.976 108.048 208.447 106.573 209.39C105.097 210.281 104.36 211.537 104.36 213.161C104.36 214.785 104.86 216.068 105.861 217.011C106.862 217.901 107.889 218.582 108.943 219.053C110.05 219.524 111.209 220.023 112.42 220.546C113.684 221.017 114.501 221.358 114.87 221.568C115.238 221.777 115.923 222.169 116.924 222.745C117.925 223.269 118.61 223.767 118.979 224.238C119.4 224.709 119.874 225.338 120.401 226.124C121.402 227.433 121.902 229.293 121.902 231.702C121.902 235.159 120.612 237.83 118.03 239.716C115.449 241.548 112.156 242.465 108.153 242.465C104.202 242.465 100.699 241.156 97.6439 238.537L98.5127 235.395C101.516 237.227 104.808 238.144 108.39 238.144Z" fill="white"/>
<path d="M28.0135 187C32.8075 187 36.6793 188.231 39.6292 190.692C42.5793 193.101 44.0543 196.558 44.0543 201.063C44.0543 211.328 37.3377 216.54 23.9046 216.697L19.1634 216.775V241.523H13L13.237 187.943C16.5033 187.314 21.4286 187 28.0135 187ZM26.9073 192.106C22.9038 192.106 20.3225 192.212 19.1634 192.421V211.904L24.0627 211.826C33.1761 211.669 37.7328 208.212 37.7328 201.455C37.7328 195.223 34.1243 192.106 26.9073 192.106Z" fill="white"/>
<path d="M130.841 241.524C133.816 241.524 136.229 239.125 136.229 236.167C136.229 233.208 133.816 230.811 130.841 230.811C127.865 230.811 125.453 233.208 125.453 236.167C125.453 239.125 127.865 241.524 130.841 241.524Z" fill="white"/>
<mask id="mask0_1164_2927" style="mask-type:alpha" maskUnits="userSpaceOnUse" x="15" y="0" width="172" height="170">
<path d="M100.941 169.772C148.045 169.772 186.232 131.768 186.232 84.8865C186.232 38.0048 148.045 0 100.941 0C53.8349 0 15.6484 38.0048 15.6484 84.8865C15.6484 131.768 53.8349 169.772 100.941 169.772Z" fill="#D9D9D9"/>
</mask>
<g mask="url(#mask0_1164_2927)">
<path d="M100.935 169.809C148.028 169.809 186.205 131.795 186.205 84.9044C186.205 38.0129 148.028 0 100.935 0C53.8411 0 15.6641 38.0129 15.6641 84.9044C15.6641 131.795 53.8411 169.809 100.935 169.809Z" fill="#F6C600"/>
<path d="M200.247 121.706C100.537 185.132 210.5 163.239 140.783 162.558C156.754 160.844 131.606 145.799 120.709 143.052C114.123 137.634 159.334 116.729 163.689 122.204C161.4 136.135 217.241 110.896 200.247 121.706Z" fill="black"/>
<path d="M162.742 112.614C167.484 122.914 160.294 136.419 145.46 143.152C130.626 149.885 113.832 147.288 109.09 136.987C104.348 126.686 112.198 112.937 127.031 106.203C141.865 99.4706 158.001 102.312 162.742 112.614Z" fill="black"/>
<path d="M144.462 88.6191L159.72 108.801L134.812 105.359L144.462 88.6191Z" fill="black"/>
<path d="M102.891 106.533L121.669 110.869L108.225 133.416L102.891 106.533Z" fill="black"/>
<path d="M148.068 122.894C151.807 121.672 153.929 117.988 152.805 114.666C151.681 111.343 147.739 109.641 143.999 110.863C140.259 112.085 138.138 115.77 139.262 119.092C140.386 122.414 144.328 124.117 148.068 122.894Z" fill="white"/>
<path d="M148.391 115.838C149.56 118.046 148.891 120.635 146.897 121.619C144.904 122.603 142.339 121.61 141.17 119.401C140 117.192 140.669 114.604 142.662 113.62C144.656 112.636 147.22 113.629 148.391 115.838Z" fill="black"/>
<path d="M121.391 120.572C117.651 121.794 115.544 125.52 116.685 128.892C117.826 132.265 121.782 134.009 125.522 132.786C129.262 131.564 131.368 127.839 130.228 124.466C129.087 121.093 125.131 119.35 121.391 120.572Z" fill="white"/>
<path d="M127.865 125.132C128.897 127.406 128.075 129.957 126.028 130.83C123.982 131.703 121.486 130.567 120.453 128.294C119.421 126.02 120.243 123.47 122.29 122.597C124.337 121.724 126.834 122.859 127.865 125.132Z" fill="black"/>
<path d="M70.6282 166.978C67.9083 171.865 67.2731 163.625 52.7258 161.013C13.6394 123.064 -12.0766 153.96 16.4401 98.7256C86.6868 -37.3358 43.5509 92.6172 57.2896 91.1378C71.0283 89.6598 56.0232 120.951 70.6282 166.978Z" fill="black"/>
<path d="M119.235 80.0121C113.703 125.027 61.2098 79.3231 63.6285 121.235C34.9575 140.092 28.3714 97.2582 32.274 75.6117C38.0509 52.9745 50.0105 36.8623 71.5792 46.7386C90.4848 44.7036 88.4677 77.7408 119.235 80.0121Z" fill="black"/>
<path d="M56.7243 19.25L67.5311 56.9741L41.2344 55.4095L56.7243 19.25Z" fill="black"/>
<path d="M97.0698 36.2656L79.7966 72.5396L62.2109 56.7172L97.0698 36.2656Z" fill="black"/>
<path d="M100.272 54.7986L83.6094 46.0308L97.1391 36.2129L100.272 54.7986Z" fill="black"/>
<path d="M83.7561 71.2721C87.2961 71.922 90.6291 69.8214 91.2007 66.5806C91.7723 63.3397 89.3662 60.1857 85.8255 59.5359C82.2855 58.8861 78.9525 60.9866 78.3809 64.2274C77.8093 67.4683 80.2154 70.6222 83.7561 71.2721Z" fill="white"/>
<path d="M60.3653 66.5943C63.9054 67.2442 67.2388 65.1436 67.8105 61.9028C68.3821 58.6619 65.9756 55.508 62.4354 54.8582C58.8951 54.2084 55.5619 56.3088 54.9902 59.5497C54.4186 62.7905 56.8251 65.9446 60.3653 66.5943Z" fill="white"/>
<path d="M64.675 59.0802C64.3541 61.0795 62.5442 62.3892 60.6324 62.0055C58.7207 61.622 57.4311 59.6903 57.7521 57.6911C58.073 55.692 59.8829 54.3823 61.7946 54.7659C63.7064 55.1495 64.996 57.0812 64.675 59.0802Z" fill="black"/>
<path d="M83.2027 66.7712C85.1145 67.1549 86.9247 65.8452 87.2456 63.846C87.5665 61.8469 86.2771 59.9152 84.3653 59.5315C82.4534 59.148 80.6433 60.4577 80.3224 62.4568C80.0015 64.456 81.2916 66.3877 83.2027 66.7712Z" fill="black"/>
</g>
</svg>
