<svg width="21" height="21" viewBox="0 0 21 21" fill="none" xmlns="http://www.w3.org/2000/svg">
<path d="M1.03343 13.7089C0.447193 12.8664 0.0983049 11.5856 0.0179973 10.3109C-0.0622403 9.0435 0.124421 7.73936 0.605987 6.84008L1.09448 5.92745L1.93026 6.56817L9.87392 12.6593C10.1984 11.5188 10.2979 10.3764 10.2019 9.29538C10.0711 7.83423 9.40635 6.25148 8.61245 5.21525L10.1164 4.37677C11.1004 5.66087 11.7879 7.39061 11.9466 9.15708C12.0967 10.82 11.8419 12.6145 11.1144 14.3677L10.6783 15.4179L9.75524 14.7111L1.83427 8.63662C1.75228 9.12033 1.72959 9.66417 1.76446 10.2127C1.82726 11.2169 2.07855 12.1923 2.49199 12.7862L1.03343 13.7089ZM16.1513 19.4727C18.1107 16.5443 19.2605 12.8143 19.2587 9.91605C19.257 6.27487 18.0636 2.98376 16.5439 0.832459L18.0688 0C19.7298 2.37846 21.0034 5.97088 21.0034 9.91605C21.0052 13.1049 19.7001 17.2712 17.5419 20.4955L16.1513 19.4727ZM12.5241 16.7661C13.9216 14.848 14.7556 12.2424 14.7417 9.82252C14.7277 7.41198 14.0036 4.98341 12.573 3.03053L14.0874 2.1914C15.6855 4.40149 16.4707 7.12002 16.4864 9.81583C16.5021 12.5724 15.5111 15.5903 13.9077 17.793L12.5241 16.7661Z" fill="white"/>
</svg>
