<svg width="27" height="24" viewBox="0 0 27 24" fill="none" xmlns="http://www.w3.org/2000/svg">
<path d="M20.4985 5.73688V1.78521L21.4237 2.71563C21.5282 2.81495 21.6641 2.86723 21.7947 2.86723C21.9306 2.86723 22.0614 2.81495 22.1657 2.71563C22.3696 2.51174 22.3696 2.17723 22.1657 1.97334L20.3414 0.154288C20.2944 0.107253 20.2369 0.0707173 20.1741 0.0392144C20.0487 -0.0130715 19.9023 -0.0130715 19.7768 0.0392144C19.7087 0.0704983 19.6514 0.10725 19.6044 0.154288L17.7853 1.97334C17.5814 2.17723 17.5814 2.51173 17.7853 2.71563C17.9892 2.91952 18.3185 2.91952 18.5224 2.71563L19.4528 1.78521V5.73688C16.2955 6.00356 13.8125 8.64848 13.8125 11.8734C13.8125 15.2711 16.5778 18.0362 19.9753 18.0362C23.3735 18.0362 26.1387 15.2709 26.1387 11.8734C26.1387 8.64803 23.6506 6.00291 20.4984 5.73688H20.4985ZM19.9758 16.9911C17.1533 16.9911 14.8584 14.6964 14.8584 11.8737C14.8584 9.0511 17.1531 6.75618 19.9758 6.75618C22.7984 6.7564 25.0933 9.0511 25.0933 11.8739C25.0933 14.6964 22.7984 16.9911 19.9758 16.9911Z" fill="black"/>
<path d="M5.64006 18.0102V19.9704H3.64336C3.35064 19.9704 3.12072 20.2056 3.12072 20.4931C3.12072 20.7858 3.35065 21.0157 3.64336 21.0157H5.64006V23.4777C5.64006 23.7652 5.87523 24.0004 6.1627 24.0004C6.45016 24.0004 6.68534 23.7652 6.68534 23.4777V21.0157H8.68203C8.97475 21.0157 9.20467 20.7858 9.20467 20.4931C9.20467 20.2056 8.97474 19.9704 8.68203 19.9704H6.68534V18.0102C9.83736 17.7436 12.3256 15.0936 12.3256 11.8737C12.3256 8.47603 9.56036 5.71094 6.16281 5.71094C2.76509 5.71094 0 8.47619 0 11.8737C0 15.0936 2.48809 17.7436 5.64028 18.0102H5.64006ZM6.1627 6.75599C8.98525 6.75599 11.2802 9.05069 11.2802 11.8735C11.2802 14.696 8.98547 16.9909 6.1627 16.9909C3.34015 16.9909 1.04522 14.6962 1.04522 11.8735C1.04522 9.05069 3.34015 6.75599 6.1627 6.75599Z" fill="black"/>
</svg>
