<svg width="21" height="24" viewBox="0 0 21 24" fill="none" xmlns="http://www.w3.org/2000/svg">
<path d="M19.5058 3.65557H14.0698V2.87593C14.0698 1.29019 12.7789 0 11.1939 0H9.03718C7.45145 0 6.16126 1.29019 6.16126 2.87593V3.65469H0.724827C0.324483 3.65469 0 3.97917 0 4.37952C0 4.77986 0.324483 5.10434 0.724827 5.10434H1.47625L2.97266 21.0975C3.12727 22.7524 4.49728 24 6.15868 24H14.0719C15.7334 24 17.1034 22.7524 17.258 21.0983L18.7544 5.10522H19.5058C19.9061 5.10522 20.2306 4.78074 20.2306 4.38039C20.2306 3.98005 19.906 3.65557 19.5058 3.65557H19.5058ZM7.61123 2.87593C7.61123 2.08907 8.25069 1.44965 9.03751 1.44965H11.1942C11.981 1.44965 12.6205 2.08999 12.6205 2.87593V3.65469H7.61201V2.87593H7.61123ZM15.8135 20.963C15.7297 21.8683 14.9808 22.5503 14.0715 22.5503H6.15827C5.24899 22.5503 4.50009 21.8681 4.41629 20.963L2.93194 5.10471H17.2973L15.8135 20.963Z" fill="black"/>
<path d="M7.93573 19.8013H7.9591C8.35854 19.7892 8.67348 19.4541 8.66055 19.054L8.33193 8.52215C8.31899 8.1218 7.98246 7.80777 7.58465 7.8207C7.1852 7.83274 6.87027 8.16783 6.8832 8.56729L7.21181 19.0991C7.22386 19.4912 7.546 19.8013 7.93572 19.8013L7.93573 19.8013Z" fill="black"/>
<path d="M12.265 19.7998H12.2884C12.6774 19.7998 13.0003 19.4897 13.0116 19.0974L13.3402 8.5656C13.3531 8.16525 13.0382 7.83106 12.6387 7.819C12.2273 7.8021 11.9035 8.12101 11.8915 8.52045L11.5628 19.0523C11.5506 19.4526 11.8656 19.7877 12.265 19.7998L12.265 19.7998Z" fill="black"/>
</svg>
