<svg width="24" height="24" viewBox="0 0 24 24" fill="none" xmlns="http://www.w3.org/2000/svg">
<path d="M14.4085 0.000624697C14.0729 -0.0102184 13.7481 0.120498 13.5134 0.361253C13.2788 0.601807 13.1558 0.930086 13.1744 1.26606C13.193 1.60199 13.3515 1.91483 13.6114 2.1279L19.5332 7.20905H1.22353C0.901518 7.20202 0.590309 7.32511 0.360085 7.5508C0.12986 7.7765 0 8.08571 0 8.40842C0 8.7313 0.129845 9.04033 0.360085 9.26604C0.590325 9.49174 0.901533 9.61503 1.22353 9.608H22.7758C23.1022 9.60579 23.4136 9.47005 23.6378 9.23251C23.8621 8.99476 23.9797 8.6755 23.9635 8.34883C23.9472 8.02213 23.7986 7.7161 23.5519 7.50185L15.1755 0.302755L15.1757 0.302956C14.9637 0.114407 14.6921 0.00718416 14.4088 0.000558223L14.4085 0.000624697ZM1.22347 14.4075V14.4077C0.89705 14.4098 0.585636 14.5455 0.361414 14.7832C0.137186 15.021 0.0195599 15.34 0.0355905 15.6668C0.0518216 15.9937 0.200503 16.2995 0.447373 16.5137L8.83302 23.7128V23.7126C9.15824 23.9909 9.60711 24.0743 10.0103 23.9311C10.4134 23.7879 10.7098 23.4401 10.7875 23.0187C10.8655 22.5972 10.713 22.1661 10.3876 21.8878L4.4683 16.8066H22.7755C23.0977 16.8141 23.4091 16.691 23.6395 16.4653C23.87 16.2394 24 15.9302 24 15.6073C24 15.2844 23.87 14.975 23.6395 14.7493C23.4091 14.5236 23.0977 14.4005 22.7755 14.408L1.22347 14.4075Z" fill="black"/>
</svg>
