<svg width="13" height="10" viewBox="0 0 13 10" fill="none" xmlns="http://www.w3.org/2000/svg">
<path d="M8.15464 8.37419C7.86557 8.74947 7.9315 9.29212 8.31185 9.58117C8.46907 9.70289 8.65164 9.75867 8.83928 9.75867C9.09792 9.75867 9.3515 9.64203 9.52394 9.42396L12.8204 5.15381C12.8254 5.14367 12.8305 5.13859 12.8356 5.12845C12.8407 5.11831 12.8508 5.10817 12.8559 5.09802C12.866 5.08788 12.8711 5.07267 12.8762 5.06252C12.8812 5.05238 12.8863 5.04224 12.8964 5.03209C12.9015 5.01688 12.9117 5.00167 12.9167 4.98645L12.9319 4.95602C12.9421 4.93066 12.9522 4.91038 12.9573 4.88503C12.9624 4.87488 12.9624 4.86474 12.9674 4.8546C12.9725 4.83938 12.9776 4.82417 12.9776 4.80388C12.9776 4.79374 12.9827 4.78359 12.9827 4.77345C12.9877 4.75824 12.9877 4.74302 12.9877 4.72274C12.9877 4.71259 12.9877 4.70245 12.9928 4.69231C12.9928 4.67709 12.9928 4.65681 12.9979 4.64159V4.6213V4.61116C12.9979 4.59088 12.9979 4.57566 12.9928 4.55538V4.53002C12.9877 4.50466 12.9877 4.4793 12.9827 4.45395C12.9827 4.44381 12.9776 4.43366 12.9776 4.42859C12.9725 4.41338 12.9674 4.39309 12.9624 4.37788C12.9573 4.36773 12.9522 4.35759 12.9522 4.34238C12.9472 4.32716 12.9421 4.31702 12.937 4.30181C12.9319 4.29166 12.9269 4.28152 12.9218 4.26631C12.9167 4.25109 12.9117 4.24095 12.9015 4.22573L12.8863 4.19531C12.8812 4.18516 12.8711 4.16995 12.866 4.15981C12.8609 4.14966 12.8508 4.13952 12.8457 4.12938C12.8356 4.11923 12.8305 4.10402 12.8204 4.09388C12.8153 4.08373 12.8052 4.07359 12.8001 4.06852L12.7899 4.05838L9.49351 0.295396C9.17909 -0.0646735 8.63646 -0.100172 8.27637 0.214253C7.91628 0.528679 7.8808 1.07131 8.19523 1.43139L10.239 3.76422H0.862153C0.385451 3.76422 0 4.14965 0 4.62638C0 5.1031 0.385428 5.48853 0.862153 5.48853H10.3814L8.15464 8.37419Z" fill="black"/>
</svg>
