<svg width="36" height="36" viewBox="0 0 36 36" fill="none" xmlns="http://www.w3.org/2000/svg">
<path d="M11.0458 0C9.99595 0 9.11991 0.411488 8.56573 1.04815C8.01128 1.68479 7.77297 2.49495 7.77297 3.27252V7.77268H3.27281C1.53585 7.77268 0 9.3547 0 11.4544V21.2726C0 22.3224 0.411203 23.1996 1.04844 23.7526C1.68566 24.3059 2.49605 24.5456 3.27281 24.5456H7.77297V29.4546C7.77297 30.323 8.23012 31.1034 8.91068 31.5897C9.59155 32.0757 10.4705 32.3183 11.4547 32.3183V33.1364C11.4547 34.0053 11.9121 34.7852 12.5924 35.2715C13.273 35.7574 14.157 36 15.1366 36H24.9548C27.0463 36 28.5906 34.4468 28.6365 32.74V32.7272V28.6363H32.7274C34.465 28.6363 36.0003 27.0457 36.0003 24.9546V15.1364C36.0003 14.1568 35.7577 13.2727 35.2717 12.5924C34.7858 11.9118 34.0056 11.4544 33.1366 11.4544H32.3185C32.3185 10.4702 32.0888 9.57843 31.6026 8.89758C31.1163 8.217 30.3233 7.77272 29.455 7.77272H24.5459V3.27256C24.5459 1.46825 22.8104 4.51449e-05 20.7107 4.51449e-05L11.0458 0ZM11.0458 1.63622H20.7106C22.0176 1.63622 22.9093 2.64354 22.9093 3.27245V8.59072C22.9093 9.01904 23.2991 9.40883 23.7274 9.40883H29.4546C29.8027 9.40883 30.0404 9.53096 30.2727 9.85627C30.505 10.1816 30.6819 10.7352 30.6819 11.4543C30.6408 14.6937 30.6819 17.9893 30.6819 21.2725C30.6819 21.9916 30.5104 22.3811 30.324 22.5891C30.1377 22.7974 29.8949 22.909 29.4549 22.909H23.7277C23.2994 22.909 22.9096 23.2988 22.9096 23.7271V29.4543C22.9096 29.8943 22.798 30.1371 22.59 30.3234C22.3817 30.5104 21.9919 30.6819 21.2731 30.6819H12.3374H11.455C10.7362 30.6819 10.1823 30.4921 9.85702 30.2598C9.53199 30.0275 9.40957 29.8027 9.40957 29.4546V23.7274C9.40957 23.2991 9.01977 22.9093 8.59146 22.9093L3.27319 22.909C2.83345 22.909 2.40884 22.7612 2.12262 22.5126C1.83669 22.2644 1.63694 21.9262 1.63694 21.2727V11.4545C1.63694 10.1475 2.5769 9.40905 3.27316 9.40905H8.59143C9.01976 9.40905 9.40954 9.01925 9.40954 8.59094V3.27267C9.40954 2.83379 9.54366 2.40861 9.79307 2.1221C10.0425 1.8356 10.3926 1.63613 11.0461 1.63613L11.0458 1.63622ZM13.0145 10.6363C12.8929 10.636 12.7768 10.6365 12.6566 10.6491C11.6852 10.7501 10.7378 11.2104 9.93375 11.9146C9.00548 12.7276 8.56804 13.7963 8.59142 14.8168C8.61479 15.8373 9.06283 16.7918 9.75485 17.5272L14.8942 22.9861C15.0141 23.1131 15.2717 23.3754 15.3799 23.4847C15.6824 23.7837 16.228 23.7837 16.5305 23.4847C16.6389 23.3754 16.8966 23.1131 17.0161 22.9861L22.1552 17.527C22.8472 16.7919 23.2952 15.8373 23.3186 14.8169C23.3418 13.7964 22.9043 12.7277 21.9763 11.9147C21.1719 11.2105 20.2199 10.7587 19.2531 10.662C18.2867 10.5653 17.277 10.8672 16.5685 11.6337L15.955 12.2983C15.7532 12.09 15.5107 11.8229 15.3414 11.6337C14.7331 10.9523 13.8656 10.6384 13.0146 10.6364L13.0145 10.6363ZM12.8355 12.2725C13.3971 12.214 13.8012 12.3478 14.1268 12.7199C14.5206 13.1694 14.9441 13.6094 15.3542 14.0494C15.6595 14.3798 16.2505 14.3798 16.5558 14.0494L17.7703 12.7453C18.1141 12.3732 18.5288 12.2291 19.0869 12.285C19.6454 12.3409 20.3091 12.6334 20.8895 13.1417C21.4979 13.6744 21.6948 14.2201 21.6823 14.7779C21.6695 15.336 21.4129 15.927 20.9663 16.4016L15.9548 21.7073L10.9433 16.4019C10.4967 15.9274 10.2402 15.3364 10.2276 14.7782C10.2148 14.22 10.4119 13.6744 11.0204 13.142C11.6005 12.6337 12.2739 12.3309 12.8356 12.2728L12.8355 12.2725ZM32.3186 13.0909H33.1367C33.4731 13.0909 33.7065 13.2087 33.9419 13.5383C34.1776 13.8679 34.364 14.4284 34.364 15.1363V24.9546C34.364 26.2378 33.4003 27 32.7277 27H27.8187C27.3904 27 27.0006 27.3898 27.0006 27.8181L27.0003 32.7018V32.7275C26.9658 33.4278 26.2241 34.3637 24.9549 34.3637H15.1366C14.4287 34.3637 13.881 34.1774 13.5515 33.942C13.2216 33.7065 13.0912 33.4728 13.0912 33.1364V32.3183H21.273C22.2576 32.3183 23.0959 32.0706 23.6892 31.5384C24.2827 31.0065 24.5459 30.2314 24.5459 29.4547V24.5457H29.4549C30.2316 24.5457 31.0067 24.2698 31.5386 23.6765C32.0708 23.083 32.3185 22.2571 32.3185 21.273L32.3186 13.0909Z" fill="black"/>
</svg>
