<svg width="22" height="22" viewBox="0 0 22 22" fill="none" xmlns="http://www.w3.org/2000/svg">
<path d="M20.9289 3.90419e-05L10.9488 0.000192499C10.5652 0.000192499 10.2107 0.204905 10.0189 0.537147C9.82704 0.869388 9.82705 1.27866 10.0189 1.6109C10.2107 1.94314 10.5652 2.14785 10.9488 2.14785H18.3361L12.5485 7.93539C12.9253 8.10405 13.2678 8.34098 13.5585 8.63409C13.784 8.85783 13.9771 9.11227 14.1318 9.3897L19.8549 3.66659V11.0538C19.8549 11.4375 20.0595 11.792 20.3919 11.9838C20.7241 12.1756 21.1334 12.1756 21.4656 11.9838C21.7978 11.792 22.0026 11.4375 22.0026 11.0538L22.0027 1.07375C22.0027 0.789081 21.8896 0.515776 21.6883 0.314437C21.4869 0.113099 21.2136 0 20.9288 0L20.9289 3.90419e-05Z" fill="black"/>
<path d="M2.14782 18.3335L2.14767 10.9462C2.14798 10.6613 2.03503 10.3878 1.83354 10.1861C1.6322 9.9845 1.35889 9.87109 1.07391 9.87109C0.788787 9.87109 0.51547 9.9845 0.314132 10.1861C0.11264 10.3878 -0.000305805 10.6613 6.21886e-07 10.9462V20.9263C6.21886e-07 21.2112 0.1131 21.4843 0.314438 21.6856C0.515776 21.887 0.789085 22.0001 1.07391 22.0001H11.054C11.339 22.0004 11.6124 21.8874 11.8141 21.6859C12.0159 21.4846 12.1291 21.2113 12.1291 20.9263C12.1291 20.6412 12.0159 20.3679 11.8141 20.1665C11.6124 19.965 11.339 19.8521 11.054 19.8524L3.66675 19.8523L9.37533 14.1437C9.09787 13.9888 8.84344 13.7959 8.61971 13.5703C8.3266 13.2797 8.08983 12.9372 7.92102 12.5604L2.14782 18.3335Z" fill="black"/>
<path d="M10.6503 9.83365C10.4586 9.90009 10.2846 10.0092 10.1414 10.1527C9.99915 10.2946 9.89127 10.4674 9.82621 10.6577C9.68257 11.0656 9.74426 11.5179 9.99195 11.8725C10.2396 12.227 10.6429 12.4406 11.0755 12.446C11.4369 12.4489 11.7843 12.3066 12.0399 12.0511C12.2955 11.7956 12.4378 11.4482 12.4349 11.0866C12.429 10.655 12.2162 10.2521 11.8628 10.004C11.5094 9.75581 11.0584 9.69258 10.6503 9.83361L10.6503 9.83365Z" fill="black"/>
</svg>
