<svg width="25" height="24" viewBox="0 0 25 24" fill="none" xmlns="http://www.w3.org/2000/svg">
<path d="M18.315 23.9997C15.5026 23.9997 11.9873 22.3719 7.8327 19.1161C3.83791 15.9881 -0.732131 11.0726 0.0987852 5.29521C0.35448 3.63537 1.44103 0.890334 3.45446 0.0923587C3.74204 -0.0352204 4.06173 -0.00338125 4.22152 0.028458C4.9246 0.124198 5.62775 0.666781 6.10701 1.04998L6.20286 1.11388C6.8741 1.59257 7.51321 2.19907 8.08835 2.74169L8.34404 2.99707C8.75957 3.41209 9.1111 3.76319 9.43057 4.27372C10.3572 5.77391 9.68626 6.8273 9.01504 7.81673C8.75935 8.19969 8.05624 8.99767 7.70469 9.38082C7.92851 9.85951 8.6635 10.9768 8.91917 11.2961C9.43055 12.0302 10.0697 12.7324 10.7409 13.4028C11.38 14.0093 12.1471 14.6158 13.0101 15.1584C13.3616 15.4138 14.544 16.1478 15.0235 16.3714L15.7905 15.6053C15.9183 15.4777 16.0144 15.3499 16.1421 15.2223C16.6214 14.6797 17.1967 14.0093 18.0597 13.9774C18.9864 13.9456 20.105 14.8712 21.0317 15.6373C21.2555 15.8288 21.4472 15.9884 21.6069 16.0841C22.6296 16.8503 24.0037 17.9036 24.0996 19.4675C24.1315 20.2336 23.7162 21.0953 22.8851 21.9572C21.6385 23.3296 20.1046 23.9998 18.315 23.9998L18.315 23.9997ZM3.93378 0.954228H3.8698H3.83793C2.39986 1.52866 1.34518 3.66746 1.05761 5.39097C0.290553 10.6896 4.63688 15.3497 8.40802 18.3182C14.7677 23.2975 19.4017 24.3189 22.1501 21.3186C22.7892 20.6164 23.1407 20.0099 23.1089 19.5312C23.0449 18.4139 21.8944 17.5523 20.9996 16.8501C20.8398 16.7225 20.648 16.5628 20.3923 16.3714C19.7532 15.8288 18.6667 14.9351 18.0913 14.9351H18.0595C17.6121 14.9669 17.1965 15.4138 16.8131 15.8288C16.6853 15.9884 16.5574 16.116 16.4297 16.2438L15.4708 17.2014C15.311 17.3611 14.9595 17.7122 12.4349 15.9248C11.54 15.3504 10.7092 14.7118 10.038 14.0735C9.30301 13.3713 8.6639 12.6372 8.08853 11.8392C6.3629 9.41344 6.61833 9.12599 6.77818 8.93454C6.77818 8.93454 6.77818 8.9027 6.81006 8.9027C7.12974 8.58342 7.96056 7.62605 8.21628 7.27489C8.88752 6.22156 9.20693 5.67894 8.63181 4.7534C8.37612 4.33838 8.05667 4.01932 7.673 3.66821L7.41731 3.44467C6.84217 2.90207 6.26681 2.32739 5.6277 1.88058L5.53184 1.78484C5.18029 1.49762 4.57304 1.01873 4.09377 0.955004H4.0619C3.99769 0.986398 3.96559 0.954336 3.93372 0.954336L3.93378 0.954228Z" fill="black"/>
<path d="M19.2726 6.95589H16.62V4.27475H15.6612V6.95589H12.9768V7.91352H15.6612V10.5628H16.62V7.91352H19.2726V6.95589Z" fill="black"/>
</svg>
