<svg width="310" height="22" viewBox="0 0 310 22" fill="none" xmlns="http://www.w3.org/2000/svg">
<path d="M0 15.1876V3.26758H1.888V8.51558H7.408V3.26758H9.28V15.1876H7.408V10.1956H1.888V15.1876H0Z" fill="black"/>
<path d="M11.734 15.1876V6.53158H13.542V15.1876H11.734ZM11.734 5.34758V3.26758H13.542V5.34758H11.734Z" fill="black"/>
<path d="M19.0159 15.3796C18.1305 15.3796 17.3519 15.1609 16.6799 14.7236C16.0185 14.2862 15.5545 13.6996 15.2879 12.9636L16.6799 12.3076C16.9145 12.7982 17.2345 13.1876 17.6399 13.4756C18.0559 13.7636 18.5145 13.9076 19.0159 13.9076C19.4425 13.9076 19.7892 13.8116 20.0559 13.6196C20.3225 13.4276 20.4559 13.1662 20.4559 12.8356C20.4559 12.6222 20.3972 12.4516 20.2799 12.3236C20.1625 12.1849 20.0132 12.0729 19.8319 11.9876C19.6612 11.9022 19.4852 11.8382 19.3039 11.7956L17.9439 11.4116C17.1972 11.1982 16.6372 10.8782 16.2639 10.4516C15.9012 10.0142 15.7199 9.50758 15.7199 8.93158C15.7199 8.40891 15.8532 7.95558 16.1199 7.57158C16.3865 7.17691 16.7545 6.87291 17.2239 6.65958C17.6932 6.44625 18.2212 6.33958 18.8079 6.33958C19.5972 6.33958 20.3012 6.53691 20.9199 6.93158C21.5385 7.31558 21.9759 7.85425 22.2319 8.54758L20.8399 9.20358C20.6692 8.78758 20.3972 8.45691 20.0239 8.21158C19.6612 7.96625 19.2505 7.84358 18.7919 7.84358C18.3972 7.84358 18.0825 7.93958 17.8479 8.13158C17.6132 8.31291 17.4959 8.55291 17.4959 8.85158C17.4959 9.05425 17.5492 9.22491 17.6559 9.36358C17.7625 9.49158 17.9012 9.59825 18.0719 9.68358C18.2425 9.75825 18.4185 9.82225 18.5999 9.87558L20.0079 10.2916C20.7225 10.4942 21.2719 10.8142 21.6559 11.2516C22.0399 11.6782 22.2319 12.1902 22.2319 12.7876C22.2319 13.2996 22.0932 13.7529 21.8159 14.1476C21.5492 14.5316 21.1759 14.8356 20.6959 15.0596C20.2159 15.2729 19.6559 15.3796 19.0159 15.3796Z" fill="black"/>
<path d="M27.9074 15.2836C27.0007 15.2836 26.2967 15.0276 25.7954 14.5156C25.294 14.0036 25.0434 13.2836 25.0434 12.3556V8.16358H23.5234V6.53158H23.7634C24.1687 6.53158 24.4834 6.41425 24.7074 6.17958C24.9314 5.94491 25.0434 5.62491 25.0434 5.21958V4.54758H26.8514V6.53158H28.8194V8.16358H26.8514V12.2756C26.8514 12.5742 26.8994 12.8302 26.9954 13.0436C27.0914 13.2462 27.246 13.4062 27.4594 13.5236C27.6727 13.6302 27.95 13.6836 28.2914 13.6836C28.3767 13.6836 28.4727 13.6782 28.5794 13.6676C28.686 13.6569 28.7874 13.6462 28.8834 13.6356V15.1876C28.734 15.2089 28.5687 15.2302 28.3874 15.2516C28.206 15.2729 28.046 15.2836 27.9074 15.2836Z" fill="black"/>
<path d="M34.8275 15.3796C33.9955 15.3796 33.2328 15.1822 32.5395 14.7876C31.8568 14.3929 31.3128 13.8542 30.9075 13.1716C30.5022 12.4889 30.2995 11.7156 30.2995 10.8516C30.2995 9.97691 30.5022 9.20358 30.9075 8.53158C31.3128 7.84891 31.8568 7.31558 32.5395 6.93158C33.2222 6.53691 33.9848 6.33958 34.8275 6.33958C35.6808 6.33958 36.4435 6.53691 37.1155 6.93158C37.7982 7.31558 38.3368 7.84891 38.7315 8.53158C39.1368 9.20358 39.3395 9.97691 39.3395 10.8516C39.3395 11.7262 39.1368 12.5049 38.7315 13.1876C38.3262 13.8702 37.7822 14.4089 37.0995 14.8036C36.4168 15.1876 35.6595 15.3796 34.8275 15.3796ZM34.8275 13.6996C35.3395 13.6996 35.7928 13.5769 36.1875 13.3316C36.5822 13.0862 36.8915 12.7502 37.1155 12.3236C37.3502 11.8862 37.4675 11.3956 37.4675 10.8516C37.4675 10.3076 37.3502 9.82225 37.1155 9.39558C36.8915 8.96891 36.5822 8.63291 36.1875 8.38758C35.7928 8.14225 35.3395 8.01958 34.8275 8.01958C34.3262 8.01958 33.8728 8.14225 33.4675 8.38758C33.0728 8.63291 32.7582 8.96891 32.5235 9.39558C32.2995 9.82225 32.1875 10.3076 32.1875 10.8516C32.1875 11.3956 32.2995 11.8862 32.5235 12.3236C32.7582 12.7502 33.0728 13.0862 33.4675 13.3316C33.8728 13.5769 34.3262 13.6996 34.8275 13.6996Z" fill="black"/>
<path d="M41.2646 15.1876V6.53158H42.9926V8.27558L42.8326 8.01958C43.0246 7.45425 43.334 7.04891 43.7606 6.80358C44.1873 6.54758 44.6993 6.41958 45.2966 6.41958H45.8246V8.06758H45.0726C44.4753 8.06758 43.99 8.25425 43.6166 8.62758C43.254 8.99025 43.0726 9.51291 43.0726 10.1956V15.1876H41.2646Z" fill="black"/>
<path d="M47.9895 18.7236C47.7762 18.7236 47.5628 18.7022 47.3495 18.6596C47.1468 18.6276 46.9602 18.5742 46.7895 18.4996V16.9476C46.9175 16.9796 47.0722 17.0062 47.2535 17.0276C47.4348 17.0596 47.6108 17.0756 47.7815 17.0756C48.2828 17.0756 48.6508 16.9636 48.8855 16.7396C49.1308 16.5262 49.3495 16.1902 49.5415 15.7316L50.1175 14.4196L50.0855 15.9396L46.3415 6.53158H48.2775L51.0455 13.7476H50.3895L53.1415 6.53158H55.0935L51.2695 16.1316C51.0668 16.6436 50.8108 17.0916 50.5015 17.4756C50.2028 17.8702 49.8455 18.1742 49.4295 18.3876C49.0242 18.6116 48.5442 18.7236 47.9895 18.7236Z" fill="black"/>
<path d="M297.868 0.000201111C292.942 0.000201111 288.751 3.16317 287.289 7.56012L286.258 5.72736C286.127 5.48678 285.863 5.35058 285.591 5.38359C285.367 5.40892 285.171 5.54606 285.07 5.74781C284.969 5.94957 284.978 6.18875 285.092 6.38331L286.924 9.65297C287.098 9.96675 287.49 10.0865 287.81 9.92376L291.069 8.25766C291.234 8.18212 291.361 8.04242 291.42 7.87112C291.48 7.69958 291.467 7.51131 291.385 7.34953C291.303 7.18776 291.158 7.06666 290.984 7.0139C290.811 6.96137 290.623 6.98182 290.465 7.07061L288.528 8.05986C289.789 4.16565 293.485 1.33299 297.869 1.33299C303.295 1.33299 307.668 5.65627 307.668 10.9964C307.668 16.3364 303.295 20.6597 297.869 20.6597C293.227 20.6597 289.352 17.4779 288.33 13.2248V13.225C288.306 13.0379 288.204 12.8698 288.049 12.7622C287.894 12.6546 287.701 12.6179 287.517 12.6609C287.334 12.7036 287.177 12.8224 287.086 12.9875C286.995 13.1527 286.978 13.3487 287.039 13.5269C288.204 18.3772 292.617 21.9925 297.869 21.9925C304.006 21.9925 309 17.0663 309 10.9963C309 4.92624 304.005 0 297.869 0L297.868 0.000201111ZM297.931 4.98802C297.588 5.02568 297.33 5.31948 297.337 5.66488V10.9965V10.9963C297.337 11.199 297.429 11.3905 297.587 11.5169L300.92 14.1828C301.207 14.4129 301.627 14.3661 301.857 14.0786C302.087 13.7911 302.04 13.3715 301.753 13.1414L298.67 10.6734V5.66464V5.66488C298.674 5.47288 298.596 5.28856 298.454 5.15886C298.312 5.02916 298.122 4.96687 297.931 4.98802H297.931Z" fill="black"/>
</svg>
