<svg width="24" height="24" viewBox="0 0 24 24" fill="none" xmlns="http://www.w3.org/2000/svg">
<path d="M9.06383 24L8.55319 20.1474C8.21277 20.0421 7.86723 19.8842 7.5166 19.6737C7.16511 19.4632 6.84043 19.2421 6.54255 19.0105L2.93617 20.5263L0 15.4737L3.12766 13.1368C3.08511 12.9474 3.05872 12.7579 3.04851 12.5684C3.03745 12.3789 3.03192 12.1895 3.03192 12C3.03192 11.8316 3.03745 11.6526 3.04851 11.4632C3.05872 11.2737 3.08511 11.0737 3.12766 10.8632L0 8.52632L2.93617 3.50526L6.54255 4.98947C6.84043 4.75789 7.16511 4.54232 7.5166 4.34274C7.86723 4.14232 8.21277 3.97895 8.55319 3.85263L9.06383 0H14.9362L15.4468 3.85263C15.8298 4 16.1753 4.16295 16.4834 4.34147C16.7923 4.52084 17.1064 4.73684 17.4255 4.98947L21.0638 3.50526L24 8.52632L20.8404 10.8947C20.883 11.1053 20.9043 11.2947 20.9043 11.4632V12C20.9043 12.1684 20.8987 12.3419 20.8877 12.5204C20.8774 12.6998 20.8511 12.9053 20.8085 13.1368L23.9362 15.4737L21 20.5263L17.4255 19.0105C17.1064 19.2632 16.7821 19.4842 16.4528 19.6737C16.1226 19.8632 15.7872 20.0211 15.4468 20.1474L14.9362 24H9.06383ZM12 15.7895C13.0638 15.7895 13.9681 15.4211 14.7128 14.6842C15.4574 13.9474 15.8298 13.0526 15.8298 12C15.8298 10.9474 15.4574 10.0526 14.7128 9.31579C13.9681 8.57895 13.0638 8.21053 12 8.21053C10.9362 8.21053 10.0319 8.57895 9.28724 9.31579C8.54255 10.0526 8.17021 10.9474 8.17021 12C8.17021 13.0526 8.54255 13.9474 9.28724 14.6842C10.0319 15.4211 10.9362 15.7895 12 15.7895Z" fill="#1C1B1F"/>
</svg>
