<svg width="24" height="28" viewBox="0 0 24 28" fill="none" xmlns="http://www.w3.org/2000/svg">
<path d="M7.01862 7.24609C3.15036 7.24609 0 10.3967 0 14.2647C0 18.1327 3.15062 21.2833 7.01862 21.2833C10.8871 21.2833 14.0372 18.1327 14.0372 14.2647C14.0372 10.3967 10.8868 7.24609 7.01862 7.24609ZM7.01862 8.60459C10.1528 8.60459 12.6793 11.1307 12.6793 14.2652C12.6793 17.3998 10.1531 19.9259 7.01862 19.9259C3.88456 19.9259 1.35797 17.3998 1.35797 14.2652C1.35797 11.1307 3.8843 8.60459 7.01862 8.60459Z" fill="black"/>
<path fill-rule="evenodd" clip-rule="evenodd" d="M7.00657 20.3731C6.82605 20.3753 6.65381 20.4495 6.52807 20.5789C6.40233 20.7083 6.33319 20.8825 6.33602 21.0629V26.9357C6.33339 27.1176 6.40395 27.2929 6.5315 27.4223C6.65927 27.5519 6.83352 27.6246 7.01527 27.6246C7.19701 27.6246 7.37126 27.5519 7.49903 27.4223C7.62659 27.2929 7.69714 27.1176 7.69451 26.9357V21.0629C7.69734 20.8793 7.62578 20.7026 7.4962 20.5726C7.36662 20.4427 7.18993 20.3707 7.00658 20.3731H7.00657Z" fill="black"/>
<path fill-rule="evenodd" clip-rule="evenodd" d="M4.98562 24.9063C4.80388 24.9039 4.62862 24.9742 4.49924 25.1018C4.36965 25.2296 4.29688 25.4038 4.29688 25.5856C4.29688 25.7675 4.36965 25.9418 4.49924 26.0693C4.62862 26.1971 4.80388 26.2674 4.98562 26.2648H9.04878C9.23052 26.2674 9.40579 26.1971 9.53537 26.0693C9.66475 25.9418 9.73773 25.7675 9.73773 25.5856C9.73773 25.4038 9.66475 25.2296 9.53537 25.1018C9.40579 24.9742 9.23052 24.9039 9.04878 24.9063H4.98562Z" fill="black"/>
<path d="M14.782 16.6628C14.6051 16.4841 14.5415 16.2223 14.6163 15.9823C14.6913 15.7422 14.8926 15.5633 15.1398 15.517C17.607 15.0263 19.451 12.9755 19.6764 10.4701C19.9018 7.96479 18.4544 5.61675 16.1142 4.69406C13.774 3.77122 11.1131 4.49776 9.56759 6.48256C9.45842 6.62892 9.29488 6.72515 9.11395 6.74961C8.93302 6.77387 8.74986 6.72454 8.60593 6.61235C8.46179 6.50035 8.369 6.33499 8.34818 6.15345C8.32736 5.97212 8.38052 5.78998 8.49555 5.64827C10.4075 3.19268 13.7168 2.28904 16.6118 3.43058C19.5071 4.57234 21.3081 7.49028 21.0295 10.59C20.751 13.6897 18.4585 16.2418 15.4062 16.8489V16.8491C15.18 16.8972 14.9448 16.827 14.7819 16.6627L14.782 16.6628Z" fill="black"/>
<path fill-rule="evenodd" clip-rule="evenodd" d="M22.8518 0.451478C22.6753 0.456532 22.5079 0.530115 22.3848 0.656463L18.3182 4.72304V4.72324C18.1864 4.84959 18.1112 5.02365 18.1094 5.20619C18.1076 5.38874 18.1792 5.56441 18.3083 5.69339C18.4373 5.82257 18.613 5.89433 18.7955 5.89231C18.9781 5.8905 19.1521 5.81529 19.2787 5.68369L23.3453 1.61712C23.5458 1.42183 23.606 1.12345 23.4969 0.865676C23.3877 0.607723 23.1316 0.443369 22.8518 0.451457L22.8518 0.451478Z" fill="black"/>
<path fill-rule="evenodd" clip-rule="evenodd" d="M20.1575 6.07192e-05C19.9758 -0.00236516 19.8005 0.0679853 19.6711 0.195544C19.5415 0.323309 19.4688 0.497564 19.4688 0.679307C19.4688 0.861247 19.5415 1.03551 19.6711 1.16307C19.8005 1.29084 19.9758 1.36118 20.1575 1.35855H22.641V3.84203C22.6383 4.02397 22.7089 4.19924 22.8365 4.32862C22.9642 4.4582 23.1385 4.53098 23.3202 4.53098C23.502 4.53098 23.6762 4.45821 23.804 4.32862C23.9315 4.19924 24.0021 4.02397 23.9995 3.84203V0.679307C23.9995 0.304306 23.6954 6.07192e-05 23.3202 6.07192e-05H20.1575Z" fill="black"/>
<path d="M9.17501 15.024C7.87494 13.7735 7.08671 12.0523 7.02367 10.2035H7.02388C7.01053 9.82834 7.30386 9.51358 7.67885 9.50044C8.05405 9.4871 8.36881 9.78043 8.38216 10.1554C8.45009 12.1452 9.55486 13.9509 11.2964 14.916C11.4588 15.0007 11.5803 15.1473 11.633 15.3225C11.6858 15.498 11.6656 15.6872 11.5768 15.8475C11.4881 16.0077 11.3385 16.1253 11.1618 16.1736C10.9851 16.2221 10.7965 16.1971 10.6386 16.1043C10.0993 15.8053 9.60866 15.4404 9.17524 15.0236L9.17501 15.024Z" fill="black"/>
</svg>
