<svg width="12" height="12" viewBox="0 0 12 12" fill="none" xmlns="http://www.w3.org/2000/svg">
<path d="M11.7396 0.265734C11.386 -0.0885782 10.8359 -0.0885782 10.482 0.265734L6.00238 4.7545L1.56199 0.265734C1.2084 -0.0885782 0.658283 -0.0885782 0.304419 0.265734C-0.0491715 0.620047 -0.0491715 1.17129 0.304419 1.52588L4.74481 6.01464L0.265193 10.4641C-0.0883976 10.8184 -0.0883976 11.3697 0.265193 11.7242C0.422253 11.8816 0.658254 12 0.893974 12C1.12969 12 1.36543 11.9212 1.52276 11.7242L6.00237 7.27479L10.4428 11.7242C10.5998 11.8816 10.8358 12 11.0715 12C11.3073 12 11.543 11.9212 11.7003 11.7242C12.0539 11.3699 12.0539 10.8187 11.7003 10.4641L7.25993 6.01464L11.7003 1.56518C12.0931 1.21087 12.0931 0.620321 11.7395 0.265804L11.7396 0.265734Z" fill="black"/>
</svg>
