<svg width="24" height="24" viewBox="0 0 24 24" fill="none" xmlns="http://www.w3.org/2000/svg">
<path d="M23.1615 0.000426142C22.9417 0.00860497 22.7419 0.144479 22.612 0.250245L19.981 2.88172L17.3501 0.250245C17.1827 0.0758904 16.9329 -0.0157432 16.6924 0.00879142C16.3932 0.0409481 16.1213 0.256935 16.0227 0.54131C15.9238 0.825703 16.0031 1.16381 16.218 1.37461L18.8489 4.01446L15.7768 7.08718C14.1048 5.67044 11.9481 4.81392 9.59112 4.81392C4.30363 4.81392 0 9.11847 0 14.407C0 19.6955 4.30349 24 9.59112 24C14.8786 24 19.1822 19.6955 19.1822 14.407C19.1822 12.0471 18.3281 9.88439 16.9094 8.21146L19.9815 5.13874L22.6125 7.77021C22.899 8.09828 23.4686 8.11873 23.7777 7.81184C24.0867 7.50496 24.0708 6.93505 23.7448 6.64602L21.1139 4.01455L23.7448 1.3747C23.9754 1.15184 24.0505 0.782849 23.9252 0.487492C23.8 0.192135 23.4821 -0.0105659 23.1615 0.000426142ZM9.59076 6.41244C14.0145 6.41244 17.5834 9.98223 17.5834 14.4066C17.5834 18.831 14.0145 22.4008 9.59076 22.4008C5.16705 22.4008 1.59816 18.831 1.59816 14.4066C1.59816 9.98223 5.16705 6.41244 9.59076 6.41244Z" fill="black"/>
</svg>
