<svg width="24" height="24" viewBox="0 0 24 24" fill="none" xmlns="http://www.w3.org/2000/svg">
<path d="M12.98 4.5L16.5 4.5C17.12 4.5 17.67 4.52 18.16 4.59C20.79 4.88 21.5 6.12 21.5 9.5V14.5C21.5 17.88 20.79 19.12 18.16 19.41C17.67 19.48 17.12 19.5 16.5 19.5H13.04" stroke="#141522" stroke-width="1.5" stroke-linecap="round" stroke-linejoin="round"/>
<path d="M8.97656 19.5H7.49656C6.87656 19.5 6.32656 19.48 5.83656 19.41C3.20656 19.12 2.49656 17.88 2.49656 14.5V9.5C2.49656 6.12 3.20656 4.88 5.83656 4.59C6.32656 4.52 6.87656 4.5 7.49656 4.5H8.97656" stroke="#141522" stroke-width="1.5" stroke-linecap="round" stroke-linejoin="round"/>
<path d="M9 22L9 2" stroke="#141522" stroke-width="1.5" stroke-linecap="round" stroke-linejoin="round"/>
<path d="M12.9039 12H12.8949" stroke="#141522" stroke-width="2" stroke-linecap="round" stroke-linejoin="round"/>
<path d="M16.9039 12H16.8949" stroke="#141522" stroke-width="2" stroke-linecap="round" stroke-linejoin="round"/>
</svg>
