<svg width="18" height="22" viewBox="0 0 18 22" fill="none" xmlns="http://www.w3.org/2000/svg">
<path d="M13.0465 22H4.86047C1.77023 22 0 20.2298 0 17.1395V7.16279C0 3.93953 1.63721 2.30233 4.86047 2.30233C5.28 2.30233 5.62791 2.65023 5.62791 3.06977C5.62791 3.47907 5.79163 3.8679 6.07814 4.15442C6.36465 4.44093 6.75349 4.60465 7.16279 4.60465H10.7442C11.5935 4.60465 12.2791 3.91907 12.2791 3.06977C12.2791 2.65023 12.627 2.30233 13.0465 2.30233C16.2698 2.30233 17.907 3.93953 17.907 7.16279V17.1395C17.907 20.2298 16.1367 22 13.0465 22ZM4.19532 3.85768C2.57858 3.9907 1.53488 4.71721 1.53488 7.16279V17.1395C1.53488 19.4112 2.58884 20.4651 4.86047 20.4651H13.0465C15.3181 20.4651 16.3721 19.4112 16.3721 17.1395V7.16279C16.3721 4.71721 15.3284 4.00093 13.7117 3.85768C13.3637 5.16745 12.1665 6.13953 10.7442 6.13953H7.16279C6.34419 6.13953 5.57675 5.82232 4.99349 5.23906C4.60466 4.85023 4.33858 4.37954 4.19532 3.85768Z" fill="#101010"/>
<path d="M10.7442 6.13953H7.16279C6.34419 6.13953 5.57675 5.82232 4.99349 5.23906C4.41024 4.65581 4.09302 3.88837 4.09302 3.06977C4.09302 1.3814 5.47442 0 7.16279 0H10.7442C11.5628 0 12.3302 0.317214 12.9135 0.90047C13.4967 1.48373 13.814 2.25116 13.814 3.06977C13.814 4.75814 12.4326 6.13953 10.7442 6.13953ZM7.16279 1.53488C6.31349 1.53488 5.62791 2.22047 5.62791 3.06977C5.62791 3.47907 5.79163 3.8679 6.07814 4.15442C6.36465 4.44093 6.75349 4.60465 7.16279 4.60465H10.7442C11.5935 4.60465 12.2791 3.91907 12.2791 3.06977C12.2791 2.66047 12.1153 2.27163 11.8288 1.98512C11.5423 1.69861 11.1535 1.53488 10.7442 1.53488H7.16279Z" fill="#101010"/>
<path d="M8.95669 18.5523C8.39901 18.5523 7.84645 18.3886 7.41157 18.0663L5.21157 16.424C4.62831 15.9891 4.17297 15.0784 4.17297 14.357V10.5505C4.17297 9.76258 4.7511 8.92351 5.49297 8.64723L8.04599 7.69049C8.5525 7.50118 9.35064 7.50118 9.85715 7.69049L12.4102 8.64723C13.152 8.92351 13.7302 9.76258 13.7302 10.5505V14.3519C13.7302 15.0784 13.2748 15.984 12.6916 16.4189L10.4916 18.0612C10.0669 18.3886 9.51436 18.5523 8.95669 18.5523ZM8.31715 8.41188L5.76413 9.36863C5.32924 9.53235 4.94552 10.0849 4.94552 10.5556V14.357C4.94552 14.843 5.28831 15.5235 5.67203 15.81L7.87203 17.4523C8.46041 17.8923 9.45296 17.8923 10.0465 17.4523L12.2465 15.81C12.6353 15.5184 12.973 14.843 12.973 14.357V10.5505C12.973 10.0849 12.5892 9.53235 12.1544 9.36351L9.60134 8.40677C9.25343 8.28398 8.65994 8.28398 8.31715 8.41188Z" fill="#101010"/>
<path d="M8.26503 14.188C8.16782 14.188 8.07061 14.1522 7.99387 14.0754L7.17015 13.2517C7.02177 13.1034 7.02177 12.8578 7.17015 12.7094C7.31852 12.561 7.5641 12.561 7.71247 12.7094L8.26503 13.262L10.1939 11.3331C10.3422 11.1847 10.5878 11.1847 10.7362 11.3331C10.8846 11.4815 10.8846 11.7271 10.7362 11.8754L8.53619 14.0754C8.45945 14.1522 8.36224 14.188 8.26503 14.188Z" fill="#101010"/>
</svg>
