<svg width="310" height="24" viewBox="0 0 310 24" fill="none" xmlns="http://www.w3.org/2000/svg">
<path d="M0 16.2878V4.36778H7.856V6.04778H1.888V9.47178H7.536V11.1518H1.888V14.6078H7.856V16.2878H0Z" fill="black"/>
<path d="M9.59337 16.2878V7.63178H11.3214V9.50378L11.0974 9.21578C11.2787 8.62911 11.6094 8.18645 12.0894 7.88778C12.5694 7.58911 13.1187 7.43978 13.7374 7.43978C14.4307 7.43978 15.044 7.62645 15.5774 7.99978C16.1214 8.36245 16.484 8.84778 16.6654 9.45578L16.1534 9.50378C16.4094 8.81045 16.7987 8.29311 17.3214 7.95178C17.8547 7.61045 18.4627 7.43978 19.1454 7.43978C19.7427 7.43978 20.2814 7.57845 20.7614 7.85578C21.252 8.13311 21.6414 8.51711 21.9294 9.00778C22.2174 9.49845 22.3614 10.0584 22.3614 10.6878V16.2878H20.5534V11.1838C20.5534 10.7464 20.4734 10.3784 20.3134 10.0798C20.164 9.77045 19.9507 9.53578 19.6734 9.37578C19.4067 9.20511 19.092 9.11978 18.7294 9.11978C18.3667 9.11978 18.0467 9.20511 17.7694 9.37578C17.492 9.53578 17.2734 9.77045 17.1134 10.0798C16.9534 10.3891 16.8734 10.7571 16.8734 11.1838V16.2878H15.0814V11.1838C15.0814 10.7464 15.0014 10.3784 14.8414 10.0798C14.692 9.77045 14.4787 9.53578 14.2014 9.37578C13.9347 9.20511 13.6147 9.11978 13.2414 9.11978C12.8787 9.11978 12.5587 9.20511 12.2814 9.37578C12.004 9.53578 11.7854 9.77045 11.6254 10.0798C11.476 10.3891 11.4014 10.7571 11.4014 11.1838V16.2878H9.59337Z" fill="black"/>
<path d="M28.5205 16.4798C27.6565 16.4798 26.8885 16.2824 26.2165 15.8878C25.5552 15.4824 25.0378 14.9384 24.6645 14.2558C24.2912 13.5624 24.1045 12.7891 24.1045 11.9358C24.1045 11.0611 24.2912 10.2878 24.6645 9.61578C25.0485 8.94378 25.5605 8.41578 26.2005 8.03178C26.8405 7.63711 27.5658 7.43978 28.3765 7.43978C29.0272 7.43978 29.6085 7.55178 30.1205 7.77578C30.6325 7.99978 31.0645 8.30911 31.4165 8.70378C31.7685 9.08778 32.0352 9.53045 32.2165 10.0318C32.4085 10.5331 32.5045 11.0664 32.5045 11.6318C32.5045 11.7704 32.4992 11.9144 32.4885 12.0638C32.4778 12.2131 32.4565 12.3518 32.4245 12.4798H25.5285V11.0398H31.4005L30.5365 11.6958C30.6432 11.1731 30.6058 10.7091 30.4245 10.3038C30.2538 9.88778 29.9872 9.56245 29.6245 9.32778C29.2725 9.08245 28.8565 8.95978 28.3765 8.95978C27.8965 8.95978 27.4698 9.08245 27.0965 9.32778C26.7232 9.56245 26.4352 9.90378 26.2325 10.3518C26.0298 10.7891 25.9498 11.3224 25.9925 11.9518C25.9392 12.5384 26.0192 13.0504 26.2325 13.4878C26.4565 13.9251 26.7658 14.2664 27.1605 14.5118C27.5658 14.7571 28.0245 14.8798 28.5365 14.8798C29.0592 14.8798 29.5018 14.7624 29.8645 14.5278C30.2378 14.2931 30.5312 13.9891 30.7445 13.6158L32.2165 14.3358C32.0458 14.7411 31.7792 15.1091 31.4165 15.4398C31.0645 15.7598 30.6378 16.0158 30.1365 16.2078C29.6458 16.3891 29.1072 16.4798 28.5205 16.4798Z" fill="black"/>
<path d="M34.429 16.2878V7.63178H36.157V9.37578L35.997 9.11978C36.189 8.55445 36.4983 8.14911 36.925 7.90378C37.3517 7.64778 37.8637 7.51978 38.461 7.51978H38.989V9.16778H38.237C37.6397 9.16778 37.1543 9.35445 36.781 9.72778C36.4183 10.0904 36.237 10.6131 36.237 11.2958V16.2878H34.429Z" fill="black"/>
<path d="M44.5619 19.8078C43.9325 19.8078 43.3512 19.7064 42.8179 19.5038C42.2845 19.3011 41.8259 19.0184 41.4419 18.6558C41.0579 18.3038 40.7699 17.8878 40.5779 17.4078L42.2419 16.7198C42.3912 17.1251 42.6632 17.4611 43.0579 17.7278C43.4632 17.9944 43.9592 18.1278 44.5459 18.1278C45.0045 18.1278 45.4152 18.0371 45.7779 17.8558C46.1405 17.6851 46.4285 17.4291 46.6419 17.0878C46.8552 16.7571 46.9619 16.3571 46.9619 15.8878V13.9358L47.2819 14.3038C46.9832 14.8584 46.5672 15.2798 46.0339 15.5678C45.5112 15.8558 44.9192 15.9998 44.2579 15.9998C43.4579 15.9998 42.7379 15.8131 42.0979 15.4398C41.4579 15.0664 40.9512 14.5544 40.5779 13.9038C40.2152 13.2531 40.0339 12.5224 40.0339 11.7118C40.0339 10.8904 40.2152 10.1598 40.5779 9.51978C40.9512 8.87978 41.4525 8.37312 42.0819 7.99978C42.7112 7.62645 43.4312 7.43978 44.2419 7.43978C44.9032 7.43978 45.4899 7.58378 46.0019 7.87178C46.5245 8.14911 46.9512 8.55445 47.2819 9.08778L47.0419 9.53578V7.63178H48.7539V15.8878C48.7539 16.6344 48.5725 17.3011 48.2099 17.8878C47.8579 18.4851 47.3672 18.9544 46.7379 19.2958C46.1085 19.6371 45.3832 19.8078 44.5619 19.8078ZM44.4659 14.3198C44.9459 14.3198 45.3725 14.2078 45.7459 13.9838C46.1192 13.7491 46.4125 13.4398 46.6259 13.0558C46.8499 12.6611 46.9619 12.2184 46.9619 11.7278C46.9619 11.2371 46.8499 10.7944 46.6259 10.3998C46.4019 10.0051 46.1032 9.69578 45.7299 9.47178C45.3565 9.23712 44.9352 9.11978 44.4659 9.11978C43.9752 9.11978 43.5379 9.23712 43.1539 9.47178C42.7699 9.69578 42.4659 10.0051 42.2419 10.3998C42.0285 10.7838 41.9219 11.2264 41.9219 11.7278C41.9219 12.2078 42.0285 12.6451 42.2419 13.0398C42.4659 13.4344 42.7699 13.7491 43.1539 13.9838C43.5379 14.2078 43.9752 14.3198 44.4659 14.3198Z" fill="black"/>
<path d="M55.0942 16.4798C54.2303 16.4798 53.4623 16.2824 52.7903 15.8878C52.1289 15.4824 51.6116 14.9384 51.2383 14.2558C50.8649 13.5624 50.6782 12.7891 50.6782 11.9358C50.6782 11.0611 50.8649 10.2878 51.2383 9.61578C51.6222 8.94378 52.1343 8.41578 52.7743 8.03178C53.4142 7.63711 54.1396 7.43978 54.9503 7.43978C55.6009 7.43978 56.1823 7.55178 56.6943 7.77578C57.2063 7.99978 57.6383 8.30911 57.9903 8.70378C58.3423 9.08778 58.6089 9.53045 58.7902 10.0318C58.9823 10.5331 59.0783 11.0664 59.0783 11.6318C59.0783 11.7704 59.0729 11.9144 59.0623 12.0638C59.0516 12.2131 59.0303 12.3518 58.9982 12.4798H52.1022V11.0398H57.9743L57.1103 11.6958C57.2169 11.1731 57.1796 10.7091 56.9982 10.3038C56.8276 9.88778 56.5609 9.56245 56.1982 9.32778C55.8462 9.08245 55.4303 8.95978 54.9503 8.95978C54.4703 8.95978 54.0436 9.08245 53.6702 9.32778C53.2969 9.56245 53.0089 9.90378 52.8063 10.3518C52.6036 10.7891 52.5236 11.3224 52.5662 11.9518C52.5129 12.5384 52.5929 13.0504 52.8063 13.4878C53.0303 13.9251 53.3396 14.2664 53.7342 14.5118C54.1396 14.7571 54.5983 14.8798 55.1103 14.8798C55.6329 14.8798 56.0756 14.7624 56.4383 14.5278C56.8116 14.2931 57.1049 13.9891 57.3183 13.6158L58.7902 14.3358C58.6196 14.7411 58.3529 15.1091 57.9903 15.4398C57.6383 15.7598 57.2116 16.0158 56.7103 16.2078C56.2196 16.3891 55.6809 16.4798 55.0942 16.4798Z" fill="black"/>
<path d="M61.0028 16.2878V7.63178H62.7308V9.32778L62.5228 9.10378C62.7361 8.55978 63.0774 8.14911 63.5467 7.87178C64.0161 7.58378 64.5601 7.43978 65.1787 7.43978C65.8187 7.43978 66.3841 7.57845 66.8747 7.85578C67.3654 8.13311 67.7494 8.51711 68.0267 9.00778C68.3041 9.49845 68.4427 10.0638 68.4427 10.7038V16.2878H66.6507V11.1838C66.6507 10.7464 66.5707 10.3784 66.4107 10.0798C66.2507 9.77045 66.0214 9.53578 65.7227 9.37578C65.4347 9.20511 65.1041 9.11978 64.7308 9.11978C64.3574 9.11978 64.0214 9.20511 63.7228 9.37578C63.4348 9.53578 63.2107 9.77045 63.0507 10.0798C62.8907 10.3891 62.8107 10.7571 62.8107 11.1838V16.2878H61.0028Z" fill="black"/>
<path d="M74.6497 16.4798C73.7858 16.4798 73.0177 16.2824 72.3457 15.8878C71.6844 15.4824 71.1564 14.9384 70.7617 14.2558C70.3777 13.5731 70.1858 12.7998 70.1858 11.9358C70.1858 11.0824 70.3777 10.3144 70.7617 9.63178C71.1458 8.94911 71.6738 8.41578 72.3457 8.03178C73.0177 7.63711 73.7858 7.43978 74.6497 7.43978C75.2364 7.43978 75.7858 7.54645 76.2978 7.75978C76.8098 7.96245 77.2524 8.24511 77.6257 8.60778C78.0098 8.97045 78.2924 9.39178 78.4737 9.87178L76.8897 10.6078C76.7084 10.1598 76.4151 9.80245 76.0098 9.53578C75.6151 9.25845 75.1618 9.11978 74.6497 9.11978C74.1591 9.11978 73.7164 9.24245 73.3218 9.48778C72.9378 9.72245 72.6338 10.0584 72.4098 10.4958C72.1858 10.9224 72.0738 11.4078 72.0738 11.9518C72.0738 12.4958 72.1858 12.9864 72.4098 13.4238C72.6338 13.8504 72.9378 14.1864 73.3218 14.4318C73.7164 14.6771 74.1591 14.7998 74.6497 14.7998C75.1724 14.7998 75.6257 14.6664 76.0098 14.3998C76.4044 14.1224 76.6977 13.7544 76.8897 13.2958L78.4737 14.0478C78.3031 14.5064 78.0258 14.9224 77.6418 15.2958C77.2684 15.6584 76.8258 15.9464 76.3138 16.1598C75.8018 16.3731 75.2471 16.4798 74.6497 16.4798Z" fill="black"/>
<path d="M81.1689 19.8238C80.9555 19.8238 80.7422 19.8024 80.5289 19.7598C80.3262 19.7278 80.1395 19.6744 79.9689 19.5998V18.0478C80.0969 18.0798 80.2515 18.1064 80.4329 18.1278C80.6142 18.1598 80.7902 18.1758 80.9609 18.1758C81.4622 18.1758 81.8302 18.0638 82.0649 17.8398C82.3102 17.6264 82.5289 17.2904 82.7209 16.8318L83.2969 15.5198L83.2649 17.0398L79.5209 7.63178H81.4569L84.2249 14.8478H83.5689L86.3209 7.63178H88.2729L84.4489 17.2318C84.2462 17.7438 83.9902 18.1918 83.6809 18.5758C83.3822 18.9704 83.0249 19.2744 82.6089 19.4878C82.2035 19.7118 81.7235 19.8238 81.1689 19.8238Z" fill="black"/>
<path d="M98.3551 16.4798C97.5125 16.4798 96.7285 16.3251 96.0031 16.0158C95.2885 15.7064 94.6645 15.2798 94.1311 14.7358C93.6085 14.1811 93.1978 13.5304 92.8991 12.7838C92.6005 12.0371 92.4511 11.2158 92.4511 10.3198C92.4511 9.43445 92.5951 8.61845 92.8831 7.87178C93.1818 7.11445 93.5978 6.46378 94.1311 5.91978C94.6645 5.36511 95.2885 4.93845 96.0031 4.63978C96.7178 4.33045 97.5018 4.17578 98.3551 4.17578C99.1978 4.17578 99.9498 4.31978 100.611 4.60778C101.283 4.89578 101.848 5.27445 102.307 5.74378C102.766 6.20245 103.096 6.70378 103.299 7.24778L101.603 8.04778C101.347 7.40778 100.936 6.89045 100.371 6.49578C99.8165 6.09045 99.1445 5.88778 98.3551 5.88778C97.5658 5.88778 96.8671 6.07445 96.2591 6.44778C95.6511 6.82111 95.1765 7.33845 94.8351 7.99978C94.5045 8.66111 94.3391 9.43445 94.3391 10.3198C94.3391 11.2051 94.5045 11.9838 94.8351 12.6558C95.1765 13.3171 95.6511 13.8344 96.2591 14.2078C96.8671 14.5704 97.5658 14.7518 98.3551 14.7518C99.1445 14.7518 99.8165 14.5544 100.371 14.1598C100.936 13.7651 101.347 13.2478 101.603 12.6078L103.299 13.4078C103.096 13.9411 102.766 14.4424 102.307 14.9118C101.848 15.3811 101.283 15.7598 100.611 16.0478C99.9498 16.3358 99.1978 16.4798 98.3551 16.4798Z" fill="black"/>
<path d="M109.244 16.4798C108.412 16.4798 107.65 16.2824 106.956 15.8878C106.274 15.4931 105.73 14.9544 105.324 14.2718C104.919 13.5891 104.716 12.8158 104.716 11.9518C104.716 11.0771 104.919 10.3038 105.324 9.63178C105.73 8.94911 106.274 8.41578 106.956 8.03178C107.639 7.63711 108.402 7.43978 109.244 7.43978C110.098 7.43978 110.86 7.63711 111.532 8.03178C112.215 8.41578 112.754 8.94911 113.148 9.63178C113.554 10.3038 113.756 11.0771 113.756 11.9518C113.756 12.8264 113.554 13.6051 113.148 14.2878C112.743 14.9704 112.199 15.5091 111.516 15.9038C110.834 16.2878 110.076 16.4798 109.244 16.4798ZM109.244 14.7998C109.756 14.7998 110.21 14.6771 110.604 14.4318C110.999 14.1864 111.308 13.8504 111.532 13.4238C111.767 12.9864 111.884 12.4958 111.884 11.9518C111.884 11.4078 111.767 10.9224 111.532 10.4958C111.308 10.0691 110.999 9.73311 110.604 9.48778C110.21 9.24245 109.756 9.11978 109.244 9.11978C108.743 9.11978 108.29 9.24245 107.884 9.48778C107.49 9.73311 107.175 10.0691 106.94 10.4958C106.716 10.9224 106.604 11.4078 106.604 11.9518C106.604 12.4958 106.716 12.9864 106.94 13.4238C107.175 13.8504 107.49 14.1864 107.884 14.4318C108.29 14.6771 108.743 14.7998 109.244 14.7998Z" fill="black"/>
<path d="M115.681 16.2878V7.63178H117.409V9.32778L117.201 9.10378C117.415 8.55978 117.756 8.14911 118.225 7.87178C118.695 7.58378 119.239 7.43978 119.857 7.43978C120.497 7.43978 121.063 7.57845 121.553 7.85578C122.044 8.13311 122.428 8.51711 122.705 9.00778C122.983 9.49845 123.121 10.0638 123.121 10.7038V16.2878H121.329V11.1838C121.329 10.7464 121.249 10.3784 121.089 10.0798C120.929 9.77045 120.7 9.53578 120.401 9.37578C120.113 9.20511 119.783 9.11978 119.409 9.11978C119.036 9.11978 118.7 9.20511 118.401 9.37578C118.113 9.53578 117.89 9.77045 117.729 10.0798C117.569 10.3891 117.489 10.7571 117.489 11.1838V16.2878H115.681Z" fill="black"/>
<path d="M128.961 16.3838C128.054 16.3838 127.35 16.1278 126.849 15.6158C126.347 15.1038 126.096 14.3838 126.096 13.4558V9.26378H124.576V7.63178H124.816C125.222 7.63178 125.536 7.51445 125.76 7.27978C125.984 7.04511 126.096 6.72511 126.096 6.31978V5.64778H127.905V7.63178H129.873V9.26378H127.905V13.3758C127.905 13.6744 127.953 13.9304 128.049 14.1438C128.145 14.3464 128.299 14.5064 128.513 14.6238C128.726 14.7304 129.003 14.7838 129.345 14.7838C129.43 14.7838 129.526 14.7784 129.633 14.7678C129.739 14.7571 129.841 14.7464 129.937 14.7358V16.2878C129.787 16.3091 129.622 16.3304 129.441 16.3518C129.259 16.3731 129.099 16.3838 128.961 16.3838Z" fill="black"/>
<path d="M134.375 16.4798C133.788 16.4798 133.271 16.3784 132.823 16.1758C132.385 15.9624 132.044 15.6744 131.799 15.3118C131.553 14.9384 131.431 14.5011 131.431 13.9998C131.431 13.5304 131.532 13.1091 131.735 12.7358C131.948 12.3624 132.273 12.0478 132.711 11.7918C133.148 11.5358 133.697 11.3544 134.359 11.2478L137.367 10.7518V12.1758L134.711 12.6398C134.231 12.7251 133.879 12.8798 133.655 13.1038C133.431 13.3171 133.319 13.5944 133.319 13.9358C133.319 14.2664 133.441 14.5384 133.687 14.7518C133.943 14.9544 134.268 15.0558 134.663 15.0558C135.153 15.0558 135.58 14.9491 135.943 14.7358C136.316 14.5224 136.604 14.2398 136.807 13.8878C137.009 13.5251 137.111 13.1251 137.111 12.6878V10.4638C137.111 10.0371 136.951 9.69045 136.631 9.42378C136.321 9.14645 135.905 9.00778 135.383 9.00778C134.903 9.00778 134.481 9.13578 134.119 9.39178C133.767 9.63712 133.505 9.95711 133.335 10.3518L131.831 9.59978C131.991 9.17312 132.252 8.79978 132.615 8.47978C132.977 8.14911 133.399 7.89311 133.879 7.71178C134.369 7.53045 134.887 7.43978 135.431 7.43978C136.113 7.43978 136.716 7.56778 137.239 7.82378C137.772 8.07978 138.183 8.43712 138.471 8.89578C138.769 9.34378 138.919 9.86645 138.919 10.4638V16.2878H137.191V14.7198L137.559 14.7678C137.356 15.1198 137.095 15.4238 136.775 15.6798C136.465 15.9358 136.108 16.1331 135.703 16.2718C135.308 16.4104 134.865 16.4798 134.375 16.4798Z" fill="black"/>
<path d="M145.305 16.4798C144.441 16.4798 143.673 16.2824 143.001 15.8878C142.339 15.4824 141.811 14.9384 141.417 14.2558C141.033 13.5731 140.841 12.7998 140.841 11.9358C140.841 11.0824 141.033 10.3144 141.417 9.63178C141.801 8.94911 142.329 8.41578 143.001 8.03178C143.673 7.63711 144.441 7.43978 145.305 7.43978C145.891 7.43978 146.441 7.54645 146.953 7.75978C147.465 7.96245 147.907 8.24511 148.281 8.60778C148.665 8.97045 148.947 9.39178 149.129 9.87178L147.545 10.6078C147.363 10.1598 147.07 9.80245 146.665 9.53578C146.27 9.25845 145.817 9.11978 145.305 9.11978C144.814 9.11978 144.371 9.24245 143.977 9.48778C143.593 9.72245 143.289 10.0584 143.065 10.4958C142.841 10.9224 142.729 11.4078 142.729 11.9518C142.729 12.4958 142.841 12.9864 143.065 13.4238C143.289 13.8504 143.593 14.1864 143.977 14.4318C144.371 14.6771 144.814 14.7998 145.305 14.7998C145.827 14.7998 146.281 14.6664 146.665 14.3998C147.059 14.1224 147.353 13.7544 147.545 13.2958L149.129 14.0478C148.958 14.5064 148.681 14.9224 148.297 15.2958C147.923 15.6584 147.481 15.9464 146.969 16.1598C146.457 16.3731 145.902 16.4798 145.305 16.4798Z" fill="black"/>
<path d="M154.8 16.3838C153.893 16.3838 153.189 16.1278 152.688 15.6158C152.187 15.1038 151.936 14.3838 151.936 13.4558V9.26378H150.416V7.63178H150.656C151.061 7.63178 151.376 7.51445 151.6 7.27978C151.824 7.04511 151.936 6.72511 151.936 6.31978V5.64778H153.744V7.63178H155.712V9.26378H153.744V13.3758C153.744 13.6744 153.792 13.9304 153.888 14.1438C153.984 14.3464 154.139 14.5064 154.352 14.6238C154.565 14.7304 154.843 14.7838 155.184 14.7838C155.269 14.7838 155.365 14.7784 155.472 14.7678C155.579 14.7571 155.68 14.7464 155.776 14.7358V16.2878C155.627 16.3091 155.461 16.3304 155.28 16.3518C155.099 16.3731 154.939 16.3838 154.8 16.3838Z" fill="black"/>
<path d="M160.9 16.4798C160.015 16.4798 159.236 16.2611 158.564 15.8238C157.903 15.3864 157.439 14.7998 157.172 14.0638L158.564 13.4078C158.799 13.8984 159.119 14.2878 159.524 14.5758C159.94 14.8638 160.399 15.0078 160.9 15.0078C161.327 15.0078 161.674 14.9118 161.94 14.7198C162.207 14.5278 162.34 14.2664 162.34 13.9358C162.34 13.7224 162.282 13.5518 162.164 13.4238C162.047 13.2851 161.898 13.1731 161.716 13.0878C161.546 13.0024 161.37 12.9384 161.188 12.8958L159.828 12.5118C159.082 12.2984 158.522 11.9784 158.148 11.5518C157.786 11.1144 157.604 10.6078 157.604 10.0318C157.604 9.50911 157.738 9.05578 158.004 8.67178C158.271 8.27711 158.639 7.97311 159.108 7.75978C159.578 7.54645 160.106 7.43978 160.692 7.43978C161.482 7.43978 162.186 7.63711 162.804 8.03178C163.423 8.41578 163.86 8.95445 164.116 9.64778L162.724 10.3038C162.554 9.88778 162.282 9.55712 161.908 9.31178C161.546 9.06645 161.135 8.94378 160.676 8.94378C160.282 8.94378 159.967 9.03978 159.732 9.23178C159.498 9.41312 159.38 9.65311 159.38 9.95178C159.38 10.1544 159.434 10.3251 159.54 10.4638C159.647 10.5918 159.786 10.6984 159.956 10.7838C160.127 10.8584 160.303 10.9224 160.484 10.9758L161.892 11.3918C162.607 11.5944 163.156 11.9144 163.54 12.3518C163.924 12.7784 164.116 13.2904 164.116 13.8878C164.116 14.3998 163.978 14.8531 163.7 15.2478C163.434 15.6318 163.06 15.9358 162.58 16.1598C162.1 16.3731 161.54 16.4798 160.9 16.4798Z" fill="black"/>
<path d="M297.998 23.2472C297.998 23.663 297.661 24 297.246 24C296.83 24 296.493 23.663 296.493 23.2472C296.493 19.6955 293.871 17.9792 289.218 17.9792C284.565 17.9792 281.943 19.6955 281.943 23.2472C281.943 23.663 281.606 24 281.19 24C280.775 24 280.438 23.663 280.438 23.2472C280.438 18.6974 283.834 16.4739 289.218 16.4739C294.602 16.4739 297.998 18.6973 297.998 23.2472ZM289.218 15.4705C286.442 15.4705 284.451 12.3965 284.451 9.19875C284.451 6.10454 286.415 3.42857 289.218 3.42857C292.021 3.42857 293.984 6.10454 293.984 9.19875C293.984 12.3965 291.994 15.4705 289.218 15.4705ZM289.218 13.9652C290.991 13.9652 292.479 11.6669 292.479 9.19875C292.479 6.85276 291.071 4.93379 289.218 4.93379C287.365 4.93379 285.957 6.85276 285.957 9.19875C285.957 11.6669 287.445 13.9652 289.218 13.9652Z" fill="black"/>
<path d="M309.998 19.8186C309.998 20.2344 309.661 20.5714 309.246 20.5714C308.83 20.5714 308.493 20.2344 308.493 19.8186C308.493 16.2669 305.871 14.5506 301.218 14.5506C296.565 14.5506 295.437 16.2857 294.58 18.8571C294.58 19.2729 293.71 18.4286 293.295 18.4286C292.879 18.4286 293.295 18.4286 293.295 18C293.294 15.6921 295.834 13.0453 301.218 13.0453C306.602 13.0453 309.998 15.2687 309.998 19.8186ZM301.218 12.0419C298.442 12.0419 296.451 8.96796 296.451 5.77018C296.451 2.67597 298.415 0 301.218 0C304.021 0 305.984 2.67597 305.984 5.77018C305.984 8.96796 303.994 12.0419 301.218 12.0419ZM301.218 10.5366C302.991 10.5366 304.479 8.23829 304.479 5.77018C304.479 3.42419 303.071 1.50522 301.218 1.50522C299.365 1.50522 297.957 3.42419 297.957 5.77018C297.957 8.23829 299.445 10.5366 301.218 10.5366Z" fill="black"/>
</svg>
