<svg width="19" height="24" viewBox="0 0 19 24" fill="none" xmlns="http://www.w3.org/2000/svg">
<path d="M9.93386 24H3.73929C2.7477 23.9982 1.79734 23.6032 1.09654 22.9018C0.395614 22.2005 0.00132857 21.2499 0 20.2584V3.74164C0.00133929 2.75006 0.395593 1.79953 1.09654 1.09821C1.79734 0.396771 2.7477 0.00184286 3.73929 0H9.93386C10.2188 0 10.4498 0.231026 10.4498 0.515957C10.4498 0.801056 10.2188 1.03191 9.93386 1.03191H3.73929C3.02091 1.03325 2.33254 1.31919 1.8246 1.82696C1.31683 2.3349 1.03089 3.02344 1.02956 3.74164V20.2584C1.0309 20.9766 1.31683 21.6651 1.8246 22.173C2.33254 22.6808 3.02091 22.9668 3.73929 22.9681H9.93386C10.2188 22.9681 10.4498 23.1989 10.4498 23.484C10.4498 23.769 10.2188 24 9.93386 24Z" fill="black"/>
<path d="M17.0965 12.049C17.0567 12.3285 16.8148 12.5342 16.5325 12.529H6.03725C5.75449 12.5344 5.5119 12.3288 5.47089 12.049C5.4575 11.8989 5.50738 11.7501 5.6085 11.6384C5.70978 11.5267 5.85292 11.4624 6.00359 11.4609H16.5636C16.7143 11.4624 16.8574 11.5267 16.9587 11.6384C17.0598 11.7501 17.1097 11.8989 17.0963 12.049H17.0965Z" fill="black"/>
<path d="M18.1481 11.7602C18.273 11.8903 18.273 12.0959 18.1481 12.226L14.1594 16.4666C13.9532 16.6759 13.6175 16.6819 13.4039 16.48C13.1903 16.2783 13.1774 15.9428 13.3746 15.725L16.881 12.0003L13.3649 8.27559C13.1601 8.05612 13.172 7.71223 13.3913 7.50751C13.6106 7.30276 13.9545 7.31448 14.1594 7.53396L18.1481 11.7602Z" fill="black"/>
</svg>
