<svg width="25" height="24" viewBox="0 0 25 24" fill="none" xmlns="http://www.w3.org/2000/svg">
<path d="M19.1764 9.51676C19.5988 8.02884 19.5491 6.44664 19.0344 4.9879C18.5198 3.52932 17.5654 2.26635 16.3027 1.37297C15.0402 0.479755 13.5316 0 11.9849 0C10.4382 0 8.92965 0.479712 7.66706 1.37297C6.40439 2.26635 5.44996 3.52932 4.93535 4.9879C4.42074 6.44647 4.37101 8.02867 4.79335 9.51676C3.45776 10.0302 2.29756 10.9163 1.4504 12.0694C0.603404 13.2228 0.105153 14.5949 0.0148921 16.0231C-0.0753818 17.4511 0.246166 18.8752 0.941339 20.126C1.63647 21.3768 2.67586 22.4016 3.93636 23.0791C5.19685 23.7566 6.62518 24.0581 8.05189 23.9478C9.47855 23.8375 10.8435 23.3201 11.9848 22.4569C13.1245 23.3308 14.4918 23.8579 15.9231 23.975C17.3545 24.0923 18.7892 23.7948 20.056 23.118C21.3227 22.4414 22.3676 21.414 23.0659 20.1592C23.7641 18.9042 24.0861 17.4747 23.9933 16.0415C23.9006 14.6083 23.3968 13.2323 22.5426 12.0778C21.6883 10.9235 20.5196 10.0394 19.1763 9.53179L19.1764 9.51676ZM11.985 1.52568C13.8561 1.52635 15.619 2.40271 16.7493 3.89383C17.8794 5.38508 18.2465 7.31922 17.7413 9.12068C16.7389 8.93697 15.7092 8.9645 14.7182 9.20128C13.727 9.43806 12.7961 9.87907 11.9852 10.4961C11.1754 9.87655 10.2451 9.43285 9.25379 9.19342C8.26263 8.95397 7.23242 8.9241 6.22904 9.10565C5.72947 7.30619 6.09922 5.37658 7.22871 3.88904C8.35806 2.40181 10.1176 1.52743 11.9852 1.52543L11.985 1.52568ZM17.1354 10.5338C16.4529 11.6932 15.3995 12.5888 14.1452 13.0755C13.8614 12.5232 13.5098 12.0084 13.0987 11.543C14.2776 10.7288 15.7121 10.37 17.1354 10.5338ZM12.6501 13.4493C12.2106 13.501 11.7666 13.501 11.3271 13.4493C11.5171 13.1252 11.7374 12.8199 11.9848 12.5372C12.2348 12.8195 12.4575 13.1249 12.6501 13.4493H12.6501ZM10.8711 11.543C10.4599 12.0084 10.1083 12.5232 9.82449 13.0755C8.57019 12.5888 7.51679 11.6932 6.8343 10.5338C8.25763 10.37 9.69215 10.7287 10.8711 11.543ZM7.49957 22.4572C5.6287 22.4514 3.86828 21.5704 2.74218 20.0763C1.6162 18.5822 1.25426 16.6473 1.76404 14.8473C2.274 13.0473 3.59669 11.5894 5.33908 10.9078C6.17274 12.5359 7.57437 13.8019 9.27857 14.4662C8.9375 15.6641 8.90463 16.9289 9.18295 18.143C9.46145 19.3571 10.042 20.4811 10.871 21.4108C9.87796 22.091 8.70307 22.4557 7.49948 22.4574L7.49957 22.4572ZM10.4898 16.4769C10.4904 15.9309 10.5659 15.3876 10.714 14.8621C11.5517 15.0165 12.4105 15.0165 13.2482 14.8621C13.8053 16.8077 13.3288 18.9032 11.9849 20.4166C11.0251 19.3282 10.4936 17.928 10.4898 16.4769V16.4769ZM16.4701 22.4572C15.2666 22.4556 14.0917 22.0908 13.0987 21.4107C13.9276 20.4809 14.5082 19.3569 14.7867 18.1428C15.065 16.9287 15.0321 15.6639 14.6911 14.466C16.3953 13.8017 17.7969 12.5357 18.6306 10.9076C20.3729 11.5893 21.6957 13.0471 22.2056 14.8471C22.7154 16.6473 22.3534 18.5822 21.2274 20.0761C20.1015 21.5702 18.3411 22.4513 16.4701 22.4571L16.4701 22.4572Z" fill="black"/>
</svg>
