<svg width="28" height="15" viewBox="0 0 28 15" fill="none" xmlns="http://www.w3.org/2000/svg">
<path d="M27.6922 14.7045C27.5047 14.8936 27.2493 15 26.9827 15C26.7162 15 26.4608 14.8936 26.2732 14.7045L13.993 2.41401L1.71285 14.7045C1.45925 14.9578 1.08991 15.0569 0.743718 14.9641C0.397335 14.8713 0.126997 14.601 0.0342114 14.2546C-0.0585737 13.9084 0.0404567 13.5391 0.293833 13.2855L13.2838 0.295531C13.4713 0.106392 13.7267 0 13.9933 0C14.2598 0 14.5152 0.106392 14.7028 0.295531L27.6927 13.2855C27.8818 13.473 27.9882 13.7284 27.9882 13.995C27.9882 14.2615 27.8818 14.5169 27.6927 14.7045L27.6922 14.7045Z" fill="white"/>
</svg>
