<svg width="19" height="21" viewBox="0 0 19 21" fill="none" xmlns="http://www.w3.org/2000/svg">
<path d="M2.40606 0.117637V20.4053H0L0.0924935 0.117637H2.40606ZM11.0392 0C16.345 0 18.9982 3.3813 18.9982 10.1438C18.9982 13.1429 18.2989 15.6323 16.9002 17.6121C16.222 18.5922 15.3069 19.3664 14.1549 19.9349C13.024 20.4837 11.728 20.7582 10.2681 20.7582C7.94382 20.7582 6.24714 20.5327 5.17811 20.0819L5.27088 0.352844C6.95702 0.117636 8.88001 0 11.0392 0ZM9.95959 18.847C12.2424 18.847 13.9082 18.0335 14.9568 16.4066C16.0055 14.7601 16.5305 12.6431 16.5305 10.0556C16.5305 4.62602 14.4529 1.91117 10.2991 1.91117L7.58396 2.02881V18.7C8.1603 18.798 8.9517 18.847 9.95959 18.847Z" fill="black"/>
</svg>
