<svg width="310" height="24" viewBox="0 0 310 24" fill="none" xmlns="http://www.w3.org/2000/svg">
<path d="M0 17.9597V6.03966H3.904C5.14133 6.03966 6.21333 6.29032 7.12 6.79166C8.03733 7.28232 8.74667 7.97566 9.248 8.87166C9.74933 9.76766 10 10.8077 10 11.9917C10 13.165 9.74933 14.205 9.248 15.1117C8.74667 16.0077 8.03733 16.7063 7.12 17.2077C6.21333 17.709 5.14133 17.9597 3.904 17.9597H0ZM1.888 16.2797H3.936C4.77867 16.2797 5.50933 16.1037 6.128 15.7517C6.75733 15.3997 7.24267 14.9037 7.584 14.2637C7.92533 13.6237 8.096 12.8663 8.096 11.9917C8.096 11.117 7.92 10.365 7.568 9.73566C7.22667 9.09566 6.74667 8.59966 6.128 8.24766C5.50933 7.89566 4.77867 7.71966 3.936 7.71966H1.888V16.2797Z" fill="black"/>
<path d="M15.9074 18.1517C15.0434 18.1517 14.2754 17.9543 13.6034 17.5597C12.942 17.1543 12.4247 16.6103 12.0514 15.9277C11.678 15.2343 11.4914 14.461 11.4914 13.6077C11.4914 12.733 11.678 11.9597 12.0514 11.2877C12.4354 10.6157 12.9474 10.0877 13.5874 9.70366C14.2274 9.30899 14.9527 9.11166 15.7634 9.11166C16.414 9.11166 16.9954 9.22366 17.5074 9.44766C18.0194 9.67166 18.4514 9.98099 18.8034 10.3757C19.1554 10.7597 19.422 11.2023 19.6034 11.7037C19.7954 12.205 19.8914 12.7383 19.8914 13.3037C19.8914 13.4423 19.886 13.5863 19.8754 13.7357C19.8647 13.885 19.8434 14.0237 19.8114 14.1517H12.9154V12.7117H18.7874L17.9234 13.3677C18.03 12.845 17.9927 12.381 17.8114 11.9757C17.6407 11.5597 17.374 11.2343 17.0114 10.9997C16.6594 10.7543 16.2434 10.6317 15.7634 10.6317C15.2834 10.6317 14.8567 10.7543 14.4834 10.9997C14.11 11.2343 13.822 11.5757 13.6194 12.0237C13.4167 12.461 13.3367 12.9943 13.3794 13.6237C13.326 14.2103 13.406 14.7223 13.6194 15.1597C13.8434 15.597 14.1527 15.9383 14.5474 16.1837C14.9527 16.429 15.4114 16.5517 15.9234 16.5517C16.446 16.5517 16.8887 16.4343 17.2514 16.1997C17.6247 15.965 17.918 15.661 18.1314 15.2877L19.6034 16.0077C19.4327 16.413 19.166 16.781 18.8034 17.1117C18.4514 17.4317 18.0247 17.6877 17.5234 17.8797C17.0327 18.061 16.494 18.1517 15.9074 18.1517Z" fill="black"/>
<path d="M21.8159 17.9597V5.84766H23.6239V17.9597H21.8159Z" fill="black"/>
<path d="M29.9618 18.1517C29.0977 18.1517 28.3298 17.9543 27.6577 17.5597C26.9964 17.1543 26.4791 16.6103 26.1057 15.9277C25.7324 15.2343 25.5457 14.461 25.5457 13.6077C25.5457 12.733 25.7324 11.9597 26.1057 11.2877C26.4897 10.6157 27.0017 10.0877 27.6417 9.70366C28.2817 9.30899 29.0071 9.11166 29.8177 9.11166C30.4684 9.11166 31.0498 9.22366 31.5618 9.44766C32.0737 9.67166 32.5058 9.98099 32.8578 10.3757C33.2098 10.7597 33.4764 11.2023 33.6577 11.7037C33.8498 12.205 33.9458 12.7383 33.9458 13.3037C33.9458 13.4423 33.9404 13.5863 33.9298 13.7357C33.9191 13.885 33.8978 14.0237 33.8657 14.1517H26.9697V12.7117H32.8418L31.9778 13.3677C32.0844 12.845 32.0471 12.381 31.8657 11.9757C31.6951 11.5597 31.4284 11.2343 31.0657 10.9997C30.7137 10.7543 30.2977 10.6317 29.8177 10.6317C29.3377 10.6317 28.9111 10.7543 28.5377 10.9997C28.1644 11.2343 27.8764 11.5757 27.6737 12.0237C27.4711 12.461 27.3911 12.9943 27.4337 13.6237C27.3804 14.2103 27.4604 14.7223 27.6737 15.1597C27.8978 15.597 28.2071 15.9383 28.6017 16.1837C29.0071 16.429 29.4657 16.5517 29.9777 16.5517C30.5004 16.5517 30.9431 16.4343 31.3057 16.1997C31.6791 15.965 31.9724 15.661 32.1858 15.2877L33.6577 16.0077C33.4871 16.413 33.2204 16.781 32.8578 17.1117C32.5058 17.4317 32.0791 17.6877 31.5777 17.8797C31.0871 18.061 30.5484 18.1517 29.9618 18.1517Z" fill="black"/>
<path d="M39.6143 18.0557C38.7076 18.0557 38.0036 17.7997 37.5023 17.2877C37.0009 16.7757 36.7503 16.0557 36.7503 15.1277V10.9357H35.2303V9.30366H35.4702C35.8756 9.30366 36.1903 9.18632 36.4142 8.95166C36.6382 8.71699 36.7503 8.39699 36.7503 7.99166V7.31966H38.5583V9.30366H40.5263V10.9357H38.5583V15.0477C38.5583 15.3463 38.6063 15.6023 38.7023 15.8157C38.7983 16.0183 38.9529 16.1783 39.1663 16.2957C39.3796 16.4023 39.6569 16.4557 39.9982 16.4557C40.0836 16.4557 40.1796 16.4503 40.2863 16.4397C40.3929 16.429 40.4943 16.4183 40.5903 16.4077V17.9597C40.4409 17.981 40.2756 18.0023 40.0942 18.0237C39.9129 18.045 39.7529 18.0557 39.6143 18.0557Z" fill="black"/>
<path d="M46.4224 18.1517C45.5584 18.1517 44.7904 17.9543 44.1184 17.5597C43.457 17.1543 42.9397 16.6103 42.5664 15.9277C42.193 15.2343 42.0064 14.461 42.0064 13.6077C42.0064 12.733 42.193 11.9597 42.5664 11.2877C42.9504 10.6157 43.4624 10.0877 44.1024 9.70366C44.7424 9.30899 45.4677 9.11166 46.2784 9.11166C46.929 9.11166 47.5104 9.22366 48.0224 9.44766C48.5344 9.67166 48.9664 9.98099 49.3184 10.3757C49.6704 10.7597 49.937 11.2023 50.1184 11.7037C50.3104 12.205 50.4064 12.7383 50.4064 13.3037C50.4064 13.4423 50.401 13.5863 50.3904 13.7357C50.3797 13.885 50.3584 14.0237 50.3264 14.1517H43.4304V12.7117H49.3024L48.4384 13.3677C48.545 12.845 48.5077 12.381 48.3264 11.9757C48.1557 11.5597 47.889 11.2343 47.5264 10.9997C47.1744 10.7543 46.7584 10.6317 46.2784 10.6317C45.7984 10.6317 45.3717 10.7543 44.9984 10.9997C44.625 11.2343 44.337 11.5757 44.1344 12.0237C43.9317 12.461 43.8517 12.9943 43.8944 13.6237C43.841 14.2103 43.921 14.7223 44.1344 15.1597C44.3584 15.597 44.6677 15.9383 45.0624 16.1837C45.4677 16.429 45.9264 16.5517 46.4384 16.5517C46.961 16.5517 47.4037 16.4343 47.7664 16.1997C48.1397 15.965 48.433 15.661 48.6464 15.2877L50.1184 16.0077C49.9477 16.413 49.681 16.781 49.3184 17.1117C48.9664 17.4317 48.5397 17.6877 48.0384 17.8797C47.5477 18.061 47.009 18.1517 46.4224 18.1517Z" fill="black"/>
<path d="M55.4637 17.9597V6.03966H59.7998C60.5998 6.03966 61.3037 6.18899 61.9118 6.48766C62.5304 6.77566 63.0104 7.20232 63.3517 7.76766C63.6931 8.32232 63.8638 8.98899 63.8638 9.76766C63.8638 10.5357 63.6878 11.197 63.3358 11.7517C62.9944 12.3063 62.5198 12.733 61.9118 13.0317C61.3037 13.3303 60.5998 13.4797 59.7998 13.4797H57.3517V17.9597H55.4637ZM57.3517 11.7997H59.8478C60.2744 11.7997 60.6478 11.7143 60.9678 11.5437C61.2878 11.373 61.5384 11.1383 61.7197 10.8397C61.9011 10.5303 61.9917 10.1677 61.9917 9.75166C61.9917 9.33566 61.9011 8.97832 61.7197 8.67966C61.5384 8.37032 61.2878 8.13566 60.9678 7.97566C60.6478 7.80499 60.2744 7.71966 59.8478 7.71966H57.3517V11.7997Z" fill="black"/>
<path d="M69.543 18.1517C68.679 18.1517 67.911 17.9543 67.239 17.5597C66.5777 17.1543 66.0603 16.6103 65.687 15.9277C65.3137 15.2343 65.127 14.461 65.127 13.6077C65.127 12.733 65.3137 11.9597 65.687 11.2877C66.071 10.6157 66.583 10.0877 67.223 9.70366C67.863 9.30899 68.5883 9.11166 69.399 9.11166C70.0497 9.11166 70.631 9.22366 71.143 9.44766C71.655 9.67166 72.087 9.98099 72.439 10.3757C72.791 10.7597 73.0577 11.2023 73.239 11.7037C73.431 12.205 73.527 12.7383 73.527 13.3037C73.527 13.4423 73.5217 13.5863 73.511 13.7357C73.5003 13.885 73.479 14.0237 73.447 14.1517H66.551V12.7117H72.423L71.559 13.3677C71.6657 12.845 71.6283 12.381 71.447 11.9757C71.2763 11.5597 71.0097 11.2343 70.647 10.9997C70.295 10.7543 69.879 10.6317 69.399 10.6317C68.919 10.6317 68.4923 10.7543 68.119 10.9997C67.7457 11.2343 67.4577 11.5757 67.255 12.0237C67.0523 12.461 66.9723 12.9943 67.015 13.6237C66.9617 14.2103 67.0417 14.7223 67.255 15.1597C67.479 15.597 67.7883 15.9383 68.183 16.1837C68.5883 16.429 69.047 16.5517 69.559 16.5517C70.0817 16.5517 70.5243 16.4343 70.887 16.1997C71.2603 15.965 71.5537 15.661 71.767 15.2877L73.239 16.0077C73.0683 16.413 72.8017 16.781 72.439 17.1117C72.087 17.4317 71.6603 17.6877 71.159 17.8797C70.6683 18.061 70.1297 18.1517 69.543 18.1517Z" fill="black"/>
<path d="M79.1955 18.0557C78.2888 18.0557 77.5848 17.7997 77.0835 17.2877C76.5822 16.7757 76.3315 16.0557 76.3315 15.1277V10.9357H74.8115V9.30366H75.0515C75.4568 9.30366 75.7715 9.18632 75.9955 8.95166C76.2195 8.71699 76.3315 8.39699 76.3315 7.99166V7.31966H78.1395V9.30366H80.1075V10.9357H78.1395V15.0477C78.1395 15.3463 78.1875 15.6023 78.2835 15.8157C78.3795 16.0183 78.5342 16.1783 78.7475 16.2957C78.9608 16.4023 79.2382 16.4557 79.5795 16.4557C79.6648 16.4557 79.7608 16.4503 79.8675 16.4397C79.9742 16.429 80.0755 16.4183 80.1715 16.4077V17.9597C80.0222 17.981 79.8568 18.0023 79.6755 18.0237C79.4942 18.045 79.3342 18.0557 79.1955 18.0557Z" fill="black"/>
<path d="M308.271 3.65557H302.835V2.87593C302.835 1.29019 301.544 0 299.959 0H297.803C296.217 0 294.927 1.29019 294.927 2.87593V3.65469H289.49C289.09 3.65469 288.766 3.97917 288.766 4.37952C288.766 4.77986 289.09 5.10434 289.49 5.10434H290.242L291.738 21.0975C291.893 22.7524 293.263 24 294.924 24H302.838C304.499 24 305.869 22.7524 306.024 21.0983L307.52 5.10522H308.271C308.672 5.10522 308.996 4.78074 308.996 4.38039C308.996 3.98005 308.672 3.65557 308.271 3.65557H308.271ZM296.377 2.87593C296.377 2.08907 297.016 1.44965 297.803 1.44965H299.96C300.747 1.44965 301.386 2.08999 301.386 2.87593V3.65469H296.378V2.87593H296.377ZM304.579 20.963C304.495 21.8683 303.746 22.5503 302.837 22.5503H294.924C294.015 22.5503 293.266 21.8681 293.182 20.963L291.698 5.10471H306.063L304.579 20.963Z" fill="black"/>
<path d="M296.701 19.8013H296.725C297.124 19.7892 297.439 19.4541 297.426 19.054L297.098 8.52215C297.085 8.1218 296.748 7.80777 296.35 7.8207C295.951 7.83274 295.636 8.16783 295.649 8.56729L295.977 19.0991C295.989 19.4912 296.312 19.8013 296.701 19.8013L296.701 19.8013Z" fill="black"/>
<path d="M301.031 19.7998H301.054C301.443 19.7998 301.766 19.4897 301.777 19.0974L302.106 8.5656C302.119 8.16525 301.804 7.83106 301.404 7.819C300.993 7.8021 300.669 8.12101 300.657 8.52045L300.328 19.0523C300.316 19.4526 300.631 19.7877 301.031 19.7998L301.031 19.7998Z" fill="black"/>
</svg>
