<svg width="30" height="18" viewBox="0 0 30 18" fill="none" xmlns="http://www.w3.org/2000/svg">
<path d="M8.37078 6.37691C8.37078 5.81393 8.18744 5.38685 7.8209 5.09567C7.45429 4.80448 6.96544 4.65889 6.35445 4.65889C5.13245 4.65889 4.17516 5.14422 3.48272 6.11481C2.79021 7.06601 2.39311 8.22105 2.29128 9.57994C6.34428 9.57994 8.37078 8.51224 8.37078 6.37691ZM5.74345 17.4128C1.9145 17.4128 0 15.0833 0 10.4243C0 8.289 0.560047 6.5225 1.68028 5.12482C2.82077 3.72715 4.41961 3.02828 6.47667 3.02828C7.73939 3.02828 8.7374 3.31947 9.47055 3.90184C10.2241 4.46481 10.601 5.25102 10.601 6.26041C10.601 7.25046 10.3463 8.06576 9.83717 8.70638C9.34839 9.32754 8.67628 9.80311 7.8209 10.1331C6.21189 10.7544 4.34827 11.065 2.23017 11.065C2.23017 14.1515 3.52344 15.6948 6.11006 15.6948C7.4135 15.6948 8.64573 15.3551 9.80661 14.6756L10.1427 15.8113C9.6335 16.2965 8.96139 16.6848 8.1264 16.976C7.31166 17.2672 6.51739 17.4128 5.74345 17.4128ZM19.7238 15.6074L20.0293 16.8886C19.2756 17.238 18.3694 17.4128 17.3104 17.4128C15.8031 17.4128 14.8053 17.0245 14.3164 16.248C13.8277 15.4715 13.5832 14.2388 13.5832 12.55V4.92098H11.1392V3.6689L13.5832 3.37772V0.349434L15.7829 0V3.37772H19.7238V4.92098H15.7829V11.9093C15.7829 13.7147 15.9456 14.8115 16.2717 15.1997C16.6788 15.6462 17.2287 15.8694 17.9214 15.8694C18.6138 15.8694 19.2145 15.7821 19.7238 15.6074ZM24.7769 15.8113C25.6728 15.8113 26.4266 15.6171 27.0376 15.2289C27.6486 14.8212 27.9541 14.2485 27.9541 13.5109C27.9541 12.7344 27.5669 12.1229 26.7932 11.6764C26.406 11.4629 25.9377 11.2493 25.3879 11.0358C24.838 10.8029 24.5019 10.6573 24.3797 10.599C23.3613 10.172 22.5669 9.66728 21.9968 9.08491C21.4468 8.50254 21.1719 7.67747 21.1719 6.60984C21.1719 5.52275 21.6302 4.65889 22.5467 4.01834C23.4632 3.35832 24.5424 3.02828 25.785 3.02828C27.0273 3.02828 28.1474 3.26122 29.1455 3.72715L28.8095 5.03748C27.7911 4.76569 26.8848 4.6298 26.0905 4.6298C25.3165 4.6298 24.6444 4.80448 24.0742 5.15392C23.5038 5.48396 23.2188 5.94982 23.2188 6.55159C23.2188 7.15335 23.4121 7.62899 23.7992 7.97842C24.1861 8.3084 24.5833 8.56079 24.9907 8.73547C25.4184 8.91016 25.8664 9.09461 26.3349 9.28875C26.8237 9.46344 27.1392 9.58964 27.282 9.66728C27.4244 9.74493 27.6892 9.89052 28.0763 10.1041C28.4632 10.2981 28.7278 10.4826 28.8706 10.6573C29.0333 10.832 29.2167 11.065 29.4205 11.3561C29.8074 11.8414 30.001 12.5306 30.001 13.4235C30.001 14.7048 29.5019 15.6948 28.504 16.3936C27.5058 17.073 26.233 17.4128 24.6852 17.4128C23.1577 17.4128 21.8032 16.9274 20.622 15.9568L20.9581 14.7921C22.119 15.4715 23.3918 15.8113 24.7769 15.8113Z" fill="black"/>
</svg>
