<svg width="17" height="20" viewBox="0 0 17 20" fill="none" xmlns="http://www.w3.org/2000/svg">
<path d="M11.7248 3.0463V2.39661C11.7248 1.07516 10.649 0 9.32821 0H7.53099C6.20954 0 5.13438 1.07516 5.13438 2.39661V3.04558H0.604022C0.270402 3.04558 0 3.31598 0 3.6496C0 3.98322 0.270402 4.25362 0.604022 4.25362H1.23021L2.47722 17.5812C2.60605 18.9604 3.74774 20 5.13223 20H11.7266C13.1112 20 14.2528 18.9604 14.3816 17.582L15.6286 4.25435H16.2548C16.5885 4.25435 16.8589 3.98395 16.8589 3.65033C16.8589 3.31671 16.5883 3.0463 16.2548 3.0463H11.7248ZM6.34269 2.39661C6.34269 1.74089 6.87558 1.20804 7.53126 1.20804H9.32848C9.9842 1.20804 10.517 1.74165 10.517 2.39661V3.04558H6.34334V2.39661H6.34269ZM13.1779 17.4692C13.1081 18.2236 12.484 18.792 11.7263 18.792H5.13189C4.37416 18.792 3.75008 18.2234 3.68024 17.4692L2.44328 4.25393H14.4144L13.1779 17.4692Z" fill="black"/>
<path d="M6.46258 16.5022L6.48205 16.5028C6.81507 16.503 7.08596 16.2319 7.08541 15.8983L7.08087 7.11745C7.08032 6.78366 6.80803 6.51348 6.47635 6.51408C6.14333 6.51391 5.87244 6.78497 5.873 7.11803L5.87755 15.8988C5.87756 16.2257 6.13796 16.4923 6.46257 16.5022L6.46258 16.5022Z" fill="black"/>
<path d="M10.3708 16.5024L10.3902 16.5018C10.7143 16.4922 10.9756 16.226 10.9754 15.8989L10.9901 7.11815C10.9911 6.78436 10.7205 6.51373 10.3875 6.51351C10.0443 6.50955 9.78246 6.78315 9.78228 7.11617L9.76751 15.897C9.76717 16.2307 10.0378 16.5021 10.3708 16.5023L10.3708 16.5024Z" fill="black"/>
<path d="M8.41565 16.4783L8.43512 16.4777C8.75916 16.4682 9.02048 16.2019 9.02027 15.8749L9.03503 7.09409C9.03597 6.7603 8.76541 6.48967 8.43239 6.48944C8.08922 6.48549 7.82736 6.75909 7.82717 7.0921L7.8124 15.8729C7.81207 16.2067 8.08265 16.478 8.41568 16.4783L8.41565 16.4783Z" fill="black"/>
</svg>
