<svg width="17" height="20" viewBox="0 0 17 20" fill="none" xmlns="http://www.w3.org/2000/svg">
<path d="M16.6463 15.0752C16.3411 15.7514 15.9797 16.373 15.5611 16.9449C14.9905 17.7246 14.5232 18.2645 14.1631 18.564C13.6049 19.056 13.0069 19.3083 12.3664 19.3226C11.9067 19.3226 11.3522 19.1973 10.7068 18.9424C10.0592 18.6893 9.46411 18.564 8.91998 18.564C8.34935 18.564 7.73729 18.6893 7.08266 18.9424C6.42707 19.1973 5.89891 19.3293 5.49503 19.3428C4.88095 19.368 4.26871 19.109 3.65771 18.564C3.26778 18.2385 2.7799 17.6792 2.19557 16.8877C1.56859 16.0425 1.05316 15.0618 0.649271 13.9448C0.216862 12.7371 0 11.568 0 10.4368C0 9.13984 0.292338 8.02207 0.877806 7.08512C1.33795 6.33237 1.9501 5.73858 2.71627 5.30282C3.48244 4.86698 4.31023 4.64494 5.20172 4.63073C5.68951 4.63073 6.32922 4.77531 7.12418 5.05951C7.91685 5.34463 8.42588 5.48962 8.64897 5.48962C8.81581 5.48962 9.38127 5.32015 10.3398 4.98305C11.2462 4.67051 12.0113 4.54107 12.638 4.59204C14.3363 4.72333 15.6122 5.36498 16.4607 6.52077C14.9419 7.40304 14.1905 8.63772 14.2054 10.2223C14.2192 11.457 14.6864 12.4839 15.6047 13.2997C16.0209 13.6782 16.4856 13.9709 17.0027 14.1787C16.8905 14.4898 16.7722 14.7884 16.6463 15.0752ZM12.7514 0.386972C12.7514 1.35445 12.3826 2.25775 11.6475 3.09385C10.7603 4.08774 9.6873 4.6621 8.52364 4.57152C8.50881 4.45545 8.50022 4.33324 8.50022 4.2049C8.50022 3.27619 8.92209 2.28223 9.67132 1.46951C10.0454 1.05806 10.5211 0.715916 11.098 0.442991C11.6736 0.174187 12.2181 0.0254842 12.7302 0C12.7451 0.129356 12.7514 0.25871 12.7514 0.386972Z" fill="white"/>
</svg>
