<svg width="18" height="18" viewBox="0 0 18 18" fill="none" xmlns="http://www.w3.org/2000/svg">
<path d="M8.8691 7.96402C8.8691 8.27848 8.74424 8.5801 8.52186 8.8025C8.29948 9.02488 7.99786 9.14974 7.68339 9.14974C7.36893 9.14974 7.06731 9.02488 6.84491 8.8025C6.62253 8.58012 6.49753 8.27849 6.49753 7.96402C6.49753 7.64943 6.62253 7.3478 6.84491 7.12544C7.06729 6.9032 7.36892 6.7782 7.68339 6.7782C7.99784 6.7782 8.29947 6.90306 8.52186 7.12544C8.74424 7.34782 8.86924 7.64945 8.8691 7.96402ZM11.7471 9.14971C12.0617 9.14971 12.3631 9.02485 12.5855 8.80247C12.8079 8.58009 12.9329 8.27847 12.9329 7.964C12.9329 7.6494 12.8079 7.34777 12.5855 7.12552C12.3632 6.90314 12.0617 6.77814 11.7471 6.77814C11.4326 6.77814 11.131 6.90314 10.9086 7.12538C10.6862 7.34776 10.5613 7.64939 10.5613 7.96396C10.5613 8.27842 10.6862 8.58004 10.9086 8.80244C11.131 9.02482 11.4326 9.14971 11.7471 9.14971ZM7.68345 10.6191C7.36899 10.6191 7.06737 10.7439 6.84497 10.9663C6.62259 11.1887 6.49773 11.4903 6.49773 11.8048C6.49773 12.1192 6.62259 12.4208 6.84497 12.6432C7.06735 12.8656 7.36898 12.9906 7.68345 12.9906C7.99791 12.9906 8.29953 12.8656 8.52192 12.6432C8.7443 12.4209 8.86917 12.1192 8.86917 11.8048C8.8693 11.4903 8.7443 11.1887 8.52192 10.9663C8.29954 10.7439 7.99792 10.6191 7.68345 10.6191ZM3.61983 10.6191C3.30523 10.6191 3.00375 10.7439 2.78135 10.9663C2.55897 11.1887 2.43397 11.4903 2.43397 11.8048C2.43397 12.1192 2.55897 12.4208 2.78135 12.6432C3.00374 12.8656 3.30522 12.9906 3.61983 12.9906C3.93429 12.9906 4.23591 12.8656 4.4583 12.6432C4.68068 12.4209 4.80555 12.1192 4.80555 11.8048C4.80555 11.4903 4.68068 11.1887 4.4583 10.9663C4.23592 10.7439 3.9343 10.6191 3.61983 10.6191ZM11.5474 0C11.3264 0 11.1475 0.179131 11.1475 0.399969V1.18569H5.00559V1.98563L11.1475 1.98577V2.54088H10.8376C10.6168 2.54088 10.4376 2.71987 10.4376 2.94085C10.4376 3.1617 10.6168 3.34082 10.8376 3.34082H12.2571C12.4781 3.34082 12.6572 3.16169 12.6572 2.94085C12.6572 2.71987 12.4781 2.54088 12.2571 2.54088H11.9474V0.399966C11.9474 0.17912 11.7683 0 11.5474 0ZM18 13.8019C18.0006 15.1121 17.3891 16.3473 16.3471 17.1416C15.3051 17.9356 13.9518 18.1976 12.6888 17.8497C11.4257 17.5018 10.3975 16.5839 9.90908 15.3681H2.13185C1.56655 15.3676 1.02469 15.1427 0.625007 14.743C0.225324 14.3433 0.000571435 13.8013 0 13.2361V3.31815C0.000558042 2.75285 0.22531 2.21099 0.625007 1.81131C1.02469 1.41162 1.56655 1.18673 2.13185 1.18601H3.41993V0.40029C3.41993 0.179445 3.59906 0.00032146 3.8199 0.00032146C4.04089 0.00032146 4.21987 0.179452 4.21987 0.40029V2.54121H4.52973C4.75057 2.54121 4.92969 2.7202 4.92969 2.94118C4.92969 3.16202 4.75056 3.34115 4.52973 3.34115H3.11021C2.88922 3.34115 2.7101 3.16202 2.7101 2.94118C2.7101 2.72019 2.88923 2.54121 3.11021 2.54121H3.41992V1.98609H2.13184C1.77874 1.98651 1.44015 2.127 1.19043 2.37674C0.940708 2.62647 0.800356 2.96507 0.799927 3.31815V4.40102L14.5683 4.40088V3.31815C14.5679 2.96491 14.4275 2.62632 14.1778 2.3766C13.9279 2.12688 13.5893 1.98638 13.2363 1.9861H12.7343V1.18616H13.2363C13.8015 1.18686 14.3434 1.41161 14.7431 1.81131C15.1428 2.211 15.3677 2.75286 15.3684 3.31815V9.90966C16.1448 10.2226 16.8101 10.7602 17.279 11.4536C17.7479 12.1471 17.9987 12.9647 18 13.8019ZM9.67633 14.5681C9.41823 13.2078 9.8496 11.8079 10.8287 10.8288C11.8079 9.84987 13.2079 9.4185 14.568 9.67686V5.20074H0.799652V13.2358C0.800071 13.5889 0.940418 13.9275 1.19016 14.1772C1.43988 14.427 1.77849 14.5675 2.13156 14.5679L9.67633 14.5681ZM17.2 13.8019C17.2 12.9006 16.842 12.0362 16.2046 11.3987C15.5673 10.7614 14.7029 10.4033 13.8015 10.4033C12.9002 10.4033 12.0357 10.7614 11.3985 11.3987C10.761 12.036 10.4031 12.9004 10.4031 13.8018C10.4031 14.7032 10.761 15.5676 11.3985 16.205C12.0357 16.8423 12.9002 17.2004 13.8015 17.2004C14.7025 17.1993 15.5663 16.8409 16.2035 16.2039C16.8406 15.5668 17.199 14.7029 17.2 13.8019ZM15.7355 13.4017H14.2019V11.2682C14.2019 11.2118 14.1796 11.1578 14.1397 11.1179C14.0998 11.0782 14.0458 11.0557 13.9894 11.0557H13.6144C13.4971 11.0557 13.402 11.1508 13.402 11.2682V13.9892C13.402 14.0456 13.4243 14.0997 13.4642 14.1396C13.5039 14.1794 13.5581 14.2018 13.6144 14.2018H15.7356C15.7919 14.2018 15.8459 14.1794 15.8858 14.1396C15.9257 14.0997 15.948 14.0456 15.948 13.9893V13.6142C15.948 13.4969 15.8529 13.4017 15.7355 13.4017Z" fill="black"/>
</svg>
