<svg width="390" height="217" viewBox="0 0 390 217" fill="none" xmlns="http://www.w3.org/2000/svg">
<path d="M354.152 0.50007H90.3408V163.636H354.152V0.50007Z" stroke="#E61D20"/>
<path d="M348.252 145.529C348.249 148.84 346.869 152.015 344.414 154.356C341.959 156.697 338.631 158.012 335.161 158.012H109.324C107.605 158.013 105.903 157.691 104.315 157.064C102.727 156.438 101.283 155.518 100.067 154.359C98.8516 153.2 97.8871 151.823 97.229 150.308C96.5709 148.793 96.2322 147.169 96.2322 145.529V18.6103C96.235 15.2988 97.6155 12.1239 100.07 9.78325C102.525 7.44261 105.854 6.12781 109.324 6.12781H335.161C338.631 6.12781 341.959 7.44261 344.414 9.78325C346.869 12.1239 348.249 15.2988 348.252 18.6103V145.529Z" stroke="#E71F18"/>
<path d="M342.876 155.551L365.753 188.632" stroke="#BC1F22" stroke-miterlimit="10"/>
<path d="M348.229 145.501C348.226 148.813 346.846 151.988 344.391 154.329C341.935 156.669 338.607 157.984 335.137 157.984H109.301C107.582 157.985 105.88 157.664 104.291 157.036C102.703 156.41 101.26 155.491 100.044 154.332C98.8281 153.173 97.8636 151.796 97.2056 150.28C96.5475 148.765 96.2088 147.141 96.2088 145.501V18.5829C96.2116 15.2715 97.5921 12.0965 100.047 9.7559C102.502 7.41526 105.83 6.10046 109.301 6.10046H335.137C338.607 6.10046 341.935 7.41526 344.391 9.7559C346.846 12.0965 348.226 15.2715 348.229 18.5829V145.501Z" fill="white"/>
<path d="M354.284 0.468816H90.3095V163.639H354.284V0.468816Z" fill="#D9D9D9"/>
<path d="M354.152 0.50007H90.3408V163.636H354.152V0.50007Z" fill="white"/>
<path d="M348.38 145.502C348.377 148.813 346.997 151.988 344.541 154.329C342.086 156.669 338.758 157.984 335.288 157.984H109.452C107.732 157.985 106.03 157.664 104.441 157.037C102.852 156.41 101.408 155.491 100.191 154.332C98.9747 153.173 98.0092 151.797 97.35 150.282C96.6908 148.767 96.3508 147.142 96.3494 145.502V18.5829C96.3508 16.9424 96.6908 15.3182 97.35 13.8031C98.0092 12.2879 98.9747 10.9115 100.191 9.75239C101.408 8.59328 102.852 7.67419 104.441 7.0476C106.03 6.421 107.732 6.09917 109.452 6.10047H335.288C338.758 6.10046 342.086 7.41525 344.541 9.75589C346.997 12.0965 348.377 15.2715 348.38 18.5829V145.502Z" fill="#F6C600"/>
<path d="M380.046 208.753C377.061 229.214 123.297 201.175 102.907 196.41C71.2331 189.008 -89.8979 5.38636 68.8659 43.5488C217.733 79.3326 396.402 21.8574 389.084 71.7529C369.207 207.275 406.655 26.3707 380.046 208.753Z" fill="black"/>
<path d="M258.35 31.5425C258.35 32.1257 258.305 32.6782 258.217 33.2C258.133 33.7217 257.991 34.184 257.794 34.5869C257.602 34.9859 257.338 35.3005 257.005 35.5307C256.671 35.7609 256.257 35.876 255.762 35.876C255.264 35.876 254.845 35.757 254.508 35.5192C254.17 35.2813 253.902 34.959 253.705 34.5524C253.509 34.1457 253.366 33.6833 253.277 33.1654C253.189 32.6437 253.145 32.1008 253.145 31.5368C253.145 30.5777 253.245 29.7796 253.446 29.1428C253.647 28.5059 253.941 28.0282 254.327 27.7098C254.717 27.3875 255.195 27.2264 255.762 27.2264C256.389 27.2264 256.892 27.4144 257.27 27.7903C257.648 28.1664 257.921 28.6804 258.09 29.3327C258.263 29.9849 258.35 30.7215 258.35 31.5425ZM253.754 31.5425C253.754 32.3559 253.83 33.0465 253.983 33.6143C254.136 34.1821 254.363 34.6157 254.665 34.9149C254.966 35.2103 255.33 35.3581 255.756 35.3581C256.198 35.3581 256.566 35.2141 256.86 34.9264C257.154 34.6387 257.372 34.2109 257.517 33.6431C257.662 33.0752 257.734 32.3751 257.734 31.5425C257.734 30.3072 257.569 29.3672 257.24 28.7227C256.914 28.0742 256.421 27.7501 255.762 27.7501C255.312 27.7501 254.938 27.8978 254.641 28.1932C254.343 28.4848 254.12 28.9126 253.971 29.4765C253.826 30.0405 253.754 30.7292 253.754 31.5425ZM267.269 27.3472L265.382 35.7609H264.646L263.367 29.6204C263.347 29.5245 263.329 29.4305 263.313 29.3384C263.297 29.2425 263.28 29.1428 263.265 29.0392C263.249 28.9317 263.23 28.8147 263.211 28.6881C263.191 28.5577 263.17 28.4157 263.15 28.2623C263.134 28.3927 263.118 28.5155 263.102 28.6306C263.09 28.7419 263.074 28.8512 263.053 28.9586C263.038 29.0622 263.02 29.1677 262.999 29.2751C262.979 29.3826 262.959 29.4938 262.939 29.6089L261.667 35.7609H260.912L259.055 27.3472H259.658L260.991 33.4301C261.031 33.6258 261.068 33.8081 261.1 33.9769C261.135 34.1418 261.166 34.2972 261.19 34.443C261.214 34.585 261.236 34.7116 261.256 34.8228C261.277 34.9341 261.291 35.0319 261.299 35.1163C261.323 34.9706 261.349 34.819 261.377 34.6617C261.405 34.5006 261.433 34.3452 261.461 34.1956C261.49 34.0421 261.516 33.902 261.54 33.7755C261.564 33.645 261.586 33.5337 261.606 33.4417L262.873 27.3472H263.434L264.7 33.4359C264.728 33.5817 264.754 33.7217 264.778 33.856C264.802 33.9864 264.824 34.1188 264.845 34.2531C264.869 34.3835 264.893 34.5216 264.917 34.6675C264.941 34.8132 264.966 34.9725 264.99 35.1451C265.025 34.9302 265.06 34.7269 265.092 34.5351C265.128 34.3394 265.165 34.1495 265.2 33.9653C265.241 33.7812 265.279 33.6028 265.315 33.4301L266.66 27.3472H267.269ZM272.932 35.7609H272.227L268.843 28.3026H268.813C268.821 28.4445 268.827 28.5922 268.831 28.7457C268.835 28.8991 268.839 29.0622 268.843 29.2348C268.848 29.4075 268.85 29.5916 268.85 29.7873V35.7609H268.277V27.3472H268.982L272.366 34.7365H272.396C272.392 34.537 272.385 34.3413 272.377 34.1495C272.373 33.9577 272.37 33.7774 272.366 33.6086C272.361 33.4398 272.359 33.292 272.359 33.1654V27.3472H272.932V35.7609ZM278.083 35.7609H274.802V27.3472H278.083V27.8652H275.393V31.0879H277.926V31.6116H275.393V35.2372H278.083V35.7609ZM280.887 27.3472C281.43 27.3472 281.886 27.422 282.256 27.5717C282.63 27.7213 282.909 27.963 283.094 28.2968C283.283 28.6306 283.378 29.0737 283.378 29.6262C283.378 30.0367 283.321 30.3973 283.209 30.7081C283.1 31.015 282.936 31.2701 282.715 31.4735C282.497 31.673 282.218 31.8245 281.876 31.9281L283.703 35.7609H283.04L281.327 32.072H280.194V35.7609H279.603V27.3472H280.887ZM280.869 27.8652H280.194V31.5656H281.098C281.613 31.5656 282.021 31.414 282.322 31.1109C282.628 30.804 282.78 30.311 282.78 29.6319C282.78 29.0066 282.632 28.5558 282.334 28.2795C282.041 28.0033 281.552 27.8652 280.869 27.8652ZM288.329 33.5337C288.329 34.021 288.24 34.4391 288.064 34.7883C287.887 35.1375 287.634 35.406 287.304 35.594C286.974 35.782 286.578 35.876 286.116 35.876C285.931 35.876 285.738 35.8645 285.537 35.8414C285.34 35.8184 285.145 35.7839 284.952 35.7378C284.763 35.688 284.586 35.6266 284.421 35.5537V34.9552C284.663 35.0741 284.936 35.1681 285.241 35.2372C285.547 35.3063 285.833 35.3408 286.097 35.3408C286.464 35.3408 286.765 35.2659 287.003 35.1163C287.243 34.9667 287.425 34.7576 287.545 34.489C287.666 34.2205 287.726 33.9136 287.726 33.5683C287.726 33.2306 287.672 32.9563 287.563 32.7453C287.459 32.5343 287.296 32.3501 287.075 32.1929C286.854 32.0317 286.566 31.8629 286.212 31.6864C285.971 31.556 285.744 31.4255 285.531 31.2951C285.322 31.1647 285.137 31.015 284.976 30.8462C284.819 30.6774 284.696 30.4741 284.608 30.2362C284.523 29.9983 284.482 29.7125 284.482 29.3787C284.477 28.9222 284.568 28.5347 284.753 28.2162C284.938 27.894 285.195 27.6484 285.525 27.4796C285.855 27.3108 286.233 27.2264 286.659 27.2264C286.956 27.2264 287.245 27.2628 287.527 27.3357C287.809 27.4048 288.044 27.4892 288.233 27.5889L288.022 28.0954C287.781 27.9726 287.539 27.8863 287.298 27.8364C287.061 27.7865 286.85 27.7616 286.665 27.7616C286.327 27.7616 286.039 27.8287 285.802 27.963C285.569 28.0934 285.39 28.2776 285.265 28.5155C285.145 28.7534 285.085 29.0353 285.085 29.3615C285.085 29.7067 285.145 29.9888 285.265 30.2074C285.386 30.4261 285.557 30.6141 285.778 30.7714C286.003 30.9287 286.268 31.0841 286.574 31.2375C286.952 31.4332 287.272 31.6269 287.533 31.8188C287.794 32.0106 287.991 32.2408 288.124 32.5094C288.261 32.7741 288.329 33.1156 288.329 33.5337ZM294.131 35.7609H293.534V31.6116H290.374V35.7609H289.783V27.3472H290.374V31.0822H293.534V27.3472H294.131V35.7609ZM296.007 35.7609V27.3472H296.591V35.7609H296.007ZM299.8 27.3472C300.624 27.3472 301.235 27.5295 301.633 27.894C302.031 28.2584 302.23 28.8646 302.23 29.7125C302.23 30.1576 302.18 30.5412 302.079 30.8635C301.983 31.1857 301.834 31.4524 301.633 31.6634C301.436 31.8706 301.183 32.026 300.874 32.1295C300.568 32.2293 300.208 32.2792 299.794 32.2792H299.058V35.7609H298.467V27.3472H299.8ZM299.782 27.8594H299.058V31.767H299.806C300.224 31.767 300.566 31.6979 300.831 31.5598C301.101 31.4179 301.3 31.1973 301.428 30.898C301.561 30.5949 301.627 30.1997 301.627 29.7125C301.627 29.0372 301.477 28.5596 301.175 28.2795C300.874 27.9995 300.409 27.8594 299.782 27.8594ZM308.497 27.7443C308.082 27.7443 307.729 27.8499 307.435 28.0608C307.145 28.268 306.91 28.5519 306.73 28.9126C306.549 29.2732 306.416 29.6818 306.332 30.1384C306.247 30.5949 306.205 31.0668 306.205 31.5541C306.205 32.3175 306.299 32.9851 306.488 33.5568C306.681 34.1284 306.953 34.5715 307.303 34.8862C307.656 35.2007 308.073 35.3581 308.551 35.3581C308.816 35.3581 309.057 35.3254 309.275 35.2602C309.492 35.1912 309.677 35.1163 309.829 35.0358V35.5652C309.656 35.6612 309.455 35.7359 309.226 35.7896C309.001 35.8472 308.76 35.876 308.503 35.876C307.915 35.876 307.403 35.7014 306.965 35.3523C306.527 35.0032 306.187 34.5044 305.945 33.856C305.708 33.2076 305.59 32.4365 305.59 31.5425C305.59 30.9671 305.644 30.4204 305.753 29.9024C305.865 29.3845 306.038 28.9241 306.271 28.5213C306.505 28.1184 306.804 27.8019 307.17 27.5717C307.536 27.3376 307.974 27.2206 308.484 27.2206C308.742 27.2206 308.989 27.2532 309.226 27.3184C309.463 27.3799 309.695 27.47 309.92 27.5889L309.679 28.0723C309.485 27.9572 309.286 27.8748 309.082 27.8249C308.881 27.7712 308.685 27.7443 308.497 27.7443ZM314.6 35.7609L313.84 32.705H311.602L310.83 35.7609H310.215L312.326 27.3472H313.086L315.215 35.7609H314.6ZM313.719 32.1756L312.936 28.8896C312.903 28.7553 312.873 28.6286 312.845 28.5097C312.821 28.3908 312.797 28.2757 312.772 28.1644C312.752 28.0532 312.73 27.94 312.706 27.8249C312.686 27.94 312.664 28.0532 312.64 28.1644C312.62 28.2719 312.598 28.3851 312.573 28.504C312.549 28.6229 312.519 28.7495 312.483 28.8838L311.711 32.1756H313.719ZM317.446 27.3472C317.989 27.3472 318.446 27.422 318.815 27.5717C319.189 27.7213 319.469 27.963 319.654 28.2968C319.843 28.6306 319.937 29.0737 319.937 29.6262C319.937 30.0367 319.881 30.3973 319.769 30.7081C319.66 31.015 319.495 31.2701 319.274 31.4735C319.057 31.673 318.777 31.8245 318.435 31.9281L320.263 35.7609H319.6L317.887 32.072H316.753V35.7609H316.162V27.3472H317.446ZM317.429 27.8652H316.753V31.5656H317.658C318.172 31.5656 318.58 31.414 318.882 31.1109C319.187 30.804 319.34 30.311 319.34 29.6319C319.34 29.0066 319.191 28.5558 318.894 28.2795C318.601 28.0033 318.112 27.8652 317.429 27.8652ZM325.871 31.462C325.871 32.4058 325.765 33.198 325.552 33.8388C325.343 34.4756 325.021 34.9552 324.587 35.2775C324.157 35.5997 323.61 35.7609 322.947 35.7609H321.421V27.3472H322.983C323.638 27.3472 324.177 27.5026 324.599 27.8134C325.025 28.1203 325.343 28.5788 325.552 29.1888C325.765 29.7988 325.871 30.5566 325.871 31.462ZM325.25 31.4965C325.25 30.7177 325.174 30.0578 325.021 29.5169C324.868 28.972 324.623 28.5615 324.286 28.2853C323.948 28.0052 323.503 27.8652 322.952 27.8652H322.012V35.2429H322.917C323.737 35.2429 324.33 34.9264 324.695 34.2934C325.065 33.6603 325.25 32.7281 325.25 31.4965Z" fill="black"/>
</svg>
