<svg width="24" height="24" viewBox="0 0 24 24" fill="none" xmlns="http://www.w3.org/2000/svg">
<path d="M20.0002 2.66671H21.34C22.8092 2.66671 24.0001 3.85935 24.0001 5.32537V21.3412C24.0001 22.8097 22.81 24 21.34 24H2.66016C1.19096 24 0 22.8074 0 21.3412V5.32537C0 3.85699 1.19015 2.66671 2.66016 2.66671H3.99996V0.653918C3.99996 0.29281 4.30934 0 4.66678 0C5.03492 0 5.33343 0.286776 5.33343 0.653918V2.66671H18.6668V0.653918C18.6668 0.29281 18.976 0 19.3334 0C19.7017 0 20.0002 0.286776 20.0002 0.653918L20.0002 2.66671ZM20.0002 3.99996V4.67934C20.0002 5.04061 19.6908 5.33343 19.3333 5.33343C18.9652 5.33343 18.6667 5.04665 18.6667 4.67934V3.99996H5.33334V4.67934C5.33334 5.04061 5.02414 5.33343 4.6667 5.33343C4.29839 5.33343 3.99988 5.04665 3.99988 4.67934V3.99996H2.66007C1.92665 3.99996 1.33316 4.59328 1.33316 5.32537V21.3412C1.33316 22.0718 1.92815 22.6667 2.66007 22.6667H21.3399C22.0733 22.6667 22.6668 22.0734 22.6668 21.3412V5.32537C22.6668 4.59495 22.0718 3.99996 21.3399 3.99996H20.0002ZM1.33321 6.66668H22.6667V8.0001H1.33321V6.66668ZM17.3336 11.3398C17.3336 10.9682 17.6188 10.667 18.0064 10.667H19.3273C19.6989 10.667 20.0002 10.9523 20.0002 11.3398V12.6607C20.0002 13.0324 19.7148 13.3335 19.3273 13.3335H18.0064C17.6347 13.3335 17.3336 13.0483 17.3336 12.6607V11.3398ZM10.6671 11.3398C10.6671 10.9682 10.9524 10.667 11.3399 10.667H12.6608C13.0324 10.667 13.3336 10.9523 13.3336 11.3398V12.6607C13.3336 13.0324 13.0483 13.3335 12.6608 13.3335H11.3399C10.9683 13.3335 10.6671 13.0483 10.6671 12.6607V11.3398ZM4.00022 11.3398C4.00022 10.9682 4.28566 10.667 4.67321 10.667H5.99407C6.36573 10.667 6.66689 10.9523 6.66689 11.3398V12.6607C6.66689 13.0324 6.38163 13.3335 5.99407 13.3335H4.67321C4.30156 13.3335 4.00022 13.0483 4.00022 12.6607V11.3398ZM4.00022 18.0063C4.00022 17.6347 4.28566 17.3335 4.67321 17.3335H5.99407C6.36573 17.3335 6.66689 17.6188 6.66689 18.0063V19.3272C6.66689 19.6988 6.38163 20.0002 5.99407 20.0002H4.67321C4.30156 20.0002 4.00022 19.7147 4.00022 19.3272V18.0063ZM10.6671 18.0063C10.6671 17.6347 10.9524 17.3335 11.3399 17.3335H12.6608C13.0324 17.3335 13.3336 17.6188 13.3336 18.0063V19.3272C13.3336 19.6988 13.0483 20.0002 12.6608 20.0002H11.3399C10.9683 20.0002 10.6671 19.7147 10.6671 19.3272V18.0063ZM17.3336 18.0063C17.3336 17.6347 17.6188 17.3335 18.0064 17.3335H19.3273C19.6989 17.3335 20.0002 17.6188 20.0002 18.0063V19.3272C20.0002 19.6988 19.7148 20.0002 19.3273 20.0002H18.0064C17.6347 20.0002 17.3336 19.7147 17.3336 19.3272V18.0063Z" fill="black"/>
</svg>
