<svg width="315" height="24" viewBox="0 0 315 24" fill="none" xmlns="http://www.w3.org/2000/svg">
<path d="M14.4461 1.35474L14.4464 1.35493L21.3514 6.19141C21.3514 6.19143 21.3515 6.19145 21.3515 6.19147C21.9301 6.59694 22.4723 7.25705 22.8703 8.02036C23.2684 8.78368 23.5 9.60752 23.5 10.3185V18.4554C23.5 21.2401 21.2418 23.5 18.4615 23.5H5.53846C2.75959 23.5 0.5 21.2295 0.5 18.4434V10.1624C0.5 9.5018 0.709711 8.71956 1.07205 7.98283C1.43426 7.24636 1.92771 6.59866 2.45358 6.18803L2.45369 6.18794L8.45831 1.49649C8.45855 1.49629 8.4588 1.4961 8.45905 1.49591C10.096 0.226726 12.7439 0.160743 14.4461 1.35474ZM12 20.5996C12.7682 20.5996 13.3991 19.9671 13.3991 19.1995V15.5991C13.3991 14.8314 12.7682 14.1989 12 14.1989C11.2318 14.1989 10.6009 14.8314 10.6009 15.5991V19.1995C10.6009 19.9671 11.2318 20.5996 12 20.5996Z" stroke="black"/>
<mask id="mask0_204_9782" style="mask-type:alpha" maskUnits="userSpaceOnUse" x="98" y="0" width="25" height="24">
<rect x="98.1719" width="24" height="24" fill="#D9D9D9"/>
</mask>
<g mask="url(#mask0_204_9782)">
<path d="M109.225 18H111.119V12.9474H116.172V11.0526H111.119V6H109.225V11.0526H104.172V12.9474H109.225V18ZM110.172 24C108.509 24 106.946 23.6842 105.483 23.0526C104.019 22.4211 102.751 21.5684 101.677 20.4947C100.603 19.4211 99.7508 18.1524 99.1192 16.6888C98.4877 15.2261 98.1719 13.6632 98.1719 12C98.1719 10.3368 98.4877 8.77347 99.1192 7.30989C99.7508 5.84716 100.603 4.57895 101.677 3.50526C102.751 2.43158 104.019 1.57895 105.483 0.947368C106.946 0.315789 108.509 0 110.172 0C111.835 0 113.398 0.315789 114.862 0.947368C116.325 1.57895 117.593 2.43158 118.667 3.50526C119.74 4.57895 120.593 5.84716 121.225 7.30989C121.856 8.77347 122.172 10.3368 122.172 12C122.172 13.6632 121.856 15.2261 121.225 16.6888C120.593 18.1524 119.74 19.4211 118.667 20.4947C117.593 21.5684 116.325 22.4211 114.862 23.0526C113.398 23.6842 111.835 24 110.172 24ZM110.172 22.1053C112.993 22.1053 115.382 21.1263 117.34 19.1684C119.298 17.2105 120.277 14.8211 120.277 12C120.277 9.17895 119.298 6.78947 117.34 4.83158C115.382 2.87368 112.993 1.89474 110.172 1.89474C107.351 1.89474 104.961 2.87368 103.003 4.83158C101.046 6.78947 100.067 9.17895 100.067 12C100.067 14.8211 101.046 17.2105 103.003 19.1684C104.961 21.1263 107.351 22.1053 110.172 22.1053Z" fill="#1C1B1F"/>
</g>
<path d="M216.831 23.1217C216.831 23.6068 216.438 24 215.954 24C215.468 24 215.075 23.6068 215.075 23.1217C215.075 18.9781 212.016 16.9757 206.588 16.9757C201.159 16.9757 198.1 18.9781 198.1 23.1217C198.1 23.6068 197.707 24 197.222 24C196.737 24 196.344 23.6068 196.344 23.1217C196.344 17.8136 200.306 15.2195 206.588 15.2195C212.869 15.2195 216.831 17.8135 216.831 23.1217H216.831ZM206.588 14.0489C203.349 14.0489 201.027 10.4626 201.027 6.73188C201.027 3.12197 203.317 0 206.588 0C209.858 0 212.148 3.12197 212.148 6.73188C212.148 10.4626 209.826 14.0489 206.588 14.0489ZM206.588 12.2927C208.656 12.2927 210.392 9.61134 210.392 6.73188C210.392 3.99489 208.75 1.75609 206.588 1.75609C204.426 1.75609 202.783 3.99489 202.783 6.73188C202.783 9.61134 204.519 12.2927 206.588 12.2927Z" fill="black"/>
<path d="M300.064 24L299.553 20.1474C299.213 20.0421 298.867 19.8842 298.517 19.6737C298.165 19.4632 297.84 19.2421 297.543 19.0105L293.936 20.5263L291 15.4737L294.128 13.1368C294.085 12.9474 294.059 12.7579 294.049 12.5684C294.037 12.3789 294.032 12.1895 294.032 12C294.032 11.8316 294.037 11.6526 294.049 11.4632C294.059 11.2737 294.085 11.0737 294.128 10.8632L291 8.52632L293.936 3.50526L297.543 4.98947C297.84 4.75789 298.165 4.54232 298.517 4.34274C298.867 4.14232 299.213 3.97895 299.553 3.85263L300.064 0H305.936L306.447 3.85263C306.83 4 307.175 4.16295 307.483 4.34147C307.792 4.52084 308.106 4.73684 308.426 4.98947L312.064 3.50526L315 8.52632L311.84 10.8947C311.883 11.1053 311.904 11.2947 311.904 11.4632V12C311.904 12.1684 311.899 12.3419 311.888 12.5204C311.877 12.6998 311.851 12.9053 311.809 13.1368L314.936 15.4737L312 20.5263L308.426 19.0105C308.106 19.2632 307.782 19.4842 307.453 19.6737C307.123 19.8632 306.787 20.0211 306.447 20.1474L305.936 24H300.064ZM303 15.7895C304.064 15.7895 304.968 15.4211 305.713 14.6842C306.457 13.9474 306.83 13.0526 306.83 12C306.83 10.9474 306.457 10.0526 305.713 9.31579C304.968 8.57895 304.064 8.21053 303 8.21053C301.936 8.21053 301.032 8.57895 300.287 9.31579C299.543 10.0526 299.17 10.9474 299.17 12C299.17 13.0526 299.543 13.9474 300.287 14.6842C301.032 15.4211 301.936 15.7895 303 15.7895Z" fill="#1C1B1F"/>
</svg>
