<svg width="23" height="28" viewBox="0 0 23 28" fill="none" xmlns="http://www.w3.org/2000/svg">
<path d="M18.0695 28C20.6398 28 22.7426 25.8972 22.7426 23.3268V7.7885C22.7426 7.71054 22.7038 7.67169 22.6647 7.59373C22.6647 7.59373 22.6647 7.55488 22.6258 7.55488C22.587 7.47692 22.5479 7.43807 22.509 7.39923L14.954 0.233619C14.9151 0.194773 14.876 0.155656 14.7983 0.116809C14.7983 0.116809 14.7595 0.116809 14.7595 0.0779636C14.6815 0.0391182 14.6426 0.0391181 14.5647 0H4.67315C2.10281 0 0 2.10281 0 4.67315V23.2882C0 25.8585 2.10281 27.9613 4.67315 27.9613H18.0697L18.0695 28ZM15.1876 2.60882L20.0166 7.12634L15.1876 7.12607V2.60882ZM1.55735 23.3268V4.71178C1.55735 2.99819 2.95932 1.59622 4.6729 1.59622H13.6299V7.94409C13.6299 8.37248 13.9803 8.72289 14.4087 8.72289H21.185V23.3267C21.185 25.0403 19.783 26.4423 18.0694 26.4423H4.67283C2.95925 26.4423 1.55735 25.0404 1.55735 23.3268Z" fill="black"/>
<path d="M4.72322 9.81644C4.56686 9.81644 4.27239 9.90442 4.12949 10.1176C3.98657 10.3309 4.0004 10.487 4.0004 10.6169V13.207C4.0004 13.2671 3.99944 13.3293 4.01769 13.4221C4.03575 13.5151 4.09222 13.6853 4.24128 13.8009C4.39054 13.9164 4.53671 13.9263 4.60279 13.93C4.66887 13.9336 4.6925 13.93 4.71459 13.93H7.34793C7.37002 13.93 7.39384 13.9336 7.45992 13.93C7.5258 13.9263 7.67198 13.9164 7.82124 13.8009C7.97049 13.6853 8.02696 13.5151 8.04502 13.4221C8.06308 13.3293 8.06231 13.2671 8.06231 13.207V10.5308C8.06231 10.4707 8.06308 10.4171 8.04502 10.3241C8.02696 10.2313 7.97049 10.0611 7.82124 9.94551C7.67198 9.82987 7.5258 9.82008 7.45992 9.81643C7.39384 9.81278 7.37002 9.81643 7.34793 9.81643L4.72322 9.81644ZM5.10182 10.9181H6.96067V12.8284H5.10182V10.9181ZM10.3168 11.3224C10.1708 11.3293 10.0333 11.3939 9.93491 11.502C9.83637 11.6101 9.78489 11.7529 9.7918 11.899C9.79853 12.045 9.86326 12.1826 9.9714 12.2809C10.0795 12.3795 10.2223 12.4307 10.3684 12.424H17.6487C17.7961 12.4259 17.9382 12.3689 18.0433 12.2654C18.1482 12.1618 18.2073 12.0206 18.2073 11.8731C18.2073 11.7258 18.1482 11.5844 18.0433 11.4811C17.9382 11.3775 17.7961 11.3203 17.6487 11.3224H10.3684C10.3512 11.3216 10.3341 11.3216 10.3168 11.3224ZM8.9572 14.5151C8.83388 14.5284 8.71863 14.5831 8.63008 14.6699L5.91933 17.2086L4.96427 16.3997C4.85247 16.304 4.70725 16.2566 4.5605 16.2683C4.41374 16.28 4.27794 16.3497 4.18285 16.4621C4.08777 16.5743 4.04129 16.7199 4.05396 16.8665C4.06645 17.0132 4.13714 17.1486 4.24989 17.2431L5.5751 18.3703C5.79024 18.5484 6.10471 18.5374 6.30657 18.3446L9.37885 15.4704C9.55345 15.3108 9.60685 15.0576 9.51119 14.8413C9.41573 14.6248 9.19272 14.4936 8.9572 14.5151ZM10.3168 16.3566C10.1708 16.3636 10.0333 16.4281 9.93491 16.5362C9.83637 16.6444 9.78489 16.7871 9.7918 16.9333C9.79853 17.0793 9.86326 17.2168 9.9714 17.3152C10.0795 17.4137 10.2223 17.465 10.3684 17.4583H17.6487C17.7961 17.4602 17.9382 17.4031 18.0433 17.2996C18.1482 17.1961 18.2073 17.0549 18.2073 16.9073C18.2073 16.76 18.1482 16.6186 18.0433 16.5153C17.9382 16.4118 17.7961 16.3545 17.6487 16.3566H10.3684C10.3512 16.3559 10.3341 16.3559 10.3168 16.3566ZM4.72318 19.8849C4.56682 19.8849 4.27235 19.9729 4.12945 20.1861C3.98654 20.3995 4.00036 20.5555 4.00036 20.6853V23.2754C4.00036 23.3356 3.9994 23.3978 4.01765 23.4906C4.03571 23.5836 4.09218 23.7537 4.24124 23.8694C4.3903 23.9848 4.52803 23.9948 4.59411 23.9985C4.66019 24.0019 4.69246 23.9985 4.71455 23.9985H7.34789C7.36998 23.9985 7.3938 24.0019 7.45988 23.9985C7.52576 23.9948 7.67194 23.9848 7.8212 23.8694C7.97045 23.7537 8.02692 23.5836 8.04498 23.4906C8.06304 23.3978 8.06227 23.3356 8.06227 23.2754V20.5993C8.06227 20.5391 8.06304 20.4855 8.04498 20.3926C8.02692 20.2998 7.97064 20.1296 7.8212 20.014C7.67175 19.8983 7.52577 19.8885 7.45988 19.8849C7.39399 19.8814 7.36998 19.8849 7.34789 19.8849L4.72318 19.8849ZM5.10178 20.9865H6.96063V22.8968H5.10178V20.9865ZM10.3167 21.3909C10.1708 21.3978 10.0332 21.4623 9.93487 21.5705C9.83633 21.6786 9.78485 21.8213 9.79176 21.9675C9.79849 22.1135 9.86322 22.251 9.97136 22.3494C10.0795 22.4479 10.2222 22.4992 10.3684 22.4925H17.6487C17.796 22.4944 17.9382 22.4374 18.0432 22.3338C18.1481 22.2303 18.2073 22.0891 18.2073 21.9416C18.2073 21.7942 18.1481 21.6529 18.0432 21.5495C17.9382 21.446 17.796 21.3887 17.6487 21.3909H10.3684C10.3511 21.3901 10.334 21.3901 10.3167 21.3909Z" fill="black"/>
</svg>
