<svg width="315" height="24" viewBox="0 0 315 24" fill="none" xmlns="http://www.w3.org/2000/svg">
<path d="M14.4461 1.35474L14.4464 1.35493L21.3514 6.19141C21.3514 6.19143 21.3515 6.19145 21.3515 6.19147C21.9301 6.59694 22.4723 7.25705 22.8703 8.02036C23.2684 8.78368 23.5 9.60752 23.5 10.3185V18.4554C23.5 21.2401 21.2418 23.5 18.4615 23.5H5.53846C2.75959 23.5 0.5 21.2295 0.5 18.4434V10.1624C0.5 9.5018 0.709711 8.71956 1.07205 7.98283C1.43426 7.24636 1.92771 6.59866 2.45358 6.18803L2.45369 6.18794L8.45831 1.49649C8.45855 1.49629 8.4588 1.4961 8.45905 1.49591C10.096 0.226726 12.7439 0.160743 14.4461 1.35474ZM12 20.5996C12.7682 20.5996 13.3991 19.9671 13.3991 19.1995V15.5991C13.3991 14.8314 12.7682 14.1989 12 14.1989C11.2318 14.1989 10.6009 14.8314 10.6009 15.5991V19.1995C10.6009 19.9671 11.2318 20.5996 12 20.5996Z" stroke="black"/>
<mask id="mask0_204_9594" style="mask-type:alpha" maskUnits="userSpaceOnUse" x="98" y="0" width="25" height="24">
<rect x="98.1719" width="24" height="24" fill="#D9D9D9"/>
</mask>
<g mask="url(#mask0_204_9594)">
<path d="M109.225 18H111.119V12.9474H116.172V11.0526H111.119V6H109.225V11.0526H104.172V12.9474H109.225V18ZM110.172 24C108.509 24 106.946 23.6842 105.483 23.0526C104.019 22.4211 102.751 21.5684 101.677 20.4947C100.603 19.4211 99.7508 18.1524 99.1192 16.6888C98.4877 15.2261 98.1719 13.6632 98.1719 12C98.1719 10.3368 98.4877 8.77347 99.1192 7.30989C99.7508 5.84716 100.603 4.57895 101.677 3.50526C102.751 2.43158 104.019 1.57895 105.483 0.947368C106.946 0.315789 108.509 0 110.172 0C111.835 0 113.398 0.315789 114.862 0.947368C116.325 1.57895 117.593 2.43158 118.667 3.50526C119.74 4.57895 120.593 5.84716 121.225 7.30989C121.856 8.77347 122.172 10.3368 122.172 12C122.172 13.6632 121.856 15.2261 121.225 16.6888C120.593 18.1524 119.74 19.4211 118.667 20.4947C117.593 21.5684 116.325 22.4211 114.862 23.0526C113.398 23.6842 111.835 24 110.172 24ZM110.172 22.1053C112.993 22.1053 115.382 21.1263 117.34 19.1684C119.298 17.2105 120.277 14.8211 120.277 12C120.277 9.17895 119.298 6.78947 117.34 4.83158C115.382 2.87368 112.993 1.89474 110.172 1.89474C107.351 1.89474 104.961 2.87368 103.003 4.83158C101.046 6.78947 100.067 9.17895 100.067 12C100.067 14.8211 101.046 17.2105 103.003 19.1684C104.961 21.1263 107.351 22.1053 110.172 22.1053Z" fill="#1C1B1F"/>
</g>
<path d="M216.831 23.1217C216.831 23.6068 216.438 24 215.954 24C215.468 24 215.954 24 214.844 24C208.844 24 211.272 24 205.844 24C200.415 24 200.844 24 198.344 24C197.844 24 197.707 24 197.222 24C196.737 24 196.344 23.6068 196.344 23.1217C196.344 17.8136 200.306 15.2195 206.588 15.2195C212.869 15.2195 216.831 17.8135 216.831 23.1217ZM206.588 14.0489C203.349 14.0489 201.027 10.4626 201.027 6.73188C201.027 3.12197 203.317 0 206.588 0C209.858 0 212.148 3.12197 212.148 6.73188C212.148 10.4626 209.826 14.0489 206.588 14.0489ZM206.588 6.73188C206.571 6.73182 206.588 9.61134 206.588 6.73188V6.73188Z" fill="black"/>
<mask id="mask1_204_9594" style="mask-type:alpha" maskUnits="userSpaceOnUse" x="291" y="0" width="24" height="24">
<rect x="291" width="24" height="24" fill="#D9D9D9"/>
</mask>
<g mask="url(#mask1_204_9594)">
<path d="M300.429 24L299.949 20.1333C299.514 20.0222 299.04 19.828 298.526 19.5507C298.012 19.2724 297.583 18.9778 297.24 18.6667L293.571 20.1667L291 15.8333L294.189 13.5C294.143 13.2778 294.103 13.0387 294.069 12.7827C294.035 12.5276 294.017 12.2778 294.017 12.0333C294.017 11.8111 294.035 11.572 294.069 11.316C294.103 11.0609 294.143 10.7889 294.189 10.5L291 8.16667L293.571 3.9L297.206 5.36667C297.617 5.03333 298.057 4.73333 298.526 4.46667C298.995 4.2 299.457 4 299.914 3.86667L300.429 0H305.571L306.051 3.86667C306.577 4.06667 307.04 4.27778 307.441 4.5C307.84 4.72222 308.257 5.01111 308.691 5.36667L312.429 3.9L315 8.16667L311.709 10.5667C311.8 10.8333 311.846 11.0836 311.846 11.3173V12C311.846 12.2 311.84 12.4169 311.829 12.6507C311.817 12.8836 311.777 13.1667 311.709 13.5L314.931 15.8333L312.36 20.1667L308.691 18.6333C308.257 18.9889 307.829 19.2889 307.406 19.5333C306.983 19.7778 306.531 19.9778 306.051 20.1333L305.571 24H300.429ZM302.966 15.3333C303.926 15.3333 304.737 15.0111 305.4 14.3667C306.063 13.7222 306.394 12.9333 306.394 12C306.394 11.0667 306.063 10.2778 305.4 9.63333C304.737 8.98889 303.926 8.66667 302.966 8.66667C302.006 8.66667 301.194 8.98889 300.531 9.63333C299.869 10.2778 299.537 11.0667 299.537 12C299.537 12.9333 299.869 13.7222 300.531 14.3667C301.194 15.0111 302.006 15.3333 302.966 15.3333ZM302.966 14C302.394 14 301.909 13.8053 301.509 13.416C301.109 13.0276 300.909 12.5556 300.909 12C300.909 11.4444 301.109 10.9724 301.509 10.584C301.909 10.1947 302.394 10 302.966 10C303.537 10 304.023 10.1947 304.424 10.584C304.823 10.9724 305.023 11.4444 305.023 12C305.023 12.5556 304.823 13.0276 304.424 13.416C304.023 13.8053 303.537 14 302.966 14ZM301.629 22.6667H304.303L304.817 19.0667C305.503 18.8889 306.126 18.6444 306.686 18.3333C307.246 18.0222 307.811 17.5889 308.383 17.0333L311.777 18.4667L313.149 16.2L310.166 14C310.28 13.6222 310.355 13.272 310.389 12.9493C310.423 12.6276 310.44 12.3111 310.44 12C310.44 11.6667 310.423 11.3498 310.389 11.0493C310.355 10.7498 310.28 10.4111 310.166 10.0333L313.217 7.8L311.846 5.53333L308.349 6.96667C307.937 6.52222 307.395 6.10533 306.721 5.716C306.046 5.32756 305.4 5.06667 304.783 4.93333L304.371 1.33333H301.629L301.217 4.93333C300.531 5.06667 299.897 5.29422 299.314 5.616C298.731 5.93867 298.154 6.37778 297.583 6.93333L294.154 5.53333L292.783 7.8L295.766 9.96667C295.651 10.2556 295.571 10.5778 295.526 10.9333C295.48 11.2889 295.457 11.6556 295.457 12.0333C295.457 12.3667 295.48 12.7 295.526 13.0333C295.571 13.3667 295.64 13.6889 295.731 14L292.783 16.2L294.154 18.4667L297.549 17.0667C298.097 17.6 298.657 18.0222 299.229 18.3333C299.8 18.6444 300.451 18.8889 301.183 19.0667L301.629 22.6667Z" fill="#1C1B1F"/>
</g>
</svg>
