<svg width="61" height="62" viewBox="0 0 61 62" fill="none" xmlns="http://www.w3.org/2000/svg">
<g clip-path="url(#clip0_204_10308)">
<mask id="mask0_204_10308" style="mask-type:alpha" maskUnits="userSpaceOnUse" x="0" y="0" width="62" height="62">
<path d="M30.6931 61.9547C47.6315 61.9547 61.3629 48.086 61.3629 30.9776C61.3629 13.8691 47.6315 0 30.6931 0C13.7548 0 0.0234375 13.8691 0.0234375 30.9776C0.0234375 48.086 13.7548 61.9547 30.6931 61.9547Z" fill="#D9D9D9"/>
</mask>
<g mask="url(#mask0_204_10308)">
<path d="M30.6935 61.9683C47.6277 61.9683 61.3557 48.0961 61.3557 30.9841C61.3557 13.8721 47.6277 0 30.6935 0C13.7591 0 0.03125 13.8721 0.03125 30.9841C0.03125 48.0961 13.7591 61.9683 30.6935 61.9683Z" fill="#F6C600"/>
<path d="M66.3984 44.4149C30.5443 67.561 70.0853 59.5712 45.0161 59.3229C50.7592 58.6972 41.7162 53.2067 37.7977 52.2045C35.4295 50.2273 51.6871 42.5987 53.2528 44.5963C52.4298 49.68 72.5095 40.4701 66.3984 44.4149Z" fill="black"/>
<path d="M52.9134 41.0964C54.6185 44.8554 52.0333 49.7837 46.6991 52.2408C41.365 54.6978 35.3262 53.75 33.621 49.9912C31.9159 46.2319 34.7381 41.2144 40.0723 38.7573C45.4064 36.3003 51.2085 37.3373 52.9134 41.0964Z" fill="black"/>
<path d="M46.3449 32.3398L51.8316 39.7045L42.875 38.4487L46.3449 32.3398Z" fill="black"/>
<path d="M31.3906 38.877L38.1432 40.4592L33.3086 48.6871L31.3906 38.877Z" fill="black"/>
<path d="M47.6419 44.8476C48.9867 44.4017 49.7496 43.0572 49.3454 41.8447C48.9412 40.6322 47.5236 40.011 46.1788 40.4569C44.834 40.9031 44.0714 42.2476 44.4753 43.4601C44.8796 44.6724 46.2971 45.2938 47.6419 44.8476Z" fill="white"/>
<path d="M47.7567 42.2724C48.1772 43.0784 47.9369 44.0228 47.2198 44.3821C46.503 44.7408 45.5807 44.3787 45.1602 43.5727C44.7397 42.7664 44.98 41.822 45.6968 41.463C46.4139 41.1037 47.3359 41.4661 47.7567 42.2724Z" fill="black"/>
<path d="M38.0459 43.9999C36.7011 44.4458 35.9433 45.8053 36.3537 47.0362C36.7638 48.2672 38.1865 48.9033 39.5312 48.4574C40.876 48.0113 41.6336 46.6518 41.2234 45.4208C40.8133 44.1902 39.3907 43.5538 38.0459 43.9999Z" fill="white"/>
<path d="M40.3723 45.6656C40.7433 46.4954 40.4476 47.4263 39.7117 47.7447C38.9758 48.0635 38.0782 47.6491 37.7072 46.8193C37.3359 45.9895 37.6316 45.0589 38.3675 44.7402C39.1037 44.4217 40.0012 44.8358 40.3723 45.6656Z" fill="black"/>
<path d="M19.7915 60.9358C18.8135 62.7196 18.5851 59.7125 13.3541 58.7593C-0.700864 44.9106 -9.94798 56.1856 0.306235 36.0288C25.5658 -13.6241 10.0549 33.7996 14.9951 33.2597C19.9354 32.7204 14.5398 44.1394 19.7915 60.9358Z" fill="black"/>
<path d="M37.2711 29.1992C35.2815 45.6264 16.4059 28.9478 17.2757 44.2425C6.96597 51.1245 4.59771 35.4929 6.00102 27.5933C8.07836 19.3324 12.3788 13.4525 20.1346 17.0567C26.9328 16.314 26.2076 28.3705 37.2711 29.1992Z" fill="black"/>
<path d="M14.7965 7.02539L18.6825 20.792L9.22656 20.2211L14.7965 7.02539Z" fill="black"/>
<path d="M29.3005 13.2344L23.0892 26.4719L16.7656 20.6977L29.3005 13.2344Z" fill="black"/>
<path d="M30.4526 19.9973L24.4609 16.7977L29.326 13.2148L30.4526 19.9973Z" fill="black"/>
<path d="M24.5099 26.0095C25.7828 26.2466 26.9815 25.4801 27.1871 24.2974C27.3926 23.1148 26.5273 21.9638 25.2543 21.7266C23.9812 21.4895 22.7826 22.256 22.5771 23.4387C22.3715 24.6214 23.2369 25.7724 24.5099 26.0095Z" fill="white"/>
<path d="M16.1036 24.3025C17.3766 24.5396 18.5753 23.7731 18.7808 22.5904C18.9864 21.4077 18.121 20.2567 16.848 20.0196C15.575 19.7825 14.3764 20.549 14.1708 21.7317C13.9653 22.9143 14.8306 24.0654 16.1036 24.3025Z" fill="white"/>
<path d="M17.6476 21.5597C17.5322 22.2893 16.8814 22.7672 16.1939 22.6272C15.5065 22.4873 15.0428 21.7823 15.1582 21.0528C15.2736 20.3232 15.9245 19.8453 16.6119 19.9853C17.2993 20.1253 17.763 20.8302 17.6476 21.5597Z" fill="black"/>
<path d="M24.3111 24.3675C24.9986 24.5075 25.6494 24.0296 25.7648 23.3C25.8802 22.5705 25.4164 21.8655 24.729 21.7255C24.0416 21.5855 23.3908 22.0635 23.2754 22.793C23.16 23.5226 23.6237 24.2275 24.3111 24.3675Z" fill="black"/>
</g>
</g>
<defs>
<clipPath id="clip0_204_10308">
<rect width="61" height="62" fill="white"/>
</clipPath>
</defs>
</svg>
