<svg width="174" height="62" viewBox="0 0 174 62" fill="none" xmlns="http://www.w3.org/2000/svg">
<path d="M143.875 14.9313V45.5362H140.445L140.577 14.9313H143.875ZM156.18 14.7539C163.743 14.7539 167.525 19.8547 167.525 30.0563C167.525 34.5806 166.528 38.336 164.535 41.3225C163.567 42.8009 162.263 43.969 160.621 44.8265C159.009 45.6543 157.163 46.0685 155.081 46.0685C151.769 46.0685 149.35 45.7285 147.826 45.0482L147.958 15.2862C150.361 14.9313 153.102 14.7539 156.18 14.7539ZM154.642 43.1853C157.896 43.1853 160.27 41.9581 161.765 39.5038C163.26 37.0201 164.007 33.8264 164.007 29.9233C164.007 21.7324 161.047 17.637 155.125 17.637L151.256 17.8144V42.9637C152.077 43.1114 153.205 43.1853 154.642 43.1853Z" fill="black"/>
<path d="M98.7745 29.0576C98.7745 28.1999 98.5108 27.5494 97.9829 27.1058C97.4553 26.6623 96.7519 26.4405 95.8724 26.4405C94.1136 26.4405 92.7359 27.1798 91.7391 28.6581C90.7426 30.1073 90.1709 31.8665 90.0244 33.9366C95.8578 33.9366 98.7745 32.3102 98.7745 29.0576ZM94.9931 45.8681C89.4819 45.8681 86.7266 42.3196 86.7266 35.2227C86.7266 31.9702 87.5328 29.2792 89.1449 27.1503C90.7865 25.0212 93.0875 23.9566 96.0484 23.9566C97.8657 23.9566 99.3021 24.4002 100.358 25.2873C101.442 26.1448 101.984 27.3425 101.984 28.8801C101.984 30.3882 101.618 31.6301 100.885 32.6057C100.182 33.5521 99.2144 34.2766 97.9829 34.7794C95.6672 35.7255 92.9849 36.1986 89.9364 36.1986C89.9364 40.9001 91.7979 43.251 95.5207 43.251C97.3968 43.251 99.1702 42.7335 100.841 41.6985L101.325 43.4285C100.592 44.1677 99.6245 44.7591 98.4228 45.2028C97.2501 45.6461 96.1068 45.8681 94.9931 45.8681ZM115.115 43.118L115.555 45.0697C114.47 45.6019 113.165 45.8681 111.641 45.8681C109.472 45.8681 108.036 45.2766 107.332 44.0938C106.629 42.911 106.277 41.0332 106.277 38.4606V26.8397H102.759V24.9325L106.277 24.4889V19.876L109.443 19.3438V24.4889H115.115V26.8397H109.443V37.4848C109.443 40.2348 109.677 41.9054 110.146 42.4968C110.732 43.1771 111.524 43.5172 112.52 43.5172C113.517 43.5172 114.382 43.3841 115.115 43.118ZM122.388 43.4285C123.677 43.4285 124.762 43.1327 125.641 42.5413C126.521 41.9204 126.96 41.0482 126.96 39.9246C126.96 38.7417 126.403 37.81 125.29 37.13C124.732 36.8047 124.058 36.4794 123.267 36.1542C122.476 35.7994 121.992 35.5775 121.816 35.4889C120.35 34.8383 119.207 34.0697 118.386 33.1824C117.595 32.2954 117.199 31.0387 117.199 29.4123C117.199 27.7564 117.859 26.4405 119.178 25.4647C120.497 24.4594 122.05 23.9566 123.839 23.9566C125.627 23.9566 127.239 24.3115 128.675 25.0212L128.192 27.0172C126.726 26.6032 125.421 26.3962 124.278 26.3962C123.164 26.3962 122.197 26.6623 121.376 27.1946C120.555 27.6972 120.145 28.407 120.145 29.3237C120.145 30.2404 120.423 30.9648 120.98 31.4971C121.537 31.9996 122.109 32.384 122.695 32.6502C123.311 32.9163 123.956 33.1971 124.63 33.493C125.333 33.7591 125.788 33.9513 125.993 34.0697C126.198 34.188 126.579 34.4097 127.136 34.735C127.693 35.0305 128.074 35.3114 128.28 35.5775C128.514 35.8436 128.778 36.1986 129.071 36.6422C129.628 37.3814 129.906 38.4312 129.906 39.7912C129.906 41.7429 129.188 43.251 127.752 44.3155C126.315 45.3505 124.483 45.8681 122.256 45.8681C120.057 45.8681 118.108 45.1286 116.407 43.6502L116.891 41.876C118.562 42.911 120.394 43.4285 122.388 43.4285Z" fill="black"/>
<path d="M77.6592 14.5527C80.3268 14.5527 82.4812 15.2476 84.1228 16.6374C85.7644 17.9976 86.5852 19.9493 86.5852 22.4922C86.5852 28.2879 82.8477 31.2303 75.3728 31.3189L72.7344 31.3633V45.3351H69.3047L69.4368 15.085C71.2541 14.7302 73.9951 14.5527 77.6592 14.5527ZM77.0436 17.4358C74.8159 17.4358 73.3795 17.495 72.7344 17.6132V28.6132L75.4607 28.5688C80.532 28.4802 83.0676 26.5285 83.0676 22.714C83.0676 19.1952 81.0597 17.4358 77.0436 17.4358Z" fill="black"/>
<path d="M134.873 45.3357C136.529 45.3357 137.871 43.9816 137.871 42.3112C137.871 40.6412 136.529 39.2871 134.873 39.2871C133.218 39.2871 131.875 40.6412 131.875 42.3112C131.875 43.9816 133.218 45.3357 134.873 45.3357Z" fill="black"/>
<mask id="mask0_1291_3295" style="mask-type:alpha" maskUnits="userSpaceOnUse" x="0" y="0" width="62" height="62">
<path d="M30.6931 61.9547C47.6315 61.9547 61.3629 48.086 61.3629 30.9776C61.3629 13.8691 47.6315 0 30.6931 0C13.7548 0 0.0234375 13.8691 0.0234375 30.9776C0.0234375 48.086 13.7548 61.9547 30.6931 61.9547Z" fill="#D9D9D9"/>
</mask>
<g mask="url(#mask0_1291_3295)">
<path d="M30.6935 61.9683C47.6277 61.9683 61.3557 48.0961 61.3557 30.9841C61.3557 13.8721 47.6277 0 30.6935 0C13.7591 0 0.03125 13.8721 0.03125 30.9841C0.03125 48.0961 13.7591 61.9683 30.6935 61.9683Z" fill="#F6C600"/>
<path d="M66.3984 44.4149C30.5443 67.561 70.0853 59.5712 45.0161 59.3229C50.7592 58.6972 41.7162 53.2067 37.7977 52.2045C35.4295 50.2273 51.6871 42.5987 53.2528 44.5963C52.4298 49.68 72.5095 40.4701 66.3984 44.4149Z" fill="black"/>
<path d="M52.9134 41.0964C54.6185 44.8554 52.0333 49.7837 46.6991 52.2408C41.365 54.6978 35.3262 53.75 33.621 49.9912C31.9159 46.2319 34.7381 41.2144 40.0723 38.7573C45.4064 36.3003 51.2085 37.3373 52.9134 41.0964Z" fill="black"/>
<path d="M46.3449 32.3398L51.8316 39.7045L42.875 38.4487L46.3449 32.3398Z" fill="black"/>
<path d="M31.3906 38.877L38.1432 40.4592L33.3086 48.6871L31.3906 38.877Z" fill="black"/>
<path d="M47.6419 44.8476C48.9867 44.4017 49.7496 43.0572 49.3454 41.8447C48.9412 40.6322 47.5236 40.011 46.1788 40.4569C44.834 40.9031 44.0714 42.2476 44.4753 43.4601C44.8796 44.6724 46.2971 45.2938 47.6419 44.8476Z" fill="white"/>
<path d="M47.7567 42.2724C48.1772 43.0784 47.9369 44.0228 47.2198 44.3821C46.503 44.7408 45.5807 44.3787 45.1602 43.5727C44.7397 42.7664 44.98 41.822 45.6968 41.463C46.4139 41.1037 47.3359 41.4661 47.7567 42.2724Z" fill="black"/>
<path d="M38.0459 43.9999C36.7011 44.4458 35.9433 45.8053 36.3537 47.0362C36.7638 48.2672 38.1865 48.9033 39.5312 48.4574C40.876 48.0113 41.6336 46.6518 41.2234 45.4208C40.8133 44.1902 39.3907 43.5538 38.0459 43.9999Z" fill="white"/>
<path d="M40.3723 45.6656C40.7433 46.4954 40.4476 47.4263 39.7117 47.7447C38.9758 48.0635 38.0782 47.6491 37.7072 46.8193C37.3359 45.9895 37.6316 45.0589 38.3675 44.7402C39.1037 44.4217 40.0012 44.8358 40.3723 45.6656Z" fill="black"/>
<path d="M19.7915 60.9358C18.8135 62.7196 18.5851 59.7125 13.3541 58.7593C-0.700864 44.9106 -9.94798 56.1856 0.306235 36.0288C25.5658 -13.6241 10.0549 33.7996 14.9951 33.2597C19.9354 32.7204 14.5398 44.1394 19.7915 60.9358Z" fill="black"/>
<path d="M37.2711 29.1992C35.2815 45.6264 16.4059 28.9478 17.2757 44.2425C6.96597 51.1245 4.59771 35.4929 6.00102 27.5933C8.07836 19.3324 12.3788 13.4525 20.1346 17.0567C26.9328 16.314 26.2076 28.3705 37.2711 29.1992Z" fill="black"/>
<path d="M14.7965 7.02539L18.6825 20.792L9.22656 20.2211L14.7965 7.02539Z" fill="black"/>
<path d="M29.3005 13.2344L23.0892 26.4719L16.7656 20.6977L29.3005 13.2344Z" fill="black"/>
<path d="M30.4526 19.9973L24.4609 16.7977L29.326 13.2148L30.4526 19.9973Z" fill="black"/>
<path d="M24.5099 26.0095C25.7828 26.2466 26.9815 25.4801 27.1871 24.2974C27.3926 23.1148 26.5273 21.9638 25.2543 21.7266C23.9812 21.4895 22.7826 22.256 22.5771 23.4387C22.3715 24.6214 23.2369 25.7724 24.5099 26.0095Z" fill="white"/>
<path d="M16.1036 24.3025C17.3766 24.5396 18.5753 23.7731 18.7808 22.5904C18.9864 21.4077 18.121 20.2567 16.848 20.0196C15.575 19.7825 14.3764 20.549 14.1708 21.7317C13.9653 22.9143 14.8306 24.0654 16.1036 24.3025Z" fill="white"/>
<path d="M17.6476 21.5597C17.5322 22.2893 16.8814 22.7672 16.1939 22.6272C15.5065 22.4873 15.0428 21.7823 15.1582 21.0528C15.2736 20.3232 15.9245 19.8453 16.6119 19.9853C17.2993 20.1253 17.763 20.8302 17.6476 21.5597Z" fill="black"/>
<path d="M24.3111 24.3675C24.9986 24.5075 25.6494 24.0296 25.7648 23.3C25.8802 22.5705 25.4164 21.8655 24.729 21.7255C24.0416 21.5855 23.3908 22.0635 23.2754 22.793C23.16 23.5226 23.6237 24.2275 24.3111 24.3675Z" fill="black"/>
</g>
</svg>
