<svg width="21" height="24" viewBox="0 0 21 24" fill="none" xmlns="http://www.w3.org/2000/svg">
<path d="M20.4876 23.1217C20.4876 23.6068 20.0944 24 19.6098 24C19.1247 24 18.7315 23.6068 18.7315 23.1217C18.7315 18.9781 15.6723 16.9757 10.2438 16.9757C4.81531 16.9757 1.75616 18.9781 1.75616 23.1217C1.75616 23.6068 1.36295 24 0.877876 24C0.393206 24 0 23.6068 0 23.1217C0 17.8136 3.9627 15.2195 10.2438 15.2195C16.525 15.2195 20.4877 17.8135 20.4877 23.1217H20.4876ZM10.2438 14.0489C7.00547 14.0489 4.68294 10.4626 4.68294 6.73188C4.68294 3.12197 6.97359 0 10.2438 0C13.514 0 15.8046 3.12197 15.8046 6.73188C15.8046 10.4626 13.4821 14.0489 10.2438 14.0489ZM10.2438 12.2927C12.3119 12.2927 14.0484 9.61134 14.0484 6.73188C14.0484 3.99489 12.4058 1.75609 10.2438 1.75609C8.08181 1.75609 6.43913 3.99489 6.43913 6.73188C6.43913 9.61134 8.17568 12.2927 10.2438 12.2927Z" fill="black"/>
</svg>
