<svg width="222" height="222" viewBox="0 0 222 222" fill="none" xmlns="http://www.w3.org/2000/svg">
<mask id="mask0_1164_3017" style="mask-type:alpha" maskUnits="userSpaceOnUse" x="0" y="0" width="222" height="222">
<circle cx="110.976" cy="110.976" r="110.976" fill="#D9D9D9"/>
</mask>
<g mask="url(#mask0_1164_3017)">
<ellipse cx="110.98" cy="111" rx="110.949" ry="111" fill="#F6C600"/>
<path d="M240.188 159.114C110.451 242.036 253.529 213.413 162.816 212.523C183.598 210.281 150.876 190.611 136.697 187.02C128.128 179.938 186.956 152.608 192.622 159.765C189.643 177.978 262.3 144.981 240.188 159.114Z" fill="black"/>
<path d="M191.386 147.227C197.557 160.694 188.201 178.35 168.9 187.152C149.598 195.954 127.748 192.56 121.577 179.093C115.407 165.626 125.619 147.65 144.921 138.848C164.222 130.046 185.216 133.76 191.386 147.227Z" fill="black"/>
<path d="M167.61 115.858L187.463 142.242L155.055 137.743L167.61 115.858Z" fill="black"/>
<path d="M113.514 139.278L137.949 144.946L120.455 174.421L113.514 139.278Z" fill="black"/>
<ellipse cx="9.27362" cy="8.2985" rx="9.27362" ry="8.2985" transform="matrix(0.950079 -0.31201 0.319004 0.947753 158.195 147.832)" fill="white"/>
<path d="M172.72 151.441C174.242 154.329 173.372 157.713 170.778 158.999C168.184 160.285 164.847 158.987 163.325 156.1C161.804 153.212 162.673 149.828 165.268 148.542C167.862 147.256 171.199 148.554 172.72 151.441Z" fill="black"/>
<ellipse cx="9.27362" cy="8.42448" rx="9.27362" ry="8.42448" transform="matrix(-0.950079 0.31201 -0.319004 -0.947753 151.773 170.707)" fill="white"/>
<path d="M146.005 163.594C147.348 166.567 146.278 169.902 143.615 171.043C140.952 172.184 137.704 170.7 136.361 167.728C135.018 164.755 136.089 161.42 138.752 160.279C141.415 159.137 144.663 160.622 146.005 163.594Z" fill="black"/>
<path d="M71.5382 218.3C67.9993 224.692 67.1727 213.918 48.2446 210.502C-2.61245 160.89 -36.0726 201.283 1.03168 129.071C92.4321 -48.8101 36.3066 121.085 54.1827 119.151C72.0587 117.218 52.5351 158.128 71.5382 218.3Z" fill="black"/>
<path d="M134.785 104.607C127.586 163.458 59.2858 103.706 62.4328 158.5C25.1278 183.154 16.5585 127.153 21.6362 98.8535C29.1528 69.2589 44.7139 48.1943 72.7777 61.1063C97.3766 58.4457 94.7526 101.637 134.785 104.607Z" fill="black"/>
<path d="M53.4576 25.1653L67.5189 74.4841L33.3031 72.4387L53.4576 25.1653Z" fill="black"/>
<path d="M105.953 47.4136L83.4782 94.8369L60.5966 74.1512L105.953 47.4136Z" fill="black"/>
<path d="M110.11 71.643L88.429 60.1802L106.033 47.3447L110.11 71.643Z" fill="black"/>
<ellipse cx="8.48117" cy="7.78898" rx="8.48117" ry="7.78898" transform="matrix(0.983416 0.181363 -0.172909 0.984938 82.9688 76.2969)" fill="white"/>
<ellipse cx="8.48117" cy="7.78898" rx="8.48117" ry="7.78898" transform="matrix(0.983416 0.181363 -0.172909 0.984938 52.5391 70.1816)" fill="white"/>
<path d="M63.7907 77.24C63.3732 79.8536 61.0182 81.5658 58.5308 81.0643C56.0434 80.5628 54.3655 78.0374 54.783 75.4238C55.2006 72.8102 57.5555 71.098 60.0429 71.5995C62.5303 72.101 64.2083 74.6263 63.7907 77.24Z" fill="black"/>
<ellipse cx="4.59449" cy="4.79242" rx="4.59449" ry="4.79242" transform="matrix(0.980274 0.197645 -0.157757 0.987478 84.9141 76.9219)" fill="black"/>
</g>
</svg>
