<svg width="34" height="36" viewBox="0 0 34 36" fill="none" xmlns="http://www.w3.org/2000/svg">
<path d="M15.8826 25.4118H1.05904C0.474188 25.4118 6.42501e-05 24.9379 6.42501e-05 24.353C6.42501e-05 23.7682 0.474169 23.2941 1.05904 23.2941H32.8237C33.4086 23.2941 33.8827 23.7682 33.8827 24.353C33.8827 24.9379 33.4086 25.4118 32.8237 25.4118H18.0002V29.6471H20.1178C21.2875 29.6471 22.2354 30.5953 22.2354 31.7647V33.8823H24.353C24.9379 33.8823 25.412 34.3564 25.412 34.9413C25.412 35.5259 24.9379 36 24.353 36H9.52947C8.94462 36 8.4705 35.5259 8.4705 34.9413C8.4705 34.3564 8.9446 33.8823 9.52947 33.8823H11.6471V31.7647C11.6471 30.5953 12.595 29.6471 13.7647 29.6471H15.8823L15.8826 25.4118ZM20.1177 31.7647H13.765V33.8823H20.1177V31.7647ZM15.8826 0H18C20.3392 0 22.2353 1.89616 22.2353 4.23531V6.35294C22.2353 6.93779 21.7615 7.41165 21.1766 7.41165H12.7057C12.1209 7.41165 11.647 6.9378 11.647 6.35294V4.23531C11.647 1.89616 13.5432 0 15.8823 0H15.8826ZM20.1177 4.23531C20.1177 3.06564 19.1697 2.11769 18 2.11769H15.8826C14.7129 2.11769 13.765 3.06564 13.765 4.23531V5.29403H20.1177V4.23531ZM1.05897 21.7061C0.474124 21.7061 0 21.232 0 20.6472C0 20.0623 0.474105 19.5885 1.05897 19.5885H7.41191C7.99651 19.5885 8.47062 20.0623 8.47062 20.6472C8.47062 21.232 7.99652 21.7061 7.41191 21.7061H1.05897ZM15.8825 10.5886C15.8825 10.0038 16.3564 9.52966 16.9412 9.52966C17.5261 9.52966 18 10.0038 18 10.5886V14.8239C18 15.4085 17.5261 15.8827 16.9412 15.8827C16.3564 15.8827 15.8825 15.4086 15.8825 14.8239V10.5886ZM20.7328 10.4761C20.5023 9.93875 20.7514 9.31624 21.2888 9.08597C21.8264 8.85569 22.4487 9.10455 22.6792 9.64218L24.2672 13.3479C24.4978 13.8855 24.2487 14.5078 23.7113 14.7383C23.1736 14.9686 22.5514 14.7195 22.3208 14.1821L20.7328 10.4761ZM11.2031 9.64216C11.4337 9.10452 12.0559 8.85569 12.5936 9.08595C13.131 9.31622 13.38 9.93876 13.1495 10.4761L11.5615 14.182C11.331 14.7194 10.7087 14.9685 10.1711 14.7383C9.63368 14.5077 9.3846 13.8854 9.6151 13.3478L11.2031 9.64216Z" fill="black"/>
</svg>
