<svg width="22" height="24" viewBox="0 0 22 24" fill="none" xmlns="http://www.w3.org/2000/svg">
<path d="M17.2782 15.4838C15.9762 15.4838 14.85 16.0469 14.0759 16.9618L8.0937 13.865C8.37525 13.3019 8.5159 12.6686 8.5159 12C8.5159 11.3313 8.33991 10.698 8.0937 10.1349L14.0759 7.03817C14.85 7.95304 16.0114 8.51614 17.2782 8.51614C19.6008 8.51614 21.5363 6.61602 21.5363 4.25807C21.5363 1.93549 19.6361 0 17.2782 0C14.9203 0.000490958 13.0201 2.00618 13.0201 4.32876C13.0201 4.89185 13.1257 5.38451 13.3017 5.87717L7.21393 9.00904C6.43976 8.23487 5.38401 7.77728 4.22269 7.77728C1.93549 7.77728 0 9.71277 0 12.0353C0 14.3579 1.90011 16.2934 4.25807 16.2934C5.41932 16.2934 6.47508 15.8359 7.24931 15.0617L13.337 18.1935C13.1611 18.6862 13.0555 19.1788 13.0555 19.7419C13.0555 22.0645 14.9556 24 17.3136 24C19.6713 24 21.5716 22.0999 21.5716 19.7419C21.5711 17.3842 19.6006 15.4839 17.2783 15.4839L17.2782 15.4838ZM17.2782 1.51353C18.8266 1.51353 20.1285 2.78036 20.1285 4.36383C20.1285 5.91223 18.8617 7.21412 17.2782 7.21412C15.6945 7.21437 14.4276 5.91217 14.4276 4.3287C14.4276 2.78029 15.6945 1.51347 17.2782 1.51347V1.51353ZM4.25804 14.8856C2.70963 14.8856 1.40774 13.6188 1.40774 12.0353C1.40774 10.4869 2.67457 9.18499 4.25804 9.18499C5.80644 9.18499 7.10833 10.4518 7.10833 12.0353C7.10858 13.5837 5.80638 14.8856 4.25804 14.8856ZM17.2782 22.5569C15.7298 22.5569 14.4279 21.2901 14.4279 19.7066C14.4279 18.1231 15.6947 16.8563 17.2782 16.8563C18.8617 16.8563 20.1285 18.1231 20.1285 19.7066C20.1285 21.2901 18.8263 22.5569 17.2782 22.5569Z" fill="black"/>
</svg>
