<svg width="36" height="36" viewBox="0 0 36 36" fill="none" xmlns="http://www.w3.org/2000/svg">
<path d="M35.7343 0.266766C35.3786 -0.0889221 34.8041 -0.0889221 34.4483 0.266766L29.4869 5.22819C27.827 4.1702 25.6655 4.40737 24.2702 5.79365L23.267 6.79686C21.8533 6.14932 20.1843 6.45029 19.0808 7.54472L11.8484 14.7406L7.70783 18.863L5.71959 16.8748C5.3639 16.5191 4.78934 16.5191 4.43362 16.8748C4.0779 17.2305 4.07793 17.805 4.43362 18.1608L10.4986 24.2257L7.55273 27.1807C5.39122 25.6576 2.40886 26.1683 0.876733 28.3299C-0.646384 30.4914 -0.135648 33.4737 2.02587 35.0059C3.92288 36.3465 6.513 36.1276 8.16378 34.486C9.75986 32.8899 10.0243 30.4001 8.80219 28.5031L11.7754 25.5207L17.8312 31.5766C18.1869 31.9323 18.7615 31.9323 19.1172 31.5766C19.4729 31.2209 19.4729 30.6463 19.1172 30.2906L17.129 28.3024L21.2605 24.1618L28.4564 16.9385C29.5508 15.835 29.8517 14.166 29.2042 12.7524L30.1984 11.7491C31.5846 10.3538 31.8218 8.19226 30.7638 6.53239L35.7252 1.57096C36.0901 1.19703 36.0901 0.622455 35.7344 0.266733L35.7343 0.266766ZM6.8688 33.1998C5.7105 34.3581 3.82265 34.3581 2.66435 33.1998C2.10801 32.6435 1.79789 31.8865 1.79789 31.093C1.79789 29.4513 3.13856 28.1198 4.78025 28.1289C5.56459 28.1289 6.32155 28.439 6.8688 28.9954C6.87793 29.0045 6.88705 29.0045 6.88705 29.0136C6.89617 29.0318 6.91441 29.041 6.92353 29.0592C8.04531 30.2175 8.01796 32.0689 6.8688 33.1998V33.1998ZM11.7664 22.9392L8.98471 20.1576L12.4778 16.6737L15.2413 19.4371L11.7664 22.9392ZM15.834 27.0069L13.0523 24.2252L16.5272 20.723L19.3088 23.5047L15.834 27.0069ZM27.161 15.6431L20.6035 22.228L13.7724 15.3878L20.3573 8.83027C21.0322 8.16449 22.0901 8.09153 22.8563 8.65699L22.8745 8.66611C22.9384 8.71171 23.0022 8.76643 23.066 8.83028L27.1793 12.9435C27.234 12.9982 27.2887 13.0621 27.3435 13.1259C27.3435 13.135 27.3526 13.135 27.3526 13.1442C27.9089 13.9011 27.8359 14.9682 27.161 15.6431L27.161 15.6431ZM28.9121 10.4445L28.0822 11.2745L24.7168 7.90912L25.5468 7.0701C25.9846 6.62321 26.5865 6.37696 27.2158 6.36784H27.225C28.5474 6.37696 29.6054 7.45318 29.5963 8.7665C29.5963 9.40492 29.35 9.99777 28.9122 10.4446L28.9121 10.4445Z" fill="black"/>
</svg>
