<svg width="22" height="22" viewBox="0 0 22 22" fill="none" xmlns="http://www.w3.org/2000/svg">
<path d="M5.12768 22C4.95668 22 4.78585 21.969 4.63938 21.8756C4.15107 21.6267 3.83361 21.0354 3.83361 20.3508V17.1768H3.12559C1.41625 17.1768 0 15.4032 0 13.1937V4.01405C0 1.80459 1.4162 0 3.14975 0H18.8501C20.5838 0 21.9998 1.80482 21.9998 4.01405L22 13.1937C22 15.4032 20.5838 17.2078 18.8503 17.2078L9.44959 17.208L6.03125 21.5643C5.78701 21.8443 5.46969 22 5.12785 22L5.12768 22ZM3.14975 1.5869C2.09989 1.5869 1.22087 2.67612 1.22087 4.04507V13.1936C1.22087 14.5316 2.07556 15.6518 3.14975 15.6518H4.46819C4.81003 15.6518 5.07863 15.9941 5.07863 16.4297V20.3817C5.07863 20.4128 5.07863 20.444 5.12751 20.444C5.17639 20.4751 5.17639 20.444 5.20075 20.413L8.7901 15.8387C8.91222 15.6831 9.05869 15.6208 9.22952 15.6208H18.8744C19.9242 15.6208 20.8032 14.5315 20.8032 13.1626L20.8036 4.01404C20.8036 2.6761 19.9489 1.55587 18.8747 1.55587H3.14995L3.14975 1.5869Z" fill="black"/>
<path d="M11.4637 11.2622C10.9842 11.2622 10.6074 10.8866 10.6074 10.4087C10.6074 9.41874 11.1555 8.56524 12.046 8.1897C12.6283 7.95061 12.9709 7.3362 12.9024 6.7218C12.8338 6.07308 12.2859 5.52678 11.6351 5.45868C11.2241 5.42463 10.8129 5.52703 10.5047 5.80018C10.1965 6.07333 10.0252 6.4489 10.0252 6.85846C10.0252 7.33641 9.64837 7.71196 9.16883 7.71196C8.6893 7.71196 8.3125 7.33641 8.3125 6.85846C8.3125 5.97088 8.6893 5.11738 9.37429 4.53706C10.0252 3.95671 10.9501 3.64948 11.8405 3.7519C13.2792 3.92265 14.4437 5.08336 14.615 6.51718C14.7519 7.91699 13.9985 9.21412 12.731 9.76043C12.4911 9.86283 12.3542 10.136 12.3542 10.4091C12.32 10.8866 11.9432 11.2622 11.4637 11.2622L11.4637 11.2622Z" fill="black"/>
<path d="M11.509 13.8157C11.2657 13.8157 11.0574 13.713 10.8839 13.576C10.7102 13.4048 10.6406 13.1995 10.6406 12.9601C10.6406 12.7548 10.7448 12.5152 10.8839 12.3442C11.1964 12.0363 11.7869 12.0363 12.0997 12.3442C12.2735 12.5154 12.343 12.7207 12.343 12.9601C12.343 13.1998 12.2388 13.4051 12.0997 13.576C11.9607 13.713 11.7523 13.8157 11.509 13.8157H11.509Z" fill="black"/>
</svg>
