<svg width="30" height="30" viewBox="0 0 30 30" fill="none" xmlns="http://www.w3.org/2000/svg">
<path d="M21.6662 0.000167116C21.114 0.000167116 20.6661 0.447978 20.6661 1.0002C20.6661 1.55241 21.1139 2.00024 21.6662 2.00024H26.5829L19.7389 8.84413C17.647 7.07197 14.9487 6.00056 11.9998 6.00056C5.38443 6.00056 0 11.385 0 18.0003C0 24.6155 5.38425 30 11.9998 30C18.6151 30 23.9996 24.6155 23.9996 18.0003C23.9996 15.0483 22.931 12.3431 21.156 10.2505L27.9999 3.40658V8.33342C27.9999 8.88563 28.4477 9.33346 29 9.33346C29.5522 9.33346 30 8.88565 30 8.33342V1.00026L29.9995 1.00003C29.9995 0.734971 29.8942 0.480602 29.7066 0.292964C29.5192 0.105563 29.2648 0.000232137 28.9995 0L21.6662 0.000167116ZM11.9997 7.99998C17.5343 7.99998 21.9995 12.4654 21.9995 17.9997C21.9995 23.5341 17.5343 27.9995 11.9997 27.9995C6.465 27.9995 1.99985 23.5341 1.99985 17.9997C1.99985 12.4654 6.465 7.99998 11.9997 7.99998Z" fill="black"/>
</svg>
