<svg width="125" height="16" viewBox="0 0 125 16" fill="none" xmlns="http://www.w3.org/2000/svg">
<path d="M0 12.115V0.192047H4.33708C5.13728 0.192047 5.84146 0.341418 6.44961 0.64016C7.06843 0.928232 7.54855 1.35501 7.88997 1.92048C8.23139 2.47529 8.4021 3.14212 8.4021 3.92098C8.4021 4.68917 8.22606 5.35067 7.87397 5.90548C7.53255 6.46028 7.05776 6.88705 6.44961 7.1858C5.84146 7.48454 5.13728 7.63391 4.33708 7.63391H1.88847V12.115H0ZM1.88847 5.95349H4.3851C4.81187 5.95349 5.1853 5.86813 5.50538 5.69742C5.82546 5.52672 6.07619 5.29199 6.25756 4.99325C6.43894 4.68384 6.52963 4.32108 6.52963 3.90498C6.52963 3.48887 6.43894 3.13145 6.25756 2.83271C6.07619 2.5233 5.82546 2.28857 5.50538 2.12853C5.1853 1.95782 4.81187 1.87247 4.3851 1.87247H1.88847V5.95349Z" fill="black"/>
<path d="M10.3303 12.115V3.45686H12.0588V5.2013L11.8987 4.94524C12.0908 4.37976 12.4002 3.97433 12.827 3.72893C13.2537 3.47287 13.7659 3.34484 14.3633 3.34484H14.8915V4.99325H14.1393C13.5418 4.99325 13.0563 5.17996 12.6829 5.55339C12.3202 5.91615 12.1388 6.43894 12.1388 7.12178V12.115H10.3303Z" fill="black"/>
<path d="M16.2887 12.115V3.45686H18.0971V12.115H16.2887ZM16.2887 2.27257V0.192047H18.0971V2.27257H16.2887Z" fill="black"/>
<path d="M22.8842 12.115L19.4914 3.45686H21.4599L24.0685 10.5146H23.3483L25.957 3.45686H27.9415L24.5326 12.115H22.8842Z" fill="black"/>
<path d="M31.6108 12.3071C31.024 12.3071 30.5065 12.2057 30.0584 12.003C29.6209 11.7896 29.2795 11.5015 29.0341 11.1388C28.7887 10.7654 28.666 10.3279 28.666 9.82646C28.666 9.35701 28.7674 8.93557 28.9701 8.56214C29.1835 8.18871 29.5089 7.87397 29.9464 7.6179C30.3838 7.36184 30.9333 7.18046 31.5948 7.07377L34.6035 6.57765V8.002L31.9469 8.46612C31.4667 8.55147 31.1147 8.70618 30.8906 8.93023C30.6665 9.14362 30.5545 9.42102 30.5545 9.76244C30.5545 10.0932 30.6772 10.3653 30.9226 10.5786C31.1787 10.7814 31.5041 10.8827 31.8988 10.8827C32.3896 10.8827 32.8164 10.776 33.1792 10.5626C33.5526 10.3493 33.8407 10.0665 34.0434 9.71443C34.2461 9.35167 34.3475 8.95157 34.3475 8.51413V6.28957C34.3475 5.8628 34.1874 5.51605 33.8673 5.24931C33.5579 4.97191 33.1418 4.83321 32.619 4.83321C32.1389 4.83321 31.7175 4.96124 31.3547 5.2173C31.0026 5.4627 30.7412 5.78278 30.5705 6.17754L29.0661 5.42536C29.2262 4.99858 29.4876 4.62516 29.8503 4.30508C30.2131 3.97433 30.6345 3.71826 31.1147 3.53688C31.6054 3.35551 32.1229 3.26482 32.667 3.26482C33.3499 3.26482 33.9527 3.39285 34.4755 3.64891C35.009 3.90498 35.4197 4.2624 35.7078 4.72118C36.0065 5.16929 36.1559 5.69209 36.1559 6.28957V12.115H34.4275V10.5466L34.7956 10.5946C34.5929 10.9467 34.3315 11.2508 34.0114 11.5069C33.702 11.7629 33.3445 11.9603 32.9391 12.099C32.5443 12.2377 32.1016 12.3071 31.6108 12.3071Z" fill="black"/>
<path d="M42.5435 12.3071C41.6793 12.3071 40.9111 12.1097 40.2389 11.7149C39.5774 11.3095 39.0493 10.7654 38.6545 10.0825C38.2704 9.39968 38.0784 8.62616 38.0784 7.76194C38.0784 6.90839 38.2704 6.1402 38.6545 5.45736C39.0386 4.77453 39.5668 4.24106 40.2389 3.85696C40.9111 3.4622 41.6793 3.26482 42.5435 3.26482C43.1303 3.26482 43.6798 3.37151 44.1919 3.5849C44.7041 3.78761 45.1468 4.07035 45.5203 4.43311C45.9044 4.79587 46.1871 5.2173 46.3685 5.69742L44.7841 6.43361C44.6027 5.9855 44.3093 5.62807 43.9039 5.36134C43.5091 5.08394 43.0556 4.94524 42.5435 4.94524C42.0527 4.94524 41.6099 5.06793 41.2152 5.31333C40.8311 5.54805 40.527 5.88414 40.303 6.32158C40.0789 6.74835 39.9669 7.23381 39.9669 7.77794C39.9669 8.32208 40.0789 8.81287 40.303 9.25031C40.527 9.67709 40.8311 10.0132 41.2152 10.2586C41.6099 10.504 42.0527 10.6267 42.5435 10.6267C43.0663 10.6267 43.5198 10.4933 43.9039 10.2266C44.2986 9.94915 44.592 9.58106 44.7841 9.12228L46.3685 9.87447C46.1978 10.3333 45.9204 10.7494 45.5363 11.1228C45.1628 11.4855 44.7201 11.7736 44.2079 11.987C43.6958 12.2004 43.141 12.3071 42.5435 12.3071Z" fill="black"/>
<path d="M49.0643 15.6519C48.8509 15.6519 48.6375 15.6306 48.4241 15.5879C48.2214 15.5559 48.0347 15.5025 47.864 15.4279V13.8755C47.992 13.9075 48.1467 13.9342 48.3281 13.9555C48.5095 13.9875 48.6855 14.0035 48.8562 14.0035C49.3577 14.0035 49.7258 13.8915 49.9605 13.6674C50.2059 13.454 50.4246 13.1179 50.6167 12.6592L51.1928 11.3468L51.1608 12.8672L47.4159 3.45686H49.3523L52.121 10.6747H51.4649L54.2176 3.45686H56.17L52.3451 13.0593C52.1424 13.5714 51.8863 14.0195 51.5769 14.4036C51.2782 14.7984 50.9207 15.1024 50.5046 15.3158C50.0992 15.5399 49.6191 15.6519 49.0643 15.6519Z" fill="black"/>
<path d="M64.8785 12.3071C64.1316 12.3071 63.4381 12.1684 62.798 11.891C62.1578 11.6029 61.6137 11.2135 61.1655 10.7227C60.7174 10.2319 60.3867 9.66642 60.1733 9.02626L61.7737 8.35409C62.0618 9.09027 62.4832 9.65575 63.038 10.0505C63.5928 10.4453 64.233 10.6427 64.9585 10.6427C65.3853 10.6427 65.7587 10.5786 66.0788 10.4506C66.3988 10.3119 66.6442 10.1199 66.815 9.87447C66.9963 9.62907 67.087 9.34634 67.087 9.02626C67.087 8.58882 66.9643 8.24206 66.7189 7.986C66.4735 7.72993 66.1108 7.52722 65.6307 7.37784L63.3901 6.67367C62.4939 6.39627 61.811 5.97483 61.3416 5.40935C60.8721 4.83321 60.6374 4.16104 60.6374 3.39285C60.6374 2.72068 60.8028 2.13387 61.1335 1.63241C61.4643 1.12028 61.9177 0.72018 62.4939 0.432108C63.0807 0.144036 63.7475 0 64.4944 0C65.2092 0 65.86 0.128032 66.4469 0.384096C67.0337 0.629491 67.5351 0.970909 67.9512 1.40835C68.378 1.84579 68.6874 2.35259 68.8795 2.92873L67.3111 3.6169C67.0763 2.98741 66.7083 2.50196 66.2068 2.16054C65.716 1.81912 65.1452 1.64841 64.4944 1.64841C64.0996 1.64841 63.7529 1.71776 63.4541 1.85646C63.1554 1.9845 62.9206 2.17654 62.7499 2.43261C62.5899 2.678 62.5099 2.96608 62.5099 3.29682C62.5099 3.68092 62.6326 4.02234 62.878 4.32108C63.1234 4.61982 63.4968 4.84388 63.9982 4.99325L66.0788 5.64941C67.0283 5.93748 67.7432 6.35359 68.2233 6.89773C68.7034 7.43119 68.9435 8.09803 68.9435 8.89823C68.9435 9.55972 68.7674 10.1465 68.4154 10.6587C68.0739 11.1708 67.5992 11.5762 66.991 11.875C66.3828 12.163 65.6787 12.3071 64.8785 12.3071Z" fill="black"/>
<path d="M75.1124 12.3071C74.2482 12.3071 73.48 12.1097 72.8078 11.7149C72.1463 11.3095 71.6289 10.7654 71.2554 10.0825C70.882 9.38901 70.6953 8.61549 70.6953 7.76194C70.6953 6.88705 70.882 6.11353 71.2554 5.44136C71.6395 4.76919 72.1517 4.24106 72.7918 3.85696C73.432 3.4622 74.1575 3.26482 74.9684 3.26482C75.6192 3.26482 76.2007 3.37684 76.7128 3.6009C77.2249 3.82496 77.657 4.13437 78.0091 4.52913C78.3612 4.91323 78.6279 5.35601 78.8093 5.85746C79.0014 6.35892 79.0974 6.89239 79.0974 7.45786C79.0974 7.59657 79.0921 7.7406 79.0814 7.88997C79.0707 8.03934 79.0494 8.17804 79.0174 8.30608H72.1197V6.86572H77.9931L77.1289 7.52188C77.2356 6.99908 77.1983 6.53497 77.0169 6.12953C76.8462 5.71343 76.5794 5.38801 76.2167 5.15329C75.8646 4.90789 75.4485 4.7852 74.9684 4.7852C74.4882 4.7852 74.0615 4.90789 73.688 5.15329C73.3146 5.38801 73.0265 5.72943 72.8238 6.17754C72.6211 6.61499 72.5411 7.14845 72.5838 7.77794C72.5304 8.36476 72.6104 8.87689 72.8238 9.31433C73.0479 9.75177 73.3573 10.0932 73.7521 10.3386C74.1575 10.584 74.6163 10.7067 75.1284 10.7067C75.6512 10.7067 76.094 10.5893 76.4567 10.3546C76.8302 10.1199 77.1236 9.81579 77.337 9.44236L78.8093 10.1625C78.6386 10.568 78.3719 10.9361 78.0091 11.2668C77.657 11.5869 77.2303 11.843 76.7288 12.035C76.238 12.2164 75.6992 12.3071 75.1124 12.3071Z" fill="black"/>
<path d="M84.7673 12.2111C83.8604 12.2111 83.1562 11.955 82.6548 11.4429C82.1533 10.9307 81.9026 10.2106 81.9026 9.28232V5.08927H80.3822V3.45686H80.6223C81.0277 3.45686 81.3425 3.3395 81.5665 3.10478C81.7906 2.87005 81.9026 2.54997 81.9026 2.14454V1.47237H83.7111V3.45686H85.6795V5.08927H83.7111V9.2023C83.7111 9.50104 83.7591 9.75711 83.8551 9.97049C83.9511 10.1732 84.1058 10.3333 84.3192 10.4506C84.5326 10.5573 84.81 10.6107 85.1514 10.6107C85.2368 10.6107 85.3328 10.6053 85.4395 10.5946C85.5462 10.584 85.6475 10.5733 85.7436 10.5626V12.115C85.5942 12.1364 85.4288 12.1577 85.2474 12.179C85.0661 12.2004 84.906 12.2111 84.7673 12.2111Z" fill="black"/>
<path d="M91.4134 12.2111C90.5065 12.2111 89.8023 11.955 89.3008 11.4429C88.7994 10.9307 88.5486 10.2106 88.5486 9.28232V5.08927H87.0283V3.45686H87.2683C87.6738 3.45686 87.9885 3.3395 88.2126 3.10478C88.4366 2.87005 88.5486 2.54997 88.5486 2.14454V1.47237H90.3571V3.45686H92.3256V5.08927H90.3571V9.2023C90.3571 9.50104 90.4051 9.75711 90.5011 9.97049C90.5972 10.1732 90.7519 10.3333 90.9652 10.4506C91.1786 10.5573 91.456 10.6107 91.7974 10.6107C91.8828 10.6107 91.9788 10.6053 92.0855 10.5946C92.1922 10.584 92.2936 10.5733 92.3896 10.5626V12.115C92.2402 12.1364 92.0749 12.1577 91.8935 12.179C91.7121 12.2004 91.5521 12.2111 91.4134 12.2111Z" fill="black"/>
<path d="M94.3144 12.115V3.45686H96.1229V12.115H94.3144ZM94.3144 2.27257V0.192047H96.1229V2.27257H94.3144Z" fill="black"/>
<path d="M98.3973 12.115V3.45686H100.126V5.15329L99.9177 4.92923C100.131 4.3851 100.473 3.97433 100.942 3.69692C101.411 3.40885 101.956 3.26482 102.574 3.26482C103.215 3.26482 103.78 3.40352 104.271 3.68092C104.762 3.95832 105.146 4.34242 105.423 4.83321C105.701 5.324 105.839 5.88947 105.839 6.52963V12.115H104.047V7.00975C104.047 6.57231 103.967 6.20422 103.807 5.90548C103.647 5.59607 103.417 5.36134 103.119 5.2013C102.83 5.03059 102.5 4.94524 102.126 4.94524C101.753 4.94524 101.417 5.03059 101.118 5.2013C100.83 5.36134 100.606 5.59607 100.446 5.90548C100.286 6.21489 100.206 6.58298 100.206 7.00975V12.115H98.3973Z" fill="black"/>
<path d="M112.112 15.6359C111.482 15.6359 110.901 15.5345 110.367 15.3318C109.834 15.1291 109.375 14.8464 108.991 14.4836C108.607 14.1315 108.319 13.7154 108.127 13.2353L109.791 12.5471C109.941 12.9526 110.213 13.2887 110.607 13.5554C111.013 13.8221 111.509 13.9555 112.096 13.9555C112.555 13.9555 112.965 13.8648 113.328 13.6834C113.691 13.5127 113.979 13.2566 114.192 12.9152C114.406 12.5845 114.512 12.1844 114.512 11.7149V9.76244L114.832 10.1305C114.534 10.6853 114.118 11.1068 113.584 11.3948C113.061 11.6829 112.469 11.827 111.808 11.827C111.007 11.827 110.287 11.6402 109.647 11.2668C109.007 10.8934 108.5 10.3813 108.127 9.73043C107.764 9.0796 107.583 8.34875 107.583 7.53788C107.583 6.71635 107.764 5.9855 108.127 5.34534C108.5 4.70518 109.002 4.19838 109.631 3.82496C110.261 3.45153 110.981 3.26482 111.792 3.26482C112.453 3.26482 113.04 3.40885 113.552 3.69692C114.075 3.97433 114.502 4.37976 114.832 4.91323L114.592 5.36134V3.45686H116.305V11.7149C116.305 12.4618 116.123 13.1286 115.761 13.7154C115.409 14.3129 114.918 14.7824 114.288 15.1238C113.659 15.4652 112.933 15.6359 112.112 15.6359ZM112.016 10.1465C112.496 10.1465 112.923 10.0345 113.296 9.81045C113.67 9.57573 113.963 9.26632 114.176 8.88222C114.4 8.48746 114.512 8.04468 114.512 7.55389C114.512 7.0631 114.4 6.62032 114.176 6.22556C113.952 5.83079 113.653 5.52138 113.28 5.29732C112.907 5.0626 112.485 4.94524 112.016 4.94524C111.525 4.94524 111.088 5.0626 110.703 5.29732C110.319 5.52138 110.015 5.83079 109.791 6.22556C109.578 6.60965 109.471 7.05243 109.471 7.55389C109.471 8.03401 109.578 8.47145 109.791 8.86622C110.015 9.26098 110.319 9.57573 110.703 9.81045C111.088 10.0345 111.525 10.1465 112.016 10.1465Z" fill="black"/>
<path d="M121.783 12.3071C120.897 12.3071 120.118 12.0884 119.446 11.6509C118.784 11.2135 118.32 10.6267 118.054 9.89047L119.446 9.23431C119.681 9.7251 120.001 10.1145 120.406 10.4026C120.822 10.6907 121.281 10.8347 121.783 10.8347C122.209 10.8347 122.556 10.7387 122.823 10.5466C123.09 10.3546 123.223 10.0932 123.223 9.76244C123.223 9.54906 123.164 9.37834 123.047 9.25031C122.93 9.11161 122.78 8.99958 122.599 8.91423C122.428 8.82887 122.252 8.76486 122.071 8.72218L120.71 8.33808C119.963 8.1247 119.403 7.80462 119.03 7.37784C118.667 6.9404 118.486 6.43361 118.486 5.85746C118.486 5.33467 118.619 4.88122 118.886 4.49712C119.153 4.10236 119.521 3.79828 119.99 3.5849C120.46 3.37151 120.988 3.26482 121.575 3.26482C122.364 3.26482 123.068 3.4622 123.687 3.85696C124.306 4.24106 124.743 4.77986 124.999 5.47337L123.607 6.12953C123.436 5.71343 123.164 5.38268 122.791 5.13728C122.428 4.89189 122.017 4.76919 121.559 4.76919C121.164 4.76919 120.849 4.86522 120.614 5.05727C120.38 5.23864 120.262 5.4787 120.262 5.77744C120.262 5.98016 120.316 6.15087 120.422 6.28957C120.529 6.4176 120.668 6.5243 120.838 6.60965C121.009 6.68434 121.185 6.74835 121.366 6.8017L122.775 7.21781C123.49 7.42052 124.039 7.7406 124.423 8.17804C124.807 8.60482 124.999 9.11695 124.999 9.71443C124.999 10.2266 124.861 10.68 124.583 11.0748C124.317 11.4589 123.943 11.7629 123.463 11.987C122.983 12.2004 122.423 12.3071 121.783 12.3071Z" fill="black"/>
</svg>
