<svg width="24" height="23" viewBox="0 0 24 23" fill="none" xmlns="http://www.w3.org/2000/svg">
<path d="M18.2258 10.5915C17.6936 10.5915 17.1785 10.6651 16.6889 10.8005C13.7963 8.09719 9.24395 8.15382 6.42287 10.9744C6.16547 11.2314 6.16547 11.6484 6.42287 11.9055C6.55148 12.0341 6.71995 12.0982 6.88861 12.0982C7.05727 12.0982 7.22557 12.0339 7.35436 11.9055C9.52708 9.73328 12.9471 9.56076 15.3256 11.3758C14.4254 11.9011 13.6793 12.6623 13.1729 13.5748C12.0103 12.8994 10.4934 13.0552 9.49895 14.0503C8.31521 15.2348 8.31521 17.1622 9.49913 18.3469C10.0915 18.9392 10.8694 19.2354 11.6473 19.2354C12.1253 19.2354 12.6032 19.1224 13.0379 18.899C13.978 20.8166 15.9499 22.1405 18.2257 22.1405C21.4098 22.1405 24 19.5501 24 16.3661C24.0002 13.1822 21.4099 10.5918 18.2257 10.5918L18.2258 10.5915ZM12.5935 17.6366C11.9255 18.0765 11.0166 18.0028 10.43 17.4162C9.75916 16.7445 9.75916 15.6526 10.4298 14.9811C11.0384 14.3726 11.9916 14.3178 12.665 14.8128C12.5266 15.3074 12.4507 15.8279 12.4507 16.3659C12.4511 16.8026 12.5014 17.2273 12.5935 17.6367L12.5935 17.6366ZM18.2258 20.8234C15.7679 20.8234 13.7683 18.8237 13.7683 16.3658C13.7683 13.908 15.7679 11.9083 18.2258 11.9083C20.6837 11.9083 22.6833 13.908 22.6833 16.3658C22.6833 18.8237 20.6836 20.8234 18.2258 20.8234ZM18.9772 8.86882C19.1059 8.99742 19.2743 9.06155 19.443 9.06155C19.6116 9.06155 19.7801 8.99724 19.9087 8.86882C20.1661 8.61141 20.1661 8.19454 19.9087 7.93769C15.3534 3.38295 7.94148 3.38313 3.3872 7.93769C3.1298 8.19509 3.1298 8.61196 3.3872 8.86882C3.64461 9.12622 4.06129 9.12622 4.31833 8.86882C8.35918 4.8274 14.9352 4.82702 18.9773 8.86882H18.9772ZM22.1707 5.67494C22.2993 5.80355 22.4678 5.86767 22.6365 5.86767C22.8051 5.86767 22.9734 5.80337 23.1022 5.67494C23.3596 5.41791 23.3596 5.00086 23.1022 4.74382C20.0432 1.68461 15.9752 0 11.6476 0C7.31997 0 3.25212 1.68456 0.193051 4.74382C-0.0643503 5.00085 -0.0643503 5.41791 0.193051 5.67494C0.450452 5.93197 0.867138 5.93235 1.12418 5.67494C3.93482 2.86449 7.67174 1.31699 11.648 1.31699C15.6238 1.31681 19.3606 2.86449 22.1708 5.67476L22.1707 5.67494ZM18.0909 13.2224C17.7272 13.2224 17.4325 13.5171 17.4325 13.8809V16.6024C17.4325 16.9662 17.7272 17.2609 18.0909 17.2609C18.4547 17.2609 18.7494 16.9662 18.7494 16.6024V13.8809C18.7494 13.5173 18.4547 13.2224 18.0909 13.2224ZM18.0909 17.9196C17.7272 17.9196 17.4325 18.2143 17.4325 18.578V18.6219C17.4325 18.9857 17.7272 19.2804 18.0909 19.2804C18.4547 19.2804 18.7494 18.9857 18.7494 18.6219V18.578C18.7494 18.2143 18.4547 17.9196 18.0909 17.9196Z" fill="black"/>
</svg>
