<svg width="310" height="24" viewBox="0 0 310 24" fill="none" xmlns="http://www.w3.org/2000/svg">
<path d="M0 17.9597L4.192 6.03966H6.528L10.72 17.9597H8.704L7.792 15.2877H2.944L2.016 17.9597H0ZM3.488 13.6077H7.216L5.104 7.36766H5.632L3.488 13.6077Z" fill="black"/>
<path d="M15.8056 18.1517C14.9736 18.1517 14.227 17.9543 13.5656 17.5597C12.915 17.1543 12.3976 16.6103 12.0136 15.9277C11.6403 15.245 11.4536 14.477 11.4536 13.6237C11.4536 12.7703 11.6456 12.0023 12.0296 11.3197C12.4136 10.637 12.931 10.0983 13.5816 9.70366C14.2323 9.30899 14.9683 9.11166 15.7896 9.11166C16.483 9.11166 17.0963 9.25032 17.6296 9.52766C18.163 9.80499 18.5843 10.189 18.8936 10.6797L18.6216 11.0957V5.84766H20.4136V17.9597H18.7016V16.1997L18.9096 16.5357C18.611 17.0583 18.1843 17.4583 17.6296 17.7357C17.075 18.013 16.467 18.1517 15.8056 18.1517ZM15.9816 16.4717C16.483 16.4717 16.931 16.349 17.3256 16.1037C17.731 15.8583 18.0456 15.5223 18.2696 15.0957C18.5043 14.6583 18.6216 14.1677 18.6216 13.6237C18.6216 13.0797 18.5043 12.5943 18.2696 12.1677C18.0456 11.741 17.731 11.405 17.3256 11.1597C16.931 10.9143 16.483 10.7917 15.9816 10.7917C15.4803 10.7917 15.027 10.9143 14.6216 11.1597C14.2163 11.405 13.9016 11.741 13.6776 12.1677C13.4536 12.5943 13.3416 13.0797 13.3416 13.6237C13.3416 14.1677 13.4536 14.6583 13.6776 15.0957C13.9016 15.5223 14.211 15.8583 14.6056 16.1037C15.011 16.349 15.4696 16.4717 15.9816 16.4717Z" fill="black"/>
<path d="M26.6844 18.1517C25.8524 18.1517 25.1057 17.9543 24.4444 17.5597C23.7937 17.1543 23.2764 16.6103 22.8924 15.9277C22.519 15.245 22.3324 14.477 22.3324 13.6237C22.3324 12.7703 22.5244 12.0023 22.9084 11.3197C23.2924 10.637 23.8097 10.0983 24.4604 9.70366C25.111 9.30899 25.847 9.11166 26.6684 9.11166C27.3617 9.11166 27.975 9.25032 28.5084 9.52766C29.0417 9.80499 29.463 10.189 29.7724 10.6797L29.5004 11.0957V5.84766H31.2924V17.9597H29.5804V16.1997L29.7884 16.5357C29.4897 17.0583 29.063 17.4583 28.5084 17.7357C27.9537 18.013 27.3457 18.1517 26.6844 18.1517ZM26.8604 16.4717C27.3617 16.4717 27.8097 16.349 28.2044 16.1037C28.6097 15.8583 28.9244 15.5223 29.1484 15.0957C29.383 14.6583 29.5004 14.1677 29.5004 13.6237C29.5004 13.0797 29.383 12.5943 29.1484 12.1677C28.9244 11.741 28.6097 11.405 28.2044 11.1597C27.8097 10.9143 27.3617 10.7917 26.8604 10.7917C26.359 10.7917 25.9057 10.9143 25.5004 11.1597C25.095 11.405 24.7804 11.741 24.5564 12.1677C24.3324 12.5943 24.2204 13.0797 24.2204 13.6237C24.2204 14.1677 24.3324 14.6583 24.5564 15.0957C24.7804 15.5223 25.0897 15.8583 25.4844 16.1037C25.8897 16.349 26.3484 16.4717 26.8604 16.4717Z" fill="black"/>
<path d="M33.5631 17.9597V9.30366H35.2911V11.0477L35.1311 10.7917C35.3231 10.2263 35.6325 9.82099 36.0591 9.57566C36.4858 9.31966 36.9978 9.19166 37.5951 9.19166H38.1231V10.8397H37.3711C36.7738 10.8397 36.2885 11.0263 35.9151 11.3997C35.5525 11.7623 35.3711 12.285 35.3711 12.9677V17.9597H33.5631Z" fill="black"/>
<path d="M43.584 18.1517C42.72 18.1517 41.952 17.9543 41.28 17.5597C40.6187 17.1543 40.1013 16.6103 39.728 15.9277C39.3547 15.2343 39.168 14.461 39.168 13.6077C39.168 12.733 39.3547 11.9597 39.728 11.2877C40.112 10.6157 40.624 10.0877 41.264 9.70366C41.904 9.30899 42.6293 9.11166 43.44 9.11166C44.0907 9.11166 44.672 9.22366 45.184 9.44766C45.696 9.67166 46.128 9.98099 46.48 10.3757C46.832 10.7597 47.0987 11.2023 47.28 11.7037C47.472 12.205 47.568 12.7383 47.568 13.3037C47.568 13.4423 47.5627 13.5863 47.552 13.7357C47.5413 13.885 47.52 14.0237 47.488 14.1517H40.592V12.7117H46.464L45.6 13.3677C45.7067 12.845 45.6693 12.381 45.488 11.9757C45.3173 11.5597 45.0507 11.2343 44.688 10.9997C44.336 10.7543 43.92 10.6317 43.44 10.6317C42.96 10.6317 42.5333 10.7543 42.16 10.9997C41.7867 11.2343 41.4987 11.5757 41.296 12.0237C41.0933 12.461 41.0133 12.9943 41.056 13.6237C41.0027 14.2103 41.0827 14.7223 41.296 15.1597C41.52 15.597 41.8293 15.9383 42.224 16.1837C42.6293 16.429 43.088 16.5517 43.6 16.5517C44.1227 16.5517 44.5653 16.4343 44.928 16.1997C45.3013 15.965 45.5947 15.661 45.808 15.2877L47.28 16.0077C47.1093 16.413 46.8427 16.781 46.48 17.1117C46.128 17.4317 45.7013 17.6877 45.2 17.8797C44.7093 18.061 44.1707 18.1517 43.584 18.1517Z" fill="black"/>
<path d="M52.6925 18.1517C51.8072 18.1517 51.0285 17.933 50.3565 17.4957C49.6952 17.0583 49.2312 16.4717 48.9645 15.7357L50.3565 15.0797C50.5912 15.5703 50.9112 15.9597 51.3165 16.2477C51.7325 16.5357 52.1912 16.6797 52.6925 16.6797C53.1192 16.6797 53.4658 16.5837 53.7325 16.3917C53.9992 16.1997 54.1325 15.9383 54.1325 15.6077C54.1325 15.3943 54.0738 15.2237 53.9565 15.0957C53.8392 14.957 53.6898 14.845 53.5085 14.7597C53.3378 14.6743 53.1618 14.6103 52.9805 14.5677L51.6205 14.1837C50.8738 13.9703 50.3138 13.6503 49.9405 13.2237C49.5778 12.7863 49.3965 12.2797 49.3965 11.7037C49.3965 11.181 49.5298 10.7277 49.7965 10.3437C50.0632 9.94899 50.4312 9.64499 50.9005 9.43166C51.3698 9.21832 51.8978 9.11166 52.4845 9.11166C53.2738 9.11166 53.9778 9.30899 54.5965 9.70366C55.2152 10.0877 55.6525 10.6263 55.9085 11.3197L54.5165 11.9757C54.3458 11.5597 54.0738 11.229 53.7005 10.9837C53.3378 10.7383 52.9272 10.6157 52.4685 10.6157C52.0738 10.6157 51.7592 10.7117 51.5245 10.9037C51.2898 11.085 51.1725 11.325 51.1725 11.6237C51.1725 11.8263 51.2258 11.997 51.3325 12.1357C51.4392 12.2637 51.5778 12.3703 51.7485 12.4557C51.9192 12.5303 52.0952 12.5943 52.2765 12.6477L53.6845 13.0637C54.3992 13.2663 54.9485 13.5863 55.3325 14.0237C55.7165 14.4503 55.9085 14.9623 55.9085 15.5597C55.9085 16.0717 55.7698 16.525 55.4925 16.9197C55.2258 17.3037 54.8525 17.6077 54.3725 17.8317C53.8925 18.045 53.3325 18.1517 52.6925 18.1517Z" fill="black"/>
<path d="M61.04 18.1517C60.1547 18.1517 59.376 17.933 58.704 17.4957C58.0427 17.0583 57.5787 16.4717 57.312 15.7357L58.704 15.0797C58.9387 15.5703 59.2587 15.9597 59.664 16.2477C60.08 16.5357 60.5387 16.6797 61.04 16.6797C61.4667 16.6797 61.8133 16.5837 62.08 16.3917C62.3467 16.1997 62.48 15.9383 62.48 15.6077C62.48 15.3943 62.4213 15.2237 62.304 15.0957C62.1867 14.957 62.0373 14.845 61.856 14.7597C61.6853 14.6743 61.5093 14.6103 61.328 14.5677L59.968 14.1837C59.2213 13.9703 58.6613 13.6503 58.288 13.2237C57.9253 12.7863 57.744 12.2797 57.744 11.7037C57.744 11.181 57.8773 10.7277 58.144 10.3437C58.4107 9.94899 58.7787 9.64499 59.248 9.43166C59.7173 9.21832 60.2453 9.11166 60.832 9.11166C61.6213 9.11166 62.3253 9.30899 62.944 9.70366C63.5627 10.0877 64 10.6263 64.256 11.3197L62.864 11.9757C62.6933 11.5597 62.4213 11.229 62.048 10.9837C61.6853 10.7383 61.2747 10.6157 60.816 10.6157C60.4213 10.6157 60.1067 10.7117 59.872 10.9037C59.6373 11.085 59.52 11.325 59.52 11.6237C59.52 11.8263 59.5733 11.997 59.68 12.1357C59.7867 12.2637 59.9253 12.3703 60.096 12.4557C60.2667 12.5303 60.4427 12.5943 60.624 12.6477L62.032 13.0637C62.7467 13.2663 63.296 13.5863 63.68 14.0237C64.064 14.4503 64.256 14.9623 64.256 15.5597C64.256 16.0717 64.1173 16.525 63.84 16.9197C63.5733 17.3037 63.2 17.6077 62.72 17.8317C62.24 18.045 61.68 18.1517 61.04 18.1517Z" fill="black"/>
<path d="M70.2515 18.1517C69.3875 18.1517 68.6195 17.9543 67.9475 17.5597C67.2862 17.1543 66.7688 16.6103 66.3955 15.9277C66.0222 15.2343 65.8355 14.461 65.8355 13.6077C65.8355 12.733 66.0222 11.9597 66.3955 11.2877C66.7795 10.6157 67.2915 10.0877 67.9315 9.70366C68.5715 9.30899 69.2968 9.11166 70.1075 9.11166C70.7582 9.11166 71.3395 9.22366 71.8515 9.44766C72.3635 9.67166 72.7955 9.98099 73.1475 10.3757C73.4995 10.7597 73.7662 11.2023 73.9475 11.7037C74.1395 12.205 74.2355 12.7383 74.2355 13.3037C74.2355 13.4423 74.2302 13.5863 74.2195 13.7357C74.2088 13.885 74.1875 14.0237 74.1555 14.1517H67.2595V12.7117H73.1315L72.2675 13.3677C72.3742 12.845 72.3368 12.381 72.1555 11.9757C71.9848 11.5597 71.7182 11.2343 71.3555 10.9997C71.0035 10.7543 70.5875 10.6317 70.1075 10.6317C69.6275 10.6317 69.2008 10.7543 68.8275 10.9997C68.4542 11.2343 68.1662 11.5757 67.9635 12.0237C67.7608 12.461 67.6808 12.9943 67.7235 13.6237C67.6702 14.2103 67.7502 14.7223 67.9635 15.1597C68.1875 15.597 68.4968 15.9383 68.8915 16.1837C69.2968 16.429 69.7555 16.5517 70.2675 16.5517C70.7902 16.5517 71.2328 16.4343 71.5955 16.1997C71.9688 15.965 72.2622 15.661 72.4755 15.2877L73.9475 16.0077C73.7768 16.413 73.5102 16.781 73.1475 17.1117C72.7955 17.4317 72.3688 17.6877 71.8675 17.8797C71.3768 18.061 70.8382 18.1517 70.2515 18.1517Z" fill="black"/>
<path d="M79.36 18.1517C78.4747 18.1517 77.696 17.933 77.024 17.4957C76.3627 17.0583 75.8987 16.4717 75.632 15.7357L77.024 15.0797C77.2587 15.5703 77.5787 15.9597 77.984 16.2477C78.4 16.5357 78.8587 16.6797 79.36 16.6797C79.7867 16.6797 80.1333 16.5837 80.4 16.3917C80.6667 16.1997 80.8 15.9383 80.8 15.6077C80.8 15.3943 80.7413 15.2237 80.624 15.0957C80.5067 14.957 80.3573 14.845 80.176 14.7597C80.0053 14.6743 79.8293 14.6103 79.648 14.5677L78.288 14.1837C77.5413 13.9703 76.9813 13.6503 76.608 13.2237C76.2453 12.7863 76.064 12.2797 76.064 11.7037C76.064 11.181 76.1973 10.7277 76.464 10.3437C76.7307 9.94899 77.0987 9.64499 77.568 9.43166C78.0373 9.21832 78.5653 9.11166 79.152 9.11166C79.9413 9.11166 80.6453 9.30899 81.264 9.70366C81.8827 10.0877 82.32 10.6263 82.576 11.3197L81.184 11.9757C81.0133 11.5597 80.7413 11.229 80.368 10.9837C80.0053 10.7383 79.5947 10.6157 79.136 10.6157C78.7413 10.6157 78.4267 10.7117 78.192 10.9037C77.9573 11.085 77.84 11.325 77.84 11.6237C77.84 11.8263 77.8933 11.997 78 12.1357C78.1067 12.2637 78.2453 12.3703 78.416 12.4557C78.5867 12.5303 78.7627 12.5943 78.944 12.6477L80.352 13.0637C81.0667 13.2663 81.616 13.5863 82 14.0237C82.384 14.4503 82.576 14.9623 82.576 15.5597C82.576 16.0717 82.4373 16.525 82.16 16.9197C81.8933 17.3037 81.52 17.6077 81.04 17.8317C80.56 18.045 80 18.1517 79.36 18.1517Z" fill="black"/>
<path d="M298.803 16.8097C298.803 17.2515 298.445 17.6096 298.003 17.6096C297.561 17.6096 297.203 17.2515 297.203 16.8097C297.203 16.368 297.561 16.0098 298.003 16.0098C298.445 16.0098 298.803 16.368 298.803 16.8097Z" fill="black"/>
<path d="M309.768 11.4331L298.569 0.233955C298.257 -0.077985 297.753 -0.077985 297.441 0.233955L287.834 9.83323L286.234 11.4331C285.922 11.7451 285.922 12.2491 286.234 12.5611C286.394 12.7211 286.594 12.793 286.802 12.793C287.01 12.793 287.21 12.713 287.37 12.5611L287.602 12.3291V20.0003C287.602 20.4403 287.962 20.8003 288.402 20.8003H295.418C296.321 22.3682 297.329 23.64 297.377 23.7039C297.529 23.8959 297.761 24 298.001 24C298.241 24 298.473 23.888 298.625 23.7039C298.673 23.6479 299.681 22.368 300.585 20.8003H307.601C308.041 20.8003 308.401 20.4403 308.401 20.0003V12.3291L308.633 12.5611C308.793 12.7211 308.993 12.793 309.201 12.793C309.409 12.793 309.609 12.713 309.769 12.5611C310.081 12.2491 310.081 11.745 309.769 11.4331H309.768ZM298.001 21.8643C297.593 21.2883 297.049 20.4805 296.585 19.6164C295.769 18.1205 295.601 17.2566 295.601 16.8006C295.601 15.4807 296.681 14.4008 298.001 14.4008C299.321 14.4008 300.401 15.4807 300.401 16.8006C300.401 17.2644 300.233 18.1285 299.417 19.6164C298.953 20.4803 298.409 21.2883 298.001 21.8563V21.8643ZM306.8 19.2006H301.401C301.801 18.2726 302.001 17.4807 302.001 16.8008C302.001 14.5929 300.209 12.8011 298.001 12.8011C295.793 12.8011 294.002 14.5929 294.002 16.8008C294.002 17.4807 294.21 18.2726 294.602 19.2006H289.202V10.7295L298.002 1.93015L306.801 10.7295L306.8 19.2006Z" fill="black"/>
</svg>
