<svg width="52" height="8" viewBox="0 0 52 8" fill="none" xmlns="http://www.w3.org/2000/svg">
<path d="M0 7.13155V0.101113H1.03311V7.13155H0ZM8.93999 3.54871C8.93999 4.34118 8.78711 5.00298 8.48141 5.53479C8.17571 6.06398 7.73219 6.46317 7.15099 6.73236C6.57316 6.99826 5.87101 7.13155 5.04452 7.13155H3.02371V0.101113H5.2713C6.02382 0.101113 6.67396 0.232425 7.22159 0.495706C7.76921 0.755047 8.1925 1.1411 8.49152 1.65453C8.79048 2.16402 8.93999 2.79563 8.93999 3.54871ZM7.85652 3.57759C7.85652 2.97487 7.75407 2.47852 7.5491 2.08721C7.34419 1.6959 7.04352 1.4057 6.64706 1.21661C6.25061 1.02424 5.76519 0.928376 5.19066 0.928376H4.05675V6.29509H5.00922C5.96004 6.29509 6.67224 6.06727 7.14597 5.61228C7.61969 5.15663 7.85652 4.47839 7.85652 3.57759ZM16.4689 3.54871C16.4689 4.34118 16.316 5.00298 16.0103 5.53479C15.7046 6.06398 15.2611 6.46317 14.6799 6.73236C14.1021 6.99826 13.3999 7.13155 12.5735 7.13155H10.5526V0.101113H12.8002C13.5528 0.101113 14.2028 0.232425 14.7505 0.495706C15.2981 0.755047 15.7214 1.1411 16.0204 1.65453C16.3194 2.16402 16.4689 2.79563 16.4689 3.54871ZM15.3855 3.57759C15.3855 2.97487 15.283 2.47852 15.078 2.08721C14.8731 1.6959 14.5724 1.4057 14.176 1.21661C13.7795 1.02424 13.2941 0.928376 12.7196 0.928376H11.5857V6.29509H12.5382C13.4889 6.29509 14.2012 6.06727 14.6749 5.61228C15.1486 5.15663 15.3855 4.47839 15.3855 3.57759ZM18.0815 7.13155V0.101113H19.1146V7.13155H18.0815ZM24.1692 3.38063H26.83V6.84791C26.4437 6.97266 26.0456 7.06721 25.6356 7.13155C25.2258 7.19589 24.7655 7.22741 24.2549 7.22741C23.4956 7.22741 22.8556 7.08363 22.3348 6.79474C21.8141 6.50651 21.4177 6.09287 21.1455 5.55449C20.8767 5.01546 20.7424 4.36809 20.7424 3.61174C20.7424 2.88361 20.8919 2.24872 21.1909 1.70706C21.4899 1.16539 21.925 0.745191 22.4961 0.447113C23.0672 0.149035 23.756 0 24.5623 0C24.9654 0 25.3517 0.0367635 25.7214 0.110955C26.0943 0.184489 26.4369 0.286916 26.7494 0.418228L26.3765 1.25009C26.1144 1.13848 25.8238 1.04393 25.5046 0.966454C25.1888 0.886354 24.8613 0.846306 24.522 0.846306C23.9576 0.846306 23.4721 0.960545 23.0656 1.18771C22.6624 1.41554 22.3516 1.73594 22.1332 2.14958C21.9182 2.56321 21.8108 3.05366 21.8108 3.62093C21.8108 4.17572 21.9014 4.6596 22.0829 5.07323C22.2643 5.48686 22.5481 5.80925 22.9346 6.0397C23.3209 6.27081 23.8181 6.38635 24.4262 6.38635C24.732 6.38635 24.9923 6.36994 25.2073 6.33842C25.4257 6.30625 25.6256 6.26751 25.807 6.22287V4.24137H24.1692V3.38063ZM28.6039 7.13155V0.101113H29.637V7.13155H28.6039ZM34.0364 7.13155H32.9983V0.952012H30.7608V0.101113H36.2689V0.952012H34.0364V7.13155ZM41.6006 5.24197C41.6006 5.65823 41.4914 6.01606 41.2731 6.31414C41.058 6.60893 40.754 6.83478 40.3609 6.99235C39.9678 7.14927 39.5008 7.22741 38.96 7.22741C38.6878 7.22741 38.4275 7.21362 38.1788 7.18474C37.9336 7.15913 37.7052 7.12039 37.4935 7.06918C37.2818 7.01797 37.0903 6.95363 36.919 6.87681V5.94383C37.1978 6.05282 37.5204 6.15525 37.8865 6.25177C38.2527 6.34434 38.6307 6.39095 39.0204 6.39095C39.3597 6.39095 39.6436 6.34762 39.8721 6.26095C40.1039 6.17166 40.2786 6.04626 40.3962 5.88606C40.5138 5.72586 40.5726 5.53348 40.5726 5.30894C40.5726 5.0844 40.5154 4.89727 40.4012 4.74626C40.287 4.59263 40.1056 4.45147 39.857 4.32344C39.6117 4.19476 39.2892 4.05885 38.8894 3.91441C38.6106 3.81855 38.3569 3.70956 38.1285 3.58744C37.9 3.4627 37.7018 3.31957 37.5338 3.15936C37.3692 2.99916 37.2415 2.81139 37.1508 2.5967C37.0601 2.37872 37.0147 2.12857 37.0147 1.8469C37.0147 1.45888 37.1139 1.12665 37.3121 0.851556C37.5136 0.575801 37.7941 0.365703 38.1536 0.22126C38.5131 0.0735344 38.9297 0 39.4034 0C39.7931 0 40.156 0.0367635 40.4919 0.110955C40.8313 0.184489 41.1538 0.285607 41.4595 0.413636L41.1319 1.23105C40.8464 1.11878 40.5591 1.02751 40.2702 0.957261C39.9813 0.886353 39.6823 0.851556 39.3732 0.851556C39.0876 0.851556 38.8457 0.891611 38.6475 0.971712C38.4527 1.05181 38.3032 1.16539 38.199 1.31312C38.0982 1.46019 38.0478 1.63483 38.0478 1.83705C38.0478 2.06488 38.1016 2.25397 38.2091 2.40432C38.3166 2.55533 38.4862 2.69124 38.718 2.81336C38.9499 2.93482 39.2522 3.06482 39.6252 3.2027C40.0451 3.35633 40.4012 3.52047 40.6935 3.69315C40.9892 3.86648 41.2142 4.0746 41.3688 4.31819C41.5234 4.56177 41.6006 4.8697 41.6006 5.24197ZM43.057 7.13155V0.101113H44.0901V7.13155H43.057ZM51.9971 3.54871C51.9971 4.34118 51.8444 5.00298 51.5382 5.53479C51.2327 6.06398 50.7889 6.46317 50.2082 6.73236C49.6302 6.99826 48.9277 7.13155 48.1014 7.13155H46.0807V0.101113H48.3284C49.0811 0.101113 49.7307 0.232425 50.2783 0.495706C50.826 0.755047 51.2492 1.1411 51.5485 1.65453C51.8478 2.16402 51.9971 2.79563 51.9971 3.54871ZM50.9134 3.57759C50.9134 2.97487 50.8109 2.47852 50.6059 2.08721C50.4015 1.6959 50.1001 1.4057 49.7038 1.21661C49.3075 1.02424 48.8224 0.928376 48.2479 0.928376H47.114V6.29509H48.0663C49.0172 6.29509 49.7293 6.06727 50.2027 5.61228C50.6767 5.15663 50.9134 4.47839 50.9134 3.57759Z" fill="white"/>
</svg>
