<svg width="30" height="24" viewBox="0 0 30 24" fill="none" xmlns="http://www.w3.org/2000/svg">
<path d="M17.5608 23.2472C17.5608 23.663 17.2238 24 16.8084 24C16.3926 24 16.0555 23.663 16.0555 23.2472C16.0555 19.6955 13.4334 17.9792 8.78041 17.9792C4.12741 17.9792 1.50528 19.6955 1.50528 23.2472C1.50528 23.663 1.16825 24 0.752465 24C0.337034 24 0 23.663 0 23.2472C0 18.6974 3.3966 16.4739 8.78044 16.4739C14.1643 16.4739 17.5608 18.6973 17.5608 23.2472ZM8.78039 15.4705C6.00469 15.4705 4.01395 12.3965 4.01395 9.19875C4.01395 6.10454 5.97737 3.42857 8.78039 3.42857C11.5834 3.42857 13.5468 6.10454 13.5468 9.19875C13.5468 12.3965 11.5561 15.4705 8.78039 15.4705ZM8.78039 13.9652C10.553 13.9652 12.0415 11.6669 12.0415 9.19875C12.0415 6.85276 10.6335 4.93379 8.78039 4.93379C6.92727 4.93379 5.51926 6.85276 5.51926 9.19875C5.51926 11.6669 7.00772 13.9652 8.78039 13.9652Z" fill="black"/>
<path d="M29.5608 19.8186C29.5608 20.2344 29.2238 20.5714 28.8083 20.5714C28.3926 20.5714 28.0555 20.2344 28.0555 19.8186C28.0555 16.2669 25.4334 14.5506 20.7804 14.5506C16.1274 14.5506 14.9999 16.2857 14.1428 18.8571C14.1428 19.2729 13.2729 18.4286 12.8571 18.4286C12.4417 18.4286 12.8572 18.4286 12.8571 18C12.8567 15.6921 15.3966 13.0453 20.7804 13.0453C26.1643 13.0453 29.5608 15.2687 29.5608 19.8186ZM20.7804 12.0419C18.0047 12.0419 16.0139 8.96796 16.0139 5.77018C16.0139 2.67597 17.9774 0 20.7804 0C23.5834 0 25.5468 2.67597 25.5468 5.77018C25.5468 8.96796 23.5561 12.0419 20.7804 12.0419ZM20.7804 10.5366C22.553 10.5366 24.0415 8.23829 24.0415 5.77018C24.0415 3.42419 22.6335 1.50522 20.7804 1.50522C18.9273 1.50522 17.5192 3.42419 17.5192 5.77018C17.5192 8.23829 19.0077 10.5366 20.7804 10.5366Z" fill="black"/>
</svg>
