<svg width="28" height="15" viewBox="0 0 28 15" fill="none" xmlns="http://www.w3.org/2000/svg">
<path d="M0.292141 0.295531C0.479721 0.106392 0.735098 0 1.00165 0C1.26819 0 1.52356 0.106392 1.71115 0.295531L13.9913 12.586L26.2715 0.295531C26.5251 0.0421562 26.8945 -0.0568762 27.2407 0.0359097C27.587 0.128695 27.8574 0.399021 27.9502 0.745416C28.0429 1.09158 27.9439 1.46092 27.6905 1.71455L14.7006 14.7045C14.513 14.8936 14.2577 15 13.9911 15C13.7246 15 13.4692 14.8936 13.2816 14.7045L0.291689 1.71455C0.102551 1.52697 -0.0038414 1.27159 -0.0038414 1.00504C-0.0038414 0.738495 0.102551 0.483128 0.291689 0.295536L0.292141 0.295531Z" fill="white"/>
</svg>
