<svg width="25" height="25" viewBox="0 0 25 25" fill="none" xmlns="http://www.w3.org/2000/svg">
<path d="M4.43863 1.42527C4.38901 1.44141 4.34377 1.4411 4.30414 1.433C4.29066 1.43025 4.27658 1.42613 4.269 1.42381H4.21457C3.54305 1.70301 2.94403 2.35051 2.47281 3.15947C1.99751 3.97543 1.66413 4.93563 1.52139 5.79087C1.14096 8.42555 2.02817 10.9102 3.49499 13.1185C4.96229 15.3274 7.00242 17.2484 8.90404 18.7471L4.43863 1.42527ZM4.43863 1.42527C4.64381 1.45661 4.88956 1.57672 5.13816 1.73599C5.38623 1.89492 5.62062 2.08181 5.79729 2.22623L5.88893 2.31787L5.89834 2.32728L5.90925 2.33491C6.45233 2.71505 6.94903 3.18813 7.44861 3.66395C7.53332 3.74463 7.61812 3.82539 7.70323 3.90579L7.70316 3.90587L7.70749 3.90967L7.96497 4.13504C8.35068 4.48851 8.6604 4.79986 8.90731 5.2011L8.90761 5.2016C9.1823 5.64419 9.2332 5.97479 9.1517 6.315C9.06609 6.67236 8.83304 7.05268 8.49056 7.59084C8.24055 7.9333 7.44619 8.8512 7.11149 9.1923C7.1042 9.19582 7.09704 9.19989 7.09007 9.20454C7.05882 9.22537 7.03989 9.25206 7.02885 9.27412C7.02693 9.27797 7.02521 9.28175 7.02365 9.28545C6.98296 9.33542 6.92934 9.40996 6.90544 9.52281C6.87805 9.65212 6.8927 9.81272 6.96393 10.0285C7.10517 10.4565 7.48934 11.1599 8.36302 12.3896L8.36358 12.3904C8.95141 13.2067 9.60436 13.9575 10.3548 14.6754L10.3551 14.6757C11.0418 15.3295 11.8895 15.9817 12.8006 16.5675C14.0782 17.473 14.8236 17.8501 15.2794 17.9748C15.5097 18.0378 15.6795 18.0402 15.8115 18.002C15.9452 17.9633 16.0206 17.8878 16.0641 17.8443L16.0658 17.8426L17.0361 16.8723L17.0362 16.8722L17.0432 16.8652C17.1687 16.7395 17.3003 16.6076 17.432 16.4434C17.6264 16.2328 17.8198 16.0246 18.0186 15.8641C18.2179 15.7031 18.4049 15.6049 18.5839 15.5906H18.6104C18.7217 15.5906 18.8748 15.6354 19.0633 15.7258C19.2485 15.8145 19.4535 15.9401 19.6644 16.0853C20.086 16.3757 20.5175 16.7351 20.8407 17.0098L20.8405 17.0101L20.848 17.0157C21.0419 17.161 21.198 17.2872 21.3336 17.397C21.3773 17.4323 21.4188 17.4659 21.4588 17.4978L21.4598 17.4986C21.4915 17.5235 21.5234 17.5486 21.5556 17.5737C21.9859 17.9112 22.4502 18.2754 22.8245 18.6826C23.2267 19.1203 23.5073 19.5894 23.5367 20.1046L23.5368 20.106C23.5503 20.3084 23.4832 20.5536 23.3246 20.8437C23.1667 21.1325 22.9246 21.454 22.6057 21.8048C21.2581 23.2776 19.4491 23.7707 17.1673 23.2707C14.8756 22.7684 12.1156 21.2646 8.90435 18.7474L4.43863 1.42527ZM8.13423 19.795C12.0922 22.9005 15.503 24.5682 18.3058 24.7577L18.2745 24.776H18.8367C20.6904 24.776 22.2831 24.079 23.5731 22.658C24.4268 21.771 24.8777 20.86 24.843 20.0251L24.843 20.0251L24.8428 20.0221C24.7916 19.1851 24.3986 18.4915 23.8962 17.9143C23.3949 17.3385 22.7759 16.8687 22.2595 16.4814L22.2533 16.4767L22.2466 16.4727C22.0981 16.3835 21.9141 16.2309 21.6851 16.0348L21.6851 16.0347L21.6832 16.0331L21.6767 16.0278C21.211 15.6423 20.6883 15.2096 20.1636 14.8776C19.6402 14.5464 19.0899 14.2986 18.5732 14.3164L18.5728 14.3164C17.6498 14.3505 17.0336 15.0501 16.5646 15.5826C16.5519 15.5971 16.5393 15.6114 16.5268 15.6256C16.46 15.6927 16.4016 15.7593 16.3467 15.8221L16.3454 15.8236C16.2883 15.8887 16.2349 15.9497 16.1744 16.0102L15.4747 16.7099C14.9531 16.4462 13.8862 15.7813 13.5572 15.542L13.5574 15.5417L13.5488 15.5363C12.6847 14.9923 11.9168 14.3844 11.2774 13.7771C10.6013 13.1009 9.96215 12.3971 9.45235 11.6644L9.45262 11.6642L9.44628 11.6563C9.3222 11.5011 9.07515 11.1429 8.82883 10.7593C8.61167 10.421 8.40167 10.0733 8.28051 9.83638C8.6521 9.42704 9.30065 8.68521 9.55077 8.31031C9.88845 7.81192 10.2445 7.27264 10.3892 6.65947C10.5366 6.03543 10.4631 5.34754 9.97451 4.55557L9.97404 4.55482C9.64154 4.02281 9.27529 3.65656 8.85749 3.23876L8.85299 3.23427L8.59421 2.97549L8.59426 2.97544L8.59111 2.97247L8.55009 2.93372C7.98006 2.39516 7.34005 1.79048 6.66683 1.30979L6.66688 1.30973L6.66289 1.30706L6.57134 1.24596C6.32934 1.0523 6.02538 0.814185 5.691 0.611896C5.3566 0.409595 4.98188 0.236898 4.59839 0.183648C4.42369 0.149386 4.06786 0.112855 3.73813 0.258191C2.67478 0.681203 1.86897 1.61192 1.29906 2.63283C0.727589 3.65655 0.3825 4.78989 0.250573 5.64735L0.250565 5.64735L0.250349 5.64886C-0.176996 8.62383 0.786178 11.3698 2.35584 13.763C3.92493 16.1554 6.10591 18.2048 8.13423 19.795Z" fill="black" stroke="black" stroke-width="0.3"/>
<path d="M19.9579 7.35188V7.19988H19.8059H17.2733V4.63505V4.48306H17.1213H16.151H15.999V4.63505V7.19988H13.4341H13.2821V7.35188V8.32225V8.47424H13.4341H15.999V11.0068V11.1588H16.151H17.1213H17.2733V11.0068V8.47424H19.8059H19.9579V8.32225V7.35188Z" fill="black" stroke="black" stroke-width="0.3"/>
</svg>
