<svg width="24" height="18" viewBox="0 0 24 18" fill="none" xmlns="http://www.w3.org/2000/svg">
<path d="M3.58401 0H20.416C21.402 0 22.2983 0.403327 22.9479 1.0528C23.5967 1.70231 24 2.59864 24 3.58466V13.9889C24 14.9756 23.5967 15.8713 22.9479 16.5208C22.2983 17.1703 21.402 17.5729 20.416 17.5729H17.78L13.7423 17.5728C11.9996 17.5728 14.8564 17.5728 13.8857 17.5728C12.9143 17.5728 10.9288 17.5728 8.97725 17.5728L6.22004 17.5729H3.58401C2.59798 17.5729 1.70165 17.1703 1.05215 16.5208C0.40334 15.8713 0 14.975 0 13.9889V3.58466C0 2.59798 0.403327 1.70231 1.05215 1.0528C1.70165 0.403296 2.59798 0 3.58401 0ZM11.4374 13.2004C11.4374 12.8897 11.6894 12.6112 12.0001 12.6112C12.3108 12.6112 12.5628 12.8897 12.5628 13.2004C12.5628 13.5112 12.3108 13.7631 12.0001 13.7631C11.6894 13.7631 11.4374 13.5112 11.4374 13.2004ZM11.4374 4.37232C11.4374 4.06158 11.6894 3.80962 12.0001 3.80962C12.3108 3.80962 12.5628 4.06159 12.5628 4.37232V10.7581C12.5628 11.0688 12.3108 11.3156 12.0001 11.3156C11.6894 11.3156 11.4374 11.0681 11.4374 10.7581V4.37232ZM16.1893 17.5728H7.80982H10.6008C11.716 17.5728 13.2017 17.5728 13.8857 17.5728C14.569 17.5728 9.96122 17.5728 11.2949 17.5728H16.1897H16.1893ZM20.4161 1.12479H3.5841C2.90813 1.12479 2.294 1.4017 1.84798 1.84772C1.40196 2.29374 1.12505 2.90857 1.12505 3.58383V13.9881C1.12505 14.6641 1.40196 15.2791 1.84798 15.7242C2.294 16.1702 2.90883 16.4471 3.5841 16.4471H20.4161C21.092 16.4471 21.7062 16.1702 22.1522 15.7242C22.5982 15.2782 22.8751 14.6634 22.8751 13.9881V3.58383C22.8751 2.90787 22.5982 2.29287 22.1522 1.84772C21.7062 1.4017 21.0913 1.12479 20.4161 1.12479Z" fill="black"/>
</svg>
