<svg width="24" height="22" viewBox="0 0 24 22" fill="none" xmlns="http://www.w3.org/2000/svg">
<path d="M12.8684 0.000201111C7.94214 0.000201111 3.75125 3.16317 2.28865 7.56012L1.25781 5.72736C1.12742 5.48678 0.863139 5.35058 0.591434 5.38359C0.367367 5.40892 0.17119 5.54606 0.0703138 5.74781C-0.0305625 5.94957 -0.0224286 6.18875 0.0916979 6.38331L1.92447 9.65297C2.09833 9.96675 2.48975 10.0865 2.80958 9.92376L6.06877 8.25766C6.23379 8.18212 6.3607 8.04242 6.42045 7.87112C6.48018 7.69958 6.4674 7.51131 6.38512 7.34953C6.30283 7.18776 6.15803 7.06666 5.98439 7.0139C5.81076 6.96137 5.62319 6.98182 5.4649 7.07061L3.528 8.05986C4.78852 4.16565 8.48536 1.33299 12.8689 1.33299C18.295 1.33299 22.6679 5.65627 22.6679 10.9964C22.6679 16.3364 18.2953 20.6597 12.8689 20.6597C8.22664 20.6597 4.35212 17.4779 3.33045 13.2248V13.225C3.30627 13.0379 3.20424 12.8698 3.0492 12.7622C2.89439 12.6546 2.70124 12.6179 2.51739 12.6609C2.33376 12.7036 2.1771 12.8224 2.08575 12.9875C1.99464 13.1527 1.97767 13.3487 2.03903 13.5269C3.20423 18.3772 7.61677 21.9925 12.8687 21.9925C19.0059 21.9925 24 17.0663 24 10.9963C24 4.92624 19.0052 0 12.8687 0L12.8684 0.000201111ZM12.9309 4.98802C12.5876 5.02568 12.33 5.31948 12.3375 5.66488V10.9965V10.9963C12.3373 11.199 12.4293 11.3905 12.5874 11.5169L15.9196 14.1828C16.2071 14.4129 16.6266 14.3661 16.8567 14.0786C17.0869 13.7911 17.0401 13.3715 16.7526 13.1414L13.6703 10.6734V5.66464V5.66488C13.6745 5.47288 13.5957 5.28856 13.4539 5.15886C13.3123 5.02916 13.1217 4.96687 12.9309 4.98802H12.9309Z" fill="black"/>
</svg>
