<svg width="48" height="48" viewBox="0 0 48 48" fill="none" xmlns="http://www.w3.org/2000/svg">
<rect width="48" height="48" rx="24" fill="#F17544"/>
<path d="M23.9105 16.6017C23.5963 16.6054 23.2967 16.7061 23.0777 16.8815C22.8586 17.057 22.7381 17.2927 22.7423 17.5373V25.8447C22.7378 26.0918 22.861 26.33 23.084 26.5059C23.3071 26.6819 23.6115 26.781 23.9291 26.781C24.247 26.781 24.5514 26.6819 24.7744 26.5059C24.9975 26.33 25.1204 26.0918 25.1159 25.8447V17.5373C25.1204 17.2878 24.9948 17.0475 24.7675 16.8712C24.5405 16.695 24.2314 16.5977 23.9105 16.6017Z" fill="black"/>
<path d="M23.9105 16.6017C23.5963 16.6054 23.2967 16.7061 23.0777 16.8815C22.8586 17.057 22.7381 17.2927 22.7423 17.5373V25.8447C22.7378 26.0918 22.861 26.33 23.084 26.5059C23.3071 26.6819 23.6115 26.781 23.9291 26.781C24.247 26.781 24.5514 26.6819 24.7744 26.5059C24.9975 26.33 25.1204 26.0918 25.1159 25.8447V17.5373C25.1204 17.2878 24.9948 17.0475 24.7675 16.8712C24.5405 16.695 24.2314 16.5977 23.9105 16.6017Z" fill="black"/>
<path fill-rule="evenodd" clip-rule="evenodd" d="M25.1158 30.4602C25.1158 30.9699 24.5844 31.3832 23.929 31.3832C23.2736 31.3832 22.7422 30.9699 22.7422 30.4602C22.7422 29.9504 23.2736 29.5371 23.929 29.5371C24.5844 29.5371 25.1158 29.9504 25.1158 30.4602Z" fill="black"/>
<path d="M23.9282 12C20.3739 12 17.6915 11.9981 15.5746 12.184C13.4574 12.3698 11.8073 12.7568 10.6372 13.6677C9.46714 14.5786 8.97174 15.8618 8.73418 17.5078C8.49656 19.1536 8.5 21.2387 8.5 23.9998C8.5 26.7615 8.49894 28.847 8.74107 30.4938C8.98319 32.1403 9.48759 33.4241 10.6603 34.334C11.8331 35.2436 13.4808 35.6299 15.5953 35.816C17.7098 36.0018 20.3878 36 23.9286 36C27.4693 36 30.1467 36.0016 32.2618 35.8144C34.3766 35.6271 36.027 35.236 37.1992 34.3251C38.3714 33.4144 38.8739 32.1325 39.1161 30.4868C39.3582 28.8412 39.3571 26.7573 39.3571 24.0002C39.3571 21.2436 39.3606 19.1603 39.123 17.5151C38.8853 15.8701 38.3892 14.5871 37.2199 13.6749C36.0506 12.763 34.4023 12.3732 32.2849 12.1857C30.1675 11.9984 27.4832 12.0001 23.9286 12.0001L23.9282 12ZM23.9282 13.8461C27.4809 13.8461 30.1302 13.8541 32.0153 14.021C33.9006 14.1879 34.9242 14.4992 35.5385 14.9783C36.1528 15.4573 36.5531 16.2549 36.7648 17.7204C36.9764 19.1857 36.9825 21.2439 36.9825 23.9998C36.9825 26.7551 36.9711 28.8124 36.7552 30.2776C36.5396 31.7423 36.138 32.5392 35.5197 33.0197C34.9014 33.5 33.8746 33.8119 31.9917 33.9788C30.1088 34.1457 27.4665 34.1538 23.9277 34.1538C20.3885 34.1538 17.7445 34.148 15.8609 33.9825C13.9777 33.8171 12.9528 33.506 12.3353 33.0269C11.7178 32.5479 11.3154 31.7505 11.0998 30.2848C10.8841 28.8193 10.8725 26.7601 10.8725 24.0002C10.8725 21.2397 10.8786 19.1799 11.0902 17.7139C11.3019 16.248 11.7027 15.4514 12.3165 14.9736C12.93 14.4958 13.9517 14.1837 15.8374 14.018C17.723 13.8526 20.3741 13.8468 23.9271 13.8468L23.9282 13.8461Z" fill="black"/>
</svg>
