<svg width="29" height="33" viewBox="0 0 29 33" fill="none" xmlns="http://www.w3.org/2000/svg">
<path d="M14.346 32.9995C12.6735 32.9995 11.0165 32.5085 9.71228 31.5419L3.11468 26.6167C1.36555 25.3125 0 22.5814 0 20.418V9.00266C0 6.6398 1.73379 4.1235 3.95856 3.29497L11.6148 0.425776C13.1338 -0.141925 15.5274 -0.141925 17.0464 0.425776L24.7027 3.29497C26.9274 4.1235 28.6612 6.6398 28.6612 9.00266V20.4027C28.6612 22.5814 27.2957 25.2972 25.5465 26.6014L18.9489 31.5266C17.6754 32.5085 16.0184 32.9995 14.346 32.9995ZM12.428 2.58918L4.77175 5.45837C3.46758 5.94935 2.31683 7.60642 2.31683 9.018V20.418C2.31683 21.8757 3.34483 23.9163 4.49558 24.7755L11.0932 29.7007C12.8577 31.0202 15.8342 31.0202 17.6141 29.7007L24.2117 24.7755C25.3778 23.901 26.3904 21.8757 26.3904 20.418V9.00266C26.3904 7.60642 25.2397 5.94935 23.9355 5.44302L16.2792 2.57383C15.2359 2.20559 13.456 2.20559 12.428 2.58918Z" fill="#101010"/>
<path d="M12.2877 19.9112C11.9962 19.9112 11.7047 19.8038 11.4745 19.5737L9.00426 17.1034C8.5593 16.6585 8.5593 15.922 9.00426 15.477C9.44921 15.0321 10.1857 15.0321 10.6306 15.477L12.2877 17.1341L18.0721 11.3497C18.5171 10.9047 19.2536 10.9047 19.6985 11.3497C20.1435 11.7947 20.1435 12.5311 19.6985 12.9761L13.1009 19.5737C12.8708 19.8038 12.5792 19.9112 12.2877 19.9112Z" fill="#101010"/>
</svg>
