<svg width="24" height="24" viewBox="0 0 24 24" fill="none" xmlns="http://www.w3.org/2000/svg">
<path d="M15 22.75H9C4.59 22.75 3.25 21.41 3.25 17V7C3.25 2.59 4.59 1.25 9 1.25H15C19.41 1.25 20.75 2.59 20.75 7V17C20.75 21.41 19.41 22.75 15 22.75ZM9 2.75C5.42 2.75 4.75 3.43 4.75 7V17C4.75 20.57 5.42 21.25 9 21.25H15C18.58 21.25 19.25 20.57 19.25 17V7C19.25 3.43 18.58 2.75 15 2.75H9Z" fill="black"/>
<path d="M14 6.25H10C9.59 6.25 9.25 5.91 9.25 5.5C9.25 5.09 9.59 4.75 10 4.75H14C14.41 4.75 14.75 5.09 14.75 5.5C14.75 5.91 14.41 6.25 14 6.25Z" fill="black"/>
<path d="M12.0031 19.8598C10.7331 19.8598 9.70312 18.8298 9.70312 17.5598C9.70312 16.2898 10.7331 15.2598 12.0031 15.2598C13.2731 15.2598 14.3031 16.2898 14.3031 17.5598C14.3031 18.8298 13.2731 19.8598 12.0031 19.8598ZM12.0031 16.7498C11.5631 16.7498 11.2031 17.1098 11.2031 17.5498C11.2031 17.9898 11.5631 18.3498 12.0031 18.3498C12.4431 18.3498 12.8031 17.9898 12.8031 17.5498C12.8031 17.1098 12.4431 16.7498 12.0031 16.7498Z" fill="black"/>
</svg>
