<svg width="24" height="24" viewBox="0 0 24 24" fill="none" xmlns="http://www.w3.org/2000/svg">
<path d="M12.803 16.8097C12.803 17.2515 12.4448 17.6096 12.0031 17.6096C11.5613 17.6096 11.2031 17.2515 11.2031 16.8097C11.2031 16.368 11.5613 16.0098 12.0031 16.0098C12.4448 16.0098 12.803 16.368 12.803 16.8097Z" fill="black"/>
<path d="M23.7685 11.4331L12.5693 0.233955C12.2574 -0.077985 11.7533 -0.077985 11.4413 0.233955L1.83383 9.83323L0.233955 11.4331C-0.077985 11.7451 -0.077985 12.2491 0.233955 12.5611C0.393943 12.7211 0.593928 12.793 0.801958 12.793C1.00999 12.793 1.20996 12.713 1.36996 12.5611L1.60191 12.3291V20.0003C1.60191 20.4403 1.96188 20.8003 2.40185 20.8003H9.41755C10.3214 22.3682 11.3294 23.64 11.3774 23.7039C11.5294 23.8959 11.7613 24 12.0013 24C12.2412 24 12.4732 23.888 12.6251 23.7039C12.6732 23.6479 13.6811 22.368 14.585 20.8003H21.6007C22.0406 20.8003 22.4006 20.4403 22.4006 20.0003V12.3291L22.6326 12.5611C22.7925 12.7211 22.9925 12.793 23.2006 12.793C23.4086 12.793 23.6086 12.713 23.7686 12.5611C24.0805 12.2491 24.0805 11.745 23.7686 11.4331H23.7685ZM12.0011 21.8643C11.5931 21.2883 11.0492 20.4805 10.5851 19.6164C9.7691 18.1205 9.6013 17.2566 9.6013 16.8006C9.6013 15.4807 10.6812 14.4008 12.0011 14.4008C13.321 14.4008 14.4009 15.4807 14.4009 16.8006C14.4009 17.2644 14.2329 18.1285 13.4171 19.6164C12.9532 20.4803 12.4091 21.2883 12.0011 21.8563V21.8643ZM20.8005 19.2006H15.4011C15.8011 18.2726 16.001 17.4807 16.001 16.8008C16.001 14.5929 14.2092 12.8011 12.0013 12.8011C9.79346 12.8011 8.00165 14.5929 8.00165 16.8008C8.00165 17.4807 8.20967 18.2726 8.6016 19.2006H3.20223V10.7295L12.0016 1.93015L20.8009 10.7295L20.8005 19.2006Z" fill="black"/>
</svg>
