<svg width="99" height="32" viewBox="0 0 99 32" fill="none" xmlns="http://www.w3.org/2000/svg">
<path d="M75.1635 0.381606V31.2299H71.7065L71.8397 0.381606H75.1635ZM87.5667 0.202772C95.1895 0.202772 99.0012 5.34416 99.0012 15.6269C99.0012 20.1872 97.9965 23.9725 95.9874 26.9827C95.0125 28.4728 93.6975 29.6502 92.0431 30.5146C90.4179 31.3489 88.5567 31.7664 86.4586 31.7664C83.12 31.7664 80.6822 31.4237 79.146 30.738L79.2792 0.739272C81.7014 0.381605 84.4642 0.202772 87.5667 0.202772ZM86.0157 28.8603C89.2956 28.8603 91.6887 27.6233 93.1954 25.1496C94.7022 22.6461 95.4559 19.427 95.4559 15.4928C95.4559 7.23676 92.4718 3.10876 86.5033 3.10876L82.603 3.28759V28.6369C83.4303 28.7859 84.5679 28.8603 86.0157 28.8603Z" fill="black"/>
<path d="M29.7042 14.6202C29.7042 13.7557 29.4384 13.1 28.9063 12.653C28.3745 12.2059 27.6656 11.9823 26.779 11.9823C25.0062 11.9823 23.6176 12.7275 22.6129 14.2176C21.6085 15.6783 21.0321 17.4515 20.8845 19.538C26.7643 19.538 29.7042 17.8987 29.7042 14.6202ZM25.8928 31.5644C20.3377 31.5644 17.5605 27.9877 17.5605 20.8344C17.5605 17.556 18.3731 14.8436 19.998 12.6977C21.6527 10.5517 23.972 9.4787 26.9564 9.4787C28.7882 9.4787 30.236 9.92583 31.2999 10.8199C32.393 11.6843 32.9396 12.8915 32.9396 14.4413C32.9396 15.9614 32.5701 17.2132 31.8317 18.1966C31.1225 19.1505 30.1476 19.8808 28.9063 20.3876C26.5722 21.3412 23.8686 21.818 20.7958 21.818C20.7958 26.557 22.6721 28.9266 26.4246 28.9266C28.3155 28.9266 30.1031 28.4049 31.7872 27.3617L32.2749 29.1055C31.5362 29.8506 30.561 30.4467 29.3497 30.8938C28.1676 31.3407 27.0153 31.5644 25.8928 31.5644ZM46.1744 28.7925L46.6178 30.7597C45.5241 31.2962 44.2095 31.5644 42.6732 31.5644C40.4867 31.5644 39.0389 30.9683 38.3297 29.7761C37.6208 28.5839 37.2661 26.6911 37.2661 24.098V12.3847H33.7204V10.4623L37.2661 10.0152V5.36562L40.4573 4.82912V10.0152H46.1744V12.3847H40.4573V23.1144C40.4573 25.8864 40.6933 27.5703 41.1662 28.1664C41.7569 28.8521 42.5548 29.1948 43.5595 29.1948C44.5639 29.1948 45.4355 29.0607 46.1744 28.7925ZM53.5051 29.1055C54.8048 29.1055 55.8984 28.8073 56.7847 28.2112C57.6713 27.5854 58.1144 26.7062 58.1144 25.5736C58.1144 24.3814 57.5528 23.4423 56.4303 22.7569C55.8687 22.429 55.1892 22.1011 54.3914 21.7732C53.5938 21.4157 53.1062 21.192 52.9291 21.1027C51.4515 20.4469 50.2992 19.6722 49.4719 18.7779C48.6743 17.8838 48.2753 16.6171 48.2753 14.9778C48.2753 13.3087 48.94 11.9823 50.2697 10.9988C51.5994 9.98544 53.1651 9.4787 54.9677 9.4787C56.77 9.4787 58.3949 9.8364 59.843 10.5517L59.3554 12.5636C57.8778 12.1463 56.5631 11.9377 55.4108 11.9377C54.288 11.9377 53.313 12.2059 52.4857 12.7424C51.6581 13.2491 51.2447 13.9645 51.2447 14.8884C51.2447 15.8124 51.5252 16.5427 52.0867 17.0791C52.648 17.5856 53.2243 17.9731 53.8154 18.2414C54.4359 18.5096 55.0858 18.7927 55.7656 19.0909C56.4745 19.3591 56.9323 19.5529 57.1394 19.6722C57.346 19.7914 57.7299 20.0149 58.2918 20.3428C58.8531 20.6407 59.237 20.9237 59.4441 21.192C59.6801 21.4602 59.9462 21.818 60.2417 22.2652C60.803 23.0103 61.0837 24.0684 61.0837 25.4392C61.0837 27.4065 60.3598 28.9266 58.9123 29.9995C57.4642 31.0428 55.6177 31.5644 53.3722 31.5644C51.156 31.5644 49.1911 30.8191 47.4775 29.3289L47.9651 27.5406C49.6492 28.5839 51.4957 29.1055 53.5051 29.1055Z" fill="black"/>
<path d="M8.42098 0C11.1098 0 13.2813 0.700409 14.936 2.10125C16.5907 3.47228 17.418 5.43944 17.418 8.00266C17.418 13.8445 13.6508 16.8102 6.11634 16.8995L3.45696 16.9443V31.0272H0L0.133168 0.5365C1.96492 0.178833 4.72772 0 8.42098 0ZM7.80048 2.90599C5.55505 2.90599 4.10722 2.96563 3.45696 3.08482V14.1723L6.20503 14.1275C11.3167 14.0382 13.8723 12.0711 13.8723 8.22616C13.8723 4.67937 11.8485 2.90599 7.80048 2.90599Z" fill="black"/>
<path d="M66.0901 31.0278C67.7589 31.0278 69.1118 29.6629 69.1118 27.9793C69.1118 26.296 67.7589 24.9311 66.0901 24.9311C64.4212 24.9311 63.068 26.296 63.068 27.9793C63.068 29.6629 64.4212 31.0278 66.0901 31.0278Z" fill="black"/>
</svg>
