<svg width="309" height="28" viewBox="0 0 309 28" fill="none" xmlns="http://www.w3.org/2000/svg">
<path d="M0 19.8634V7.94336H3.904C5.14133 7.94336 6.21333 8.19403 7.12 8.69536C8.03733 9.18603 8.74667 9.87936 9.248 10.7754C9.74933 11.6714 10 12.7114 10 13.8954C10 15.0687 9.74933 16.1087 9.248 17.0154C8.74667 17.9114 8.03733 18.61 7.12 19.1114C6.21333 19.6127 5.14133 19.8634 3.904 19.8634H0ZM1.888 18.1834H3.936C4.77867 18.1834 5.50933 18.0074 6.128 17.6554C6.75733 17.3034 7.24267 16.8074 7.584 16.1674C7.92533 15.5274 8.096 14.77 8.096 13.8954C8.096 13.0207 7.92 12.2687 7.568 11.6394C7.22667 10.9994 6.74667 10.5034 6.128 10.1514C5.50933 9.79936 4.77867 9.62336 3.936 9.62336H1.888V18.1834Z" fill="black"/>
<path d="M16.0194 20.0554C15.1874 20.0554 14.4247 19.858 13.7314 19.4634C13.0487 19.0687 12.5047 18.53 12.0994 17.8474C11.694 17.1647 11.4914 16.3914 11.4914 15.5274C11.4914 14.6527 11.694 13.8794 12.0994 13.2074C12.5047 12.5247 13.0487 11.9914 13.7314 11.6074C14.414 11.2127 15.1767 11.0154 16.0194 11.0154C16.8727 11.0154 17.6354 11.2127 18.3074 11.6074C18.99 11.9914 19.5287 12.5247 19.9234 13.2074C20.3287 13.8794 20.5314 14.6527 20.5314 15.5274C20.5314 16.402 20.3287 17.1807 19.9234 17.8634C19.518 18.546 18.974 19.0847 18.2914 19.4794C17.6087 19.8634 16.8514 20.0554 16.0194 20.0554ZM16.0194 18.3754C16.5314 18.3754 16.9847 18.2527 17.3794 18.0074C17.774 17.762 18.0834 17.426 18.3074 16.9994C18.542 16.562 18.6594 16.0714 18.6594 15.5274C18.6594 14.9834 18.542 14.498 18.3074 14.0714C18.0834 13.6447 17.774 13.3087 17.3794 13.0634C16.9847 12.818 16.5314 12.6954 16.0194 12.6954C15.518 12.6954 15.0647 12.818 14.6594 13.0634C14.2647 13.3087 13.95 13.6447 13.7154 14.0714C13.4914 14.498 13.3794 14.9834 13.3794 15.5274C13.3794 16.0714 13.4914 16.562 13.7154 16.9994C13.95 17.426 14.2647 17.762 14.6594 18.0074C15.0647 18.2527 15.518 18.3754 16.0194 18.3754Z" fill="black"/>
<path d="M26.5685 20.0554C25.7045 20.0554 24.9365 19.858 24.2645 19.4634C23.6032 19.058 23.0752 18.514 22.6805 17.8314C22.2965 17.1487 22.1045 16.3754 22.1045 15.5114C22.1045 14.658 22.2965 13.89 22.6805 13.2074C23.0645 12.5247 23.5925 11.9914 24.2645 11.6074C24.9365 11.2127 25.7045 11.0154 26.5685 11.0154C27.1552 11.0154 27.7045 11.122 28.2165 11.3354C28.7285 11.538 29.1712 11.8207 29.5445 12.1834C29.9285 12.546 30.2112 12.9674 30.3925 13.4474L28.8085 14.1834C28.6272 13.7354 28.3338 13.378 27.9285 13.1114C27.5338 12.834 27.0805 12.6954 26.5685 12.6954C26.0778 12.6954 25.6352 12.818 25.2405 13.0634C24.8565 13.298 24.5525 13.634 24.3285 14.0714C24.1045 14.498 23.9925 14.9834 23.9925 15.5274C23.9925 16.0714 24.1045 16.562 24.3285 16.9994C24.5525 17.426 24.8565 17.762 25.2405 18.0074C25.6352 18.2527 26.0778 18.3754 26.5685 18.3754C27.0912 18.3754 27.5445 18.242 27.9285 17.9754C28.3232 17.698 28.6165 17.33 28.8085 16.8714L30.3925 17.6234C30.2218 18.082 29.9445 18.498 29.5605 18.8714C29.1872 19.234 28.7445 19.522 28.2325 19.7354C27.7205 19.9487 27.1658 20.0554 26.5685 20.0554Z" fill="black"/>
<path d="M35.4076 20.0554C34.757 20.0554 34.1863 19.9114 33.6956 19.6234C33.205 19.3247 32.821 18.914 32.5436 18.3914C32.277 17.858 32.1436 17.2447 32.1436 16.5514V11.2074H33.9516V16.3914C33.9516 16.786 34.0316 17.1327 34.1916 17.4314C34.3516 17.73 34.5756 17.9647 34.8636 18.1354C35.1516 18.2954 35.4823 18.3754 35.8556 18.3754C36.2396 18.3754 36.5756 18.29 36.8636 18.1194C37.1516 17.9487 37.3756 17.7087 37.5356 17.3994C37.7063 17.09 37.7916 16.7274 37.7916 16.3114V11.2074H39.5836V19.8634H37.8716V18.1674L38.0636 18.3914C37.861 18.9247 37.525 19.3354 37.0556 19.6234C36.5863 19.9114 36.037 20.0554 35.4076 20.0554Z" fill="black"/>
<path d="M41.8546 19.8634V11.2074H43.5826V13.0794L43.3586 12.7914C43.54 12.2047 43.8706 11.762 44.3506 11.4634C44.8306 11.1647 45.38 11.0154 45.9986 11.0154C46.692 11.0154 47.3053 11.202 47.8386 11.5754C48.3826 11.938 48.7453 12.4234 48.9266 13.0314L48.4146 13.0794C48.6706 12.386 49.06 11.8687 49.5826 11.5274C50.116 11.186 50.724 11.0154 51.4066 11.0154C52.004 11.0154 52.5426 11.154 53.0226 11.4314C53.5133 11.7087 53.9026 12.0927 54.1906 12.5834C54.4786 13.074 54.6226 13.634 54.6226 14.2634V19.8634H52.8146V14.7594C52.8146 14.322 52.7346 13.954 52.5746 13.6554C52.4253 13.346 52.212 13.1114 51.9346 12.9514C51.668 12.7807 51.3533 12.6954 50.9906 12.6954C50.628 12.6954 50.308 12.7807 50.0306 12.9514C49.7533 13.1114 49.5346 13.346 49.3746 13.6554C49.2146 13.9647 49.1346 14.3327 49.1346 14.7594V19.8634H47.3426V14.7594C47.3426 14.322 47.2626 13.954 47.1026 13.6554C46.9533 13.346 46.74 13.1114 46.4626 12.9514C46.196 12.7807 45.876 12.6954 45.5026 12.6954C45.14 12.6954 44.82 12.7807 44.5426 12.9514C44.2653 13.1114 44.0466 13.346 43.8866 13.6554C43.7373 13.9647 43.6626 14.3327 43.6626 14.7594V19.8634H41.8546Z" fill="black"/>
<path d="M60.7817 20.0554C59.9178 20.0554 59.1498 19.858 58.4778 19.4634C57.8164 19.058 57.2991 18.514 56.9258 17.8314C56.5524 17.138 56.3657 16.3647 56.3657 15.5114C56.3657 14.6367 56.5524 13.8634 56.9258 13.1914C57.3097 12.5194 57.8218 11.9914 58.4618 11.6074C59.1017 11.2127 59.8271 11.0154 60.6378 11.0154C61.2884 11.0154 61.8698 11.1274 62.3818 11.3514C62.8938 11.5754 63.3258 11.8847 63.6778 12.2794C64.0298 12.6634 64.2964 13.106 64.4777 13.6074C64.6697 14.1087 64.7657 14.642 64.7657 15.2074C64.7657 15.346 64.7604 15.49 64.7497 15.6394C64.7391 15.7887 64.7177 15.9274 64.6857 16.0554H57.7897V14.6154H63.6618L62.7977 15.2714C62.9044 14.7487 62.8671 14.2847 62.6857 13.8794C62.5151 13.4634 62.2484 13.138 61.8857 12.9034C61.5337 12.658 61.1178 12.5354 60.6378 12.5354C60.1578 12.5354 59.7311 12.658 59.3577 12.9034C58.9844 13.138 58.6964 13.4794 58.4938 13.9274C58.2911 14.3647 58.2111 14.898 58.2537 15.5274C58.2004 16.114 58.2804 16.626 58.4938 17.0634C58.7178 17.5007 59.0271 17.842 59.4217 18.0874C59.8271 18.3327 60.2858 18.4554 60.7978 18.4554C61.3204 18.4554 61.7631 18.338 62.1258 18.1034C62.4991 17.8687 62.7924 17.5647 63.0057 17.1914L64.4777 17.9114C64.3071 18.3167 64.0404 18.6847 63.6778 19.0154C63.3258 19.3354 62.8991 19.5914 62.3978 19.7834C61.9071 19.9647 61.3684 20.0554 60.7817 20.0554Z" fill="black"/>
<path d="M66.6902 19.8634V11.2074H68.4182V12.9034L68.2102 12.6794C68.4236 12.1354 68.7649 11.7247 69.2342 11.4474C69.7036 11.1594 70.2476 11.0154 70.8662 11.0154C71.5062 11.0154 72.0716 11.154 72.5622 11.4314C73.0529 11.7087 73.4369 12.0927 73.7142 12.5834C73.9916 13.074 74.1302 13.6394 74.1302 14.2794V19.8634H72.3382V14.7594C72.3382 14.322 72.2582 13.954 72.0982 13.6554C71.9382 13.346 71.7089 13.1114 71.4102 12.9514C71.1222 12.7807 70.7916 12.6954 70.4183 12.6954C70.0449 12.6954 69.7089 12.7807 69.4102 12.9514C69.1222 13.1114 68.8982 13.346 68.7382 13.6554C68.5782 13.9647 68.4982 14.3327 68.4982 14.7594V19.8634H66.6902Z" fill="black"/>
<path d="M79.9693 19.9594C79.0626 19.9594 78.3586 19.7034 77.8573 19.1914C77.3559 18.6794 77.1052 17.9594 77.1052 17.0314V12.8394H75.5853V11.2074H75.8252C76.2306 11.2074 76.5452 11.09 76.7692 10.8554C76.9932 10.6207 77.1052 10.3007 77.1052 9.89536V9.22336H78.9133V11.2074H80.8812V12.8394H78.9133V16.9514C78.9133 17.25 78.9613 17.506 79.0573 17.7194C79.1533 17.922 79.3079 18.082 79.5212 18.1994C79.7346 18.306 80.0119 18.3594 80.3532 18.3594C80.4386 18.3594 80.5346 18.354 80.6413 18.3434C80.7479 18.3327 80.8493 18.322 80.9453 18.3114V19.8634C80.7959 19.8847 80.6306 19.906 80.4492 19.9274C80.2679 19.9487 80.1079 19.9594 79.9693 19.9594Z" fill="black"/>
<path d="M86.0696 20.0554C85.1843 20.0554 84.4056 19.8367 83.7336 19.3994C83.0723 18.962 82.6083 18.3754 82.3416 17.6394L83.7336 16.9834C83.9683 17.474 84.2883 17.8634 84.6936 18.1514C85.1096 18.4394 85.5683 18.5834 86.0696 18.5834C86.4963 18.5834 86.8429 18.4874 87.1096 18.2954C87.3763 18.1034 87.5096 17.842 87.5096 17.5114C87.5096 17.298 87.451 17.1274 87.3336 16.9994C87.2163 16.8607 87.067 16.7487 86.8856 16.6634C86.715 16.578 86.539 16.514 86.3576 16.4714L84.9976 16.0874C84.251 15.874 83.691 15.554 83.3176 15.1274C82.955 14.69 82.7736 14.1834 82.7736 13.6074C82.7736 13.0847 82.907 12.6314 83.1736 12.2474C83.4403 11.8527 83.8083 11.5487 84.2776 11.3354C84.7469 11.122 85.275 11.0154 85.8616 11.0154C86.651 11.0154 87.355 11.2127 87.9736 11.6074C88.5923 11.9914 89.0296 12.53 89.2856 13.2234L87.8936 13.8794C87.723 13.4634 87.451 13.1327 87.0776 12.8874C86.715 12.642 86.3043 12.5194 85.8456 12.5194C85.451 12.5194 85.1363 12.6154 84.9016 12.8074C84.667 12.9887 84.5496 13.2287 84.5496 13.5274C84.5496 13.73 84.603 13.9007 84.7096 14.0394C84.8163 14.1674 84.9549 14.274 85.1256 14.3594C85.2963 14.434 85.4723 14.498 85.6536 14.5514L87.0616 14.9674C87.7763 15.17 88.3256 15.49 88.7096 15.9274C89.0936 16.354 89.2856 16.866 89.2856 17.4634C89.2856 17.9754 89.147 18.4287 88.8696 18.8234C88.603 19.2074 88.2296 19.5114 87.7496 19.7354C87.2696 19.9487 86.7096 20.0554 86.0696 20.0554Z" fill="black"/>
<path d="M304.327 28C306.898 28 309 25.8972 309 23.3268V7.94416V7.7885C309 7.71054 308.962 7.67169 308.922 7.59373C308.922 7.59373 308.922 7.55488 308.884 7.55488C308.845 7.47692 308.806 7.43807 308.767 7.39923L301.212 0.233619C301.173 0.194773 301.134 0.155656 301.056 0.116809C301.056 0.116809 301.017 0.116809 301.017 0.0779636C300.939 0.0391182 300.9 0.0391181 300.822 0H300.784H300.667H290.931C288.361 0 286.258 2.10281 286.258 4.67315V23.2882C286.258 25.8585 288.361 27.9613 290.931 27.9613H304.328L304.327 28ZM301.445 2.60882L306.274 7.12634L301.445 7.12607V2.60882ZM287.815 23.3268V4.71178C287.815 2.99819 289.217 1.59622 290.931 1.59622H299.888V7.94409C299.888 8.37248 300.238 8.72289 300.667 8.72289H307.443V23.3267C307.443 25.0403 306.041 26.4423 304.327 26.4423H290.931C289.217 26.4423 287.815 25.0403 287.815 23.3267L287.815 23.3268Z" fill="black"/>
<path d="M291.904 16.1221H298.329C298.758 16.1221 299.108 15.7716 299.108 15.3433C299.108 14.9149 298.758 14.5645 298.329 14.5645H291.904C291.475 14.5645 291.125 14.9149 291.125 15.3433C291.125 15.7716 291.475 16.1221 291.904 16.1221Z" fill="black"/>
<path d="M291.904 21.6123H303.392C303.821 21.6123 304.171 21.2619 304.171 20.8335C304.171 20.4051 303.821 20.0547 303.392 20.0547H291.904C291.475 20.0547 291.125 20.4051 291.125 20.8335C291.125 21.2619 291.475 21.6123 291.904 21.6123Z" fill="black"/>
</svg>
