<svg width="23" height="28" viewBox="0 0 23 28" fill="none" xmlns="http://www.w3.org/2000/svg">
<path d="M18.0695 28C20.6398 28 22.7426 25.8972 22.7426 23.3268V7.94416V7.7885C22.7426 7.71054 22.7038 7.67169 22.6647 7.59373C22.6647 7.59373 22.6647 7.55488 22.6258 7.55488C22.587 7.47692 22.5479 7.43807 22.509 7.39923L14.954 0.233619C14.9151 0.194773 14.876 0.155656 14.7983 0.116809C14.7983 0.116809 14.7595 0.116809 14.7595 0.0779636C14.6815 0.0391182 14.6426 0.0391181 14.5647 0H14.5258H14.409H4.67315C2.10281 0 0 2.10281 0 4.67315V23.2882C0 25.8585 2.10281 27.9613 4.67315 27.9613H18.0697L18.0695 28ZM15.1876 2.60882L20.0166 7.12634L15.1876 7.12607V2.60882ZM1.55735 23.3268V4.71178C1.55735 2.99819 2.95932 1.59622 4.6729 1.59622H13.6299V7.94409C13.6299 8.37248 13.9803 8.72289 14.4087 8.72289H21.185V23.3267C21.185 25.0403 19.783 26.4423 18.0694 26.4423H4.67283C2.95925 26.4423 1.55728 25.0403 1.55728 23.3267L1.55735 23.3268Z" fill="black"/>
<path d="M5.64599 16.1221H12.0715C12.4999 16.1221 12.8503 15.7716 12.8503 15.3433C12.8503 14.9149 12.4999 14.5645 12.0715 14.5645H5.64599C5.2176 14.5645 4.86719 14.9149 4.86719 15.3433C4.86719 15.7716 5.21762 16.1221 5.64599 16.1221Z" fill="black"/>
<path d="M5.64599 21.6123H17.1343C17.5627 21.6123 17.9131 21.2619 17.9131 20.8335C17.9131 20.4051 17.5627 20.0547 17.1343 20.0547H5.64599C5.2176 20.0547 4.86719 20.4051 4.86719 20.8335C4.86719 21.2619 5.21762 21.6123 5.64599 21.6123Z" fill="black"/>
</svg>
