<svg width="24" height="24" viewBox="0 0 24 24" fill="none" xmlns="http://www.w3.org/2000/svg">
<path d="M21.679 20.5813C21.679 21.7021 20.768 22.6472 19.6471 22.6472H3.38707C2.26597 22.6472 1.35515 21.7021 1.35515 20.5813L1.35493 4.32594C1.35493 3.20516 2.26598 2.32763 3.38686 2.32763H12.8714L12.8716 0.974121H3.38707C1.51917 0.974121 0 2.45988 0 4.32725V20.581C0 22.4484 1.51917 24.0002 3.38707 24.0002H19.6455C21.5134 24.0002 23.0325 22.4471 23.0325 20.581V11.1324H21.6773V20.581L21.679 20.5813Z" fill="black"/>
<path d="M23.2059 0.768053C22.1828 -0.256018 20.3978 -0.256018 19.3734 0.768053L10.2848 9.85413C10.1983 9.94059 10.1359 10.05 10.1067 10.1682L9.15004 13.9984C9.09274 14.2286 9.16026 14.4728 9.32812 14.6421C9.45656 14.7706 9.62974 14.8406 9.80654 14.8406C9.86128 14.8406 9.91602 14.8342 9.97077 14.8202L13.8033 13.8623C13.9228 13.8332 14.031 13.7708 14.1174 13.6843L23.2061 4.59823C23.7175 4.08694 24 3.40636 24 2.68251C24 1.95893 23.7186 1.27957 23.2059 0.768053ZM13.2927 12.5941L10.7378 13.2327L11.3767 10.6786L18.8954 3.16199L20.8117 5.07771L13.2927 12.5941ZM22.2478 3.63992L21.7694 4.11821L19.8531 2.20248L20.3315 1.7242C20.843 1.2129 21.7363 1.2129 22.2478 1.7242C22.5036 1.97995 22.6448 2.31962 22.6448 2.68203C22.6448 3.04469 22.5036 3.38441 22.2478 3.63992Z" fill="black"/>
</svg>
